<?xml version="1.0" encoding="UTF-8"?>
<svg width="1e3" height="1e3" version="1.0" viewBox="0 0 750 750" xml:space="preserve" xmlns="http://www.w3.org/2000/svg" zoomAndPan="magnify"><g transform="matrix(.3889 0 0 .38842 223.05 196.09)"><g transform="translate(-.30248 240.49)"><path d="m-3.8902 313.6h812.54v90.763h-812.54z" fill="#fff" stroke-width="1.853"/><path d="m948.02-411.94c-99.243-1.773-200.82 52.519-244.03 143.74 45.512 28.911 78.621 76.967 119.21 113.47-185.65-123.27-424.56-139.94-638-95.017-46.135 9.3549-117 40.618-133.17 35.115 79.277-62.368-20.002-125.73-73.166-159.44-174.48-104.77-426.81 18.939-457.19 218.56-20.504 114.77 45.688 237.5 151.6 284.79 96.789-15.314 4.7666 86.075 14.474 142.68-25.861 178.08 42.785 379.56 205.96 470.24 179.46 102.82 393.6 109.44 595.11 105.72 182.36-9.8874 386.16-50.415 506.51-200.8 122.01-165.16 114.83-400.19 24.487-578.01-15.38-31.38-52.971-82.395-7.4318-31.664 41.855 24.06 70.787 119.54 125 72.076 137.2-73.246 165.67-273.82 68.29-390.84-59.849-79.55-157.65-130.91-257.65-130.62zm-168.71 740.37c71.29 43.346-26.462 87.829-42.22 17.902 6.0914-9.6893 30.386-17.82 42.22-17.902zm-703.91-2.4822c31.916 17.362-1.7726 104.49-39.072 45.596-12.885-24.5 16.782-51.344 39.072-45.596z" fill="#c46d29"/><path d="m361.8 674.25c-58.51-3.0363-106.3-14.067-138.35-31.929-27.234-15.182-45.015-33.384-57.753-59.122-11.017-22.261-16.219-44.391-17.579-74.777-2.2691-50.723 6.1889-90.104 26.851-125.02 25.157-42.513 67.598-75.291 121.2-93.605 79.063-27.013 178.38-20.722 247.1 15.654 62.974 33.334 101.96 88.152 110.59 155.5 3.012 23.512 3.0343 52.452 0.0559 72.516-13.239 89.186-80.89 133.69-214.12 140.86-15.929 0.85724-60.851 0.81281-78-0.0771zm-317.31-303.49-1.8182-2.0625 2.0625 1.8182c1.1344 1 2.0625 1.9282 2.0625 2.0625 0 0.58821-0.60735 0.10949-2.3068-1.8182zm34.461-32.25c-0.9329-1.1895-0.90638-1.2161 0.28317-0.28317 1.2493 0.97978 1.6466 1.5957 1.0293 1.5957-0.15574 0-0.74637-0.59063-1.3125-1.3125zm-34.779-0.9375c0.74662-0.825 1.5262-1.5 1.7325-1.5s-0.23587 0.675-0.98248 1.5c-0.74661 0.825-1.5262 1.5-1.7325 1.5s0.23587-0.675 0.98248-1.5zm16.327-7.2697c0.72973-0.19016 1.7422-0.17766 2.25 0.0278 0.50778 0.20544-0.08927 0.36102-1.3268 0.34574-1.2375-0.0153-1.653-0.18338-0.92323-0.37353zm988.62-316.89c-55.647-96.527-130.82-173.22-224.57-229.1-6.3938-3.8113-12.063-7.1949-12.598-7.5191-0.72196-0.43758 0.35259-2.6183 4.1708-8.4644 37.718-57.751 110.51-84.954 183.57-68.609 62.317 13.94 115.82 58.672 138.57 115.86 17.074 42.913 17.391 85.669 0.9324 125.65-13.708 33.299-39.652 61.413-72.606 78.68-11.612 6.0844-9.8467 6.7407-17.478-6.496zm-1334.6 6.0637c-8.38-4.5046-15.875-9.2655-22.125-14.054-45.767-35.064-68.419-91.496-59.924-149.29 5.5297-37.62 23.998-73.857 52.049-102.13 58.526-58.989 147.22-75.765 217.87-41.208 22.518 11.014 41.164 26.064 56.294 45.437 4.0312 5.1618 12.331 17.696 12.331 18.622 0 0.16648-2.4469 1.7373-5.4375 3.4907-79.759 46.763-151.07 111.26-207.01 187.22-9.4951 12.894-24.341 35.019-31.249 46.572-3.0212 5.0526-5.5341 9.1819-5.5841 9.1762-0.05-0.0057-3.2972-1.7339-7.216-3.8404z" fill="#f4bb5b"/><path d="m-65.39 574.15c-15.873-2.1596-31.82-7.3552-43.397-14.138-6.5026-3.81-14.369-11.505-17.305-16.928-2.0067-3.7065-2.2332-4.8098-2.2332-10.875 0-6.2567 0.18668-7.0943 2.5545-11.461 17.394-32.079 97.078-42.912 142.95-19.435 10.924 5.5916 19.225 12.896 22.703 19.978 1.769 3.6021 2.0471 5.085 2.0471 10.918 0 8.6336-1.6564 12.254-8.9492 19.561-11.244 11.266-30.876 19.287-54.918 22.439-10.612 1.3911-33.016 1.3612-43.448-0.0581zm886.44 0.36288c-18.542-2.1611-37.304-8.4964-49.338-16.66-22.684-15.388-21.976-37.294 1.7025-52.611 38.806-25.103 116.1-20.933 144.12 7.7759 23.961 24.55-3.156 54.321-55.711 61.163-9.5048 1.2374-31.467 1.416-40.77 0.33161z" fill="#e89b22"/><path d="m343.8 903.04c-59.743-1.4509-125.98-7.8994-185.25-18.036-63.422-10.846-132.69-29.155-186.38-49.263-105.08-39.357-190.57-100.25-247.16-176.04-35.976-48.183-63.093-107.36-78.71-171.75-20.311-83.751-21.084-177.25-2.1997-266.06 3.0286-14.242 7.2655-31.298 10.715-43.133l1.805-6.193-12.109-5.8544c-77.377-37.409-136.48-102.35-162.58-178.63-10.666-31.176-15.638-61.694-15.638-95.985 0-51.811 11.564-100.37 35.683-149.85 17.458-35.813 40.21-67.712 68.261-95.699 62.314-62.176 143.9-100.37 232.43-108.82 15.83-1.51 47.496-1.5132 62.707-6e-3 44.233 4.3817 85.179 16.211 123.29 35.618 19.585 9.9727 32.833 18.229 49.125 30.615 35.766 27.192 64.992 61.869 83.715 99.332 2.3134 4.6287 4.3004 8.5205 4.4156 8.6485 0.11522 0.12801 3.7048-0.78513 7.9768-2.0292 46.708-13.602 106.83-24.514 163.39-29.652 117.17-10.645 243.29-0.16591 346.73 28.808 5.92 1.6583 11.084 3.0151 11.476 3.0151s1.8597-2.4469 3.2623-5.4375c5.59-11.919 18.979-33.754 27.71-45.188 27.959-36.618 65.658-67.614 108.13-88.904 36.903-18.499 79.275-30.607 121.76-34.794 15.632-1.5406 47.048-1.5542 63.054-0.0275 58.481 5.5782 113.48 23.906 163.25 54.396 84.566 51.812 143.68 133.64 165.23 228.73 9.13 40.278 10.314 84.019 3.36 124.12-16.895 97.435-87.2 184.02-183.72 226.26-5.1562 2.2567-9.9256 4.2981-10.599 4.5365-1.0887 0.38566-0.9005 1.7417 1.7078 12.304 8.9576 36.272 14.739 73.619 17.567 113.48 2.2406 31.582 0.9368 82.153-3.0554 118.51-10.953 99.764-43.652 188.39-93.848 254.36-19.682 25.868-47.198 53.823-73.79 74.967-81.457 64.77-190.63 109.99-318.36 131.86-10.307 1.7648-41.512 6.5403-49.875 7.6329-18.085 2.3626-35.741 4.5584-41.625 5.1765-21.396 2.2479-29.93 3.0664-42.75 4.1001-7.8375 0.63196-16.275 1.3286-18.75 1.5481-12.806 1.1357-46.693 2.7221-71.625 3.3531-30.869 0.78122-45.468 0.77506-78.75-0.0332zm115.27-57.711c113.24-3.1574 204.41-17.255 294.13-45.479 107.8-33.912 189.89-88.337 244.76-162.27 69.006-92.982 98.498-230.85 79.659-372.38-17.108-128.52-76.992-250.42-168.79-343.57-85.422-86.684-191.02-142.51-323.15-170.85-28.6-6.1334-67.729-12.051-99.375-15.03-29.348-2.7622-47.082-3.5826-85.619-3.9604-47.666-0.4674-76.399 0.80265-115.01 5.0835-143.96 15.963-270.29 65.175-368.04 143.38-20.704 16.563-33.172 27.782-53.501 48.139-49.549 49.617-88.522 104.2-118.86 166.46-47.33 97.136-66.238 200.73-55.802 305.73 8.7478 88.009 38.258 168.1 85.135 231.05 20.618 27.688 48.57 56.107 74.945 76.196 83.813 63.84 192.42 103.88 334.12 123.18 79.942 10.889 191.15 16.673 275.4 14.324zm-132.52-314.58c-3.0938-0.5531-7.8188-1.5753-10.5-2.2716-13.976-3.6295-34.345-15.012-39.018-21.805-8.8005-12.791-5.3961-30.59 7.1431-37.347 2.4374-1.3132 4.266-1.6164 9.75-1.6164 7.1953 0 10.654 1.1896 15.681 5.3928 5.4682 4.5726 19.535 10.262 28.43 11.5 17.785 2.4736 31.136-8.9923 36.165-31.057 0.64592-2.8344 1.0732-5.6441 0.94943-6.2437-0.12373-0.59964-2.25-1.7601-4.725-2.5788-21.068-6.9687-34.875-21.33-34.875-36.274 0-24.448 35.461-43.951 74.051-40.727 14.72 1.2297 27.351 4.8841 37.675 10.9 6.7451 3.9304 14.999 12.237 17.714 17.827 1.9682 4.0527 2.1854 5.2455 2.1854 12 0 10.032-1.8425 14.113-9.9622 22.066-6.3069 6.178-14.854 11.187-24.393 14.296-5.0858 1.6573-5.1037 1.6729-4.635 4.0258 0.88604 4.4484 3.5703 12.112 6.2021 17.708 4.8694 10.353 13.779 17.04 23.771 17.842 9.8664 0.79198 23.438-3.3016 33.561-10.123 7.6112-5.1286 12.134-6.9398 17.331-6.9398 6.3254 0 10.793 1.932 15.621 6.7552 3.2355 3.2322 4.5294 5.1962 5.4375 8.2542 3.2485 10.939-0.76071 21.761-11.175 30.163-7.9724 6.4324-21.653 12.652-35.588 16.18-7.2367 1.8322-9.1825 2.006-22.545 2.0136-12.926 7e-3 -15.366-0.19203-21-1.7157-12.979-3.5098-24.775-10.55-33.748-20.143l-4.677-4.9997-3.8413 4.3793c-8.7139 9.9342-21.9 17.998-34.983 21.393-8.0527 2.0899-27.291 2.7015-36 1.1445zm-292.88-65.689c-34.476-3.6808-63.353-30.045-70.448-64.317-3.468-16.753-1.3454-34.766 5.908-50.136 10.858-23.008 30.566-39.064 55.335-45.083 8.4851-2.0617 29.59-1.8432 37.837 0.39177 29.432 7.9759 51.087 29.717 58.847 59.083 1.542 5.8354 1.7685 8.3929 1.7553 19.825-0.0138 11.966-0.19597 13.777-2.0623 20.504-9.0477 32.61-36.356 55.966-69.798 59.695-7.8323 0.87335-9.5118 0.87698-17.374 0.0376zm38.363-89.478c4.5681-2.3148 9.5935-7.6566 11.594-12.324 2.2783-5.3151 2.082-13.873-0.44061-19.205-2.2525-4.7615-7.3096-9.6997-12.26-11.972-4.8982-2.2481-14.097-2.2566-18.974-0.0177-5.0333 2.3111-9.2823 6.4929-11.881 11.693-1.9363 3.8749-2.2771 5.4094-2.2766 10.25 0.0011 10.944 6.3161 19.579 16.874 23.072 4.5446 1.5037 12.856 0.78729 17.363-1.4966zm673.76 89.397c-12.093-1.3995-25.402-6.2917-35.774-13.15-5.3756-3.5543-15.089-12.726-19.388-18.307-12.287-15.95-18.379-37.431-16.17-57.018 3.8508-34.142 27.269-61.43 60.456-70.444 9.3637-2.5435 26.045-2.8911 36.375-0.75797 30.49 6.296 54.093 28.923 62.353 59.774 2.4447 9.1315 2.7636 25.314 0.69646 35.343-7.2062 34.964-35.357 60.65-70.8 64.602-8.0173 0.89398-9.6811 0.88988-17.748-0.0437zm38.787-89.422c14.154-7.1724 17.593-25.832 6.9136-37.517-5.0546-5.5305-9.7344-7.5463-17.577-7.5712-5.0664-0.0161-6.6606 0.30539-10.245 2.0658-5.0798 2.4946-9.1297 6.7669-11.666 12.307-1.606 3.5078-1.8276 4.9222-1.601 10.215 0.37196 8.6869 3.9846 15.06 11.005 19.413 6.6363 4.1154 16.3 4.5688 23.17 1.0872zm323.09-255.52c42.851-17.834 79.601-46.86 105.4-83.247 37.497-52.886 53.68-121.71 44.168-187.84-15.484-107.63-100.07-203.72-212.35-241.22-21.458-7.1654-41.535-11.629-65.843-14.637-14.378-1.7794-47.406-1.7776-62.625 3e-3 -54.985 6.4347-103.64 26.083-143.62 57.998-8.4445 6.7404-25.027 22.935-32.102 31.352-11.243 13.374-23.289 31.008-29.229 42.786l-2.2876 4.5363 8.747 3.2578c14.282 5.3194 39.16 16.13 55.997 24.333 118.95 57.957 210.81 144.2 276.99 260.06 17.568 30.756 32.638 62.935 44.82 95.705 2.0295 5.4594 3.9039 9.9313 4.1653 9.9375 0.2614 6e-3 3.76-1.3558 7.7747-3.0266zm-1430.3-6.8996c9.4246-23.176 25.923-57.175 37.802-77.901 54.858-95.717 130.04-176.06 220.63-235.79 40.778-26.884 81.348-47.922 127.31-66.021 5.0531-1.9896 9.1875-3.9944 9.1875-4.4551 0-2.7983-16.701-28.77-26.3-40.9-7.1163-8.9922-26.851-29.026-35.2-35.734-37.175-29.868-82.124-49.556-130.56-57.189-17.714-2.7913-26.28-3.4047-46.815-3.3524-26.828 0.0684-45.757 2.3505-70.804 8.5365-118.9 29.364-213.14 123.46-235.51 235.14-3.6432 18.193-4.8404 30.775-4.8508 50.978-9e-3 17.333 0.64624 26.369 3.0178 41.625 8.3224 53.536 32.625 102.26 69.22 138.78 19.043 19.003 38.848 33.167 63.885 45.69 8.2817 4.1422 15.305 7.5313 15.607 7.5313s1.8194-3.1219 3.3711-6.9375z" fill="#41130d"/></g></g></svg>
