<?xml version="1.0" encoding="UTF-8"?>
<svg width="1e3" height="1e3" version="1.0" viewBox="0 0 750 750" xml:space="preserve" xmlns="http://www.w3.org/2000/svg" zoomAndPan="magnify"><g transform="matrix(.52939 0 0 .52946 407.33 263.46)"><path d="m-71.745 681.43c-2.6812-0.14591-12.638-0.61857-22.125-1.0504-30.662-1.3955-80.31-6.184-113.25-10.923-81.338-11.701-138.11-27.394-190.12-52.552-64.235-31.069-120.93-75.757-150.53-140.21l-21.49-73.425-2.8919-81.012c-1.9181-53.732 13.24-111.81 34.512-163.12 22.803-55.003 54.495-103.31 94.643-144.27 35.263-35.974 69.219-60.709 112.88-82.226 25.792-12.711 51.484-22.599 78-30.022 56.97-15.947 112.65-22.616 179.25-21.467 115.95 2.0007 210.95 22.438 292.12 62.841 23.844 11.868 41.897 23.021 62.625 38.686 89.438 67.592 147.7 172.1 162.34 291.21 9.314 69.093 5.3492 150.72-27.807 209.88-22.227 44.638-56.227 78.93-102.61 110.78-20.953 14.389-54.885 32.132-81.417 42.574-59.284 23.331-133.26 38.477-211.5 43.303-12.451 0.7679-82.941 1.5351-92.625 1.0081zm-465.31-613.88c-1.5267-4.6361-7.4439-41.66-9.7562-61.045-8.19-68.66-4.5214-161.74 8.1016-205.56 8.3078-28.839 22.26-50.548 36.964-57.512 5.1243-2.427 5.1259-2.4272 16.75-2.3456 10.777 0.0757 12.366 0.27624 21.774 2.7488 28.954 7.6093 71.591 26.521 105.73 46.895 19.406 11.583 43.698 28.51 60.475 42.141 8.8817 7.2161 26.191 22.39 29.795 26.12l2.8956 2.9964-6.6456 1.9891c-15.606 4.671-38.073 12.728-51.218 18.368-3.8896 1.6689-7.3481 3.0343-7.6855 3.0343-0.33738 0-3.7362-2.3152-7.553-5.1449-31.429-23.301-67.84-41.457-91.315-45.532-13.96-2.4233-22.171 0.0448-30.886 9.284-10.372 10.994-16.775 28.859-20.615 57.518-2.4648 18.393-1.4782 70.735 1.668 88.5 0.35693 2.0154-0.43127 3.1884-7.5591 11.25-15.762 17.827-29.775 36.127-43.072 56.25-8.0799 12.228-7.4086 11.368-7.8443 10.045zm941.17-18.807c-13.111-19.404-28.422-38.075-46.731-56.986l-7.7436-7.9982 0.86938-8.8269c2.282-23.17 2.1221-56.986-0.36017-76.16-5.153-39.802-18.714-62.477-38.777-64.835-19.164-2.2524-62.011 16.37-98.87 42.973-4.7438 3.4237-10.034 7.2784-11.756 8.566l-3.1315 2.341-11.494-4.2931c-12.838-4.7954-34.118-11.806-46.956-15.47l-8.4622-2.415 2.0872-2.201c1.148-1.2105 6.3104-6.0259 11.472-10.701 47.123-42.678 99.181-75.172 157.21-98.127 24.006-9.4967 37.977-13.125 52.782-13.708 8.9024-0.35053 10.646-0.21483 14.437 1.1238 8.7446 3.0878 15.753 9.161 23.068 19.99 20.499 30.347 29.607 80.74 29.55 163.49-0.0311 45.294-2.6307 77.957-9.3877 117.95-2.4824 14.694-1.7717 14.213-7.8044 5.2844z" fill="#f6f8f8"/><path d="m-478.49-9.7555c-0.23544-0.95304-1.0204-7.6391-1.7444-14.858-1.8536-18.483-1.8599-60.047-0.0112-73.875 3.8281-28.633 10.239-46.521 20.612-57.518 8.7158-9.2392 16.927-11.707 30.886-9.284 23.428 4.0669 57.794 21.131 90.439 44.907l8.3142 6.0552-8.5053 3.9138c-17.269 7.9464-40.109 20.928-58.115 33.031-25.622 17.221-44.717 32.987-68.603 56.641-11.502 11.39-12.89 12.539-13.273 10.987zm823.74-10.521c-20.391-18.479-35.167-30.006-57-44.47-26.394-17.485-53.111-31.722-82.285-43.851l-8.41-3.4962 8.035-6.011c39.672-29.679 84.685-50.142 105.51-47.966 21.907 2.2888 36.044 28.835 40.185 75.457 1.5376 17.31 0.69603 59.323-1.4293 71.35l-0.48153 2.7249z" fill="#efc1d6"/><path d="m-423.12 490.25c-20.047-3.2375-35.824-10.923-42.355-20.634-2.2088-3.2841-2.6488-4.6543-2.8953-9.0169-0.37079-6.562 1.49-10.715 7.323-16.345 4.817-4.6493 15.884-10.357 24.83-12.806 19.414-5.3145 45.416-5.0192 64.097 0.72775 7.1981 2.2144 17.233 7.5077 21.77 11.484 7.8059 6.84 10.301 16.101 6.3857 23.701-5.0795 9.8609-18.864 17.767-38.162 21.887-9.6166 2.0533-31.214 2.581-40.994 1.0016zm684 0c-46.887-7.5721-61.224-36.675-26.398-53.586 12.798-6.2144 26.422-9.012 43.926-9.0197 37.988-0.0168 67.095 16.272 63.022 35.267-2.5379 11.834-16.928 21.424-39.386 26.249-9.8268 2.1111-31.317 2.6802-41.164 1.09z" fill="#eaa1c0"/><path d="m-84.495 721.62c-106.79-4.6636-186.98-16.894-258.6-39.44-117.16-36.882-197.57-100.16-237.37-186.79-2.6209-5.7045-5.5512-12.397-6.5118-14.872-0.96056-2.475-1.9735-4.7628-2.251-5.0839-0.27746-0.32116-15.665 2.6703-34.196 6.6477-38.011 8.1588-40.685 8.4508-46.818 5.1128-8.8028-4.7911-12.164-14.48-8.6606-24.963 1.7028-5.0954 6.9546-10.652 11.663-12.339 1.8562-0.66518 17.212-4.1312 34.125-7.7023 16.912-3.5711 30.862-6.5888 30.998-6.7059s-0.78016-4.7137-2.0373-10.215c-2.6587-11.634-5.5963-29.159-7.1962-42.931-0.61849-5.3239-1.2547-9.81-1.4138-9.9692-0.15912-0.15912-15.603-1.7505-34.32-3.5364-36.362-3.4695-37.927-3.7696-42.56-8.1652-10.943-10.381-6.4645-30.541 7.6994-34.659 4.0489-1.177 5.2546-1.1232 32.517 1.452 15.572 1.4709 29.916 2.8765 31.875 3.1236l3.5625 0.44923v-7.1357c0-9.571 1.2383-27.25 3.0297-43.255 5.3455-47.758 19.932-100.34 40.766-146.96l4.1548-9.2964-3.6729-14.686c-24.426-97.665-30.117-198.21-16.092-284.31 8.1016-49.739 21.494-81.449 43.616-103.28 10.27-10.133 22.11-17.046 35.824-20.917 6.852-1.934 26.499-2.3027 36.862-0.69179 28.629 4.4505 66.41 18.208 100.39 36.555 52.986 28.611 117.2 75.454 146.63 106.96l6.5442 7.0074 16.415-2.6903c40.628-6.6584 62.73-8.2863 112.79-8.3075 48.316-0.0205 76.768 1.629 117.38 6.8044 11.074 1.4114 45.63 6.7883 51.33 7.9871 0.23074 0.0485 7.3383-6.8252 15.795-15.275 17.372-17.359 27.956-26.429 50.625-43.382 39.035-29.194 69.759-48.565 103.5-65.259 32.075-15.869 59.904-25.623 85.762-30.057 12.903-2.213 29.121-2.0432 38.776 0.4059 25.79 6.5421 48.427 28.131 62.025 59.151 21.41 48.845 30.378 140.95 22.246 228.48-3.4246 36.859-9.8394 75.843-18.374 111.66l-2.5697 10.784 3.4794 7.5907c22.413 48.897 37.745 105.92 43.378 161.34 1.5946 15.688 2.6278 32.224 2.6415 42.276l0.0116 8.5256 5.8125-0.52066c3.1969-0.28637 17.962-1.6821 32.812-3.1017 30.365-2.9026 32.427-2.8232 38.078 1.4667 1.7445 1.3243 4.1843 4.252 5.4218 6.5061 2.0054 3.6527 2.249 4.7915 2.241 10.473-7e-3 5.1196-0.33445 6.9868-1.6616 9.4819-2.2858 4.2972-7.287 8.3668-11.809 9.6095-2.0736 0.56982-18.958 2.4299-37.52 4.1334-18.562 1.7036-34.113 3.2168-34.557 3.3628-0.44399 0.14595-1.2218 4.0878-1.7285 8.7597-1.5448 14.243-5.7724 37.404-9.4322 51.674l-0.48646 1.8968 33.227 7.0213c18.275 3.8617 34.833 7.6914 36.795 8.5104 4.1788 1.744 7.5535 5.3215 10.023 10.626 2.2549 4.8425 2.4298 12.804 0.38036 17.316-3.0292 6.6684-10.019 11.128-17.347 11.068-2.2725-0.0185-20.083-3.455-39.657-7.6519-19.543-4.1901-35.684-7.4665-35.87-7.2809s-2.4513 5.2139-5.0349 11.174c-25.041 57.766-66.283 105.84-123.83 144.35-79.401 53.131-179.59 82.632-308.99 90.979-16.383 1.0569-91.57 1.5336-110.62 0.70142zm100.5-40.452c124.41-7.7449 222.31-35.706 295.12-84.283 47.537-31.715 82.214-70.033 104.64-115.62 3.2461-6.6 6.117-12.888 6.3799-13.974 0.55523-2.2925 2.5976-1.6621-22.823-7.0449-8.8318-1.8702-17.191-3.9379-18.575-4.5949-3.9715-1.8846-8.8199-7.8226-10.344-12.669-3.0168-9.591 0.0262-18.716 7.7951-23.375 6.7703-4.0599 8.1251-4.0092 33.02 1.2378 12.189 2.5691 22.808 4.7269 23.597 4.7952 1.1741 0.1016 1.6824-0.82843 2.8015-5.1259 1.9508-7.4909 5.6945-27.161 6.8874-36.188 0.94022-7.1144 0.9216-7.6875-0.24973-7.6875-0.69613 0-10.346 0.86705-21.445 1.9268-11.098 1.0597-21.614 1.741-23.369 1.514-4.6451-0.60106-8.5133-2.8482-12.461-7.2389-9.6943-10.782-6.3918-26.886 6.5254-31.819 2.2052-0.84218 11.783-2.0548 28.717-3.6358l25.408-2.3722-0.0949-16.875c-0.26181-46.542-10.321-100.66-27.243-146.58-29.488-80.014-79.08-146.43-145.33-194.62-17.016-12.378-34.011-22.584-55.709-33.456-62.049-31.089-133.91-50.444-218.25-58.786-55.073-5.447-115.13-5.5876-161.25-0.37766-92.177 10.413-170.83 39.565-233.62 86.592-27.59 20.662-54.947 47.046-76.573 73.849-62.624 77.616-99.246 175.74-102.07 273.48l-0.46812 16.226 3.6786 0.47141c2.0232 0.25927 14.479 1.4832 27.679 2.7199 21.688 2.0318 24.381 2.4342 27.95 4.1762 7.0804 3.4555 11.477 11.695 10.406 19.505-1.2258 8.9434-9.1255 17.403-17.475 18.713-2.4752 0.38843-41.667-2.713-47.764-3.7797l-2.1322-0.37308 0.48547 3.9327c2.3726 19.22 8.4038 46.773 10.188 46.541 0.60017-0.0779 11.722-2.3849 24.716-5.1267 17.57-3.7075 24.525-4.8832 27.136-4.5874 6.4597 0.73182 12.443 4.9312 15.304 10.74 2.0987 4.2622 1.9258 12.911-0.36056 18.036-1.8463 4.138-6.9818 9.4796-10.342 10.757-1.1008 0.41854-11.231 2.7237-22.513 5.1225s-20.707 4.5576-20.947 4.7972c-0.63457 0.63457 6.4836 16.057 12.574 27.243 35.556 65.303 95.969 112.35 184.8 143.91 69.194 24.584 170.26 40.6 283.48 44.925 12.351 0.47184 69.567-0.24011 82.125-1.0219zm-135.08-193.89c-11.755-2.2334-26.87-9.1672-33.198-15.229-4.1692-3.9938-5.6902-7.7439-5.6902-14.03 0-10.774 6.1094-17.625 15.717-17.625 4.4256 0 7.3556 1.094 12.61 4.7082 6.6953 4.6056 14.655 7.4474 22.048 7.8716 5.9864 0.34348 6.8792 0.20555 10.668-1.6482 4.3634-2.1348 8.5704-6.3968 11.035-11.18 1.2535-2.4323 4.3883-13.012 4.3883-14.811 0-0.31288-2.1517-1.2849-4.7815-2.16-10.052-3.345-19.948-11.219-23.052-18.341-5.3288-12.229 1.5458-24.79 17.708-32.356 10.565-4.9454 15.855-5.9709 30.375-5.8884 11.191 0.0636 13.018 0.26498 19.097 2.1055 13.345 4.0404 23.967 11.633 27.525 19.675 2.2782 5.1502 2.1323 11.845-0.36947 16.95-3.5954 7.3373-12.79 14.551-22.789 17.878l-4.8493 1.6137 0.509 2.7288c1.8421 9.8756 8.2768 20.041 14.917 23.566 6.6405 3.5247 20.632 1.5055 29.709-4.2875 7.5409-4.8125 11.379-6.4103 15.375-6.4005 9.2883 0.0226 16.148 7.1087 16.109 16.64-0.04211 10.128-7.9147 18.533-23.234 24.805-11.318 4.6336-15.46 5.3952-29.25 5.3784-11.433-0.0139-12.832-0.16891-18.375-2.0366-8.1436-2.7438-14.639-6.7355-20.437-12.56l-4.8527-4.875-5.9145 5.7745c-6.4404 6.288-14.335 10.796-22.796 13.017-6.4058 1.6816-21.155 2.0568-28.204 0.71741zm-235.86-61.452c-6.8169-1.5508-15.331-5.3375-21.076-9.3731-30.695-21.565-34.556-65.599-8.0521-91.835 22.957-22.725 59.559-23.346 82.883-1.4045 33.471 31.487 21.832 85.753-21.64 100.9-5.8725 2.0462-7.6287 2.3054-17.047 2.516-7.0461 0.1575-12.003-0.10712-15.068-0.80443zm32.882-64.502c7.2348-2.5818 11.823-9.0858 11.794-16.718-0.0386-10.158-7.288-17.407-17.445-17.446-9.4559-0.0359-16.423 6.1925-17.548 15.687-1.4597 12.325 11.504 22.65 23.198 18.477zm522.4 64.039c-20.835-5.1229-38.068-22.218-43.82-43.469-2.0394-7.5346-1.8586-22.582 0.36492-30.375 2.5434-8.9148 7.8472-18.404 13.933-24.929 31.924-34.225 87.404-21.441 101.68 23.429 2.5351 7.969 2.9258 21.881 0.8574 30.532-5.4631 22.85-23.295 40.503-45.715 45.254-7.1485 1.515-20.199 1.3037-27.299-0.44206zm36.263-64.867c3.1847-1.6082 6.4768-4.6454 7.8185-7.2132 4.5948-8.7934 1.7475-19.074-6.6101-23.867-5.0006-2.8678-11.962-3.1725-16.698-0.7307-10.622 5.4761-13.065 19.239-4.9658 27.964 5.0694 5.4607 13.952 7.1316 20.455 3.8478zm-764.89-303.54c44.954-67.701 103-121.17 170.67-157.23 24.488-13.049 52.509-24.649 80.082-33.152 6.9655-2.148 12.938-4.1444 13.273-4.4364 1.3732-1.199-27.1-25.851-47.858-41.436-25.369-19.046-51.003-34.778-80.25-49.248-47.597-23.549-85.387-34.83-103.04-30.76-9.4042 2.168-18.808 9.7368-26.462 21.298-16.234 24.523-23.553 53.708-28.409 113.28-1.2964 15.907-1.7619 65.579-0.78714 84 1.4146 26.735 4.06 52.931 7.6079 75.336 1.7804 11.243 6.1422 35.289 6.4013 35.289 0.10075 0 4.049-5.8219 8.7738-12.938zm940.55-12.938c9.9186-61.348 12.398-118.83 7.6173-176.62-4.0519-48.992-11.019-77.466-24.524-100.22-8.1301-13.7-15.82-21.387-25.173-25.164-6.3983-2.5839-20.359-2.3975-32.65 0.4358-20.049 4.6219-47.858 15.473-77.033 30.057-43.97 21.981-83.082 49.107-120.61 83.65-5.4932 5.0558-9.712 9.4366-9.375 9.7351 0.33696 0.29847 4.6626 1.6382 9.6126 2.9771 18.315 4.954 47.658 15.282 68.274 24.031 53.69 22.785 103.09 54.887 140.93 91.586 20.57 19.948 41.226 44.534 55.552 66.123 2.4033 3.6217 4.6096 6.3217 4.9029 6s1.4062-5.985 2.4733-12.585z" fill="#41130d"/></g></svg>
