<?xml version="1.0" encoding="UTF-8"?>
<svg width="1e3" height="1e3" version="1.0" viewBox="0 0 750 750" xml:space="preserve" xmlns="http://www.w3.org/2000/svg" zoomAndPan="magnify"><g transform="matrix(.55045 0 0 .5503 123.22 82.548)"><path transform="matrix(1.8993 0 0 1.8993 1187.4 -187.96)" d="m-433.16 55.051c-3.5746 0.0656-7.0544 1.0398-10.46 2.0466-3.0034 0.94703-5.9225 2.1561-8.7299 3.5823-1.0216 0.53118-2.2561 1.195-3.3286 1.8369-9.3865 5.5683-17.188 13.584-23.147 22.681-6.39 9.8093-10.201 21.164-11.672 32.746-0.9697 7.5055-1.0647 15.108-0.5889 22.654 0.1726 2.3605 0.4279 4.8993 0.774 7.3128 1.0839 7.7743 3.167 15.536 5.7214 23.012 4.3827 12.939 11.044 24.932 17.703 36.807 3.2938 5.883 6.7614 11.667 10.074 17.539 0.6941 1.4024 1.6234 2.7493 1.8999 4.3121-0.1525 0.53161-0.094 1.2351-0.7939 1.3218-2.1102 0.82153-4.3791 1.1608-6.5729 1.7018-5.9139 1.3067-11.91 2.9399-17.747 4.6675-8.8412 2.6318-17.607 5.5465-26.154 9.0256-1.3053 0.54209-2.7929 1.1446-4.1121 1.7164-25.622 10.888-49.479 25.955-70.194 44.566-16.071 14.444-30.291 30.946-42.18 48.989-1.5008 2.2906-3.0714 4.7398-4.5248 7.1393-7.5061 12.283-14.014 25.374-19.211 38.87-2.072 5.3353-3.9704 10.911-5.6683 16.446-3.597 11.691-6.312 23.848-7.8643 36.055-0.5616 4.2566-0.9806 8.5308-1.3174 12.811-0.026 0.5395-0.094 1.4202-0.1158 1.9677-0.3189 7.9802-0.2178 16.121-0.02 24.166 0.1681 5.5216 0.3374 11.129 1.1668 16.64 2.185 16.426 6.0346 32.689 12.248 48.076 5.2828 13.108 12.329 25.713 20.814 37.107 9.4597 12.728 20.992 23.841 33.7 33.295 6.4192 4.7841 13.258 9.2654 20.212 13.353 5.1599 3.128 10.72 5.7969 16.198 8.4382 5.4053 2.6168 10.918 5.0061 16.49 7.1458 13.279 5.1376 26.83 9.2922 40.638 12.804 15.792 3.9977 31.904 7.1228 48.078 9.2532 4.7245 0.64849 9.4636 1.2711 14.196 1.8028 1.3445 0.41957 1.4693 2.0304 1.4889 3.2172 0.039 1.4893 0.01 3.0512 0.1189 4.4307 0.4598 7.0271 2.7148 14.195 7.5321 19.472 2.7718 3.1066 6.5513 5.1859 10.569 6.1879 4.4552 1.1791 9.2188 1.1547 13.64-0.16863 5.1308-1.3827 9.7066-4.5802 12.847-8.8577 4.0443-5.3972 6.1355-11.925 7.8128-18.377 0.2693-0.98242 0.5386-1.9648 0.8077-2.9473 1.8124-0.13851 3.6249-0.27472 5.4375-0.41016 1.1847 4.5125 2.1861 9.0151 3.9845 13.352 2.3884 5.9543 6.0998 11.679 11.69 15.062 4.014 2.4307 8.7548 3.6257 13.437 3.5449 4.7073-0.19603 9.4273-1.6263 13.298-4.3465 5.5856-4.0556 8.888-10.578 10.282-17.217 0.9101-4.0086 0.9167-8.1364 0.8741-12.224 0.066-0.55061-0.2961-1.4793 0.5955-1.2995 12.832-1.5643 25.67-3.1442 38.4-5.415 10.821-1.9057 21.57-4.2438 32.162-7.1679 25.487-7.0858 50.413-17.509 72.429-32.416 14.786-9.9954 28.168-22.19 38.884-36.499 12.075-16.002 20.663-34.464 26.146-53.703 1.6359-5.6953 3.0544-11.61 4.2255-17.542 1.7295-8.6984 2.9714-17.659 3.811-26.496 0.59237-6.8754 0.68695-13.7 0.73863-20.6 0.0178-6.2217-0.06-12.416-0.39002-18.596-0.27168-4.792-0.9163-9.5803-1.5534-14.246-2.7519-19.66-7.9229-38.996-15.597-57.313-6.1252-14.601-13.541-28.681-22.347-41.848-2.7948-4.1706-5.7469-8.2685-8.7646-12.207-4.3173-5.6329-8.8146-11.138-13.743-16.252-6.1947-6.5033-12.541-12.878-19.281-18.819-19.311-16.482-41.363-29.649-64.787-39.389-6.5977-2.7778-13.336-5.2001-20.088-7.5721 4.9699-3.6718 10.109-7.1744 14.484-11.572 6.5636-6.4772 12.058-14.328 14.604-23.274 0.6712-2.4404 1.1291-4.9856 1.2347-7.4389 0.074-1.472 0.031-3.1978-0.1677-4.7559-0.891-7.6505-4.37-15.17-10.358-20.145-4.298-3.6325-9.7949-5.7526-15.404-6.0825-2.7758-0.21666-5.5818-0.2221-8.2894 8e-3 -4.5255 0.46126-8.9529 1.5862-13.353 2.7011-2.7845 0.69128-5.4907 1.6207-8.1953 2.5408-0.9229 0.3844-1.9058 0.21242-2.8691 0.14453 0.063-0.95124-0.049-1.976 0.602-2.7615 2.6066-4.076 5.501-7.9641 7.9905-12.118 2.1209-3.4485 4.1126-7.0482 5.7902-10.652 3.4526-7.3682 5.7595-15.46 5.3603-23.66-0.1-4.1169-1.2613-8.1438-3.0861-11.819-0.5241-1.09-1.0963-2.1756-1.6491-3.0986-0.8222-1.3796-1.7483-2.6964-2.7676-3.9375-0.4451-0.52975-1.0996-1.2904-1.6621-1.877-4.4143-4.7517-9.938-8.4651-16.048-10.658-2.6584-0.9623-5.4078-1.8357-8.2675-1.7973-3.366-0.0316-6.7489-0.18301-10.104 0.15049-2.8963 0.49415-5.6461 1.6302-8.311 2.8361-8.1355 3.791-14.738 10.211-20.062 17.329-3.7744 5.0396-7.0376 10.485-9.9735 15.986-1.1579 2.0519-2.0795 4.2674-3.5312 6.1351-0.6033 0.75-1.8813 0.97178-2.5352 0.19336-0.7665-0.86493-0.7204-2.1501-1.0684-3.209-1.2774-6.0916-2.5396-12.194-4.1481-18.224-1.9121-7.4658-4.2545-14.839-7.4085-21.88-1.8938-4.2343-4.1532-8.465-6.8029-12.34-3.1012-4.5613-6.9123-8.8987-11.226-12.474-4.1538-3.4826-8.9993-6.1012-14.14-7.8012-0.4332-0.13762-1.209-0.39684-1.7842-0.56208-1.1675-0.36224-2.4666-0.67022-3.558-0.76911-4.1466-0.32631-8.3133-0.3218-12.471-0.35751-0.3319 4e-3 -0.6638 7e-3 -0.9957 0.011z" fill="#fff" stroke-width=".52652"/><path d="m89.3 764.39c-21.036-2.6041-39.769-12.167-44.738-22.837-7.6078-16.337 9.8003-31.72 42.113-37.213 2.8875-0.49088 10.988-0.86375 18-0.82859 14.535 0.0729 25.249 1.8806 36.108 6.0928 16.597 6.4376 25.981 17.548 23.513 27.838-2.8329 11.809-16.493 20.932-38.237 25.537-8.2947 1.7567-27.89 2.5089-36.759 1.4111zm712.12-0.0232c-28.059-3.8724-46.907-16.193-46.868-30.637 0.0193-7.0579 7.1444-15.767 17.121-20.927 12.471-6.4505 26.1-9.3456 43.997-9.3456 22.307 0 40.447 5.1233 52.286 14.767 4.8336 3.9374 8.8388 10.933 8.8388 15.438 0 13.029-14.811 24.201-38.817 29.281-8.5117 1.8012-28.252 2.5698-36.558 1.4234z" fill="#eaa1c0"/><path d="m461.72 734.7c-11.005 0.12231-22.002 1.2216-32.791 3.4078-11.921 2.4169-23.733 5.4927-35.144 9.7316-21.508 7.9374-41.836 19.211-59.674 33.638-9.6629 7.87-18.622 16.675-26.199 26.588-3.548 4.8518-6.6556 10.093-8.6939 15.765-0.6801 2.1393-1.3846 4.4164-1.0192 6.6798 0.47922 2.3452 2.4552 3.9296 4.1187 5.4781 4.1126 3.4496 9.4015 4.9067 14.426 6.4765 13.412 3.9409 27.227 6.3334 41.073 8.1302 11.617 1.4653 23.295 2.4756 34.994 2.9616 13.511 0.29125 27.027 0.24467 40.54 0.27328 34.627-0.0275 69.256-0.18122 103.88-0.6363 9.6771-0.14226 19.357-0.28153 29.022-0.81358 9.9618-0.47147 19.913-1.3311 29.766-2.9004 8.828-1.4024 17.69-2.8374 26.273-5.3868 4.2057-1.3233 8.5295-2.86 11.858-5.8582 2.4109-2.1174 3.7771-5.3831 3.4046-8.5912-0.50714-3.8442-2.4348-7.3073-4.327-10.627-4.7627-7.9185-10.641-15.112-16.91-21.879-12.056-12.914-26.358-23.585-41.605-32.438-16.019-9.2523-32.914-17.157-50.715-22.317-17.15-5.0341-35.017-7.4117-52.871-7.6445-3.1349-0.0688-6.2709-0.0702-9.4064-0.0384z" fill="#eec016"/><path d="m372.51-49.533c-8.1028 0.01212-16.054 2.1356-23.568 5.0346-12.7 5.0279-23.697 13.732-32.508 24.077-12.132 14.255-20.872 31.35-25.443 49.496-4.8606 19.15-5.1587 39.259-2.2611 58.742 3.2319 21.848 10.3 42.976 19.393 63.05 4.207 9.726 9.502 18.921 14.604 28.193 9.7822 17.546 19.457 35.159 29.678 52.455 8.3234 14.033 17.137 27.802 27.036 40.783 7.8011 10.243 16.002 20.215 25.034 29.404 3.7044 3.6589 7.4685 7.3526 11.917 10.107 1.9982 1.0914 4.122 2.0916 6.3885 2.4376 1.8552 0.22962 3.2683-1.2647 4.566-2.3626 3.778-3.4108 7.1222-7.2582 10.583-10.981 1.3517-1.4475 2.8376-3.0453 4.252-4.5416 4.3519-4.5872 8.847-9.2136 13.348-13.544 6.314-6.0744 12.901-11.895 20.031-17 0.44879-0.31785 1.1697-0.83124 1.7344-1.2167 3.5658-2.4724 7.2817-4.7218 11.076-6.8243 0.42447-0.22301 1.1571-0.62789 1.7019-0.91744 7.2159-3.8499 14.868-6.8894 22.79-8.9341 0.38508-0.0914 1.1646-0.29228 1.7007-0.42558 1.163-0.28159 2.545-0.5925 3.5864-0.81075 8.4785-1.7709 17.113-2.6717 25.75-3.2129 0.42793-0.0179 1.2654-0.0684 1.7389-0.0909 1.4722-0.0723 2.9456-0.11588 4.4193-0.1435 0.84586-0.0111 2.1306-0.0154 2.9766-0.0117 1.4827 0.0133 3.1606 0.0602 4.5195 0.125 1.2619 0.0654 2.3317 0.12314 3.6156 0.22529 3.8766 0.29712 7.7638 0.77737 11.543 1.35 14.541 2.2452 28.875 5.6091 43.265 8.6388 0.7675 0.13774 1.5424 0.49666 2.2899 0.0918 4.6551-1.3541 9.3448-2.6412 13.808-4.5613 11.056-4.6408 21.305-11.064 30.733-18.442 8.0266-6.3756 15.574-13.504 21.539-21.881 3.5358-5.1538 6.8542-10.738 7.7576-17.027 0.47943-3.4338 0.52212-6.9394 0.12704-10.384-0.4944-3.5715-2.4092-6.7356-4.369-9.687-2.4792-3.6121-6.085-6.5213-10.334-7.7341-5.621-1.6496-11.579-1.1064-17.303-0.37353-5.5891 0.74614-10.967 2.5327-16.325 4.2222-12.82 4.1772-25.379 9.113-37.778 14.4-3.0756 1.2954-6.1124 2.5568-9.1682 3.7789-2.616 1.0512-5.463 2.1497-8.23 3.0785-3.8104 1.3268-7.8138 2.132-11.858 2.1263-4.3018 0.0143-8.7586 0.12544-12.848-1.4124-3.1603-1.2571-5.7051-3.6887-7.8028-6.3048-2.1994-2.8038-2.3696-6.5254-2.4278-9.9388-0.0149-1.2456-6e-3 -2.6038 5e-3 -3.7246-0.0256-2.1201 0.3146-4.2561 1.267-6.168 1.6382-3.6354 3.5584-7.1391 5.787-10.447 6.4829-9.7852 13.618-19.115 20.591-28.551 8.1119-11.036 16.239-22.105 23.207-33.914 4.6192-7.8267 8.4283-16.139 11.172-24.807 1.2817-3.7708 2.2416-7.684 2.3301-11.684 0.0802-3.6019 0.21381-7.2235-0.1513-10.814-0.37667-3.614-2.3854-6.7869-4.4962-9.6435-4.2187-5.5258-10.212-9.3285-16.278-12.539-4.501-2.3786-9.5182-3.798-14.618-3.9228-6.8225-0.36572-13.738 1.1479-19.734 4.4387-7.9316 4.28-14.263 10.946-19.697 18.029-3.6792 4.7988-6.9665 9.8895-9.8626 15.197-6.1833 11.187-11.766 22.702-16.925 34.395-3.8115 8.6736-7.0908 17.566-10.604 26.362-2.6708 6.6718-5.1001 13.389-8.1707 19.902-1.8177 3.9018-4.1613 7.6609-7.5406 10.401-2.7528 2.1885-6.0904 3.6937-9.5717 4.2242-2.6296 0.27224-5.1938-0.68358-7.6136-1.5977-2.2009-0.87396-4.3321-2.0808-5.818-3.9702-2.7936-3.374-3.9542-7.7131-5.088-11.856-0.51412-2.0063-0.98521-4.0634-1.3924-6.0077-1.2562-5.9564-2.3173-12.165-3.3456-18.249-2.7074-16.515-5.2069-33.066-8.3396-49.508-3.1829-16.775-6.9663-33.521-13.107-49.492-4.8199-12.574-10.7-24.911-19.046-35.557-6.4736-8.2691-14.704-15.384-24.468-19.447-6.2409-2.6026-12.999-4.0712-19.768-4.1028zm92.461 993.86c-2.716 0.16783-5.0861 1.7156-7.3279 3.1232-5.9607 3.9955-11.294 8.8424-16.441 13.821-6.9204 6.7784-13.398 14.055-18.835 22.088-8.4758 12.35-15.861 25.422-22.569 38.806-5.3183 10.746-10.28 21.71-14.029 33.112-3.6674 11.414-5.7149 23.464-5.0295 35.473 0.47833 7.3867 1.9989 14.875 5.6668 21.377 2.3937 4.2202 6.3596 7.58 11.053 8.9242 5.8396 1.6985 12.384 1.2178 17.736-1.7625 6.0871-3.3153 10.473-9.0044 13.737-14.993 4.3478-8.0657 7.0356-16.914 9.0141-25.827 3.0581-15.136 5.03-30.463 7.847-45.642 1.0355-5.549 2.2207-11.077 3.8005-16.499 0.15563-0.5002 0.39488-1.3331 0.59074-1.9625 1.2734-3.9256 2.3839-7.9578 4.3912-11.588 1.5388-2.6113 3.9176-4.6815 6.5575-6.1319 2.3421-1.3005 5.2995-1.4454 7.6878-0.1789 3.9674 1.9769 6.7523 5.7267 8.4157 9.753 0.62918 1.4437 1.1543 2.93 1.6403 4.4271 0.089 0.3165 0.34654 1.1003 0.48887 1.6044 2.5344 8.8672 4.038 17.984 5.5625 27.067 2.6676 16.03 4.5057 32.237 8.5535 48.004 1.9125 7.3229 4.4345 14.542 8.1254 21.17 3.3478 5.5118 8.3067 10.044 14.081 12.911 2.2874 1.1473 4.783 1.9647 7.3673 1.929 3.8594 0.017 7.7981-0.6519 11.279-2.3681 5.094-2.7334 9.1958-7.2361 11.431-12.57 2.8792-6.7528 3.4167-14.212 3.4485-21.471-0.0342-14.861-3.4932-29.52-8.5064-43.443-7.3956-20.271-18.265-39.143-31.034-56.488-7.6249-10.372-15.685-20.473-24.767-29.615-4.172-4.106-8.5077-8.1645-13.609-11.1-1.9403-1.0622-4.0746-1.9794-6.3262-1.9512z" fill="#e24b4b"/><path d="m519.8 1148c-25.252-2.5742-41.439-19.524-49.901-52.255l-2.0942-8.0997-2.9722 0.2247-2.9722 0.2246-2.4666 9c-8.398 30.643-23.045 46.224-46.95 49.945-11.225 1.747-24.804-1.1117-33.872-7.1306-14.369-9.5374-23.008-28.633-23.019-50.877-2e-3 -5.2721-0.21978-6.5625-1.1054-6.5625-2.1364 0-30.923-3.7929-43.148-5.6852-60.45-9.3569-121.04-25.967-167.95-46.04-10.244-4.384-32.463-15.189-39.803-19.356-53.277-30.247-91.395-64.245-119.6-106.67-30.028-45.173-47.491-95.079-54.85-156.75-1.6351-13.702-2.2995-59.174-1.0952-74.952 2.8378-37.179 9.3787-69.415 21.392-105.42 21.104-63.26 56.758-122.45 104-172.66 49.225-52.314 109.18-92.641 177.28-119.23 22.9-8.9434 55.989-18.985 78.75-23.899 5.3625-1.1577 10.032-2.3438 10.378-2.6356 0.34519-0.29184-2.4029-5.7157-6.1068-12.053-30.837-52.761-42.201-75.213-50.402-99.579-9.679-28.757-13.274-51.737-12.544-80.176 1.1138-43.354 14.989-78.415 42.163-106.54 17.022-17.619 37.368-29.443 59.077-34.334 7.8383-1.7657 9.4372-1.8725 23.794-1.5891 14.161 0.27957 15.93 0.46839 22.137 2.3631 15.151 4.6249 26.787 11.707 38.254 23.283 15.23 15.374 26.376 34.969 35.593 62.569 3.8242 11.452 8.9221 31.216 12.022 46.607 1.2877 6.3938 2.5998 12.276 2.9157 13.072 0.45593 1.1488 1.6681-0.64294 5.8768-8.6867 21.426-40.949 42.852-62.537 70.718-71.251 4.9832-1.5584 7.0369-1.7538 18-1.7129 11.236 0.042 12.982 0.23247 18.975 2.0699 12.792 3.9226 23.353 10.014 32.616 18.812 7.2043 6.8426 11.656 12.841 15.636 21.072 4.6847 9.6859 6.3574 16.865 6.378 27.375 0.0449 22.883-9.6396 46.875-31.748 78.65-3.2624 4.689-5.8183 8.6389-5.6797 8.7775 0.13861 0.13861 2.6021-0.60591 5.4745-1.6545 8.5026-3.1039 27.135-7.5876 35.598-8.5662 8.9777-1.0382 20.535-0.55393 27.624 1.1574 22.93 5.5358 39.159 25.202 42.22 51.162 3.2454 27.518-14.755 59.674-46.415 82.915l-7.6962 5.6498 5.8212 2.0682c57.068 20.276 106.36 48.089 149.45 84.331 13.452 11.315 40.221 38.232 51.475 51.759 23.257 27.958 40.646 54.111 56.598 85.125 26.884 52.27 42.207 104 48.432 163.5 1.8569 17.75 1.8527 63.078-8e-3 82.875-9.4011 100.04-42.736 173.88-103.19 228.56-41.139 37.211-96.477 66.954-161.31 86.701-36.841 11.221-76.367 19.115-127.31 25.426l-19.687 2.4387-6.4e-4 6.8392c-2e-3 25.32-11.075 46.554-28.635 54.912-8.325 3.9625-17.835 5.7483-26.115 4.9041zm13.688-29.767c9.1734-5.4087 12.947-14.68 12.877-31.638-0.11319-27.529-13.135-61.499-35.843-93.504-19.196-27.055-37.824-45.871-45.411-45.871-5.6214 0-26.705 18.979-37.561 33.81-15.637 21.365-33.985 57.297-40.112 78.556-5.5767 19.349-5.2924 37.986 0.76177 49.933 3.3074 6.527 8.6419 9.7011 16.304 9.7011 13.778 0 24.39-14.004 30.407-40.125 0.85517-3.7125 2.9334-15.49 4.6183-26.173 3.5817-22.709 5.3288-31.194 8.432-40.952 2.991-9.4051 4.4117-12.053 8.211-15.305 6.1034-5.2243 12.115-5.1873 17.979 0.11069 6.8908 6.2254 9.9957 17.397 15.994 57.548 4.0829 27.329 7.3102 39.94 13.152 51.392 3.2332 6.3377 9.9764 12.2 16.503 14.348 3.376 1.111 10.261 0.1904 13.688-1.8303zm50.207-77.043c80.215-8.4763 153.6-28.432 204.61-55.64 59.586-31.784 99.926-71.712 125.99-124.7 19.351-39.341 30.157-81.127 33.799-130.7 1.1558-15.732 0.51837-56.457-1.1238-71.798-13.189-123.22-81.242-235.51-184.17-303.91-50.179-33.343-109.55-56.336-177.75-68.836-33.155-6.0769-43.981-6.7056-59.625-3.4622-19.177 3.976-31.857 12.605-53.824 36.632-16 17.5-23.446 24.301-30.435 27.799-10.12 5.0654-19.446 5.753-30.744 2.2667-18.726-5.7786-33.862-19.602-59.507-54.347-3.7639-5.0995-7.2759-9.2718-7.8044-9.2718s-5.2864 0.87118-10.573 1.936c-119.42 24.051-215.5 82.552-283.22 172.44-36.549 48.51-62.657 105.2-74.265 161.25-6.2349 30.106-7.624 44.535-7.6178 79.125 0.0051 28.517 0.29483 33.187 3.4429 55.5 7.9453 56.315 29.644 108.18 62.381 149.1 8.7686 10.961 26.91 29.376 37.296 37.859 63.988 52.265 149.79 83.32 265.5 96.096 25.867 2.856 28.5 3.0322 28.5 1.9075 0-0.5311 1.8988-5.7176 4.2196-11.526 15.392-38.52 39.472-73.433 65.905-95.556 13.099-10.962 20.391-14.379 30.693-14.379 15.895 0 29.417 9.4258 51.106 35.625 24.936 30.12 41.114 57.796 50.965 87.188 0.39223 1.1702-0.8575 1.2158 16.256-0.5926zm-138.14-150.46c-32.6-0.43211-78.677-2.8313-99.75-5.1938-47.249-5.2972-74.106-19.481-82.126-43.372-3.4712-10.341-2.2805-23.447 3.3127-36.462 10.278-23.917 40.066-53.53 73.819-73.385 39.445-23.204 88.997-35.875 134.37-34.36 77.084 2.5737 147.87 39.051 184.67 95.163 11.206 17.087 15.377 32.738 12.696 47.642-2.0261 11.265-6.8684 19.262-16.108 26.605-12.885 10.239-29.833 16.159-54.13 18.908-24.439 2.7648-107.08 5.1136-156.75 4.4552zm117.75-40.832c16.758-0.84924 33.614-2.8567 46.766-5.5694 13.601-2.8054 18.069-4.4858 22.039-8.2905 3.1341-3.003 3.3651-3.4756 2.9496-6.036-1.6721-10.304-21.473-34.308-39.897-48.367-30.345-23.156-66.159-38.136-103.11-43.129-12.272-1.6582-35.238-1.6642-48.079-0.0125-35.12 4.5173-66.302 16.003-94.046 34.642-29.518 19.83-53.211 48.758-48.073 58.694 3.9532 7.6446 42.961 16.312 84.823 18.847 13.601 0.82364 157.53 0.19009 176.62-0.77746zm-351.69-164.2c-11.971-2.5181-21.079-7.4456-29.717-16.076-5.4592-5.4551-7.4726-8.1189-10.303-13.631-4.4928-8.7492-6.5245-17.071-6.5314-26.751-7e-3 -9.7844 1.5895-16.542 6.1383-25.98 3.293-6.833 4.6024-8.6513 10.262-14.25 12.706-12.569 26.017-17.825 43.219-17.065 9.7337 0.42971 15.095 1.7645 23.25 5.7887 11.356 5.6037 20.289 14.542 25.843 25.859 4.5106 9.1907 5.6069 14.177 5.6069 25.5 0 11.323-1.0963 16.309-5.6069 25.5-6.9514 14.164-19.413 24.763-34.843 29.635-5.9225 1.8698-21.45 2.7065-27.319 1.472zm33.823-64.221c1.9481-1.4057 4.0696-3.9084 5.3077-6.2615 7.7592-14.747-7.9685-30.389-22.777-22.654-5.8149 3.0377-8.4097 7.0379-8.7765 13.53-0.43785 7.7489 2.5974 13.309 9.0543 16.587 2.5739 1.3065 4.2202 1.5714 8.566 1.3786 4.6236-0.20517 5.8359-0.56787 8.625-2.5803zm440.93 64.221c-14.038-2.9528-27.592-11.462-35.57-22.33-3.9786-5.42-7.7297-13.452-9.5352-20.417-1.4162-5.4636-1.5816-7.6203-1.2333-16.084 0.46078-11.198 1.6002-15.56 6.5808-25.196 2.5054-4.8469 4.7731-7.822 9.6834-12.704 12.578-12.506 25.95-17.782 43.143-17.023 9.749 0.43039 15.091 1.7635 23.312 5.8173 14.514 7.1572 25.66 20.773 30.046 36.706 1.8575 6.7472 1.8634 22.466 0.011 29.25-5.2389 19.187-20.001 34.474-39.119 40.51-5.9225 1.8698-21.45 2.7065-27.319 1.472zm33.806-64.291c2.3583-1.6295 4.1192-3.677 5.4375-6.3226 7.4201-14.89-8.1578-30.219-22.889-22.523-5.8149 3.0377-8.4097 7.0379-8.7765 13.53-0.43785 7.7489 2.5974 13.309 9.0543 16.587 2.5586 1.2987 4.2205 1.5702 8.4363 1.3781 4.4708-0.2037 5.7677-0.59691 8.7377-2.6492zm-288.37-318c22.044-24.124 35.773-36.484 50.189-45.184 17.946-10.83 33.57-15.462 58.441-17.325 17.889-1.3398 29.557-0.0705 60.6 6.5923l16.347 3.5086 5.7777-1.691c21.17-6.196 48.473-26.123 59.991-43.784 4.9403-7.5751 6.5068-12.226 6.5022-19.305-3e-3 -4.6419-0.35178-6.2804-1.9953-9.375-4.3673-8.2233-9.435-11.184-18.971-11.082-3.3 0.0352-8.5312 0.61106-11.625 1.2798-8.7936 1.9007-28.195 8.7016-44.664 15.657-24.867 10.502-27.778 11.387-37.461 11.392-9.3051 5e-3 -13.575-1.363-18.253-5.8468-4.5956-4.4044-5.7424-7.5175-5.7447-15.595-2e-3 -7.0757 0.0566-7.3129 3.5251-14.25 2.4768-4.9536 8.7308-14.021 21-30.446 23.978-32.101 31.794-45.078 37.405-62.109 2.1373-6.4867 2.4777-8.5639 2.5193-15.375 0.0417-6.8302-0.18011-8.3024-1.6719-11.096-2.6146-4.8968-6.5182-8.806-12.543-12.561-8.1592-5.0854-13.024-6.6566-20.612-6.6566-14.617 0-26.955 8.6864-39.861 28.064-6.5774 9.8758-19.232 35.442-25.708 51.937-2.7124 6.9094-7.1577 18.216-9.8785 25.125-5.5719 14.15-7.9783 18.394-12.873 22.703-3.3156 2.9185-8.963 5.2348-12.763 5.2348-3.534 0-10.057-2.4192-12.642-4.6882-6.1455-5.3958-8.2786-13.112-14.505-52.472-7.4231-46.923-12.078-67.307-19.969-87.442-11.184-28.539-25.158-45.424-43.214-52.221-11.093-4.1755-22.358-3.9938-35.837 0.57812-16.639 5.6439-31.307 17.815-43.249 35.885-26.928 40.746-27.117 94.202-0.54543 154.15 5.5163 12.446 5.5326 12.477 25.498 48.292 28.089 50.389 41.518 70.809 61.631 93.718 13.069 14.885 22.007 22.444 26.541 22.446 0.68757 3.3e-4 4.5654-3.6275 8.6174-8.0619z" fill="#41130d"/></g></svg>
