<?xml version="1.0" encoding="UTF-8"?>
<svg width="1e3" height="1e3" version="1.0" viewBox="0 0 750 750" xml:space="preserve" xmlns="http://www.w3.org/2000/svg" zoomAndPan="magnify"><g transform="matrix(.94425 0 0 .94444 426.61 16.741)"><path d="m-181.96 155.98c-37.056-25.884-70.161-67.496-98.357-102.5-1.751 58.719-12.779 93.276 31.562 132.4 57.968 47.142 140.62 36.122 66.795-29.903zm312.08 36.037c21.403-10.541 7.6059-2.0761 19.913-21.573 18.768-33.335 30.169-75.627 28.845-113.9-37.15 49.411-51.941 60.847-105.7 93.882-5.7952 10.778-3.7237 48.406 56.941 41.594zm22.416 335.75a203.48 192.31 0 0 1-203.48 192.31 203.48 192.31 0 0 1-203.48-192.31 203.48 192.31 0 0 1 203.48-192.31 203.48 192.31 0 0 1 203.48 192.31z" fill="#fff"/><path d="m-167.44 692.92c-53.213-12.978-113.88-47.245-122.36-105.97-9.3213-45.174 18.424-88.381 16.32-133.49 2.5461-61.549-0.99977-128.8 36.856-181.41 11.044-13.841 11.54-45.724 32.874-36.899 31.26-3.8979 72.288-15.495 84.889-46.564 4.3108-17.297 38.735-7.146 53.111-11.687 25.752 3.9676 77.663-18.157 87.631 10.567 18.433 30.434 52.085 57.636 86.211 57.014 42.235 61.891 53.119 139.27 56.177 212.03 2.4018 42.709 24.004 84.014 17.336 127.52-6.9978 65.046-73.82 106.83-133.87 118.64-15.848 6.3388-44.421 7.2624-23.962-15.681 14.839-26.1 38.459-55.186 27.459-86.928-18.058-30.416-58.925-30.372-90.343-32.404-44.048-2.4814-99.349 7.0274-119.43 51.919-11.441 22.89-8.6778 49.075-8.8963 73.343zm-19.609-242.59c-38.059 4.7512 21.029 44.615 12.532 7.3713-3.1212-3.9848-7.8656-5.9722-12.532-7.3713zm276.36 49.901c35.536-10.54 16.718-67.5-17.741-55.979-26.741 5.9884-28.507 47.652-2.2212 55.904 6.3111 2.1953 13.642 2.2203 19.962 0.0749zm-340.82-229.3c-41.796-8.5652-96.426-36.305-128.07-65.602 6.7999-14.594 50.323-15.922 66.926-20.925 32.865-6.6463 61.816 4.173 77.07 35.022 19.909 9.8757-8.3175 46.754-15.924 51.505zm374.33-26.792c-30.84-24.739 28.002-34.182 38.337-58.186 26.323-7.2966 72.774 6.0656 100.63 10.812 36.74 3.1503-24.607 28.018-37.156 35.269-26.063 13.478-60.89 44.93-83.723 26.614zm-333.9-15.185c-10.013-6.627-47.933-37.454-34.224-44.48 28.224-0.72478 54.708-46.638 78.149-18.017 24.125 8.9184 56.373 27.927 21.997 42.147-14.568 8.872-48.622 23.259-65.922 20.349zm300.73-2.3032c-24.923-2.0503-94.391-39.793-47.251-54.195 18.406-12.617 48.855-27.041 65.617-5.5827 11.573 12.19 53.939 9.3375 27.242 30.74-11.844 13.8-24.327 35.466-45.608 29.037z" fill="#f4f0d0"/><path d="m-242.77 541.13c-7.8941-0.91902-15.905-4.0182-19.797-7.6593-2.8577-2.6731-3.9128-4.7269-3.9128-7.6169 0-8.3387 11.839-14.875 28.171-15.553 12.77-0.53007 24.19 2.5809 29.904 8.146 2.5784 2.5114 3.6097 4.6441 3.6097 7.4646 0 9.9587-18.718 17.46-37.975 15.218zm363.27 0.23233c-0.60056-0.10543-2.566-0.40707-4.3677-0.67031-6.9347-1.0132-14.208-4.0762-17.852-7.5178-1.7461-1.6492-3.5406-5.2296-3.5431-7.0692-0.0035-2.501 0.90929-4.5621 3.0649-6.9207 8.962-9.8058 34.596-12.088 49.777-4.4312 5.4864 2.7671 9.1718 7.2474 9.1582 11.134-0.0217 6.2199-7.8163 12.029-19.422 14.476-3.7443 0.78929-14.404 1.4231-16.816 0.99983z" fill="#eaa1c0"/><path d="m-128.24 701.2c-10.798-1.6578-30.818-5.6816-31.229-6.2767-0.12012-0.17413-1.889-1.0975-3.9309-2.0518-8.682-4.058-20.412-11.412-29.045-18.211-6.3411-4.9935-18.517-17.41-23.156-23.616-18.292-24.463-24.269-50.64-16.958-74.263 1.703-5.5023 5.8662-13.476 9.6996-18.578 12.536-16.684 32.514-27.408 58.235-31.26 6.3049-0.9443 21.93-1.2948 29.182-0.65453 26.808 2.3669 55.73 12.967 76.565 28.063 1.6357 1.1851 3.2349 2.2548 3.554 2.3773 0.31904 0.12243 2.2238-0.95159 4.2327-2.3867 14.441-10.316 33.8-19.19 52.05-23.86 13.735-3.5144 25.476-4.833 39.785-4.4684 17.368 0.44247 30.76 3.4482 44.313 9.9452 21.464 10.29 34.793 26.567 39.461 48.189 1.2486 5.7836 1.3617 18.839 0.21598 24.941-3.7948 20.212-14.005 38.511-30.837 55.266-11.173 11.121-23.502 19.929-38.696 27.644-4.216 2.1406-5.6068 2.6007-11.356 3.7564-7.1417 1.4357-22.158 4.0083-22.339 3.8272-0.06201-0.062 1.6958-1.4721 3.9063-3.1335s6.0828-5.1007 8.6051-7.6428c13.169-13.273 20.339-29.748 21.67-49.798l0.30453-4.5861 2.05-2.4022c4.1859-4.9052 6.7434-9.5503 8.5859-15.594 1.0532-3.455 1.1742-4.5461 1.201-10.83 0.02568-6.0286-0.10682-7.4618-0.9649-10.437-2.6133-9.0598-7.5162-16.349-14.574-21.667-20.346-15.331-49.103-8.5746-60.42 14.196-2.6514 5.3352-3.7468 9.7426-4.0162 16.16-0.17485 4.1647-0.0433 6.0943 0.64047 9.3949 2.5337 12.23 10.383 22.546 21.392 28.114 1.4599 0.73837 2.2876 1.4348 2.278 1.9167-0.02987 1.504-2.5222 7.0656-4.4984 10.038-6.6175 9.9542-20.585 17.953-37.172 21.288-14.005 2.8158-32.414 2.4773-48.133-0.88497-20.929-4.4766-36.271-14.478-42.808-27.906-1.0439-2.1446-1.8977-4.2083-1.8973-4.586s0.92456-1.2705 2.0536-1.9838c8.1094-5.1236 14.643-14.15 17.239-23.817 1.4286-5.3196 1.4316-14.75 6e-3 -20.091-3.4672-12.993-13.395-23.666-25.999-27.953-19.455-6.6172-40.851 2.5346-49.453 21.153-2.8383 6.1431-3.4619 9.2468-3.4286 17.064 0.0268 6.2842 0.14776 7.3754 1.201 10.83 2.1689 7.1149 5.505 12.626 10.78 17.808 3.2696 3.2121 3.3742 3.3799 3.6727 5.8964 0.48564 4.0939 2.3904 12.222 3.8228 16.314 5.9005 16.854 17.77 31.326 34.839 42.477 2.5097 1.6396 4.2786 2.9587 3.9309 2.9314-0.34767-0.0273-2.401-0.32119-4.563-0.6531zm286.96-396.64c-3.9945-13.335-8.8672-26.319-14.056-37.454-1.7911-3.8436-3.3531-7.2099-3.4711-7.4807-0.1335-0.30648 0.57882-0.60913 1.8863-0.80146 4.6255-0.68039 17.63-3.4248 24.936-5.2624 35.379-8.8986 67.209-24.489 91.455-44.797 1.7108-1.4328 3.1798-2.5359 3.2645-2.4512 0.0847 0.0847-0.5195 2.5946-1.3427 5.5776-5.2869 19.158-13.167 35.276-24.648 50.411-4.6507 6.1313-15.763 17.123-22.118 21.879-15.976 11.955-32.325 19.245-53.805 23.992-0.86633 0.19146-1.063-0.14671-2.101-3.612zm-441.35 1.1606c-36.135-11.311-62.461-33.927-78.385-67.338-4.4356-9.3068-8.6988-21.503-10.84-31.011l-0.66526-2.9537 2.1805 1.8618c10.357 8.8433 23.4 18.06 34.206 24.17 15.159 8.5725 33.686 16.29 52.237 21.76 10.976 3.2364 29.938 7.5725 31.125 7.1173 0.29049-0.11147-0.97909 2.0843-2.8213 4.8796-8.158 12.378-16.822 29.31-20.761 40.57-0.50272 1.4372-1.0491 2.2836-1.4639 2.2678-0.36401-0.0139-2.529-0.60967-4.8111-1.324z" fill="#f4bb5c"/><path d="m-85.221 726.32c-63.683-3.1068-121.05-19.539-160.08-45.849-28.811-19.425-48.416-45.236-56.921-74.939-8.4367-29.462-7.671-61.708 2.3423-98.641 4.9165-18.134 5.4961-23.722 6.5247-62.894 1.2707-48.394 1.8968-62.229 3.5286-77.963 1.1553-11.14 3.4436-25.458 5.3974-33.772l0.80286-3.4163-1.0662-0.40537c-0.58641-0.22295-1.2312-0.40537-1.4328-0.40537-0.78064 0-13.118-4.1174-17.266-5.7621-31.717-12.577-58.79-37.323-75.192-68.727-7.219-13.822-11.712-26.628-15.43-43.979-1.5496-7.2314-1.7538-8.8609-1.7538-14 0-5.3689 0.0862-5.989 1.1213-8.0662 1.2806-2.57 3.4822-4.6767 6.0948-5.8323 4.0158-1.7764 27.57-7.0322 41.828-9.3334 21.384-3.4512 36.3-4.6526 57.636-4.6423 8.1075 4e-3 14.741-0.0601 14.741-0.14229 0-0.0822-0.9829-2.3554-2.1842-5.0515-9.2291-20.713-16.595-46.887-19.727-70.1-0.89142-6.6059-1.0017-9.1838-0.99943-23.367 2e-3 -13.255 0.12995-16.625 0.75853-19.997 1.3984-7.5006 4.2594-12.587 8.6725-15.42 2.0278-1.3014 2.7456-1.5096 5.6643-1.6432 5.8881-0.26961 8.5957 1.6467 16.242 11.495 11.601 14.942 25.589 31.927 35.264 42.817 7.5992 8.5535 26.305 27.238 32.963 32.924 16.064 13.721 33.805 26.015 61.957 42.935l12.166 7.3118 6.6154-1.5336c9.3792-2.1744 22.634-4.348 32.848-5.3868 32.719-3.3274 72.226-1.1319 102.23 5.6814l5.7337 1.3019 11.519-6.9262c31.779-19.109 49.611-31.664 66.486-46.813 6.2236-5.5871 20.854-20.292 27.171-27.31 9.9761-11.083 22.201-25.851 36.558-44.166 8.4114-10.729 10.371-12.177 16.484-12.177 3.4577 0 3.8491 0.09488 5.703 1.3825 5.9302 4.1191 8.5934 9.9687 9.5613 21.001 0.5852 6.6703 0.58457 22.563-1e-3 29.677-1.9919 24.191-9.4099 52.69-20.176 77.515l-2.4001 5.5342 3.5473 0.23761c1.951 0.13068 7.0851 0.34046 11.409 0.46618 16.644 0.48392 37.574 3.1617 58.308 7.4599 10.871 2.2536 29.312 6.9765 31.401 8.0422 2.7672 1.4117 4.71 3.3625 6.0341 6.0589 1.1195 2.2797 1.2156 2.8724 1.1819 7.286-0.039 5.0959-1.6526 13.498-4.6136 24.022-15.852 56.341-58.038 96.811-112.97 108.37-2.2612 0.47574-3.5493 0.94635-3.4313 1.2536 0.46404 1.2093 2.9996 12.958 4.3848 20.317 4.0606 21.572 5.6704 36.722 7.9129 74.469 2.5745 43.335 4.0598 53.964 11.535 82.549 1.9475 7.4469 4.2153 16.881 5.0395 20.965 8.6272 42.742 1.34 84.544-20.342 116.69-19.284 28.59-54.01 50.578-100.6 63.697-25.855 7.281-63.327 13.556-96.337 16.133-19.193 1.4983-44.737 1.9369-62.458 1.0724zm50.228-22.003c38.574-5.3295 65.078-22.894 73.544-48.739 2.3289-7.1098 3.0322-12.68 2.7783-22.007-0.2525-9.2762-1.1622-14.484-4.0825-23.37-2.4938-7.5883-3.367-9.1425-5.8364-10.389-2.3713-1.1969-4.4408-1.2345-6.8849-0.125-4.0331 1.8308-4.4764 5.0282-1.7124 12.351 6.0405 16.004 6.1417 31.712 0.28232 43.838-4.9249 10.192-15.59 20.047-28.048 25.92-33.088 15.597-85.491 10.638-112.81-10.676-11.411-8.9034-18.379-20.604-20.294-34.074-0.91112-6.4084-0.39562-15.313 1.3528-23.367 1.4467-6.6644 1.5275-9.2021 0.36895-11.595-1.7621-3.64-5.0534-4.6466-8.5303-2.609-3.6553 2.1421-5.3199 6.2608-7.0138 17.354-0.9432 6.1768-0.59928 19.294 0.66686 25.435 1.8613 9.0269 5.3488 17.531 10.159 24.773 3.2271 4.8584 11.062 12.868 16.667 17.04 15.431 11.484 35.081 18.554 57.944 20.849 6.0061 0.60276 25.396 0.22755 31.447-0.60856zm-92.618-5.3913c-17.069-11.151-28.939-25.623-34.839-42.477-1.4324-4.0915-3.3372-12.22-3.8228-16.314-0.29852-2.5165-0.40306-2.6843-3.6727-5.8964-5.2755-5.1826-8.6116-10.693-10.78-17.808-1.0532-3.455-1.1742-4.5461-1.201-10.83-0.0257-6.0286 0.10682-7.4618 0.96489-10.437 2.6224-9.0913 7.5004-16.327 14.655-21.738 17.397-13.157 42.027-10.129 55.6 6.8351 3.3534 4.1912 6.3077 10.005 7.6608 15.075 1.4253 5.3409 1.4223 14.772-6e-3 20.091-2.5962 9.6672-9.1295 18.694-17.239 23.817-1.1291 0.71335-2.0532 1.6061-2.0536 1.9838s0.85335 2.4415 1.8973 4.586c6.5366 13.428 21.878 23.429 42.808 27.906 19.628 4.1984 41.705 3.6184 57.524-1.511 4.7919-1.5538 12.499-5.248 16.571-7.9426 3.9843-2.6366 8.831-7.3706 11.21-10.949 1.9763-2.9727 4.4686-8.5343 4.4984-10.038 0.0096-0.48195-0.8181-1.1784-2.278-1.9167-11.009-5.5678-18.858-15.884-21.392-28.114-1.0925-5.2736-0.88225-12.885 0.50089-18.13 3.3514-12.71 13.423-23.473 25.952-27.735 19.443-6.6132 40.856 2.546 49.453 21.153 2.8383 6.1431 3.4619 9.2468 3.4286 17.064-0.02677 6.2842-0.14777 7.3754-1.201 10.83-1.8424 6.0438-4.3999 10.689-8.5859 15.594l-2.05 2.4022-0.30453 4.5861c-1.3314 20.05-8.501 36.525-21.67 49.798-2.5223 2.5421-6.3946 5.9814-8.6051 7.6428s-3.9683 3.0715-3.9063 3.1335c0.19835 0.19836 15.523-2.4518 23.431-4.0518 61.445-12.434 103.58-38.592 121.65-75.522 15.17-31.009 15.442-68.61 0.86155-119.07-5.4609-18.898-7.08-31.055-8.952-67.215-2.9468-56.922-6.7994-82.438-18.08-119.74-8.2529-27.29-16.838-46.913-27.585-63.049-1.7598-2.6424-3.7512-5.4313-4.4252-6.1974-1.1852-1.3472-1.2973-1.3804-3.4094-1.0088-7.9826 1.4044-20.834-0.36533-33.837-4.6597-18.567-6.1318-33.238-14.494-43.488-24.789-8.4347-8.4706-12.484-15.681-13.265-23.619l-0.25772-2.6206-8.0341-1.6163c-27.847-5.6022-61.086-7.0223-89.583-3.8274-8.2409 0.92391-20.038 2.8664-26.534 4.369l-4.0401 0.93458v1.8259c0 2.3956-1.4794 7.669-3.1117 11.092-3.7648 7.895-14.376 18.449-25.431 25.294-5.5006 3.4061-15.91 8.3843-23.096 11.046-17.964 6.6535-32.9 8.5152-44.014 5.4862l-2.4022-0.65473-4.0905 4.2541c-25.805 26.837-43.834 61.923-50.034 97.372-3.8544 22.039-5.442 43.143-6.8115 90.543-1.3478 46.646-2.4642 57.861-7.8482 78.836-5.2574 20.482-6.7073 30.934-6.7251 48.481-0.0164 16.13 1.3895 26.728 5.2266 39.397 5.6322 18.596 14.885 33.725 29.065 47.523 11.769 11.452 22.934 19.26 39.252 27.451 19.281 9.6782 41.076 16.791 67.699 22.094 7.7942 1.5526 20.816 3.8 22.689 3.9158 0.34767 0.0215-1.4212-1.3024-3.9309-2.9419zm-67.081-197.51c-10.516-1.8933-19.303-9.4133-22.95-19.643-0.89108-2.4991-1.0104-3.6233-0.99672-9.3905 0.0142-5.9762 0.11477-6.8101 1.1456-9.496 3.3543-8.7403 9.5991-14.901 18.224-17.979 3.4737-1.2395 4.2018-1.3426 9.4419-1.3375 5.0234 5e-3 6.0605 0.13996 8.9958 1.171 4.7357 1.6635 8.4632 3.9947 11.74 7.3426 5.5202 5.6394 7.9003 11.209 8.213 19.218 0.23579 6.0392-0.37783 8.9607-3.025 14.402-1.463 3.0072-2.5205 4.42-5.5666 7.4363-4.0777 4.038-7.9547 6.3226-12.933 7.621-3.2988 0.86046-9.3547 1.1831-12.289 0.65481zm16.742-33.003c5.3978-4.2946 4.4812-12.202-1.7144-14.791-6.4101-2.6783-13.362 3.1266-11.694 9.7644 0.62995 2.5064 2.1869 4.5875 4.284 5.7262 1.2544 0.68114 2.2664 0.84836 4.538 0.74986 2.4929-0.10809 3.1685-0.32163 4.586-1.4495zm252.92 33.028c-7.4767-1.3622-14.41-5.5115-18.577-11.118-6.2773-8.4452-7.8045-18.865-4.134-28.205 6.3234-16.09 24.769-23.342 40.069-15.753 15.15 7.515 20.826 25.725 12.626 40.509-3.671 6.6186-10.609 11.96-18.033 13.884-3.3526 0.86875-9.1212 1.1983-11.951 0.68269zm15.385-32.331c6.0787-3.1011 6.1069-11.954 0.0484-15.149-5.1789-2.7315-11.66 0.51382-12.523 6.2709-0.54266 3.6187 1.4404 7.4066 4.7254 9.0258 2.0032 0.98745 5.661 0.91778 7.7493-0.14762zm76.879-162.49c17.181-4.198 33.043-11.711 47.389-22.447 6.355-4.7555 17.467-15.747 22.118-21.879 12.161-16.033 20.132-32.825 25.499-53.722l1.9072-7.425-1.7923-0.53837c-3.5489-1.066-19.643-4.5096-28.14-6.0209-22.399-3.9842-45.855-5.9266-63.267-5.2393l-8.1419 0.32135-3.6024 5.5202c-7.8519 12.032-18.28 24.705-28.155 34.217l-5.3064 5.1109 4.5252 6.9002c12.106 18.459 20.94 38.064 28.45 63.136 1.038 3.4653 1.2347 3.8035 2.101 3.612 0.5257-0.11618 3.4126-0.81154 6.4154-1.5452zm-443.59-1.85c3.0528-8.7272 10.045-23.06 16.432-33.685 6.5543-10.903 15.722-23.277 24.092-32.517 2.2464-2.4802 4.6531-5.1751 5.3482-5.9887l1.2639-1.4793-5.4945-5.7032c-8.8461-9.1821-15.871-17.873-22.847-28.265-2.0648-3.0759-3.9805-5.7212-4.257-5.8784-0.27653-0.15718-4.0406-0.63856-8.3646-1.0698-5.7725-0.57563-11.634-0.78483-22.057-0.78721-16.82-4e-3 -27.721 0.78381-45.205 3.2661-11.957 1.6976-34.923 6.1557-35.737 6.9372-0.55189 0.52971 2.5809 13.391 5.1648 21.203 14.192 42.91 43.129 71.685 85.387 84.912 2.2821 0.71432 4.4471 1.3101 4.8111 1.324 0.4148 0.0158 0.96121-0.83064 1.4639-2.2678zm88.978-81.791c5.0499-0.88786 10.043-2.2864 15.155-4.245 15.25-5.8427 32.588-18.288 36.547-26.234 1.4294-2.8684 1.4783-5.4899 0.12583-6.7402-0.5405-0.49968-7.8618-5.0874-16.27-10.195-18.086-10.987-26.785-16.538-34.505-22.019-28.105-19.956-55.606-47.365-85.382-85.096-4.9631-6.2892-5.467-6.7983-5.8226-5.8841-0.49702 1.2776-0.0179 14.746 0.82813 23.276 3.5158 35.451 15.184 69.179 33.681 97.359 7.1788 10.937 13.725 19.054 23.048 28.579 8.8472 9.0387 11.374 10.744 17.602 11.876 2.6171 0.47578 10.452 0.12288 14.991-0.67526zm291.34 0.46955c4.7715-1.0114 6.9567-2.4312 13.367-8.6853 16.253-15.856 28.599-33.108 38.811-54.232 10.933-22.617 17.888-47.11 20.683-72.843 0.73217-6.7396 1.3181-20.817 0.98214-23.597l-0.30598-2.5317-5.4569 6.8994c-33.219 42.001-62.042 69.915-93.912 90.952-4.2061 2.7764-13.796 8.7824-21.311 13.347-7.5149 4.5642-15.473 9.4778-17.685 10.919l-4.0216 2.6206-0.13189 2.0444c-0.18538 2.8736 1.3797 5.731 5.5031 10.047 5.5333 5.7918 14.638 12.205 23.943 16.865 13.741 6.8814 29.914 10.234 39.534 8.195z" fill="#41130d"/></g></svg>
