<?xml version="1.0" encoding="UTF-8"?>
<svg width="1e3" height="1e3" version="1.0" viewBox="0 0 750 750" xml:space="preserve" xmlns="http://www.w3.org/2000/svg" zoomAndPan="magnify"><g transform="matrix(.89614 0 0 .89472 14.757 55.566)"><path d="m376.81 692.03c-83.825-3.328-150.64-17.891-205.68-44.833-31.335-15.338-52.437-30.137-72.703-50.989-25.187-25.915-40.279-54.748-46.037-87.956-2.0872-12.038-2.71-19.852-2.6922-33.776 0.0382-29.923 5.3633-58.318 18.348-97.836l3.4596-10.529-2.3177-6.7996c-13.512-39.641-21.87-81.361-24.394-121.77-1.1658-18.662-0.40452-49.593 1.6209-65.853 12.578-100.98 73.135-141.23 83.328-146.23 8.2571-4.0517 10.797-4.5942 21.414-4.5735 7.552 0.0148 9.7385 0.18253 13.749 1.0549 20.303 4.4157 41.434 16.718 68.222 39.718 25.454 21.855 50.722 50.655 71.582 81.591 2.0068 2.9761 3.8476 5.411 4.0905 5.411s5.0233-0.92176 10.623-2.0483c39.923-8.0318 82.771-10.038 127.61-5.9764 14.472 1.311 31.415 3.7455 44.097 6.3363l5.4136 1.1059 4.9473-7.175c22.07-32.008 46.912-59.924 72.184-81.118 26.201-21.973 45.11-32.915 64.969-37.596 5.0608-1.1929 6.2099-1.2939 14.7-1.2919 8.0643 2e-3 9.6563 0.12736 12.795 1.0082 7.1062 1.9943 13.078 5.3033 21.052 11.664 13.992 11.162 25.655 24.015 36.114 39.798 5.8331 8.8024 8.1102 12.696 12.181 20.827 13.292 26.549 20.907 55.396 24.103 91.308 0.91187 10.246 0.75647 47.492-0.24594 58.946-2.5283 28.887-6.2606 51.24-13.026 78.016-4.0066 15.856-11.656 40.389-14.742 47.281l-1.1511 2.5707 2.0607 6.6395c6.5773 21.192 13.565 51.329 16.381 70.651 3.4696 23.805 3.399 46.342-0.21223 67.8-8.7114 51.764-39.346 92.604-93.006 123.99-46.38 27.127-114.47 44.849-191.11 49.741-21.588 1.3779-64.517 1.8152-87.728 0.89364z" fill="#f3f1d2"/><path transform="translate(11.957 5.7724)" d="m215.54 494.86c-12.161-2.0521-22.586-9.9011-27.845-20.964-2.8213-5.9351-3.5759-9.4097-3.5458-16.327 0.0297-6.8234 0.95495-10.845 3.7946-16.493 6.7937-13.512 20.556-21.52 35.494-20.655 5.6106 0.32501 9.0262 1.1525 13.75 3.3312 9.8917 4.5622 16.985 12.8 20.408 23.701 0.92457 2.9444 1.0794 4.3957 1.0794 10.115 0 7.5481-0.58313 10.434-3.2485 16.077-7.1479 15.133-23.713 23.943-39.887 21.214zm345.38 0c-3.9173-0.66104-7.4715-1.891-11.665-4.037-5.6191-2.8753-12.406-9.5655-15.282-15.064-3.1138-5.9534-4.3801-10.946-4.4386-17.5-0.062-6.8962 0.8069-10.743 3.8629-17.109 1.8246-3.8006 2.9442-5.4144 5.9873-8.6291 5.5556-5.8692 10.825-9.0651 18.391-11.154 4.1745-1.1528 14.239-1.1535 18.419-1e-3 12.477 3.4392 22.162 12.53 26.303 24.69 1.3042 3.8294 1.5149 5.1266 1.6903 10.404 0.1686 5.075 0.046 6.6415-0.7774 9.901-3.646 14.442-14.649 25.176-28.798 28.096-4.2762 0.88257-9.8726 1.047-13.693 0.40243z" fill="#fff"/><path d="m150.12 45.297c-0.30989-0.0025-0.61895 0.01555-0.92871 0.02197-4.5265 0.13467-8.8298 1.9382-12.554 4.4282-5.0449 3.3762-9.6371 7.3851-14.049 11.542-15.67 14.983-27.759 33.462-36.417 53.276-6.3881 14.614-10.895 30.017-13.878 45.672-3.9832 21.105-4.659 42.676-4.1733 64.1 0.49912 20.062 2.7103 40.065 6.3413 59.796 1.9104 10.517 4.1809 20.968 6.7852 31.334 1.1206 4.4451 2.1708 8.9125 3.4556 13.312 0.17179 0.46789 0.63038 0.93194 1.1104 1.021 1.1381 0.24934 1.9772-0.73113 2.4624-1.6348 1.9031-3.3864 3.43-6.9689 5.2559-10.397 6.8534-13.39 14.688-26.279 23.017-38.774 1.1967-1.8226 2.3963-3.6448 3.5918-5.4683-1.0958-2.8904-1.9918-5.8542-2.5708-8.8931-1.5714-7.7331-2.473-15.584-3.2036-23.436-0.22435-2.597-0.44584-5.351-0.60645-7.9556-0.24926-3.8667-0.42715-7.7324-0.5127-11.552-0.43226-19.316 1.1402-38.745 5.562-57.579 1.8549-7.8184 4.219-15.5 7.314-22.945 1.2963-3.0969 2.6256-5.961 4.188-8.9326 2.2364-4.2903 4.9191-8.5041 7.9629-12.346 3.5007-4.4184 7.2344-8.7116 11.603-12.297 1.5184-1.4217 3.6633-1.9267 5.6938-1.7212 4.229 0.41402 8.1142 2.3663 11.779 4.3989 7.9774 4.612 15.148 10.469 22.096 16.485 9.8931 8.6349 19.04 18.095 27.74 27.921 5.6722 6.459 11.168 13.104 15.904 20.29 0.36769 0.41944 0.64033 1.1762 1.0664 1.3872 7.852-3.5966 15.76-7.0791 23.827-10.169 7.8178-3.0764 15.642-5.6748 23.597-8.3804 1.1228-0.46861 1.195-1.9413 0.62989-2.877-1.6536-3.0757-3.8556-5.8148-5.8696-8.6572-8.6953-11.882-17.769-23.501-27.604-34.466-15.888-17.8-33.659-33.97-53.183-47.706-9.2731-6.4341-19.071-12.355-29.832-15.936-5.038-1.6245-10.285-2.8278-15.601-2.8638zm502.16 0.0015c-9.5134 0.56812-18.654 3.8793-27.051 8.2441-10.636 5.5608-20.391 12.633-29.84 19.989-12.398 9.7005-23.695 20.716-34.56 32.083-13.429 14.084-25.61 29.32-36.809 45.224-1.1981 1.6873-2.3875 3.381-3.5816 5.0713 10.961 3.6543 21.988 7.1639 32.651 11.638 5.4738 2.2139 10.801 4.7702 16.276 6.9785 0.53269 0.0314 1.286 0.65594 1.5337-0.0908 2.2863-3.2326 4.5738-6.4664 7.0386-9.5669 7.5592-9.5235 15.998-18.557 24.691-27.149 8.273-8.1171 16.841-16.002 26.291-22.742 1.9642-1.3911 3.9997-2.7353 6-3.9258 4.0886-2.3805 8.434-4.642 13.192-5.2266 1.9742-0.31897 3.9237 0.46684 5.4434 1.6919 3.1564 2.48 5.9008 5.4401 8.6162 8.3848 5.0436 5.5676 9.0117 12.011 12.354 18.715 5.2899 10.459 8.8318 21.904 11.263 33.415 1.5848 7.5857 2.7516 15.212 3.5361 22.901 0.65554 8.1741 0.78777 16.313 0.88916 24.516 0.0385 5.0709 0.0244 10.142-0.12891 15.211-0.0394 0.93315-0.0706 2.064-0.13037 2.9956-0.51244 8.1832-1.3788 16.334-2.6807 24.457-0.88633 5.3129-1.8763 10.656-3.8774 15.681-0.0886 0.53969-0.6267 1.1297-0.42627 1.6377 4.1217 6.3818 8.1683 12.815 11.875 19.449 6.5596 11.617 12.541 23.559 17.959 35.75 0.77448 1.4516 1.2699 3.1028 2.3877 4.3389 0.51711 0.0478 1.1843 0.72613 1.5527 0.14209 0.52539-0.40246 0.82272-0.94192 0.93164-1.5923 2.9517-10.118 5.3216-20.393 7.6567-30.667 2.0126-8.9199 3.7985-17.89 5.2588-26.918 2.1718-12.925 3.756-25.959 4.3755-39.056 0.5505-11.46 0.70081-22.938 0.55957-34.409-0.2006-15.43-1.8216-30.846-4.9028-45.967-5.001-24.381-13.987-48.11-27.71-68.947-7.7587-11.794-17.114-22.566-27.932-31.654-4.236-3.58-8.6323-7.1827-13.849-9.23-2.813-1.0884-5.8484-1.5089-8.855-1.3726zm-258.21 118.4c-8.6777 0.0858-17.372 0.12661-26.017 0.96093-28.216 2.4222-56.35 7.1226-83.37 15.749-21.922 6.9682-43.032 16.509-62.723 28.403-15.995 9.6598-30.806 21.217-44.353 34.072-10.955 10.435-21.428 21.426-30.65 33.438-9.9822 12.921-18.998 26.581-26.993 40.816-12.36 21.999-22.599 45.209-30.28 69.252-5.3452 16.715-9.8561 33.715-13.074 50.972-2.4617 13.114-3.6903 26.479-3.2915 39.825 0.61943 22.703 5.7624 45.353 15.636 65.84 1.0232 2.0576 1.9412 4.1937 3.2578 6.085 0.78072 1.0744 2.2299 0.61318 3.3325 0.47461 4.8001-0.90028 9.507-2.0845 14.297-3.0454 20.515-4.3312 41.173-8.0008 61.922-11.227 16.604-2.5817 33.276-4.8516 49.995-6.7983 6.6583-0.8371 13.384-1.393 19.912-3.0176 10.306-2.6605 20.067-7.4524 28.386-14.104 7.6598-6.1084 14.231-13.639 18.916-22.263 2.9646-5.2834 5.2327-11.024 7.4648-16.566 6.9832-16.709 16.621-32.609 28.831-46.129 1.9859-2.2018 4.0517-4.3313 6.1787-6.397 0.95643-0.91909 2.0982-1.9913 3.1509-2.9414 4.2686-3.8567 8.9891-7.4951 13.688-10.6 1.4082-0.91016 2.6486-1.7008 4.0781-2.5576 5.5818-3.3269 11.477-6.1305 17.597-8.3174 0.67094-0.21977 1.6211-0.56364 2.4082-0.81592 11.478-3.7457 23.719-5.1598 35.744-4.0107 0.66684 0.0797 1.6569 0.17324 2.4463 0.27099 10.651 1.305 21.022 4.6011 30.592 9.4321 0.70424 0.37794 1.6784 0.8585 2.4785 1.3008 14.072 7.5993 26.231 18.432 36.246 30.841 8.6855 10.761 15.83 22.859 21.571 35.474 2.3777 5.2786 4.582 10.642 7.3037 15.759 9.5802 17.63 25.649 31.566 44.322 38.843 5.7436 2.215 11.711 3.8808 17.814 4.7329 9.9202 1.4378 19.888 2.5156 29.817 3.8965 26.91 3.6719 53.781 8.0344 80.445 13.371 10.19 2.0464 20.31 4.2495 30.393 6.7339 0.99584-0.0875 1.509-1.0004 1.8765-1.8252 2.4571-5.4282 4.5766-11.014 6.3677-16.696 5.0572-16.189 6.6859-33.252 6.5903-50.153-0.14086-18.648-2.9659-37.181-7.1631-55.321-6.7652-29.784-15.533-59.195-27.558-87.302-11.142-26.034-25.193-50.944-42.908-73.091-15.107-18.972-32.915-35.791-52.77-49.723-21.867-15.383-46.053-27.404-71.418-35.824-28.466-9.4988-58.25-14.578-88.124-16.887-9.6578-0.70302-19.347-0.79567-29.026-0.9126-4.4458-0.0376-8.8916-0.0416-13.337-0.019zm199.47 151.35c6.0911-0.0357 9.2865 0.44834 13.458 2.6718 8.6218 4.5954 9.9431 12.151 4.0539 23.149-7.2343 13.51-22.538 24.897-40.144 29.633-3.7457 1.0075-4.97 1.9088-10.656 2.0403-4.6697 0.10795-7.5301-0.10798-9.134-0.51526-5.9674-1.5156-10.146-4.51-11.683-9.0222-1.0642-3.1232-0.81968-7.777 0.36111-11.321 3.8143-11.447 14.218-22.362 28.794-29.662 9.6496-4.8328 16.248-6.9235 24.949-6.9745zm-376.91 0.0423c4.5862-0.0325 9.1921 0.43606 13.611 1.6992 10.396 2.8369 20.094 8.131 28.236 15.174 5.8199 5.1182 11.007 11.301 13.616 18.694 1.4917 4.2364 2.053 9.1474 0.0161 13.307-1.8835 3.9359-5.8767 6.3928-9.9565 7.5483-1.902 0.61602-4.0864 0.82293-5.956 0.92139-3.4998 0.15294-7.0158 0.011-10.487-0.46875-0.54995-0.0878-1.4308-0.22612-2.1035-0.37354-10.023-2.1607-19.446-6.7647-27.609-12.93-1.0307-0.7949-2.2356-1.7507-3.2886-2.666-3.5638-3.0556-6.9146-6.6167-9.5596-10.38-3.1432-4.5308-5.7075-9.7864-5.7539-15.407-0.0819-4.0768 1.6729-8.1874 4.875-10.758 3.3762-2.7479 7.7351-4.168 12.062-4.2978 0.76562-0.0406 1.5318-0.0545 2.2983-0.063zm18.892 112.52c4.2382-0.10481 8.3827 1.1296 12.255 2.7539 8.7078 3.7126 15.812 10.969 19.345 19.75 1.5803 3.6819 2.3752 7.668 2.4185 11.67 0.12823 4.7331-0.15914 9.587-1.9732 14.019-1.3903 3.6227-3.3634 7.2472-5.6865 10.198-5.0032 6.4368-12.304 10.927-20.171 12.926-2.5137 0.51203-5.029 0.47139-7.541 0.56104-3.9786 0.11842-8.0457-0.031-11.824-1.4092-1.6746-0.57906-3.3357-1.2096-4.9292-1.9878-0.46734-0.22864-1.2195-0.61565-1.7842-0.94336-7.016-3.9898-12.54-10.421-15.647-17.852-1.4412-3.0872-2.242-6.4532-2.3262-9.8599-0.10853-3.3918-0.15156-6.7968 0.0835-10.184 0.20362-2.1204 1.0255-4.1135 1.6919-6.0483 1.5778-4.4087 4.0576-8.4873 7.311-11.861 3.7666-4.0786 8.3102-7.5236 13.531-9.5024 2.6586-1.0581 5.4322-1.9313 8.3159-2.0112 2.3083-0.12702 4.62-0.1976 6.9316-0.21973zm343.49 1.0137c2.0228 6e-3 3.9069 0.78185 5.7349 1.5601 2.2978 0.80574 4.7124 1.2511 6.9683 2.1899 6.2044 2.3177 11.815 6.46 15.376 12.097 2.5399 3.9271 4.1182 8.4107 5.023 12.981 0.20402 1.0493 0.42637 2.3535 0.58154 3.5112 0.44436 3.7137 0.75459 7.5548-0.16259 11.222-1.0138 3.2292-3.4752 5.7256-5.8696 8.0054-4.0256 3.6966-8.5169 6.7623-12.962 9.8657-2.6064 1.8721-5.3906 3.5731-7.6186 5.9077-0.51338 0.59041-0.98679 1.3014-1.0034 2.1079-3.8122 0.13226-7.7713 0.20848-11.496-0.0249-2.8444-0.10118-5.5314-1.1506-8.1592-2.1504-6.2637-2.476-11.849-6.762-15.574-12.404-2.146-3.25-3.878-6.8007-4.9863-10.538-0.53413-1.9137-0.76133-3.9898-0.84961-5.8638-0.0662-1.8285-0.17585-3.9174 0.0132-5.8433 0.11998-1.7055 1.0229-3.1874 2.0127-4.5278 1.065-1.5525 1.3906-3.5138 2.064-5.1475 2.209-6.0846 5.6521-11.935 10.898-15.875 3.0375-2.3468 6.5851-3.9146 10.204-5.1211 1.9388-0.82853 3.9115-1.6825 6.0454-1.8208 1.2487-0.12678 2.5057-0.17958 3.7602-0.13184z" fill="#f4bb5b"/><path d="m376.35 692.67c-83.825-3.328-150.64-17.891-205.68-44.833-31.335-15.338-52.437-30.137-72.703-50.989-25.187-25.915-40.279-54.748-46.037-87.956-2.0872-12.038-2.71-19.852-2.6922-33.776 0.03816-29.923 5.3633-58.318 18.348-97.836l3.4595-10.529-2.3177-6.7996c-13.512-39.641-21.87-81.361-24.394-121.77-1.1658-18.662-0.40452-49.593 1.6209-65.853 5.4051-43.394 20.686-81.875 44.164-111.21 12.343-15.425 28.28-29.672 39.164-35.013 8.2571-4.0517 10.797-4.5943 21.414-4.5735 7.552 0.01478 9.7385 0.18253 13.749 1.0549 20.303 4.4157 41.434 16.718 68.222 39.718 25.454 21.855 50.722 50.655 71.582 81.591 2.0068 2.9761 3.8476 5.411 4.0905 5.411s5.0233-0.92176 10.623-2.0483c39.923-8.0318 82.771-10.038 127.61-5.9764 14.472 1.311 31.415 3.7455 44.097 6.3363l5.4136 1.1059 4.9473-7.175c22.07-32.008 46.912-59.924 72.184-81.118 26.201-21.973 45.11-32.915 64.969-37.596 5.0608-1.1929 6.2099-1.2939 14.7-1.2919 8.0643 0.0019 9.6563 0.12736 12.795 1.0082 7.1062 1.9943 13.078 5.3033 21.052 11.664 13.992 11.162 25.655 24.015 36.114 39.798 5.8331 8.8024 8.1102 12.696 12.181 20.827 13.292 26.549 20.907 55.396 24.103 91.308 0.91187 10.246 0.75647 47.492-0.24594 58.946-2.5283 28.887-6.2606 51.24-13.026 78.016-4.0066 15.856-11.656 40.389-14.742 47.281l-1.1511 2.5707 2.0607 6.6395c6.5773 21.192 13.565 51.329 16.381 70.651 3.4696 23.805 3.399 46.342-0.21223 67.8-8.7114 51.764-39.346 92.604-93.006 123.99-46.38 27.127-114.47 44.849-191.11 49.741-21.588 1.3779-64.517 1.8152-87.728 0.89364zm59.406-25.289c43.204-1.8244 77.09-5.5722 108.55-12.006 43.147-8.8227 81.614-23.685 110.19-42.572 35.622-23.543 58.156-53.765 66.492-89.177 2.9596-12.572 4.1089-23.5 4.0848-38.84-0.0339-21.542-2.4714-38.516-9.7879-68.156-9.1083-36.899-19.442-66.171-33.163-93.945-15.044-30.45-32.604-55.463-53.667-76.445-41.32-41.162-96.058-67.339-160.7-76.851-42.622-6.2718-88.757-6.2762-129.63-0.0121-89.384 13.697-156.63 55.678-204.25 127.52-27.558 41.57-47.351 91.888-56.608 143.91-6.3606 35.744-1.4784 73.142 13.431 102.89 15.071 30.066 42.089 55.771 80.072 76.182 48.156 25.877 122.04 43.352 198.9 47.044 5.5722 0.26771 11.271 0.54601 12.664 0.61846 6.8208 0.35471 43.881 0.24579 53.42-0.157zm-71.61-115.34c-8.4465-1.5519-17.868-6.114-21.745-10.53-3.8475-4.3821-3.462-12.298 0.78575-16.135 4.0086-3.6215 8.7628-3.4356 14.475 0.56619 3.5535 2.4892 9.2919 4.6692 13.14 4.9918 8.2317 0.69011 14.068-4.4546 16.296-14.365 0.39822-1.7713 0.57762-3.3438 0.39866-3.4945-0.17895-0.15064-1.6414-0.74063-3.25-1.3111-6.2113-2.2028-11.427-6.3281-13.656-10.802-1.6122-3.2353-1.6175-7.912-0.0127-11.133 2.3657-4.7473 8.0419-8.9351 15.233-11.239 14.073-4.5081 30.715-1.796 39.52 6.4406 3.6081 3.3752 5.0715 6.3462 5.0988 10.352 0.0223 3.2767-0.65703 5.1592-3.016 8.3572-2.1959 2.977-7.5618 6.6233-11.771 7.9988-1.7289 0.56496-3.3062 1.1747-3.5052 1.355-0.41785 0.37862 1.655 7.2415 2.9677 9.8254 2.0129 3.9624 6.1072 7.1423 10.139 7.8747 3.6223 0.65803 11.156-1.2874 15.347-3.9631 4.1064-2.6217 7.2332-4.0474 8.8764-4.0474 4.6911 0 9.1747 3.4091 10.221 7.7718 1.5473 6.45-2.3927 12.503-10.808 16.604-7.5654 3.6867-13.506 5.0974-21.468 5.0974-10.272 0-17.792-2.7881-24.134-8.9472l-3.5373-3.4355-3.061 3.0984c-4.8074 4.8661-9.8888 7.5961-16.793 9.0223-4.1372 0.85457-11.23 0.87581-15.74 0.0471zm-136.62-51.373c-12.161-2.0521-22.586-9.9011-27.845-20.964-2.8213-5.9351-3.5759-9.4097-3.5458-16.327 0.0297-6.8234 0.95495-10.845 3.7946-16.493 6.7937-13.512 20.556-21.52 35.494-20.655 5.6106 0.32501 9.0262 1.1525 13.75 3.3312 9.8917 4.5622 16.985 12.8 20.408 23.701 0.92457 2.9444 1.0794 4.3957 1.0794 10.115 0 7.5481-0.58313 10.434-3.2485 16.077-7.1479 15.133-23.713 23.943-39.887 21.214zm18.201-40.552c2.2371-0.62116 5.7026-3.7687 6.8038-6.1794 1.1993-2.6256 1.1069-6.3617-0.22835-9.2291-1.8735-4.0233-5.5048-6.331-9.9623-6.331-6.4565 0-11.025 4.6296-11.038 11.185-0.0147 7.6096 6.875 12.651 14.425 10.554zm327.18 40.552c-3.9173-0.66104-7.4715-1.891-11.665-4.037-5.6191-2.8753-12.406-9.5655-15.282-15.064-3.1138-5.9534-4.38-10.946-4.4386-17.5-0.0616-6.8962 0.8069-10.743 3.8629-17.109 1.8246-3.8006 2.9442-5.4144 5.9873-8.6291 5.5556-5.8692 10.825-9.0651 18.391-11.154 4.1745-1.1528 14.239-1.1535 18.419-1e-3 12.477 3.4392 22.162 12.53 26.303 24.69 1.3042 3.8294 1.5149 5.1266 1.6903 10.404 0.1686 5.075 0.0456 6.6415-0.77731 9.901-3.6461 14.442-14.649 25.176-28.798 28.096-4.2763 0.88257-9.8726 1.047-13.693 0.40243zm19.737-41.131c3.7443-1.9363 6.1035-5.8318 6.1197-10.105 0.0119-3.1235-0.70528-5.066-2.7156-7.3556-4.3124-4.9115-12.295-4.9636-16.558-0.1081-2.1046 2.397-2.8206 4.298-2.8206 7.4884 0 4.7935 2.8079 8.8701 7.2521 10.529 2.1472 0.80138 6.7648 0.56399 8.7226-0.44845zm125.85-133.98c7.6197-27.837 12.608-55.728 15.05-84.147 1.0013-11.653 1.1498-42.227 0.25486-52.498-3.2448-37.244-11.954-67.085-27.15-93.024-12.908-22.033-35.033-44.725-47.218-48.426-8.2901-2.518-21.883 0.68084-36.018 8.4761-23.484 12.951-52.76 38.665-76.58 67.262-8.7775 10.538-24.069 30.878-24.029 31.963 7e-3 0.19841 3.4784 1.4729 7.7136 2.8323 69.607 22.342 123.43 65.867 162.78 131.64 7.075 11.825 18.389 34.313 22.051 43.829 0.23286 0.60501 0.50331 1.0195 0.601 0.92103 0.0977-0.0984 1.2427-4.0701 2.5445-8.8258zm-619.52-20.596c14.508-25.708 29.801-46.66 48.91-67.005 33.861-36.052 76.95-62.888 127.52-79.417l6.5825-2.1517-4.9159-6.8787c-24.908-34.853-49.957-60.851-79.266-82.267-14.613-10.678-28.001-17.409-39.138-19.679-10.992-2.24-16.722-0.74246-26.173 6.8407-12.798 10.268-23.891 22.887-33.434 38.031-4.1744 6.625-10.85 20.039-14.095 28.322-7.9607 20.321-12.328 39.249-14.662 63.551-1.0018 10.43-1.3729 36.229-0.69344 48.204 1.6057 28.3 6.3791 57.948 14.111 87.647 2.7777 10.669 1.868 10.681 7.2993-0.0967 2.5897-5.1391 6.1704-11.934 7.957-15.1z" fill="#41130d"/></g></svg>
