<?xml version="1.0" encoding="UTF-8"?>
<svg width="1e3" height="1e3" version="1.0" viewBox="0 0 750 750" xml:space="preserve" xmlns="http://www.w3.org/2000/svg" zoomAndPan="magnify"><g transform="matrix(.52518 0 0 .52518 -116.98 304.69)"><g transform="matrix(.93987 0 0 .93984 105.47 81.554)" stroke-width="1.1151"><path d="m932.16 616.35c124.93-5.9993 253.77-37.546 366.44-89.721 85.215-39.462 144.42-85.414 182.28-141.47 12.126-17.955 14.123-23.457 13.966-38.47-0.1998-19.044-6.6985-37.594-28.237-80.599-19.152-38.241-28.884-64.463-32.634-87.936-0.7-4.3814-1.6502-16.8-2.1118-27.598-0.4614-10.797-1.4092-24.524-2.1061-30.504-16.546-141.96-114.92-273.32-257.23-343.47-73.787-36.374-152.97-56.805-246.22-63.535-18.593-1.3418-72.758-1.3374-92.411 9e-3 -55.058 3.7675-103.06 11.706-150.17 24.835-80.903 22.547-150.89 58.686-209.44 108.15-13.455 11.367-39.824 37.742-51.128 51.139-45.308 53.7-74.062 112.24-87.295 177.71-4.1953 20.759-6.1461 37.835-7.4979 65.632-1.4667 30.157-3.2033 41.01-9.5039 59.394-5.5373 16.158-9.9602 25.848-24.435 53.534-31.782 60.789-38.795 86.289-29.321 106.62 8.833 18.952 31.896 48.523 55.521 71.188 49.621 47.606 126.37 92.403 214.84 125.4 69.625 25.968 151.08 44.947 232.78 54.234 57.258 6.5092 107.27 8.173 163.91 5.4529z" fill="#fff"/><path d="m860.82 603.9c-43.73-1.7712-76.733-4.6569-114.57-10.018-124.22-17.599-234.53-54.06-326.99-108.08-66.376-38.778-113.44-81.472-142.18-128.97-4.8587-8.0301-6.8538-12.226-7.8133-16.433-0.70869-3.107-1.2022-5.7353-1.0967-5.8408 0.10548-0.10549 3.1916-0.80759 6.8579-1.5602 31.824-6.5327 53.721-25.682 73.099-63.922 7.7681-15.33 12.892-27.733 27.63-66.881 21.615-57.415 31.527-78.771 48.929-105.43 22.628-34.663 49.196-58.473 84.481-75.712 22.097-10.796 43.038-17.341 69.364-21.68 74.425-12.266 140.5 4.9839 199.08 51.97 11.028 8.8457 28.635 25.792 38.609 37.159 29.372 33.474 56.365 77.688 73.205 119.91 1.8346 4.5996 3.4326 8.4618 3.551 8.5826s2.0118-4.7715 4.2075-10.872c13.616-37.831 33.505-75.041 56.992-106.63 16.744-22.518 38.903-44.974 60.398-61.207 21.42-16.176 48.647-29.901 74.014-37.311 41.455-12.11 87.87-12.395 134.97-0.83021 65.566 16.099 109.4 50.772 138.86 109.84 12.362 24.784 19.606 44.801 34.402 95.076 19.671 66.837 28.946 87.147 48.921 107.13 13.856 13.859 28.109 20.825 48.463 23.685 3.1537 0.44316 5.9567 1.0285 6.229 1.3007 0.7774 0.77753-1.2983 11.524-3.216 16.65-0.955 2.5526-5.1278 9.7598-9.2727 16.016-40.026 60.413-105.31 109.56-201.09 151.39-107.16 46.795-224.75 74.707-343.23 81.474-16.046 0.91651-70.346 1.7024-82.793 1.1982zm-7.9448-135.37c9.1519-2.3758 18.331-7.5416 25.23-14.199l6.3138-6.0925 5.21 5.1124c6.3402 6.2214 13.728 10.687 22.623 13.674 6.2074 2.0848 7.6865 2.2448 20.489 2.2158 12.567-0.0284 14.471-0.23454 21.326-2.3076 10.394-3.1434 21.87-8.8726 26.986-13.473 11.353-10.208 11.9-24.631 1.2421-32.75-6.5353-4.9782-14.942-4.6518-23.21 0.9012-9.3089 6.2519-17.584 9.1443-26.343 9.2075-5.4434 0.0392-6.8667-0.28396-10.771-2.4463-6.9882-3.8704-11.73-11.458-15.032-24.054-0.9121-3.4794-1.0096-3.3506 3.6408-4.807 10.541-3.301 21.65-11.683 25.508-19.246 8.4799-16.622-5.22-34.635-31.593-41.54-11.69-3.0608-28.056-3.0828-39.533-0.0533-11.97 3.1596-18.597 6.6784-25.539 13.56-6.6126 6.5549-8.7093 10.993-8.7093 18.434 0 5.8308 3.8055 13.375 9.1879 18.214 4.4271 3.9804 13.388 9.0046 19.037 10.674 4.0893 1.2083 4.26 1.906 2.3038 9.4163-2.592 9.9512-8.3013 17.473-15.667 20.642-8.5646 3.6844-23.025 0.65119-34.669-7.2721-8.1862-5.5703-14.277-6.6604-20.76-3.7154-10.055 4.568-13.862 17.68-8.313 28.631 4.9097 9.6888 25.188 19.761 45.954 22.825 4.7349 0.69872 20.073-0.25047 25.089-1.5526zm-338.91-99.124c16.62-3.4949 28.013-8.877 36.319-17.158 4.188-4.1751 5.4262-6.0546 6.5612-9.9586 2.4121-8.2974-0.0491-15.193-8.0742-22.623-25.916-23.994-94.295-24.014-120.96-0.0355-8.0186 7.2094-10.669 16.994-6.8714 25.363 2.3675 5.2169 9.5931 11.846 17.26 15.834 10.579 5.5037 18.862 7.8396 37.514 10.58 6.2658 0.92051 30.352-0.33984 38.255-2.0018zm807.49 0.42745c26.08-5.0827 43.086-16.548 45.678-30.797 1.7381-9.5574-6.7922-20.622-21.262-27.58-13.793-6.6323-29.239-9.7856-47.976-9.7942-31.292-0.0144-57.867 10.123-66.641 25.421-1.9593 3.4159-2.4464 5.2681-2.4527 9.3252-0.016 10.381 6.63 18.319 21.318 25.46 15.349 7.4625 29.716 10.18 51.014 9.6509 7.4452-0.18505 16.46-0.9327 20.322-1.6854zm-681.83-88.652c24.9-6.5539 44.068-27.387 48.48-52.692 1.5532-8.9069 1.5736-13.942 0.0897-22.17-5.2924-29.342-28.231-50.961-57.77-54.444-31.806-3.7511-61.816 16.686-70.804 48.219-2.4666 8.6535-2.6476 24.689-0.37255 32.986 7.03 25.64 26.522 44.027 51.942 48.998 7.1853 1.405 21.391 0.95688 28.434-0.89708zm-9.407-71.604c-6.5555-3.2449-10.259-9.3354-10.228-16.821 0.0299-7.1992 4.0087-13.776 10.418-17.22 3.8193-2.0526 12.532-1.8077 16.872 0.4743 6.0996 3.2074 10.334 10.02 10.321 16.607-0.0134 6.897-4.8287 14.219-11.285 17.159-4.6204 2.1043-11.618 2.0174-16.097-0.19973zm542.67 72.769c8.1083-1.258 16.696-4.3164 23.677-8.4326 7.1024-4.1875 18.971-15.908 22.907-22.619 17.468-29.792 9.7212-67.623-17.859-87.211-12.303-8.7378-23.244-12.291-38.052-12.357-19.075-0.0852-34.307 6.1824-47.578 19.577-31.626 31.922-21.984 86.156 18.725 105.32 12.722 5.99 24.785 7.7966 38.179 5.7184zm-2.2186-72.535c-16.898-7.9784-13.927-31.698 4.4678-35.67 7.712-1.6654 16.218 2.6507 19.848 10.072 4.3546 8.9003 1.6806 18.992-6.4595 24.379-4.5688 3.0235-12.84 3.5884-17.857 1.2195z" fill="#fafbfb"/><path d="m475.7 371.41c-24.724-3.6322-39.059-9.06-48.645-18.418-5.5236-5.3927-7.7627-10.066-7.7872-16.253-0.0772-19.523 30.588-35.092 69.083-35.075 25.661 0.0117 48.247 6.7431 60.41 18.004 8.0252 7.4299 10.486 14.326 8.0742 22.623-1.1349 3.9041-2.3732 5.7835-6.5612 9.9586-12.191 12.154-31.653 18.567-58.267 19.2-7.5894 0.18063-14.928 0.16256-16.308-0.0401zm803.97-0.71612c-11.583-1.6647-20.015-4.1813-29.563-8.8237-14.688-7.1409-21.334-15.078-21.318-25.46 0.019-12.224 11.899-22.993 32.636-29.585 20.502-6.5172 48.447-6.8813 70.19-0.91457 17.277 4.7411 31.833 15.323 34.715 25.238 4.9035 16.867-13.262 32.524-44.887 38.687-9.5978 1.8705-31.586 2.3222-41.773 0.85822z" fill="#eaa1c0"/><path d="m1488.6 334.65c-33.06-6.5688-55.099-27.97-71.875-69.794-5.7477-14.329-10.089-27.665-20.554-63.132-14.154-47.97-21.418-67.996-33.207-91.541-34.499-68.903-87.632-104.69-173.44-116.82-14.984-2.1175-53.215-2.1342-67.322-0.029326-73.188 10.92-132.76 51.762-180.89 124.01-17.831 26.768-37.622 67.002-46.568 94.673-0.79036 2.4446-1.5535 4.3263-1.6959 4.1815s-1.7993-4.1326-3.682-8.8618c-24.296-61.028-67.32-120.99-112.97-157.44-63.991-51.097-140.04-66.656-222.99-45.619-30.251 7.6719-60.441 22.523-83.512 41.08-9.189 7.3911-25.67 24.222-33.139 33.844-13.027 16.78-25.478 37.655-35.917 60.213-8.0059 17.301-13.695 31.407-27.151 67.322-12.894 34.415-17.899 46.44-25.932 62.304-14.619 28.873-30.053 46.133-50.089 56.015-8.1564 4.0229-22.361 8.3799-27.321 8.3799-2.4134 0-2.4173-9e-3 -2.4173-5.3436 0-15.481 1.6074-38.464 18.773-72.215 4.3278-8.5093 12.121-23.86 16.561-32.599 18.948-37.295 24.587-56.398 25.988-94.735 1.3242-36.238 7.8576-62.514 16.725-93.833 12.992-45.886 34.385-92.664 62.924-130.35 24.163-31.906 57.931-67.965 90.708-92.681 85.818-64.711 200.15-104.72 328.8-115.16 22.503-1.8275 88.961 0.38015 110.02 2.0301 110.43 8.6532 208.82 39.177 289.75 89.994 47.495 29.823 93.708 72.426 126.76 116.37 33.408 44.409 60.026 92.742 73.863 141.68 9.2201 32.607 14.749 56.637 16.489 95.756 1.6903 37.996 4.2302 54.954 34.91 117.92 10.843 22.255 17.365 34.091 20.909 44.521 3.0064 8.8473-0.4743 21.274-0.4743 26.901v4.2592l-3.1361-0.0786c-1.7249-0.0433-5.7231-0.59264-8.8852-1.2209zm-1143.7-419.66c-6.7774-22.39-18.005-57.973-20.753-87.943-4.3011-46.903 2.872-96.206 9.4666-158.46 6.8665-64.819 14.04-96.099 28.866-125.86 10.326-20.73 20.119-32.289 37.475-35.001 16.324-2.551 49.872 2.0114 83.879 13.053 25.71 8.3476 49.158 17.415 82.414 33.897 66.524 32.969 113.67 72.07 149.78 106.81 8.3472 8.0297 8.815 8.648 6.8666 9.0775-22.829 5.0316-61.461 15.605-77.776 21.287l-4.5996 1.6019-6.793-6.4938c-35.678-34.107-101.91-70.048-148.76-80.721-13.14-2.9938-29.035-3.3526-36.797-0.8306-17.937 5.8278-30.544 39.166-36.542 96.635-1.4924 14.299-1.4867 74.047 8e-3 86.557 1.6438 13.756 4.0066 26.75 6.2942 34.615l2.041 7.0169-7.558 8.0283c-20.672 21.959-35.762 50.814-50.966 75.425-3.1256 5.0596-12.644 10.308-12.953 10.668-0.30906 0.35989-2.4135-4.5079-3.6363-8.5474zm1073 4.7604c0-1.3602-22.185-27.285-30.736-38.714-9.5343-12.744-26.968-21.732-33.534-37.821l-5.8196-14.261 1.6252-4.7076c2.1946-6.3573 5.4427-22.653 7.0373-35.307 1.8127-14.384 2.5457-58.247 1.2774-76.447-4.3014-61.726-17.5-101.95-35.86-109.28-4.1831-1.6703-6.2445-1.9038-16.891-1.9128-8.6762-8e-3 -14.149 0.42769-19.235 1.5289-47.44 10.272-116.12 47.485-151.58 82.134l-8.1593 7.9719-14.622-0.24645c-18.8-0.31688-42.045-11.504-60.111-15.6-7.8247-1.7738-9.9905-7.6765-10.109-7.821-0.3465-0.42272 9.8767-25.135 21.02-34.264 52.152-42.728 127.32-81.296 199.35-109.52 41.498-16.259 69.03-23.879 97.304-23.927 22.464-0.0378 27.89 9.3531 37.707 21.254 9.5512 11.579 19.421 24.473 27.317 55.995 13.846 55.271 22.187 99.032 22.959 166.95 0.7898 69.465-6.4352 113.71-15.571 149.92-3.93 15.576-13.361 28.432-13.361 24.066z" fill="#e89b22"/><path d="m1340.1-177.62c-53.692-52.228-121.91-94.559-199.41-123.75l-14.9-5.6112 8.2099-8.0212c35.515-34.699 104.16-71.904 151.63-82.183 5.086-1.1012 10.559-1.5362 19.235-1.5289 10.646 9e-3 12.708 0.24243 16.891 1.9128 18.359 7.3309 31.558 47.554 35.86 109.28 1.2683 18.2 0.5353 62.063-1.2774 76.447-1.5939 12.648-4.8425 28.949-7.0351 35.3l-1.6227 4.7008 2.1987 2.1986c1.2091 1.2093 2.0189 2.1828 1.7995 2.1634-0.2196-0.0194-5.4301-4.929-11.579-10.91zm-920.64 7.4464c-0.0276-0.60533-1.0254-4.6758-2.2175-9.0454-2.7088-9.929-5.1643-25.972-6.4356-42.046-1.2997-16.433-0.56346-65.56 1.2165-81.175 6.285-55.137 18.547-86.478 36.06-92.168 7.7625-2.522 23.657-2.1632 36.797 0.8306 46.709 10.642 112.99 46.564 148.48 80.468 3.6471 3.4844 6.4444 6.6376 6.216 7.0071-0.22833 0.36945-2.9513 1.513-6.0511 2.5411-3.0998 1.0282-12.034 4.3993-19.853 7.4914-72.326 28.601-134.19 68.208-185.73 118.9-4.638 4.5623-8.4552 7.7998-8.4827 7.1945z" fill="#c36d29"/><path d="m837.4 647.38c-2.0698-0.16467-10.349-0.69123-18.399-1.1702-133.56-7.9464-279.66-46.737-391.81-104.03-40.874-20.88-72.493-41.332-105.37-68.158-13.814-11.271-44.417-41.666-55.66-55.283-24.185-29.291-34.582-46.343-40.539-66.486-3.0039-10.158-3.7046-26.069-1.7362-39.427 3.208-21.771 9.3753-37.844 31.56-82.255 18.135-36.304 23.314-47.803 27.858-61.859 4.7378-14.655 5.4398-19.109 6.3326-40.17 2.4396-57.552 12.04-102.33 32.448-151.32l3.2895-7.8979-4.0384-4.8526c-11.751-14.121-19.193-33.333-25.853-66.745-5.4845-27.514-9.412-57.388-11.875-90.32-1.6179-21.638-1.3671-82.636 0.43185-105 6.225-77.39 21.461-147.37 39.972-183.6 19.451-38.065 42.336-52.091 84.782-51.961 49.864 0.15237 103.3 17.021 183.15 57.814 57.564 29.409 97.503 54.744 133.66 84.788 12.53 10.41 34.131 31.48 44.333 43.243 4.1888 4.8296 8.1908 8.7428 8.8935 8.6959 0.70264-0.0468 8.4279-0.89979 17.167-1.8954 59.787-6.8114 127.12-6.6678 182.31 0.3887l10.033 1.2829 2.0931-2.437c15.967-18.589 26.267-28.855 46.417-46.258 56.574-48.862 130.46-91.734 212.84-123.5 72.787-28.065 128.78-32.74 161.14-13.454 11.19 6.6684 24.918 22.536 32.468 37.529 12.339 24.501 24.842 68.124 32.115 112.05 6.9613 42.038 9.4655 75.335 9.4345 125.44-0.039 63.54-4.692 118.9-12.774 151.99-5.5615 22.77-15.518 45.943-24.869 57.882l-4.8827 6.234 4.3414 10.074c13.837 32.109 24.961 69.871 30.436 103.32 2.6363 16.107 4.1129 30.559 5.0843 49.76 2.1648 42.789 4.5626 50.836 31.773 106.63 20.22 41.458 26.04 55.963 30.226 75.318 2.711 12.536 2.7169 35.695 0.011 45.527-7.0824 25.741-38.809 69.304-73.692 101.19-37.238 34.034-75.861 59.946-128.82 86.425-103.16 51.578-225.52 86.259-347.06 98.373-36.375 3.6256-44.848 3.9834-99.519 4.2034-29.668 0.11935-55.635 0.0823-57.705-0.0824zm100.77-43.866c124.93-5.9993 253.77-37.546 366.44-89.721 85.215-39.462 144.42-85.414 182.28-141.47 12.126-17.955 14.123-23.457 13.965-38.47-0.1998-19.044-6.6984-37.594-28.237-80.599-19.153-38.241-28.884-64.463-32.634-87.936-0.7001-4.3814-1.6503-16.8-2.1119-27.598-0.4614-10.797-1.4092-24.524-2.1061-30.504-16.546-141.96-114.92-273.32-257.23-343.47-73.787-36.373-152.97-56.805-246.22-63.535-18.593-1.3418-72.758-1.3374-92.411 8e-3 -55.058 3.7675-103.06 11.706-150.17 24.835-80.903 22.547-150.89 58.686-209.44 108.15-13.455 11.367-39.824 37.742-51.128 51.139-45.308 53.7-74.062 112.24-87.295 177.71-4.1954 20.759-6.1461 37.835-7.498 65.632-1.4666 30.157-3.2032 41.01-9.5038 59.394-5.5375 16.158-9.9604 25.848-24.436 53.534-31.782 60.789-38.795 86.289-29.321 106.62 8.8328 18.952 31.896 48.523 55.521 71.188 49.622 47.606 126.37 92.403 214.84 125.4 69.625 25.968 151.08 44.947 232.78 54.234 57.258 6.5092 107.27 8.173 163.91 5.4529zm-114.66-134.62c-17.643-3.1437-37.179-13.608-41.301-22.122-3.889-8.0335-2.9248-17.352 2.4067-23.261 3.7365-4.141 7.1072-5.6092 12.823-5.5854 4.6863 0.0195 7.8 1.2674 15.69 6.2881 9.5965 6.1069 20.925 8.9253 28.796 7.1639 10.294-2.3037 18.95-13.431 20.98-26.972l0.57258-3.8182-4.4673-1.4506c-11.443-3.7157-21.579-11.448-25.493-19.448-7.962-16.274 5.3304-33.618 31.061-40.528 9.7122-2.6085 30.51-2.5968 40.142 0.0224 14.849 4.0377 26.802 12.271 31.045 21.383 2.7721 5.9531 2.7406 13.689-0.0786 19.346-3.8465 7.7189-13.53 15.184-24.38 18.795-3.8494 1.281-5.3317 2.1819-5.3317 3.2406 0 2.1769 3.2226 11.592 5.5186 16.123 8.3831 16.543 26.817 17.847 49.13 3.4735 8.91-5.7394 18.535-4.6992 24.6 2.6585 2.5575 3.1027 4.3806 7.8562 4.3806 11.422 0 1.128-0.60369 4.084-1.3416 6.5688-3.6961 12.446-24.906 24.108-48.544 26.69-19.223 2.1001-37.288-3.6763-49.662-15.879l-5.6561-5.578-6.5726 6.3574c-7.1235 6.8903-15.155 11.544-24.122 13.976-5.8612 1.5901-23.848 2.2661-30.196 1.1349zm-214.11-187.72c-12.421-2.7012-22.264-8.2233-32.06-17.986-13.228-13.183-19.219-27.505-19.239-45.996-0.0409-37.55 31.908-67.538 69.223-64.973 9.658 0.66376 15.766 2.3361 24.84 6.8007 13.382 6.5843 23.9 17.134 30.091 30.181 3.9526 8.3292 5.4686 14.541 6.0247 24.685 1.7706 32.296-19.95 60.628-51.581 67.282-7.2397 1.5229-20.314 1.5264-27.299 7e-3zm34.937-69.971c7.6249-2.2845 13.522-10.276 13.534-18.34 0.0165-11.095-8.3121-19.384-19.507-19.413-14.156-0.0364-23.4 14.982-17.058 27.71 4.3453 8.7198 13.752 12.822 23.03 10.042zm504.59 69.884c-23.439-5.2228-42.352-23.264-49.061-46.799-2.4559-8.6163-2.6454-24.663-0.3896-32.986 6.1443-22.67 23.698-40.507 46.28-47.028 8.4767-2.4476 25.322-2.6078 33.647-0.32013 24.377 6.6984 43.025 26.629 47.823 51.111 1.2566 6.4124 1.0269 20.22-0.4416 26.545-5.2835 22.756-22.484 41.125-45.242 48.313-7.8136 2.4682-24.146 3.051-32.616 1.1638zm39.571-72c10.028-6.2001 12.189-19.779 4.5643-28.687-4.0238-4.7008-8.7408-6.9667-14.446-6.9394-11.362 0.0543-19.459 8.1464-19.488 19.478-0.02 7.7186 5.3547 15.269 12.912 18.141 4.4997 1.7095 11.925 0.81097 16.458-1.9917zm-829.85-301.2c47.697-74.441 117.06-136.63 199.85-179.17 47.866-24.595 105.17-44.937 158.9-56.404 3.6797-0.78536 6.9944-1.7058 7.366-2.0454 0.3716-0.33963-3.9562-4.9183-9.6174-10.175-38.397-35.652-81.167-64.114-144.94-96.451-53.998-27.382-95.618-42.774-134.73-49.827-13.683-2.4675-33.892-3.1025-41.531-1.3049-15.298 3.6-23.503 11.815-33.979 34.025-12.867 27.277-19.634 57.131-25.958 114.51-11.066 100.41-8.7721 169.54 7.9644 240.02 1.5838 6.6695 3.684 14.563 4.667 17.542 1.5274 4.6276 1.9204 5.1936 2.7019 3.891 0.50295-0.8384 4.6888-7.415 9.3018-14.615zm1064 2.5903c12.895-39.223 17.221-77.451 17.25-152.42 0.028-72.428-5.2167-119.95-19.549-177.16-9.0937-36.297-15.346-50.472-27.718-62.845-8.4998-8.4998-20.102-11.067-42.127-9.3223-26.768 2.1209-52.712 9.0115-90.702 24.089-71.362 28.323-138.72 67.326-189.02 109.46-11.598 9.7132-30.108 26.319-30.102 27.005 0 0.29921 5.7416 1.8304 12.754 3.4027 113.9 25.539 216.73 79.885 290.45 153.5 27.179 27.142 50.95 56.703 68.245 84.871 3.3767 5.4991 6.3384 10.016 6.5816 10.037 0.2432 0.0212 2.0197-4.7597 3.9476-10.624z" fill="#41130d"/></g></g></svg>
