<?xml version="1.0" encoding="UTF-8"?>
<svg width="1e3" height="1e3" version="1.0" viewBox="0 0 750 750" xml:space="preserve" xmlns="http://www.w3.org/2000/svg" zoomAndPan="magnify"><g transform="matrix(.55021 0 0 .54937 122.51 355.33)"><path d="m185.95 56.043h600.19v461.3h-600.19v-461.3z" fill="#fff" stroke-width="1.6167"/><path d="m479.88-331.41c-57.424 0.48887-118.91 6.4008-166.65 41.476-26.064 33.577-17.964 79.396-16.789 118.89 15.199 128.69 114.82 248.63 238.1 288.02 19.54 13.642 69.544 24.233 48.86-12.34-15.644-57.459-58.005-119.15-64.967-178.69 14.356-45.685 56.314 11.843 63.351 37.033 57.031 93.705 158.98 182.94 270.88 201.93 34.024 16.799 48.319-15.954 36.709-49.527-1.2902-110.7-22.573-226.38-88.146-317.97-76.267-94.558-204.52-128.48-321.34-128.82zm-372.12 139.42c-62.744 70.804-99.53 180.04-74.619 273.37 1.4564 33.342 27.567 32.397 21.498 4.1897 2.9931-85.293 18.092-187.98 70.823-256.94-0.12398-8.1213-8.8436-22.16-17.702-20.615z" fill="#f4bb5b"/><path d="m833.77-549.29c-2.2379 0.28079-3.75 2.1361-5.356 3.5272-8.1385 7.6613-15.998 15.613-23.86 23.555-7.1462 7.2851-14.322 14.55-21.158 22.13-28.841 32.623-54.703 68.243-73.697 107.54-8.3025 17.153-15.203 34.987-20.533 53.286-1.301 4.5486-2.7055 9.0824-3.6149 13.73-0.15531 0.94666-0.18181 1.9539 0.34454 2.7936 0.15093 0.6811 0.6261 1.0461 1.2675 1.2491 6.2843 2.9032 12.695 5.5314 18.908 8.5916 3.2154 1.5566 6.3654 3.1425 9.4928 4.774 3.6634 1.9095 7.1249 3.7869 10.691 5.7811 8.7676 4.9245 17.369 10.148 25.744 15.715 0.80708 0.53812 1.7641 1.1751 2.5748 1.7317 4.5046 2.9891 8.7952 6.2832 13.262 9.3256 1.1024 0.76804 2.2831 1.4506 3.6345 1.6398 0.58983 0.0901 1.0919-0.50235 1.6437-0.70395 1.3972-1.0866 2.023-2.8532 2.9358-4.3232 5.526-10.341 10.705-20.864 15.822-31.412 5.7621-11.806 10.919-23.899 15.751-36.112 14.921-37.776 25.862-77.211 31.36-117.48 2.1157-15.172 3.3049-30.47 3.5539-45.787 0.1801-10.543 0.0689-21.088 0.10136-31.632-1.6666-2.1782-3.0914-4.5603-5-6.541-1.0227-0.97884-2.4384-1.591-3.8672-1.375zm-698.18 17.836c-2.4294 0.14224-4.1408 2.1967-5.2136 4.1908-1.3523 2.3361-2.44 4.8798-2.636 7.6017-0.42222 4.7195-0.28046 9.4665-0.32092 14.199 0.0512 34.03 4.1115 68.028 11.787 101.17 8.6009 37.229 21.619 73.354 37.602 108.03 5.5369 11.789 11.363 23.443 17.484 34.939 1.7145 3.0757 3.2819 6.2632 5.3901 9.095 0.60813 0.89116 1.6504 1.2248 2.5819 1.6619 1.2965-0.35032 2.4713-0.98903 3.5436-1.7898 5.1532-3.5664 10.147-7.3599 15.35-10.855 14.579-9.8961 29.707-19.002 45.39-27.042 4.4241-2.3052 9.0222-4.3272 13.174-7.1162 1.8057-1.1799 3.255-2.818 4.3367-4.6744 0.58255-0.88869 1.1649-1.7775 1.7463-2.6669-2.2868-8.9215-4.5728-17.851-7.4487-26.605-13.475-41.643-35.515-80.092-61.732-114.98-10.939-14.528-22.596-28.516-34.88-41.925-10.024-10.609-20.339-20.939-30.73-31.188-3.673-3.5566-7.2665-7.2087-11.145-10.543-1.207-0.94165-2.7179-1.6416-4.2793-1.5098zm128.29 279.13c-0.46673-0.46673-15.082 8.3987-24.623 14.936-72.022 49.345-125.36 126.15-143.44 206.52-8.1909 36.424-12.41 83.046-14.661 161.94-2.6915 94.348-5.0493 119.7-14.254 153.37-8.5606 31.32-12.247 57.696-12.217 87.376 0.03527 35.468 5.8573 64.742 18.589 93.457 27.356 61.699 90.13 108.5 181.5 135.31 6.1875 1.8154 11.453 3.3141 11.699 3.3313 0.2464 0.0172-3.8061-4.2736-9.0025-9.533-82.662-83.664-11.598-181.86 111.11-213.57l8.052-2.084 3.6818-9.4509c7.802-20.043 9.1454-25.271 19.123-74.325 14.196-69.792 20.575-95.004 29.316-115.86 8.2689-19.731 15.874-29.651 27.399-35.735 2.9327-1.5482 4.4079-1.7809 11.251-1.7809 7.1598 0 8.2835 0.19805 12.375 2.1788 6.1387 2.972 15.361 12.409 20.2 20.67 15.046 25.686 26.285 68.255 40.506 153.42 4.0572 24.296 6.9145 37.096 12.009 53.797 1.9303 6.3285 1.9873 6.4091 4.746 6.909 6.008 1.0886 26.805 7.3024 36.405 10.878 119.1 44.364 152.43 134.9 84.155 204.59-4.5478 4.6418-8.0635 8.4383-7.8121 8.4373 0.25146-1e-3 6.834-1.8302 14.626-4.0671 58.737-16.861 103.77-40.775 136.32-72.389 41.188-40.004 59.671-89.25 57.997-154.53-0.88329-34.446-6.1472-64.693-18.981-109.09-5.9567-20.606-9.5506-39.497-11.778-61.919l-0.92835-9.3688-5.2322-0.91888c-56.337-9.9168-111.44-33.835-157.48-68.348-35.425-26.559-70.538-63.781-101.43-107.52-3.9929-5.6534-7.3556-10.185-7.471-10.07-0.11539 0.11539 2.5168 7.1039 5.848 15.529 16.659 42.135 21.961 57.245 26.973 76.889 3.0265 11.862 5.9452 29.515 5.9522 35.982 0.0144 13.49-6.1424 24.438-15.545 27.642-6.5925 2.2463-13.6 1.5976-31.153-2.8829-80.762-20.615-147.03-56.778-198.59-108.38-29.085-29.105-50.148-58.752-69.225-97.436-19.619-39.782-31.01-79.36-36.626-127.25-1.2899-10.998-1.2878-56.281 3e-3 -67.782 0.52682-4.6927 0.80731-8.6814 0.62521-8.8636zm450.22 503.21c11.72 3.1e-4 21.221 9.5023 21.219 21.223-3.1e-4 11.719-9.5004 21.219-21.219 21.219-11.72 1e-3 -21.222-9.4992-21.223-21.219-1e-3 -11.722 9.5011-21.224 21.223-21.223zm-477.71 1.3894c11.192 1e-3 20.265 8.8988 20.266 19.874 1e-3 10.977-9.0722 19.876-20.266 19.877-11.195 3.9e-4 -20.27-8.8995-20.269-19.877 6.7e-4 -10.977 9.0754-19.875 20.269-19.874z" fill="#c46d29"/><path transform="translate(-7.0021e-5)" d="m411.15 625.67c-28.562-1.6907-56.65-4.6834-81.375-8.6703-22.489-3.6263-57.534-11.246-61.875-13.454-2.6673-1.3563-19.201-18.499-23.728-24.602-17.474-23.557-24.756-49.562-20.931-74.746 6.7632-44.532 44.771-84.088 105.11-109.39 30.431-12.762 64.216-21.019 102.3-25 12.635-1.321 60.914-1.3176 73.5 5e-3 31.53 3.3138 57.565 8.932 84.523 18.239 67.118 23.173 112.52 64.474 122.04 111.01 5.4996 26.896-1.525 54.844-20.078 79.881-2.0905 2.8212-7.8634 9.2766-12.829 14.345l-9.0278 9.2161-11.105 2.6043c-36.106 8.4674-87.798 15.696-139.64 19.529-19.013 1.4054-89.126 2.082-106.88 1.0314z" fill="#f4f0d0"/><path transform="translate(-7.0021e-5)" d="m135.15 412.18c-29.127-3.1157-48.36-18.279-41.984-33.101 4.3095-10.018 19.795-18.32 39.359-21.102 6.9507-0.98821 21.344-0.97401 28.549 0.0282 17.993 2.5026 34.203 10.787 38.509 19.682 1.9361 3.9994 2.0592 10.116 0.27971 13.9-3.1136 6.6222-14.218 14.105-25.733 17.34-11.308 3.1773-27.247 4.5072-38.979 3.2522zm639.75 0c-9.8577-1.0545-23.215-5.0577-29.851-8.9467-7.7044-4.5151-13.623-12.247-13.642-17.82-0.0258-7.6188 6.2806-15.255 16.799-20.341 11.254-5.4422 22.918-7.8324 38.319-7.8527 20.488-0.0269 39.228 5.7631 48.397 14.953 4.3592 4.3691 5.9801 7.8688 5.9713 12.893-0.0222 12.664-16.714 23.462-41.485 26.837-5.5208 0.75219-18.682 0.90173-24.508 0.27847z" fill="#e89b22"/><path d="m419.03 663.12c-117.25-4.7377-225.19-35.854-294.2-84.804-14.126-10.021-24.507-18.812-36.96-31.298-40.058-40.167-60.762-83.937-67.61-142.94-1.2747-10.982-1.278-49.681-0.0053-61.875 2.3533-22.547 6.6847-45.421 12.852-67.875 7.5382-27.442 9.3195-41.038 10.963-83.671l0.47871-12.421-3.351-4.8287c-16.046-23.122-33.415-70.419-39.827-108.45-3.873-22.972-4.5461-31.348-4.5706-56.876-0.029553-30.724 2.0886-49.343 8.6419-75.961 11.984-48.676 37.194-96.252 75.946-143.33l8.2626-10.037-2.4282-4.2131c-4.9868-8.6523-15.049-30.076-19.063-40.588-18.81-49.257-23.936-103.86-14.75-157.12 5.9388-34.436 19.298-70.969 36.914-100.94 8.1302-13.834 22.781-34.848 27.954-40.096 5.5541-5.634 9.9107-7.8429 15.424-7.8206 5.9159 0.0239 9.1264 1.8254 19.548 10.969 12.975 11.384 42.533 40.613 53.714 53.116 49.422 55.267 83.27 111.13 101.9 168.17l3.477 10.648 7.3992-3.7131c28.873-14.489 70.553-24.72 119.54-29.342 14.108-1.3311 74.734-1.3476 89.625-0.0243 42.167 3.7469 81.051 11.166 115.88 22.11l10.5 3.2997 1.3422-4.5632c3.8058-12.939 9.2701-28.985 13.175-38.688 21.963-54.574 56.565-106.55 105.25-158.11 18.467-19.554 48.503-47.248 54.151-49.929 3.4434-1.634 11.757-1.6038 15.34 0.0558 11.73 5.4328 40.838 50.653 54.701 84.982 9.9091 24.537 16.433 49.519 20.172 77.25 1.938 14.372 1.9443 59.559 0.0103 73.875-2.9479 21.821-8.5329 44.744-15.623 64.125-11.229 30.693-29.479 62.7-49.386 86.613-3.7182 4.4664-6.7603 8.3909-6.7603 8.7211s1.0574 2.3871 2.3498 4.5709c1.2924 2.1838 5.4784 10.214 9.3022 17.846 34.725 69.301 54.84 144.96 61.156 230.04 1.0269 13.832 0.46814 90.983-0.73212 101.09-2.2916 19.293-6.2433 28.154-14.399 32.287-3.2522 1.648-4.5607 1.8381-12.652 1.8381-4.9637 0-9.0249 0.10891-9.0249 0.24202 0 0.13312 0.85136 6.7987 1.8919 14.812 2.4743 19.056 5.8122 35.206 12.777 61.82 13.294 50.798 15.729 66.764 15.671 102.75-0.0364 22.531-0.83748 32.278-4.1912 51-10.37 57.888-39.145 107.32-82.662 142.01-49.122 39.158-112.56 64.138-203.95 80.311-71.079 12.579-139.36 17.584-204.16 14.966zm70.5-36.678c70.524-2.9698 138.86-12.466 188.74-26.229 109.81-30.298 174.94-85.006 194.2-163.13 5.1954-21.067 7.1022-40.444 6.4568-65.614-0.88329-34.446-6.1454-64.691-18.979-109.09-5.9567-20.606-9.5499-39.497-11.777-61.919l-0.93072-9.3689-5.2308-0.92077c-56.337-9.9168-111.45-33.834-157.48-68.348-35.425-26.559-70.537-63.779-101.43-107.52-3.9929-5.6534-7.3542-10.185-7.4696-10.069-0.11539 0.11539 2.5157 7.1034 5.847 15.529 16.659 42.136 21.959 57.245 26.971 76.889 3.0266 11.862 5.9477 29.513 5.9546 35.98 0.0144 13.49-6.1434 24.44-15.546 27.644-6.5925 2.2463-13.6 1.5979-31.153-2.8826-19.941-5.09-34.738-9.6681-51.546-15.948-75.569-28.235-136.56-72.397-180.26-130.53-28.198-37.509-50.95-85.161-62.6-131.12-4.8106-18.976-7.5137-33.906-10.043-55.468-1.2898-10.998-1.287-56.28 4e-3 -67.782 0.52679-4.6927 0.80882-8.6811 0.62672-8.8632-0.46673-0.46673-15.082 8.3982-24.623 14.935-72.022 49.345-125.36 126.15-143.44 206.52-8.1908 36.424-12.412 83.046-14.663 161.94-2.6915 94.348-5.0471 119.7-14.252 153.38-8.5606 31.32-12.249 57.695-12.22 87.375 0.0473 47.566 11.108 86.908 34.16 121.5 22.301 33.466 60.024 63.805 105.37 84.743 62.132 28.69 139.86 44.909 233.06 48.629 13.901 0.55479 46.1 0.42055 62.25-0.25951zm-123.53-110.79c-7.5445-2.8341-13.032-8.3703-15.936-16.078-1.8982-5.0374-1.3616-14.653 1.102-19.746 2.3083-4.7726 7.5497-10.026 12.362-12.39 3.2185-1.5812 4.8131-1.8435 11.25-1.8505 6.7629-7e-3 7.8895 0.19708 11.463 2.0795 5.2872 2.785 9.6313 7.2642 12.05 12.425 1.6863 3.5976 1.9856 5.2532 1.986 10.986 4.2e-4 5.7347-0.29822 7.3871-1.9855 10.986-2.4359 5.1957-6.8024 9.6783-12.051 12.371-5.2052 2.6708-14.83 3.2499-20.24 1.2177zm186.9 0.64141c-7.2305-2.372-13.3-7.6424-16.389-14.23-1.6871-3.5984-1.986-5.2519-1.986-10.986s0.29889-7.3875 1.986-10.986c2.4198-5.1614 6.764-9.6405 12.051-12.425 3.5736-1.8824 4.7002-2.0867 11.463-2.0795 8.8802 0.01 12.845 1.5377 18.399 7.0918 5.5593 5.5593 7.0838 9.5188 7.0838 18.399s-1.5245 12.84-7.0838 18.399c-5.0421 5.0421-9.5671 6.9294-17.274 7.2048-3.5062 0.12526-7.2188-0.049-8.25-0.38736zm-337.12-175.5c-18.805-4.6477-33.368-18.934-38.319-37.592-1.7339-6.5344-1.7316-18.98 5e-3 -25.5 2.8649-10.758 9.3866-20.965 17.508-27.4 15.687-12.431 36.695-15.097 54.304-6.891 16.653 7.7606 27.537 22.728 29.831 41.021 2.6889 21.444-9.3515 43.419-28.828 52.612-10.611 5.0085-23.667 6.4279-34.5 3.7505zm33.132-57.522c7.9454-6.3221 8.2432-17.839 0.62388-24.119-7.0893-5.8436-17.031-4.3135-22.496 3.4624-1.9791 2.8159-2.2604 3.8533-2.2604 8.3369 0 4.4939 0.27926 5.5181 2.2812 8.3665 3.5543 5.0571 7.0932 6.7387 13.601 6.463 4.6861-0.19856 5.7534-0.52325 8.25-2.5098zm444.24 57.816c-2.6812-0.60119-8.0667-2.6708-11.968-4.599-12.216-6.0388-21.567-17.048-26.044-30.662-2.7691-8.4217-2.9205-21.337-0.34741-29.625 2.9042-9.354 6.5573-15.482 13.231-22.195 9.8941-9.9517 22.603-15.261 36.604-15.292 19.575-0.0436 37.774 11.302 46.298 28.862 3.772 7.7705 5.2026 14.061 5.2026 22.875 0 8.887-1.4294 15.094-5.3385 23.183-2.4436 5.0561-4.3348 7.6009-9.5314 12.826-10.597 10.654-20.237 14.906-34.983 15.428-5.4994 0.19491-9.8753-0.072-13.125-0.80067zm31.094-56.842c1.6328-0.92484 3.9953-3.1421 5.25-4.9273 2.0019-2.8484 2.2812-3.8726 2.2812-8.3665 0-4.4836-0.28127-5.521-2.2604-8.3369-5.4651-7.7758-15.407-9.306-22.496-3.4624-8.5803 7.0726-7.0155 20.408 3.0063 25.62 3.4384 1.7883 10.6 1.523 14.219-0.52675zm160.27-128.05c3.4427-23.835 2.6195-71.159-1.996-114.74-8.8621-83.679-32.378-160.49-66.831-218.3-25.775-43.246-68.725-80.356-123.66-106.85-65.81-31.734-148.02-47.755-229.19-44.662-38.685 1.4742-63.149 4.9031-89.445 12.537-24.306 7.056-53.165 21.472-60.769 30.356-8.4646 9.889-12.539 24.813-14.81 54.248-1.0847 14.057-0.46305 43.718 1.2033 57.413 10.336 84.948 52.764 163.48 118.59 219.5 37.874 32.232 90.838 58.945 147.6 74.447 6.153 1.6803 11.484 3.055 11.846 3.055 0.87265 0 0.24024-3.3579-3.2052-17.019-5.3322-21.141-11.369-38.114-33.294-93.606-8.6813-21.973-18.429-50.202-22.272-64.5-2.1619-8.043-2.4241-10.117-2.4659-19.5-0.0446-10.014 0.0473-10.678 1.9858-14.353 6.759-12.814 22.434-15.019 35.592-5.0056 6.7758 5.1564 16.821 18.924 31.362 42.984 37.146 61.464 80.721 111.54 126.44 145.32 46.541 34.383 101.04 55.408 157.82 60.89 4.5375 0.43803 9.2625 0.91599 10.5 1.0621 4.1188 0.4864 4.4754 0.25155 4.9861-3.2839zm-837.11-82.49c4.5328-99.656 21.457-162.04 60.91-224.51 2.9003-4.5925 7.6122-11.649 10.471-15.68l5.1974-7.3304-6.8732-8.2402c-3.7803-4.5321-6.9476-8.2402-7.0386-8.2402-0.091 0-3.04 3.6281-6.5535 8.0625-43.943 55.462-66.455 107.84-71.892 167.29-1.169 12.782-0.53501 46.093 1.0949 57.526 2.0085 14.088 6.3848 34.058 11.012 50.25 2.1837 7.6417 2.4974 7.9911 2.6932 3 0.09709-2.475 0.53728-12.431 0.97819-22.125zm161.89-332.5c17.577-12.87 39.623-26.321 58.646-35.781 8.7314-4.3421 11.262-5.9564 12.645-8.067l1.7297-2.6387-2.0593-7.9465c-14.774-57.012-47.934-114.21-98.957-170.7-8.7815-9.7217-40.948-41.869-43.716-43.69-2.1173-1.3929-3.2419-0.588-5.3962 3.8623-1.3842 2.8594-1.5374 4.5919-1.5363 17.377 6e-3 67.645 15.454 134.49 47.396 205.08 7.8287 17.301 23.283 47.25 24.381 47.25 0.21184 0 3.3015-2.1354 6.8659-4.7453zm571.49-36.335c14.388-28.5 24.265-51.719 33.106-77.824 17.485-51.631 25.496-97.819 25.507-147.05l4e-3 -20.325-2.2672-3.1297c-1.93-2.6644-2.4828-3.0144-3.7171-2.3538-2.4355 1.3034-38.21 37.259-47.393 47.633-44.188 49.918-73.659 98.372-90.124 148.17-3.6369 11-7.6456 25.36-7.1715 25.69 0.16399 0.114 4.0107 1.83 8.5482 3.8134 22.077 9.6502 48.504 24.895 68.234 39.363 2.8787 2.1109 5.4677 3.838 5.7534 3.838 0.28572 0 4.5702-8.0237 9.5211-17.83z" fill="#41130d"/></g></svg>
