<?xml version="1.0" encoding="UTF-8"?>
<svg width="1e3" height="1e3" version="1.0" viewBox="0 0 750 750" xml:space="preserve" xmlns="http://www.w3.org/2000/svg" zoomAndPan="magnify"><g transform="matrix(.55062 0 0 .55028 172.19 227.02)"><path d="m140.51 333.28c-22.241-16.778 5.9751-44.434 22.504-27.06 21.059 22.135 1.9442 45.504-22.504 27.06zm454.1 0.40227c-18.883-8.4128-1.7331-42.674 18.056-30.394 18.746 11.634-2.7797 37.914-18.056 30.394z" fill="#fdfdfd"/><path d="m251.23 512.95c-89.713-45.922-79.697-194.17 30.694-231 77.059-29.688 151.52-22.111 203.48 21.366 53.528 41.468 68.033 137.75 19.521 187.13-43.341 41.22-192.88 37.204-253.69 22.503z" fill="#f0f2d1"/><path d="m329.08 628.82c-94.448-4.0924-162.96-15.596-220.91-37.094-62.936-23.347-110.17-57.059-141.81-101.2-29.476-41.134-47.636-93.886-52.012-151.09-0.9861-12.889-0.99388-41.982-0.014581-54.491 6.7112-85.722 45.332-168.93 108.35-233.44 74.496-76.259 174.51-118.78 298.52-126.92 17.047-1.1187 57.953-1.1206 76.125-0.0035 91.818 5.6443 168.17 28.855 230.62 70.105 78.817 52.061 136.19 133.67 159.28 226.58 9.25 37.217 13.141 80.397 10.576 117.38-4.5945 66.243-24.326 122.57-57.938 165.38-28.003 35.666-71.458 66.615-120.92 86.117-56.508 22.282-121.41 34.966-198.3 38.754-17.495 0.86188-70.984 0.81912-91.578-0.0732zm59.918-107.18c76.27-3.8521 118.56-26.376 133.55-71.126 8.3905-25.051 7.5571-63.756-1.9617-91.102-16.82-48.322-61.408-81.431-122.01-90.598-13.113-1.9836-36.728-2.6656-50.817-1.4677-69.953 5.9477-121.6 42.607-137.43 97.549-3.9324 13.648-6.0477 19.777-6.0431 42.375 2e-3 11.265 1.3099 28.255 7.5002 45.488 9.513 26.483 28.225 44.67 57.425 55.813 27.75 10.59 72.406 15.462 119.78 13.069zm-221.94-216.56c-24.64-16.482-51.197 16.336-29.864 33.124 16.932 13.325 55.691-15.848 29.864-33.124zm446.23-2.6739c-17.788-8.6475-47.042 21.891-22.311 33.857 27.674 13.39 40.13-25.195 22.311-33.857z" fill="#f4bb5b"/><path d="m69.21 457.59c-18.674-3.1423-32.563-10.397-37.31-19.488-2.0198-3.8675-2.1202-10.24-0.21923-13.908 9.1757-17.703 51.078-26.205 81.324-16.501 11.423 3.6649 21.294 10.535 24.174 16.824 4.0036 8.7438-0.50568 18.006-12.167 24.99-3.9611 2.3725-12.165 5.3205-19.427 6.9804-8.4273 1.9265-27.959 2.5183-36.375 1.1021zm564.38 0.53151c-15.206-1.6266-29.634-7.2963-36.772-14.45-4.2199-4.2295-5.9783-7.8633-5.9783-12.354 0-6.5621 3.8148-12.22 11.688-17.335 23.943-15.554 73.031-13.089 90.674 4.5543 8.546 8.546 8.1228 17.785-1.1988 26.166-6.9821 6.2775-19.799 11.248-33.905 13.149-5.529 0.74503-18.709 0.89007-24.508 0.2697z" fill="#e99c22"/><path d="m373.29-219.63c-71.118-4.4696-152.68 49.591-151.09 125.83 42.656 22.078 93.541-26.788 141.67-7.3876 97.701 9.1302 199.78 20.821 285.2 72.981 30.684-38.231 130.09-63.758 59.122-112.98-42.768-39.396-135.23-46.65-163.41 10.81-24.247 45.508-53.422 18.956-56.275-19.532-21.448-42.416-67.766-70.162-115.23-69.724zm-260.71 33.027c-48.191 4.8516-115.88 44.19-107.04 99.553 30.598 39.474 67.26 91.087 108.04 44.404 37.285-10.059 140.72-32.63 82.823-84.373-19.362-28.617-46.13-59.903-83.829-59.584zm387.29 90.43c8.942 3.9971-7.7796 4.9153 0 0zm-551.08 62.428c-63.229-2.8087-99.437 95.248-41.435 127.89 52.782 37.381 78.613-50.794 112.54-74.651-6.0493-30.144-43.419-48.822-71.104-53.235zm825.96 0.33984c-48.099-6.3429-115.27 33.637-35.761 101.35 28.929 60.503 96.512 47.768 106.15-14.653 8.3214-41.091-28.091-87.062-70.391-86.693zm107.21 174.55c-48.915 10.012-101.62 35.597-67.682 85.847 22.302 125.35-7.6426 292.13-124.34 358.83-130.44 77.104-289.02 82.146-436.05 69.204-125.64-13.827-264.82-59.373-331-175.78-51.22-92.117-48.875-205.34-15.566-303.08-31.453-37.711-103.18-43.866-125.88 6.4293-29.56 49.986-4.2649 110.17 41.717 139.29 49.871 30.633-54.927 71.163-47.067 120.29-7.5715 61.293 55.209 123.52 116.82 99.961 73.717-36.476 1.1497 58.225 25.906 88.612 28.024 69.07 129.1 83.664 179.86 31.522 47.017-0.64816 42.407 88.228 101.27 86.424 57.54 24.38 119.14-3.7034 162.34-38.463 48.745 15.958 88.865 65.187 146.04 42.538 55.835-1.9024 83.845-62.272 106.69-91.685 49.354 16.755 99.668 59.479 152.27 23.373 52.516-26.758 66.587-102.05 27.106-145.43-6.7058-62.678 73.901 17.576 107.49-16.58 56.612-20.971 73.187-101.58 31.686-144.88-35.36-27.983-55.285-52.119-4.1693-75.741 40.218-22.351 50.335-73.715 29.923-112.91-14.129-28.814-45.098-48.466-77.355-47.749z" fill="#c46d29"/><path transform="translate(-6.0645e-6)" d="m796.55 139.73c-3.842-8.4842-15.521-31.573-17.139-33.883-0.97088-1.3861-0.68723-1.5444 5.6306-3.1414 13.724-3.4691 25.896-10.336 35.701-20.141 10.25-10.25 18.203-23.685 19.87-33.566 3.1221-18.51-7.3819-44.002-24.743-60.049-14.256-13.178-29.57-18.557-46.606-16.373-24.257 3.1109-42.705 16.535-57.387 41.76-0.76256 1.3101-1.5177 0.77945-8.6289-6.0642-7.3484-7.0719-19.425-17.575-24.239-21.082l-2.1724-1.5824 4.1886-5.9436c20.152-28.596 49.526-48.233 80.813-54.025 10.97-2.0311 32.056-1.89 40.5 0.27108 33.238 8.5062 64.766 38.43 81.415 77.273 8.252 19.253 11.032 37.537 8.1882 53.848-1.3185 7.5608-4.1259 14.747-9.1826 23.505-16.461 28.509-43.006 52.043-71.045 62.985-12.413 4.8446-11.104 5.172-15.162-3.7897zm-884.03 4.1784c-9.7388-3.3801-25.36-12.561-36.028-21.174-16.587-13.392-35.524-37.675-41.604-53.349-5.4213-13.976-6.016-30.556-1.6978-47.333 10.367-40.275 40.197-76.806 75.011-91.857 11.67-5.0453 16.051-5.827 32.758-5.8447 12.708-0.01344 16.163 0.23698 22.611 1.6388 31.142 6.7708 56.759 23.976 77.652 52.154l4.359 5.879-7.3858 5.8954c-4.0622 3.2424-11.847 9.8284-17.3 14.635-5.4529 4.807-10.007 8.6227-10.119 8.4794-0.11272-0.14333-1.7181-2.6231-3.5675-5.5106-12.737-19.887-30.479-31.731-52.298-34.912-17.461-2.5458-33.406 3.0736-47.924 16.889-14.333 13.64-23.547 32.158-24.639 49.523-0.50575 8.0409 0.85265 14.832 4.3392 21.693 9.8946 19.471 27.527 34.752 46.908 40.651 2.4005 0.73065 4.4734 1.3984 4.6063 1.4839 0.1329 0.0855-0.57462 1.453-1.5723 3.0388-3.5357 5.6204-9.1594 15.784-15.125 27.336l-6.0439 11.703z" fill="#f7ce88"/><path transform="translate(-6.0645e-6)" d="m237.58 785.96c-1.4438-0.16904-5.8312-0.67349-9.75-1.121-28.809-3.2898-57.565-14.434-79.5-30.809-7.6568-5.716-21.068-18.514-26.992-25.759-5.6623-6.9242-12.937-18.05-16.673-25.5-1.655-3.3-3.0905-6.0925-3.19-6.2056s-3.5084 1.8858-7.5753 4.4419c-14.825 9.3178-32.641 16.502-50.194 20.242-7.3545 1.5668-10.163 1.7542-25.875 1.7266-15.251-0.02681-18.603-0.24934-24.882-1.6521-39-8.7116-72.329-31.019-92.439-61.872-15.427-23.668-20.162-50.803-13.894-79.624 0.80051-3.6808 1.3684-6.7795 1.2619-6.886s-3.3949 0.28712-7.3076 0.8746c-29.137 4.3748-61.052-3.3151-83.67-20.16-22.072-16.438-40.662-47.46-46.847-78.176-1.9902-9.8832-2.6999-27.635-1.5127-37.835 3.5017-30.086 19.387-60.07 46.489-87.75l7.7104-7.8748-1.7669-1.266c-12.044-8.6296-18.752-14.097-25.058-20.421-20.009-20.069-31.555-42.119-35.274-67.365-1.484-10.075-1.1191-30.251 0.72677-40.182 7.2021-38.747 28.101-70.744 57.374-87.84 4.2079-2.4575 11.269-5.5497 20.466-8.9621 1.0494-0.38938 0.53004-1.5572-3.2085-7.2146-5.9903-9.0649-12.899-22.728-15.601-30.854-9.656-29.037-5.8019-63.099 11.105-98.146 23.534-48.783 63.882-82.02 108.9-89.706 8.0179-1.3689 11.27-1.5345 23.553-1.1992 14.11 0.38524 19.69 1.105 33.238 4.2875 3.8435 0.90284 7.0674 1.5237 7.1643 1.3796 0.09687-0.14403 1.265-4.2897 2.5957-9.2126 2.8685-10.611 7.7011-22.371 12.99-31.61 19.407-33.904 58.662-61.397 97.012-67.946 17.447-2.9793 37.979-1.0253 52.875 5.0322 20.348 8.2744 40.239 23.59 56.463 43.475 3.7022 4.5375 6.9408 8.3344 7.1969 8.4377s1.9159-2.8241 3.6885-6.5051c16.083-33.399 47.029-61.066 82.639-73.882 8.7264-3.1406 24.136-6.9904 35.262-8.8096 13.822-2.26 46.705-2.4733 60-0.38924 19.389 3.0393 35.077 7.8902 51.375 15.886 17.293 8.4842 27.976 16.107 40.738 29.068 11.631 11.813 20.779 24.843 28.596 40.732l4.5652 9.279 11.05-11.118c16.19-16.29 30.113-26.108 47.324-33.373 16.592-7.0033 32.528-9.967 49.526-9.2108 17.227 0.76637 34.258 5.5076 52.95 14.74 37.232 18.391 62.886 44.847 72.746 75.019 1.1457 3.5062 2.1404 6.45 2.2103 6.5417 0.0699 0.0917 4.1584-0.36466 9.0854-1.0141 13.49-1.778 31.683-1.1253 43.458 1.5592 32.522 7.4141 61.256 26.922 84.015 57.038 13.635 18.043 23.869 38.365 29.926 59.427 6.8521 23.828 7.1386 49.828 0.76164 69.124-2.6315 7.9625-9.8141 22.392-15.292 30.72-2.5399 3.8617-4.515 7.101-4.3893 7.1985 0.12579 0.0975 3.3349 0.8894 7.1314 1.7599 20.742 4.7558 40.71 15.842 54.776 30.411 14.139 14.645 24.493 35.093 29.613 58.486 1.4567 6.6551 1.6712 9.8618 1.6886 25.248 0.0179 15.756-0.16485 18.45-1.7232 25.41-3.7056 16.55-10.446 31.26-20.372 44.459-9.0827 12.078-19.332 21.478-38.147 34.99l-1.7627 1.2658 7.2327 6.375c25.747 22.694 41.464 54.081 43.564 87 1.7739 27.806-10.188 63.765-29.157 87.646-17.275 21.749-39.653 34.932-65.824 38.778-13.938 2.0482-36.453 1.0429-51.714-2.3089-2.159-0.47419-2.3668-0.37903-1.8872 0.86394 1.6286 4.2203 5.8763 19.281 7.3189 25.949 1.4158 6.5446 1.6652 10 1.6652 23.073 0 17.357-1.0533 24.114-5.98 38.361-10.909 31.546-38.574 59.215-73.071 73.081-38.356 15.418-79.354 12.859-121.12-7.5595-6.1875-3.0248-13.247-6.7201-15.688-8.2118s-4.6849-2.6184-4.9869-2.5039c-0.30202 0.11452-2.7811 4.5957-5.5091 9.9582-6.3071 12.398-13.114 21.893-22.343 31.168-23.169 23.282-54.518 38.555-92.546 45.088-14.012 2.4069-40.153 2.4227-53.177 0.0322-17.988-3.3015-30.964-7.6004-47.233-15.648-10.762-5.3236-25.687-14.971-33.761-21.822l-5.2435-4.4494-7.0477 5.9596c-22.974 19.428-51.637 31.999-84.09 36.883-7.6237 1.1472-31.409 2.1046-36.75 1.4793zm24.75-34.859c23.367-2.1402 43.49-9.0849 62.225-21.475 6.8129-4.5056 10.985-8.0855 19.641-16.855 14.233-14.418 17.479-15.983 26.25-12.65 3.0219 1.1482 5.8079 3.3686 12.571 10.019 13.948 13.716 27.295 22.608 44.023 29.329 15.854 6.37 29.852 9.2987 47.54 9.9466 23.813 0.87219 45.762-3.6334 66.697-13.692 31.677-15.219 51.219-39.628 54.751-68.386 0.41758-3.4006 1.2412-7.1131 1.8304-8.25 3.0361-5.8591 9.0547-9.447 15.847-9.447 5.5131 0 9.1486 1.7043 16.5 7.7351 8.3322 6.8354 18.624 13.287 30.577 19.169 38.589 18.989 73.791 19.115 106.53 0.38323 17.858-10.218 31.857-25.47 38.92-42.408 11.402-27.339 5.2702-64.031-16.028-95.924-6.4284-9.6256-7.374-11.751-7.374-16.571 0-7.2457 3.5376-12.802 10.094-15.856 5.4893-2.5562 9.7906-2.3532 15.987 0.75449 32.658 16.379 67.23 20.224 92.812 10.321 15.832-6.1284 29.184-19.479 38.941-38.94 12.781-25.491 13.901-54.156 3.0198-77.281-9.0381-19.209-24.595-35.191-46.48-47.751-4.125-2.3674-8.3992-4.9421-9.4981-5.7216-5.1106-3.6248-6.687-13.4-3.3252-20.62 2.0978-4.5053 5.2058-7.0827 11.746-9.74 19.944-8.1042 38.93-22.237 50.631-37.689 5.7538-7.5984 11.635-19.167 13.781-27.108 7.7022-28.499-2.1023-64.296-23.18-84.634-13.343-12.875-30.236-19.301-53.008-20.165l-10.603-0.40228-5.1469 4.1359c-14.603 11.735-34.905 22.62-52.234 28.007-3.1583 0.98176-4.2244 1.642-3.9224 2.4293 1.5703 4.0921 6.8402 22.807 9.329 33.129 8.5923 35.638 11.793 65.733 11.079 104.16-0.70053 37.692-4.8323 68.753-13.297 99.957-21.982 81.039-65.446 137.14-138.9 179.29-47.664 27.348-104.76 46.078-171.95 56.414-82.03 12.618-163.04 15.293-238.84 7.8878-56.203-5.4912-109.62-16.517-157.91-32.594-64.259-21.392-116.77-53.526-155.63-95.235-45.439-48.771-72.231-114.29-78.049-190.87-1.1264-14.825-0.50118-54.411 1.0781-68.257 3.5191-30.851 9.4348-57.794 18.853-85.863 2.2123-6.5935 3.9607-12.015 3.8854-12.048-0.07529-0.033-3.3431-1.345-7.2619-2.9156-13.001-5.2107-28.881-14.53-40.025-23.489l-5.1503-4.1404-7.5997 0.433c-8.9306 0.50882-15.36 2.0383-22.6 5.3761-16.933 7.8071-30.615 25.692-39.031 51.022-6.7665 20.365-7.2435 39.613-1.4404 58.125 7.2084 22.995 27.668 44.222 55.312 57.385 9.6019 4.5723 13.977 7.972 16.219 12.604 2.834 5.8543 1.6018 13.359-3.0562 18.614-0.9641 1.0875-5.1279 4.4524-9.2529 7.4774-8.9852 6.5892-26.779 24.101-33.346 32.818-9.7075 12.885-16.376 26.155-20.026 39.852-2.5701 9.6446-3.2241 25.245-1.4521 34.637 4.2811 22.691 18.173 47.163 34.008 59.911 13.328 10.729 25.983 15.078 44.066 15.142 16.44 0.0582 30.64-3.4133 47.325-11.569 7.6849-3.7564 8.5151-3.9959 13.855-3.9959 4.9649 0 6.0791 0.26426 8.8526 2.0997 5.7651 3.8152 9.2457 11.602 8.0455 17.999-0.25625 1.3659-2.1752 5.165-4.2643 8.4425-16.67 26.152-20.721 51.684-11.851 74.692 3.2566 8.4476 11.591 20.558 19.706 28.632 15.191 15.115 33.554 25.039 55.296 29.884 10.277 2.2898 29.132 2.4787 38.91 0.38977 20.068-4.2869 39.472-14.118 54.375-27.55 8.0215-7.2296 10.684-8.9044 15.324-9.6378 5.6484-0.89289 9.8388 0.23375 13.783 3.7058 3.9705 3.4949 5.329 6.1674 7.7516 15.248 2.0648 7.7394 8.2684 21.203 13.052 28.326 11.727 17.463 27.144 30.856 46.09 40.041 23.636 11.458 49.018 16.155 74.625 13.81zm149.25-121.47c92.507-3.4979 172.36-20.697 231.79-49.926 15.968-7.8529 22.42-11.542 36.711-20.988 59.445-39.291 95.725-94.403 111.35-169.15 5.1032-24.417 7.2871-46.693 7.3091-74.555 0.0229-28.98-2.1465-51.138-7.6927-78.572-20.052-99.185-80.052-187.92-164.35-243.06-71.143-46.537-161.72-70.274-267.98-70.226-61.973 0.02825-119.04 8.7543-171.45 26.216-37.258 12.414-72.133 29.287-102.3 49.497-65.771 44.054-118.59 109.55-146.99 182.28-15.598 39.941-23.803 80.091-24.906 121.88-2.0668 78.341 20.857 150.28 64.596 202.71 47.904 57.425 129.93 96.701 235.92 112.96 57.979 8.8961 136.83 13.252 198 10.939zm-94.5-199.88c-14.235-2.9211-27.892-10.598-30.883-17.36-3.0289-6.8474-1.1185-16.188 4.0662-19.879 2.3821-1.6962 8.7268-2.6842 11.97-1.864 0.94718 0.23957 3.8524 1.8218 6.456 3.516 10.281 6.6901 21.695 8.8847 28.266 5.4348 5.8685-3.0809 9.8544-8.8513 12.059-17.459 1.1785-4.6001 0.9973-5.9979-0.77745-5.9979-0.55247 0-4.0505-1.5248-7.7734-3.3885-27.488-13.76-17.112-40.514 17.623-45.444 15.801-2.2424 33.788 2.419 43.159 11.185 5.0951 4.7659 6.89 8.4152 6.8968 14.022 7e-3 5.6179-1.6798 9.2808-6.5028 14.123-3.519 3.5326-14.476 9.5024-17.441 9.5024-1.0741 0-1.2006 0.45231-0.76941 2.7508 0.28382 1.5129 1.164 4.4825 1.9559 6.5991 6.3943 17.09 19.682 20.047 38.943 8.6659 5.5004-3.25 6.9196-3.7658 10.362-3.7658 2.1937 0 4.7257 0.37874 5.6267 0.84164 2.4218 1.2442 5.7506 4.5029 6.9552 6.8086 1.428 2.7333 1.3455 9.8524-0.14852 12.824-6.1228 12.18-30.582 21.64-49.742 19.237-11.045-1.385-19.562-5.4764-26.897-12.921l-3.9707-4.0302-5.123 5.0324c-10.942 10.748-27.383 15.039-44.311 11.566zm-183.75-41.337c-13.447-1.9634-23.076-6.8051-31.688-15.934-5.6952-6.0373-8.6906-11.025-11.539-19.213-1.8683-5.3705-2.0872-7.0229-2.0872-15.75s0.21898-10.379 2.0872-15.75c3.078-8.848 6.0443-13.551 12.798-20.291 10.252-10.231 21.203-14.789 35.679-14.847 23.126-0.0933 41.692 13.577 49.251 36.263 1.0862 3.2602 1.3689 6.405 1.3482 15-0.0248 10.314-0.1459 11.189-2.3461 16.956-6.8257 17.89-20.792 29.622-39.253 32.971-5.3924 0.97839-10.238 1.1807-14.25 0.59488zm23.913-56.478c13.049-6.6573 11.075-24.778-3.1168-28.599-9.5927-2.583-19.368 6.2453-18.373 16.594 0.97269 10.123 12.527 16.578 21.49 12.005zm424.21 55.894c-18.507-3.6073-33.391-16.508-39.442-34.188-2.2921-6.6972-2.8393-20.688-1.1-28.125 4.2164-18.029 18.721-32.711 37.167-37.622 6.486-1.7268 18.916-1.6921 25.5 0.0712 16.35 4.3787 30.028 17.32 35.725 33.801 1.8215 5.2698 2.0786 7.1409 2.112 15.375 0.034 8.3806-0.19285 10.079-2.1386 16.016-4.3586 13.299-13.785 24.117-26.156 30.021-3.8047 1.8155-8.4817 3.67-10.393 4.121-5.8877 1.389-15.623 1.6317-21.274 0.53032zm29.797-57.108c4.6366-3.2216 6.7462-7.7061 6.4047-13.615-0.22211-3.8432-0.66978-5.1573-2.5551-7.5-3.0668-3.8108-6.3005-5.9084-10.027-6.5043-9.2287-1.4757-17.649 5.8667-17.533 15.289 0.0744 6.0684 2.9781 10.563 8.9141 13.798 3.6713 2.0008 10.827 1.2911 14.797-1.4676zm196.92-185.28c10.025-3.7223 23.152-10.623 31.644-16.635 14.508-10.272 31.857-29.032 41.491-44.866 7.8034-12.826 10.383-19.748 11.84-31.766 3.9806-32.844-17.784-78.419-50.32-105.37-20.496-16.977-40.614-24.369-63.75-23.424-31.472 1.2864-58.609 13.405-81.764 36.513-7.0946 7.0803-20.986 23.957-20.986 25.495 0 0.2196 1.9406 1.9101 4.3125 3.7567 7.7569 6.039 21.361 18.328 32.062 28.962 21.587 21.452 41.061 46.263 58.208 74.16 6.7745 11.022 21.208 38.55 26.248 50.062 1.3994 3.1964 2.8122 5.812 3.1396 5.8125s3.8711-1.2155 7.875-2.7022zm-887.01-10.235c27.943-55.919 66.93-104.15 116.73-144.42 4.2281-3.4186 7.6875-6.5509 7.6875-6.9608 0-1.1049-5.4573-8.3645-12.314-16.381-14.869-17.384-35.325-31.412-55.69-38.193-12.703-4.2293-22.307-5.7121-36.996-5.7123-11.977-1.33e-4 -13.765 0.17781-20.436 2.0338-13.43 3.7365-23.034 8.5762-35.439 17.859-7.2227 5.4045-20.358 18.465-25.984 25.837-13.073 17.128-23.165 38.447-27.34 57.75-1.9548 9.0387-1.7864 26.576 0.3312 34.5 7.1588 26.789 38.01 61.879 67.618 76.908 3.7636 1.9104 15.214 7.1186 16.307 7.4173 0.10037 0.0274 2.5857-4.7595 5.523-10.638zm731.26-176.62c17.388-23.95 37.47-41.404 61.561-53.504l8.7758-4.408-1.1166-3.9501c-1.7236-6.0973-7.2694-16.891-11.663-22.7-12.94-17.109-34.596-31.688-59.804-40.262-24.127-8.2066-52.4-4.5918-73.219 9.3611-15.002 10.054-26.789 22.971-42.913 47.026-7.4821 11.162-10.163 13.516-17.189 15.088-5.4089 1.2105-9.1424 0.04611-13.789-4.3003-4.1739-3.9042-4.4169-4.4288-7.8009-16.844-13.716-50.323-47.115-84.456-92.309-94.339-11.765-2.5727-20.597-3.4184-35.25-3.3755-27.522 0.0806-48.862 4.6477-69.445 14.863-22.587 11.209-38.181 26.714-49.439 49.158-5.9664 11.894-8.9009 21.496-10.84 35.467-0.82389 5.9372-1.645 8.9832-3.0834 11.438-1.0782 1.8398-1.7816 3.3452-1.5632 3.3452s2.7364-0.49205 5.5953-1.0934c16.446-3.4596 43.019-7.1607 64.65-9.0044 90.153-7.6845 183.93 3.9833 259.12 32.24 27.843 10.463 63.142 27.819 80.892 39.772 2.1122 1.4224 3.8899 2.5863 3.9504 2.5863 0.0605 0 2.2541-2.9531 4.8746-6.5625zm-565.67-1.9438c20.208-12.095 38.349-21.121 60.831-30.268 12.773-5.1968 42.087-14.96 56.01-18.656l10.635-2.8225-3.2081-2.0345c-3.8792-2.4601-5.1004-4.1433-10.084-13.899-2.1245-4.1589-6.5005-11.584-9.7245-16.5-17.501-26.687-37.265-43.663-59.379-51.001-5.9056-1.9598-7.2309-2.1144-18-2.0996-12.736 0.0175-17.467 0.92168-29.024 5.548-15.506 6.2072-34.156 19.605-44.67 32.091-11.212 13.315-18.248 27.483-21.242 42.777-0.61876 3.1604-1.2802 6.4803-1.4699 7.3776-0.28958 1.3697 0.82776 2.4045 6.9678 6.453 18.047 11.899 34.268 27.538 46.313 44.648 2.0625 2.93 3.8823 5.3419 4.0441 5.3598 0.16173 0.01787 5.5617-3.1203 12-6.9738z" fill="#41130d"/></g></svg>
