<?xml version="1.0" encoding="UTF-8"?>
<svg width="1e3" height="1e3" version="1.0" viewBox="0 0 750 750" xml:space="preserve" xmlns="http://www.w3.org/2000/svg" zoomAndPan="magnify"><g transform="matrix(1.0084 0 0 1.0095 -4.6733 -5.456)"><path d="m254.01 410.98c-6.0351-2.9873-5.9554-11.514 0.13543-14.494 9.6575-4.725 16.628 9.6791 7.0584 14.586-2.0313 1.0417-4.9794 1.0039-7.1939-0.0923zm258.24 0.30086c-1.7028-0.74607-3.7778-2.9758-4.332-4.6552-0.25536-0.77376-0.38711-2.4738-0.29279-3.7779 0.47258-6.5333 8.2579-9.6121 13.241-5.2366 2.0316 1.7837 2.7644 3.4114 2.7669 6.1452 4e-3 4.5868-3.5199 8.1131-8.0731 8.0781-1.1458-9e-3 -2.6355-0.25797-3.3104-0.5537z" fill="#fdfdfd"/><path transform="translate(-3.7342e-5)" d="m153.06 484.06c-37.183-61.865-32.015-157.68 16.425-210.97 31.38-38.953 68.086-76.066 118.49-84.522 69.567-14.232 141.53-18.594 208.78 10.999 51.623 24.935 87.885 70.385 110.78 120.87 25.012 60.008 29.124 140.37-22.667 187.82-53.239 50.243-130.84 60.412-200.54 61.407-108.59 0.33937-187.37-17.771-231.27-85.602zm106.53-91.421c-40.564-4.3532 6.7666 60.744 15.448 20.619-0.51741-9.4204-8.7496-15.344-15.448-20.619zm260.58-0.6861c-36.575-12.094-6.2601 56.767 8.1158 17.166 0.77891-6.7164-3.0069-13.143-8.1158-17.166z" fill="#f4d697"/><path d="m212.82 480.77c-9.515-1.7549-17.149-5.9067-19.396-10.549-1.0136-2.0939-1.1232-5.3804-0.24904-7.4725 0.93042-2.2268 4.6204-5.5476 8.0252-7.2223 6.138-3.019 12.907-4.3986 21.57-4.3958 8.5686 3e-3 15.412 1.4613 21.401 4.5612 11.606 6.0071 11.309 15.545-0.66817 21.452-2.0265 0.99941-5.5253 2.2976-7.7751 2.885-3.5692 0.93176-5.0814 1.0855-11.863 1.2062-5.6198 0.1-8.6785-0.0289-11.045-0.46531zm314.87 0.0174c-7.7539-1.4056-13.957-4.2418-17.392-7.9526-4.3203-4.6665-4.2262-8.8163 0.30226-13.329 5.5272-5.5079 14.711-8.3714 26.86-8.375 11.718-3e-3 21.291 2.949 26.606 8.2056 4.7945 4.7416 4.5306 10.029-0.73199 14.661-3.5907 3.1606-9.3585 5.5037-16.67 6.7722-4.4488 0.77177-14.761 0.78137-18.974 0.0177z" fill="#eaa1c0"/><path transform="translate(-3.7342e-5)" d="m107.08 473.63c-22.922-1.8184-43.412-14.392-56.946-34.946-29.132-44.243-14.601-102.23 25.038-128.39 16.101-10.625 35.934-14.649 54.815-11.123 3.393 0.63377 8.1813 1.8332 8.1813 2.0494 0 0.0595-0.93781 2.1061-2.084 4.5481-2.9408 6.2653-6.7454 15.453-8.7836 21.212-1.6942 4.7868-1.7663 4.9064-2.9003 4.8139-6.9212-0.56454-12.953-0.5527-16.305 0.032-21.423 3.7368-38.05 21.164-42.603 44.651-1.0705 5.5227-0.96874 16.242 0.20655 21.757 2.4944 11.706 7.2724 20.576 15.383 28.557 8.4908 8.3551 17.13 12.482 28.75 13.733 4.6056 0.49587 9.1006 0.22842 9.6096-0.57175 0.18155-0.28542 0.30837-0.0654 0.31286 0.54268 0.0244 3.2936 5.5717 21.022 9.6795 30.934 0.26653 0.64311-0.38598 0.82666-5.433 1.5283-5.8062 0.80717-12.09 1.0575-16.923 0.6741zm522.84-0.0217c-2.3293-0.18563-4.3039-0.40628-4.388-0.49035-0.0841-0.0841 0.74835-2.6268 1.8498-5.6506 2.5176-6.9115 4.6163-14.042 6.3738-21.656 0.75304-3.2623 1.3811-5.675 1.3957-5.3616 0.0218 0.46769 0.77792 0.51878 4.2194 0.28505 7.8491-0.53305 15.244-2.6876 21.354-6.2216 14.417-8.3391 23.928-22.36 26.883-39.63 0.70277-4.1066 0.80436-6.0117 0.6217-11.658-0.12881-3.982-0.49789-8.0075-0.90012-9.8176-3.8355-17.259-13.838-30.53-28.267-37.501-6.3509-3.0686-11.172-4.2497-18.362-4.4986-3.1498-0.10905-6.7274-0.0448-7.9503 0.1427l-2.2234 0.34096-2.3334-6.9559c-2.5789-7.6878-3.8416-10.972-7.2044-18.738-1.2472-2.8802-2.1714-5.3329-2.0539-5.4504 0.11757-0.11757 2.3937-0.65898 5.0581-1.2032 12.179-2.4874 24.722-2.0288 36.326 1.3281 27.638 7.9954 49.852 33.364 56.029 63.985 2.8218 13.988 2.3951 30.113-1.1571 43.73-4.1833 16.036-11.862 29.913-22.71 41.041-6.6401 6.8121-12.18 11.013-19.84 15.045-12.853 6.7649-28.608 10.06-42.721 8.9356zm-21.321-11.434c-0.0492-1.0063-5.5707-7.6012-11.257-13.445-5.5908-5.746-10.101-9.7801-16.589-14.838l-3.9054-3.0445 0.73344-2.4373c2.3715-7.8806 4.8175-21.671 5.6794-32.02 0.59393-7.1312 0.26638-23.69-0.59619-30.141-4.0089-29.978-15.286-54.528-33.368-72.638-14.717-14.741-32.998-23.803-53.201-26.372-6.7282-0.85571-19.752-0.65188-25.567 0.40012-14.579 2.6377-26.742 7.2322-39.2 14.807-20.763 12.625-40.218 34.234-51.613 57.326-1.1249 2.2798-2.1374 4.145-2.2499 4.145-0.11249 0-1.1249-1.8653-2.2498-4.145-12.308-24.944-33.373-47.374-56.451-60.11-10.547-5.8203-21.168-9.595-33.339-11.848-6.4998-1.2034-19.463-1.4843-26.589-0.57632-20.213 2.5754-38.605 11.695-53.183 26.37-18.459 18.582-29.892 43.853-33.604 74.278-0.82842 6.7898-0.71002 27.952 0.19454 34.77 1.0582 7.9767 2.1916 13.994 4.0314 21.405 1.6402 6.6067 1.6493 6.6848 0.84013 7.2516-7.4716 5.2333-22.077 18.903-27.577 25.811l-2.655 3.3344-1.5066-4.074c-10.521-28.45-13.195-62.491-7.4093-94.332 6.6985-36.864 24.892-72.7 51.45-101.34 27.049-29.172 59.577-49.366 99.484-61.764 19.917-6.1877 39.966-9.902 65.655-12.164 8.0333-0.70722 40.977-0.6998 49.701 0.0112 16.04 1.3072 29.232 3.0956 41.725 5.6566 40.332 8.2677 72.485 23.189 100.85 46.805 6.5439 5.4475 19.465 18.369 24.913 24.913 24.866 29.87 40.822 65.129 46.226 102.15 2.5893 17.737 2.8075 38.183 0.59941 56.181-0.80612 6.5709-3.0801 18.01-4.8825 24.561-1.5976 5.8068-5.0498 16.049-5.0953 15.118z" fill="#c46d29"/><path d="m115.29 329.88c-3.4897 0.019-7.007 0.18106-10.399 1.069-11.034 2.563-21.023 9.0244-28.177 17.769-6.7815 8.2329-11.178 18.345-12.919 28.847-0.7406 5.7139-0.67896 11.517-0.13372 17.245 0.52074 4.6234 1.8005 9.137 3.4187 13.489 2.8803 7.6762 7.6629 14.567 13.606 20.19 5.7916 5.605 12.877 9.9695 20.696 12.06 3.9774 1.0904 8.0922 1.7062 12.222 1.6446 1.9938-0.041 4.0318 0.0826 5.9867-0.36179 0.51311-0.19921 1.0565-0.4834 1.0762-1.1016 0.17168-1.3084-0.26013-2.6307-0.4123-3.9319-0.68201-3.6981-1.3807-7.5331-1.8904-11.177-0.9774-7.0157-1.5706-14.207-1.7891-21.209-0.21905-7.2316-0.0584-14.473 0.45117-21.689 0.14793-1.9049 0.32178-4.011 0.51919-5.9889 0.81454-8.12 2.1065-16.315 3.8767-24.348 0.89568-4.0667 1.9173-8.0958 3.0758-12.147 0.78685-2.7248 1.6868-5.619 2.5361-8.404 0.52066-0.79509-0.14501-0.91298-0.83706-1.0158-3.5422-0.99078-7.2621-0.89948-10.907-0.93804zm520.52 0.13086c-1.789 0.0861-3.6203-0.0676-5.3789 0.29101-0.63012 0.0793-0.89029 0.51175-0.98784 1.0951-0.15031 1.406 0.41683 2.7899 0.67338 4.1607 1.9626 7.2067 3.6566 14.491 4.875 21.862 2.5339 15.113 3.443 30.487 2.8848 45.798-0.37839 10.267-1.4454 20.659-3.166 30.848-0.35982 2.263-0.78357 4.5166-1.0664 6.791 0.20051 0.5808 0.51169 1.1094 1.1465 1.2715 1.718 0.41205 3.517 0.12302 5.2619 0.0482 4.8452-0.32331 9.6627-1.2566 14.201-3.0074 11.925-4.4429 21.89-13.497 28.065-24.56 4.6046-8.224 7.3097-17.559 7.4462-27.004 0.1525-8.2092-0.72029-16.576-3.8477-24.232-3.8561-9.785-10.459-18.524-19.063-24.614-5.8484-4.1584-12.583-7.1328-19.656-8.4099-3.7703-0.47247-7.5975-0.30927-11.389-0.33789z" fill="#f3ba5c"/><path transform="translate(-3.7342e-5)" d="m362.95 586.69c-58.251-1.9352-111.78-13.358-150.13-32.034-21.878-10.656-37.522-21.683-52.363-36.909-8.496-8.7161-16.049-18.493-21.595-27.954-1.3036-2.2237-0.25609-2.1509-8.673-0.60319-5.857 1.077-17.641 1.4868-23.965 0.83339-18.447-1.9057-36.434-9.3647-50.894-21.105-24.793-20.13-38.287-52.204-36.829-87.541 0.91376-22.141 6.7637-40.673 18.142-57.474 13.539-19.99 33.467-34.255 55.76-39.913 15.206-3.8594 36.051-3.285 50.405 1.3889l3.6201 1.1788 1.2796-2.0874c5.4387-8.872 13.869-20.551 21.16-29.313 5.584-6.7109 22.12-23.233 28.816-28.791 23.822-19.775 48.726-33.734 77.83-43.624 22.949-7.7989 45.206-12.347 73.32-14.983 9.7467-0.91386 47.629-1.0388 57.883-0.19093 52.814 4.3675 96.759 18.261 133.15 42.098 27.281 17.869 50.456 42.005 67.268 70.058 1.9551 3.2623 3.6805 6.0544 3.8343 6.2046s2.4886-0.33423 5.1884-1.0766c32.403-8.9105 65.125 0.33359 89.179 25.194 15.728 16.256 24.987 35.375 28.401 58.65 1.0739 7.3211 1.1839 22.935 0.21376 30.336-3.1932 24.359-13.902 46.268-30.851 63.119-14.485 14.401-31.704 23.599-50.74 27.103-3.8967 0.71742-6.3544 0.87022-14.317 0.89015-9.2571 0.0232-11.493-0.17058-18.635-1.615-1.2197-0.24665-1.3026-0.15998-3.411 3.5663-20.768 36.705-59.645 64.128-112.46 79.327-25.048 7.2087-57.675 12.27-93.346 14.479-9.5567 0.59193-38.573 1.0754-47.247 0.78728zm61.769-21.196c46.217-3.6741 82.221-12.262 111.67-26.638 40.868-19.947 65.615-49.314 77.278-91.704 4.3848-15.937 6.366-31.624 6.3698-50.434 7e-3 -32.974-6.8562-62.393-21.308-91.341-10.356-20.744-22.512-37.604-39.007-54.098-21.813-21.813-45.315-36.816-75.021-47.892-23.712-8.8412-48.822-14.023-80.44-16.599-8.724-0.71099-41.668-0.71841-49.701-0.0112-40.488 3.5644-71.08 11.508-101.24 26.29-24.335 11.926-45.218 27.495-63.896 47.638-35.991 38.815-55.85 89.669-54.392 139.29 1.1792 40.144 13.494 74.408 36.193 100.7 20.556 23.81 53.504 42.311 94.162 52.875 25.76 6.6931 55.58 10.642 94.289 12.486 12.054 0.57419 55.487 0.2017 65.041-0.5578zm-75.472-84.736c-8.0679-1.7316-16.062-6.6826-17.138-10.614-1.3544-4.9509 0.99177-9.7814 5.2906-10.893 2.5798-0.66694 4.3026-0.23248 7.7018 1.9422 4.0145 2.5684 7.709 3.8178 11.322 3.8286 2.5351 8e-3 3.1462-0.15122 5.0823-1.3208 5.0561-3.0544 6.8393-8.2915 7.1172-20.904l0.13902-6.3078-1.6786-0.5026c-2.5684-0.76901-6.809-3.0364-8.6457-4.6226-3.7827-3.2669-5.0446-8.2435-3.106-12.248 1.8654-3.8533 7.1711-7.4538 13.55-9.1951 3.7217-1.0159 13.819-0.99514 17.59 0.0362 5.994 1.6394 11.44 5.2621 13.291 8.8412 0.38898 0.75221 0.80112 2.403 0.91587 3.6685 0.28393 3.1312-0.91695 5.8718-3.7449 8.5464-2.3847 2.2554-4.4882 3.4524-8.4162 4.7894l-2.6589 0.90505 0.0188 6.696c0.0208 7.4109 0.564 10.427 2.6925 14.951 1.4368 3.0538 4.0939 5.5376 6.7063 6.269 3.619 1.0132 9.2348-0.30052 13.619-3.1859 3.631-2.39 5.5814-2.8845 8.3468-2.1165 3.1681 0.87986 5.6099 4.1648 5.6284 7.5716 0.0121 2.2384-1.7039 5.559-3.811 7.3742-2.4296 2.0931-8.4502 4.904-12.747 5.9514-4.3345 1.0566-11.42 1.2484-14.931 0.40431-4.096-0.98479-8.8-3.541-11.639-6.325l-2.6066-2.5558-2.5014 2.5308c-4.6616 4.7164-11.04 7.147-18.6 7.0874-2.2701-0.0179-5.324-0.28933-6.7864-0.6032zm-102.47-38.273c-5.9856-0.86997-11.307-3.6064-15.749-8.0991-3.4632-3.5025-5.3254-6.4168-6.7885-10.624-5.2162-14.999 2.847-31.236 18.038-36.323 2.8515-0.95487 3.9567-1.0995 8.5904-1.1243 4.8079-0.0257 5.6652 0.0854 8.94 1.1587 7.0474 2.3098 13.351 7.7338 16.574 14.262 2.3952 4.8514 3.0346 8.0341 2.8129 14.003-0.15639 4.2114-0.36182 5.3896-1.4461 8.293-3.7607 10.071-12.268 16.959-22.832 18.486-3.2498 0.46974-4.725 0.46387-8.1396-0.0324zm15.536-31.765c4.2078-2.9574 5.0589-8.2033 1.9904-12.268-1.9956-2.6435-6.4385-3.8081-9.754-2.5568-1.6295 0.61498-3.8477 2.7551-4.5485 4.3882-0.8401 1.9578-0.70947 5.2852 0.28842 7.3466 2.0985 4.3349 8.0691 5.8693 12.024 3.09zm242.33 31.81c-11.583-1.8336-20.977-10.629-23.51-22.01-0.98472-4.4262-0.63822-10.698 0.82892-15.003 5.5534-16.297 23.715-23.978 39.301-16.621 7.1807 3.3894 13.031 10.512 15.162 18.458 0.95587 3.5642 0.98105 10.358 0.0516 13.908-2.0482 7.8228-7.7471 14.979-14.6 18.334-1.9124 0.93618-4.5815 1.9823-5.9314 2.3247-3.1392 0.79624-8.3494 1.0774-11.303 0.60994zm13.257-30.702c3.2719-0.90861 6.0225-4.5391 6.0225-7.949 0-4.8516-3.5696-8.4474-8.3858-8.4474-7.6869 0-11.257 9.218-5.6201 14.51 2.1612 2.0291 5.0289 2.7066 7.9834 1.8861zm-393.89 61.121c5.047-0.70163 5.6996-0.88518 5.433-1.5283-7.6585-18.48-12.125-37.554-13.752-58.73-0.54334-7.0725-0.54334-23.239 0-30.312 2.0026-26.068 8.4586-50.68 19.674-75.004 1.5462-3.3533 2.8112-6.1363 2.8112-6.1843 0-0.19819-4.9412-1.4234-8.1813-2.0286-28.861-5.3908-57.549 6.455-76.264 31.491-4.4451 5.9464-6.5994 9.5027-9.7879 16.158-11.751 24.528-12.337 51.725-1.6622 77.204 7.7827 18.576 21.814 34.028 38.488 42.383 12.93 6.479 27.683 8.7143 43.241 6.5516zm522.84 0.0197c13.816-1.8699 27.819-7.9372 38.662-16.751 1.4656-1.1913 4.6078-4.1596 6.9828-6.596 12.865-13.198 21.216-30.146 24.556-49.836 1.0676-6.293 1.4575-18.294 0.81073-24.953-1.302-13.405-5.5619-26.648-12.091-37.591-9.1245-15.291-22.749-27.413-37.87-33.695-13.673-5.6803-28.902-7.0714-43.894-4.0096-2.6644 0.54417-4.9405 1.0856-5.0581 1.2032-0.11756 0.11756 0.80669 2.5703 2.0539 5.4504 9.3469 21.585 14.751 42.177 17.478 66.596 0.71592 6.4107 0.97328 28.509 0.42431 36.435-1.541 22.248-5.2702 41.119-11.509 58.239-1.1019 3.0238-1.9346 5.5665-1.8506 5.6506 0.0841 0.0841 2.0587 0.30472 4.388 0.49035 5.0889 0.40555 10.832 0.19074 16.916-0.63275z" fill="#41130d"/></g></svg>
