<?xml version="1.0" encoding="UTF-8"?>
<svg width="1e3" height="1e3" version="1.0" viewBox="0 0 750 750" xml:space="preserve" xmlns="http://www.w3.org/2000/svg" zoomAndPan="magnify"><g transform="matrix(.9373 0 0 .93791 -1408.6 -219.43)"><path d="m1714.4 632.54h397.52v225.36h-397.52z" fill="#fff" stroke-width=".43984"/><g stroke-width=".58645"><path d="m2132.1 344.68c-62.884-0.481-121.71 56.288-117.61 120.18 47.815 33.313 90.288 70.283 131.51 116.3 27.42 3.3122 62.525-21.969 80.792-43.871 39.76-45.479 33.504-123.54-14.348-162.16-21.923-19.427-50.975-30.769-80.34-30.451zm-458.74 0.0893c-69.992-2.0172-138.11 69.232-121.63 139.07 8.6796 50.605 60.126 94.152 111.2 96.491 38.987-35.639 88.033-68.214 127.98-103 19.801-6.883-4.4398-42.116-7.075-57.151-16.514-45.09-62.599-76.245-110.48-75.415zm236.97 127.98c-83.099-1.9144-172.34 28.993-219.46 101.17-35.52 50.946-52.762 113.6-49.194 175.48-0.8842 24.024-0.6407 48.787 12.985 69.868 20.317 44.592 60.941 77.885 108.51 89.506 59.98 15.743 122.86 14.226 184.39 14.565 66.756-4.5295 140.11-17.203 188.77-67.083 23.959-28.358 43.452-65.104 35.936-103.17-3.3353-61.76-22.885-122.2-51.554-176.66-34.079-62.948-104.2-97.364-173.68-102.38-12.175-1.4703-24.461-1.2539-36.7-1.2961zm144.33 191.58c21.45 25.854-44.472 20.392-14.79-1.173 4.4768-2.9363 10.779-2.347 14.79 1.173zm-277.64 3.2444c12.959 24.522-38.166 27.774-25.499-2.4396 3.0247-15.523 19.685-3.7738 25.499 2.4396zm100.42 128.91h54.648c-2.6941 8.6293 5.9566 28.604-5.4374 28.533h-49.21z" fill="#c5e7f2"/><path d="m1660.8 546.62c-42.249-6.1394-73.857-42.583-73.89-85.194-0.017-22.399 8.5035-43.494 24.164-59.824 30.277-31.573 79.362-35.334 114.26-8.7559 22.847 17.401 35.888 46.284 33.598 74.412-0.5199 6.3863-1.3559 11.619-2.5522 15.975-0.6827 2.4858-0.7737 4.1279-3.8254 5.8796-24.964 14.33-44.838 32.747-61.969 53.177-4.0642 4.8469-7.7215 4.557-8.7653 4.7658-2.4119 0.48237-16.75 0.1861-21.02-0.43435zm464.18-3.8066c-12.232-16.226-30.562-31.187-45.958-42.67-9.2634-6.9091-18.746-15.646-27.505-20.051-1.4938-0.7513-2.8224-1.717-2.9522-2.146-1.306-4.3135-1.9524-18.247-1.179-25.411 1.7846-16.531 7.9336-31.618 18.286-44.864 3.4249-4.382 11.177-11.923 15.831-15.4 19.622-14.659 44.611-20.249 68.728-15.373 31.456 6.3603 56.973 30.01 65.67 60.866 5.7191 20.291 3.8211 42.161-5.2897 60.954-14.295 29.487-44.287 48.602-76.258 48.602h-5.9754z" fill="#efc1d6"/><path d="m1718.6 759.48c-7.8361-0.90841-13.114-2.3722-18.385-5.0987-12.658-6.5481-12.307-17.446 0.7685-23.809 6.5987-3.2113 13.974-4.6752 23.554-4.6752 9.8785 0 18.389 1.8681 24.772 5.4373 17.214 9.6264 7.291 25.153-17.868 27.959-3.9814 0.44396-9.8837 0.52988-12.842 0.18695zm345.87-0.21628c-11.652-1.3358-22.132-6.5433-24.971-12.408-2.0258-4.1846-0.6244-9.1996 3.5757-12.797 2.3432-2.0067 7.8187-4.7824 11.711-5.9364 10.166-3.0148 24.299-3.0225 34.384-0.0188 12.442 3.7058 18.856 11.535 15.362 18.752-4.2342 8.7466-22.541 14.417-40.062 12.408z" fill="#e9a1c0"/><path d="m1899.3 703.93c-31.455 0.73755-65.267 12.657-83.33 39.796-11.066 16.074-13.978 36.179-12.654 55.291 0.701 24.687 13.101 49.663 35.003 62.068 25.462 14.706 56.224 16.368 84.872 13.708 25.482-2.6403 52.447-12.262 67.092-34.626 13.34-20.058 14.884-45.656 10.739-68.78-4.904-26.071-24.463-47.714-48.625-57.844-16.649-7.2417-35.016-10.081-53.097-9.6136zm-22.273 91.822h56.594v31.29h-56.594v-31.29z" fill="#f0f2d2"/><path d="m1866.6 944.64c-1.3304-0.0703-6.1798-0.33944-10.776-0.59818-37.848-2.1306-75.429-8.4699-105.56-17.806-50.117-15.528-88.12-45.509-108.37-85.496-5.4646-10.789-11.011-26.179-14.126-39.197-0.5501-2.2982-1.0403-4.2303-1.0894-4.2937-0.05-0.0633-8.4823 1.6821-18.74 3.8789s-19.74 4.177-21.071 4.4006c-4.5339 0.76199-9.0348-1.4742-10.956-5.4437-1.3013-2.6881-1.2483-6.8335 0.1249-9.7825 1.1159-2.3966 4.0164-5.198 5.9167-5.7147 0.6469-0.17591 10.083-2.2333 20.969-4.5719l19.793-4.252-0.04-1.2954c-0.021-0.71245-0.3667-5.2539-0.7663-10.092-0.3994-4.8382-0.8468-11.32-0.9942-14.405-0.147-3.0844-0.4307-5.608-0.6302-5.608-0.1997 0-10.658-0.97958-23.241-2.1768-24.596-2.3402-24.71-2.3617-27.486-5.1371-2.1759-2.1758-2.6903-3.5958-2.6887-7.4207 0-2.753 0.2063-3.9016 0.9431-5.2781 1.6287-3.0428 4.4064-5.0985 7.62-5.6397 0.8466-0.14258 11.436 0.69036 23.531 1.851 13.013 1.2487 22.101 1.9448 22.26 1.705 0.1471-0.22286 0.4051-2.7105 0.5736-5.5282 0.6811-11.393 2.999-28.152 6.0177-43.513 4.9032-24.948 12.047-48.088 21.266-68.885 1.3778-3.1081 2.4212-5.7348 2.3189-5.8372-0.1029-0.10243-1.8074-0.4712-3.7886-0.81954-42.297-7.4366-80.823-36.268-100.68-75.343-4.0274-7.9265-6.8534-14.833-9.046-22.107-8.5432-28.343-6.9555-60.296 4.4244-89.051 19.432-49.101 62.102-81.396 116.03-87.82 6.7438-0.80323 23.935-0.66091 30.789 0.25491 32.529 4.3466 61.342 18.603 84.461 41.79 11.961 11.996 20.158 23.457 27.076 37.857 8.076 16.811 12.041 33.042 12.963 53.069l0.297 6.4455 3.1377-0.87508c5.901-1.6457 18.448-4.3375 27.289-5.8548 24.445-4.1949 46.59-5.7967 74.153-5.3636 26.041 0.40917 44.824 2.3021 66.172 6.6686 4.0997 0.83851 7.4932 1.481 7.5414 1.4277 0.048-0.0533 0.3196-2.9668 0.6032-6.4746 2.2897-28.322 13.07-55.702 30.616-77.76 4.475-5.6256 16.486-17.58 21.741-21.637 19.363-14.952 42.518-24.951 66.196-28.586 44.454-6.8257 89.432 8.292 122.29 41.105 22.182 22.149 35.678 49.673 39.148 79.841 1.0056 8.7434 0.6981 26.688-0.5989 34.967-3.7548 23.964-12.825 45.802-26.649 64.161-19.712 26.178-48.512 44.383-82.126 51.912-2.8111 0.62965-5.4219 1.1448-5.8018 1.1448s-0.7996 0.17615-0.9327 0.39145 0.955 3.2337 2.4176 6.7076c14.235 33.806 23.961 72.48 27.908 110.97 0.3706 3.6141 0.7353 6.6326 0.8105 6.7078 0.074 0.0752 9.4229-0.74449 20.772-1.8217 23.36-2.2171 23.448-2.2149 26.704 0.65145 2.7465 2.4175 3.9681 5.4267 3.7525 9.243-0.2206 3.9041-1.8498 6.6197-5.0511 8.42-2.228 1.253-2.6297 1.3099-22.832 3.2355-11.31 1.0781-20.897 1.9601-21.304 1.9601-0.6634 0-0.7682 1.0514-1.0203 10.226-0.1545 5.6245-0.491 12.502-0.7476 15.284-0.2568 2.782-0.5081 5.5487-0.5587 6.1482-0.091 1.0871-0.045 1.0999 17.502 4.867 9.6766 2.0774 18.15 3.9192 18.829 4.0931 1.8919 0.48395 4.9275 3.5578 6.0188 6.0947 2.7055 6.2891-0.1802 12.862-6.4464 14.684-2.5618 0.74472-2.8713 0.69222-28.518-4.8367-6.0479-1.3038-11.131-2.2423-11.295-2.0856-0.1645 0.15669-0.8221 2.3631-1.4612 4.9032-4.5111 17.929-13.564 37.782-24.143 52.946-7.475 10.715-19.389 23.512-29.028 31.18-30.616 24.354-70.101 40.091-122.1 48.665-23.641 3.898-55.493 7.0066-85.989 8.3921-8.5112 0.38669-47.808 0.49878-54.32 0.15496zm70.814-21.709c52.429-2.2586 96.911-11.312 135.15-27.507 38.253-16.199 67.263-43.211 81.926-76.281 3.4865-7.8634 8.753-24.59 7.9844-25.359-0.1333-0.13332-5.7293-1.4098-12.436-2.8366-13.284-2.8264-15.054-3.4965-16.959-6.4232-1.746-2.6816-2.3036-4.4864-2.2765-7.3684 0.054-5.8194 4.23-9.9919 9.985-9.9786 1.2364 3e-3 7.4656 1.1166 13.843 2.475 6.3771 1.3584 11.649 2.4093 11.716 2.3354 0.3403-0.37714 1.1004-13.846 1.1004-19.498v-6.4794l-1.6492 0.24299c-0.9073 0.13366-5.537 0.58996-10.288 1.014-8.2969 0.74055-8.7206 0.73972-10.712-0.0209-5.58-2.131-8.792-8.2147-7.2837-13.796 0.6826-2.5259 4.0183-5.9826 6.402-6.6347 0.9677-0.26466 6.3845-0.92273 12.038-1.4623l10.278-0.98112-0.2969-3.3098c-2.2911-25.553-13.157-70.543-24.22-100.28-18.305-49.209-45.644-86.088-81.368-109.76-24.083-15.961-52.234-26.901-85.329-33.161-20.781-3.9309-39.068-5.513-63.557-5.4986-27.129 0.016-49.292 2.1454-72.934 7.0073-60.438 12.429-107.11 40.576-141.12 85.106-27.963 36.615-46.736 86.278-52.456 138.77-1.1604 10.648-1.8042 21.044-1.3224 21.348 0.2052 0.12953 4.1671 0.58299 8.8042 1.0077 9.0408 0.828 10.759 1.2882 13.098 3.5074 5.6714 5.3808 3.2297 15.169-4.5227 18.129-1.9052 0.72759-2.5858 0.74867-8.3146 0.25764-3.4318-0.29414-7.0125-0.65295-7.957-0.79735l-1.7173-0.26255 0.2948 5.675c0.5996 11.538 1.2808 18.284 1.8689 18.51 0.3118 0.11964 4.387-0.60469 9.0561-1.6097 4.6689-1.005 9.6147-1.8244 10.99-1.821 8.3025 0.0207 12.635 9.3458 7.8493 16.893-2.0386 3.2143-3.9213 4.0178-14.795 6.3146-5.2968 1.1188-9.718 2.1113-9.8246 2.2056-0.6457 0.5707 4.67 18.437 7.8964 26.541 5.2114 13.089 12.223 25.318 20.68 36.067 5.4295 6.9014 16.303 17.509 23.352 22.78 26.743 19.999 62.258 32.577 109.47 38.767 19.297 2.5304 52.916 5.3008 74.641 6.1509 13.163 0.51506 41.279 0.53083 52.913 0.0297zm-22.884-84.019c-3.422-0.51614-6.4189-1.6086-9.0767-3.3088l-2.2848-1.4616-2.3528 1.2743c-4.7669 2.5819-11.746 3.3764-17.3 1.9693-7.8052-1.9774-14.066-6.8498-17.299-13.462-1.9961-4.0831-2.688-7.4146-2.6931-12.969 0-1.9603-0.1267-4.7446-0.2776-6.1873-0.2694-2.5783-0.3087-2.6414-2.2967-3.6932-6.536-3.458-8.8722-6.4747-8.8552-11.435 0.017-4.9244 2.3359-8.2034 6.4566-9.1293 3.1534-0.70853 4.7703-0.19384 10.248 3.2619 5.0208 3.1677 11.861 4.1945 15.667 2.3518 3.4857-1.6874 6.0872-5.3709 7.4167-10.501 0.7831-3.022 0.663-3.9877-0.4963-3.9877-1.5662 0-7.9892-3.5347-10.147-5.584-2.998-2.8473-4.2247-5.3616-4.2499-8.7108-0.051-6.8048 5.9972-12.489 16.22-15.244 5.0147-1.3511 14.338-1.3511 19.353 0 7.2095 1.9425 12.94 5.7779 15.218 10.185 0.7579 1.4661 1.0257 2.7206 1.0333 4.8382 0.012 3.5026-1.5265 6.6365-4.577 9.3217-2.0298 1.7866-8.4918 5.1931-9.8514 5.1931-1.2557 0-1.2715 1.0613-0.07 4.678 1.9078 5.7419 4.915 9.2849 8.7679 10.33 3.6113 0.97951 9.9573-0.36505 14.167-3.0017 4.2939-2.6893 5.5862-3.2094 7.975-3.2094 3.5917 0 6.107 1.5088 7.6918 4.614 1.107 2.1694 1.1553 5.4725 0.117 8.0264-0.8885 2.1852-4.8167 5.9934-7.8307 7.5915l-2.0725 1.0988v7.4956c0 8.55-0.4434 10.915-2.9578 15.777-2.0138 3.8938-7.1586 9.138-10.897 11.108-4.6853 2.4684-10.058 3.478-14.747 2.7709zm-22.413-16.192c0.8429-0.44793 1.9779-1.4668 2.5222-2.2642 0.9448-1.384 0.9896-1.8479 0.9896-10.218 0-4.8226-0.1485-8.6924-0.3299-8.5996-4.6847 2.3974-8.7034 3.5896-13.855 4.1105l-2.529 0.25571v3.8471c0 5.4051 0.8862 8.1214 3.4657 10.623 3.0776 2.985 6.7508 3.8322 9.7364 2.2457zm30.122-1.111c4.393-2.0716 5.4981-4.334 5.4981-11.256v-4.8524h-2.3805c-3.3795 0-8.7317-1.1068-11.516-2.3815l-2.3777-1.0885v8.6746c0 7.3027 0.1133 8.8363 0.7162 9.6971 1.6753 2.3919 6.3557 2.9532 10.06 1.2064zm-168.47-105.39c-16.48-2.4224-28.304-16.865-27.358-33.417 0.4693-8.2115 3.4486-14.684 9.5548-20.757 3.2053-3.1879 4.4998-4.1302 7.9615-5.7939 5.6042-2.6936 9.7847-3.5583 15.747-3.2571 8.5663 0.43279 14.842 3.2454 21.009 9.4148 5.4101 5.4129 8.4079 11.949 9.1595 19.97 0.3726 3.9762-0.5904 10.175-2.1935 14.121-5.4156 13.328-19.922 21.771-33.88 19.719zm15.523-34.994c3.4537-1.4431 5.5192-4.645 5.5192-8.5559 0-5.4098-3.8847-9.2367-9.3759-9.2367-2.6764 0-4.6184 0.75693-6.3307 2.4675-4.6918 4.6866-3.4211 12.195 2.592 15.316 1.693 0.87869 5.5038 0.88347 7.5954 9e-3zm263.46 34.76c-10.527-1.9875-18.65-8.2899-23.234-18.025-5.9456-12.629-2.9819-27.158 7.5208-36.871 6.1794-5.7144 14.128-8.5345 22.817-8.0955 8.5212 0.4305 14.803 3.2302 20.976 9.3488 2.9226 2.8968 3.9262 4.2744 5.6075 7.6972 2.7909 5.6817 3.5437 8.8167 3.5361 14.725-0.01 5.753-0.7619 8.9623-3.3601 14.295-1.5028 3.0842-2.5571 4.474-6.0223 7.9392-3.4506 3.4506-4.8681 4.5279-7.9393 6.0337-6.3054 3.0917-13.506 4.1601-19.901 2.9529zm16.721-34.76c5.6407-2.3568 7.4486-9.7106 3.5499-14.44-4.4921-5.4498-13.218-4.1042-15.96 2.4614-1.8421 4.4097 0.2162 9.5099 4.8148 11.93 1.7 0.89468 5.5123 0.91921 7.5955 0.0489zm-382.83-110.27c21.049-34.053 47.473-60.111 81.862-80.73 8.5742-5.1411 25.263-13.353 35.077-17.26l8.2469-3.2833-0.011-7.0375c-0.012-11.084-1.2928-20.711-4.1344-31.07-2.2157-8.0773-4.2252-13.283-8.3834-21.715-9.3105-18.882-22.204-33.677-39.301-45.096-16.302-10.888-35.736-17.858-55.223-19.805-7.5716-0.75669-22.736-0.30792-29.74 0.88012-34.646 5.8764-65.444 26.198-83.857 55.331-3.7309 5.9031-9.1168 17.264-11.315 23.87-7.239 21.748-7.6241 45.187-1.1169 67.955 7.5464 26.403 24.122 49.243 46.712 64.366 12.067 8.0785 25.029 13.726 39.563 17.239 5.3756 1.2991 15.732 3.078 17 2.9202 0.3347-0.0417 2.4129-2.9948 4.6183-6.5626zm486.07 5.396c33.579-5.5402 60.544-22.989 79.202-51.25 14.106-21.367 21.445-48.541 19.598-72.569-1.2217-15.899-4.5019-28.063-11.269-41.789-5.6625-11.486-12.535-20.939-22.224-30.569-18.27-18.158-41.318-29.998-66.846-34.339-7.9377-1.3497-23.169-1.6672-31.245-0.6511-27.491 3.4588-52.649 15.803-72.128 35.39-13.284 13.358-22.021 27.292-27.931 44.545-3.5632 10.402-5.3312 20.276-5.7781 32.269l-0.2794 7.498 1.9347 0.57168c7.8891 2.3312 23.282 8.623 32.977 13.479 39.099 19.586 72.184 52.03 94.734 92.899 1.635 2.9634 3.1989 5.388 3.475 5.388 0.2764-6e-5 2.8776-0.39197 5.7804-0.87091z" fill="#41130d"/></g></g></svg>
