<?xml version="1.0" encoding="UTF-8"?>
<svg width="1e3" height="1e3" version="1.0" viewBox="0 0 750 750" xml:space="preserve" xmlns="http://www.w3.org/2000/svg" zoomAndPan="magnify"><g transform="translate(545.29 233.77)"><path d="m106.72 174.92c10.096 50.6 0.78705 127.86-44.034 161.94-60.618 47.014-149.91 56.575-227.22 56.077-73.111-2.3812-158.93-7.7631-222.32-43.773-48.895-27.079-64.753-96.435-63.825-146.69-2.3059-70.136 30.998-154.5 91.809-199.62 76.136-57.498 206.9-66.538 301.27-41.529 89.951 24.122 133.68 99.089 156.49 179.74 3.3179 11.136 5.9234 22.448 7.8288 33.86z" fill="#fff" stroke-width="1.0684"/><path d="m-215.64 406.62c-63.473-2.7596-107.02-10.649-146.73-26.585-55.062-22.096-87.025-56.923-97.036-105.73-3.4233-16.689-4.186-41.831-1.8696-61.625 2.1607-18.463 12.701-68.436 19.461-92.272l3.3065-11.658-6.1514-1.8524c-9.568-2.8812-13.253-4.385-21.888-8.9331-28.377-14.945-47.597-40.954-53.994-73.064-2.1876-10.98-1.9571-30.831 0.49264-42.429 7.3379-34.74 28.281-64.736 59.24-84.844 39.265-25.504 88.661-29.383 127.36-10 23.74 11.891 42.894 32.74 51.327 55.869 0.87213 2.3918 1.6595 4.4594 1.7496 4.5947 0.0901 0.13523 4.2264-0.92335 9.1916-2.3524 34.779-10.01 76.515-14.312 119-12.268 31.675 1.5239 57.074 4.8941 80.544 10.687l11.428 2.8208 3.1984-7.5566c6.5056-15.37 18.548-30.641 32.503-41.215 7.9907-6.0553 22.957-13.875 32.294-16.874 46.524-14.943 98.703-1.3743 135.23 35.164 11.539 11.543 18.843 21.553 25.54 35 24.871 49.94 12.992 106.59-28.9 137.81-8.3116 6.1954-23.397 13.866-33.08 16.821l-7.1992 2.1968 2.0193 8.9088c1.1106 4.8998 4.1934 22.02 6.8507 38.046 2.6573 16.025 5.4116 31.671 6.1208 34.768 2.8709 12.54 4.7961 27.287 5.2827 40.465 1.7881 48.425-14.803 88.984-47.693 116.59-39.5 33.156-97.293 51.807-181.97 58.723-14.829 1.2113-84.036 1.729-105.63 0.79011zm114.49-22.074c53.224-4.6983 91.046-14.165 125.53-31.419 34.861-17.443 59.056-42.931 68.917-72.602 3.8813-11.679 5.0096-18.894 5.516-35.274 0.57221-18.508-0.24831-26.997-4.9556-51.267-1.8556-9.5673-5.3857-28.894-7.8446-42.948-9.7784-55.89-19.275-82.038-39.869-109.78-37.556-50.583-98.635-79.46-181.8-85.952-56.697-4.4258-106.76 1.2471-149.25 16.914-13.261 4.8892-35.297 16.016-46.796 23.631-40.476 26.801-68.446 64.502-84.9 114.44-7.6246 23.139-20.805 80.269-23.825 103.26-1.9614 14.938-1.331 43.804 1.2114 55.475 5.0047 22.974 13.819 40.286 28.325 55.634 33.546 35.494 96.491 55.585 191.34 61.072 20.366 1.1784 100.73 0.3713 118.4-1.1891zm-41.898-62.286c-9.8966-1.7754-17.564-5.8733-24.131-12.896l-3.8712-4.1404-5.2493 4.9361c-9.5893 9.0171-20.154 12.608-34.996 11.894-11.069-0.53256-20.134-3.3074-29.186-8.9344-6.7751-4.2115-8.1974-6.3426-8.1974-12.282 0-3.3713 0.45553-4.4157 3.0644-7.0257 2.8191-2.8203 3.3933-3.0341 7.1724-2.6707 2.4291 0.2336 5.663 1.3772 7.9129 2.7983 11.302 7.1385 24.453 8.9214 33.423 4.5312 2.6717-1.3077 5.9162-3.6297 7.21-5.16 2.8098-3.3233 6.0853-10.282 6.8629-14.58l0.56093-3.1005-5.4267-1.5094c-16.644-4.6295-26.874-14.675-26.874-26.39 0-11.818 10.181-21.609 27.551-26.495 8.689-2.4442 23.841-2.6436 32.784-0.43148 12.222 3.0233 21.839 9.204 26.388 16.96 3.041 5.1837 3.3341 13.454 0.6679 18.844-3.8635 7.8116-13.879 14.703-25.84 17.78l-6.345 1.6324 0.24321 2.8541c0.38562 4.5256 4.5149 12.758 7.8837 15.717 1.6977 1.4913 4.8672 3.5172 7.0432 4.5022 8.1976 3.7104 22.101 1.5044 32.056-5.0863 6.1953-4.1016 14-3.7548 16.952 0.75336 3.8228 5.8369 1.9626 12.848-4.5117 17.004-13.132 8.4302-30.761 12.719-43.148 10.497zm-199.21-43.4c-7.4134-2.0143-13.681-5.0586-20.745-10.076-14.067-9.991-29.721-32.652-33.947-49.142-1.7754-6.9276-1.9825-18.795-0.44035-25.223 2.8532-11.893 9.0694-21.994 21.328-34.658 19.402-20.044 37.997-30.338 62.496-34.598 11.001-1.9128 29.749-1.2432 38.799 1.3858 23.289 6.7655 35.946 23.909 32.999 44.697-1.2283 8.6644-5.1943 17.878-15.548 36.119-6.7002 11.805-9.9843 18.7-12.796 26.868-4.7381 13.764-7.7398 18.88-15.951 27.187-11.763 11.9-25.515 18.155-41.296 18.782-6.7201 0.26715-10.103-0.0373-14.899-1.3405zm46.803-63.733c17.33-8.0637 23.433-29.899 12.807-45.818-10.881-16.302-33.818-18.567-47.907-4.7321-16.334 16.041-9.9414 44.049 11.82 51.783 6.5536 2.3292 16.789 1.7871 23.28-1.2331zm-21.541-9.2653c-8.0892-3.782-13.252-12.661-12.255-21.077 2.0786-17.558 22.961-25.183 35.263-12.876 9.5813 9.5854 7.7698 25.355-3.7298 32.468-5.479 3.3889-13.83 4.0325-19.277 1.4857zm20.106-22.275c4.232-4.2338 1.3254-10.911-4.7495-10.911-6.7319 0-9.0828 7.739-3.6245 11.931 2.2852 1.7553 6.0595 1.2955 8.374-1.02zm271.21 96.374c-14.303-2.98-25.643-9.1222-35.346-19.144-6.883-7.1094-11.4-14.584-14.211-23.516-3.3069-10.506-5.7868-15.759-15.456-32.736-9.5066-16.692-13.465-26.64-14.237-35.777-1.1926-14.114 5.0075-26.82 16.915-34.664 10.724-7.0645 22.541-10.155 38.825-10.155 24.254 0 45.836 7.6761 65.186 23.185 42.881 34.368 47.365 67.996 14.462 108.45-9.5803 11.778-23.683 20.96-36.303 23.635-5.531 1.1724-15.867 1.5487-19.835 0.722zm1.1652-65.003c16.027-8.226 22.28-25.938 14.8-41.923-2.6812-5.7302-9.2308-12.127-15.326-14.968-4.2342-1.9737-6.17-2.3264-12.829-2.338-7.1239-0.0124-8.3748 0.24834-13.647 2.845-18.513 9.118-23.512 33.169-10.069 48.448 7.0755 8.0416 14.143 11.036 25.038 10.609 5.9791-0.23444 8.276-0.74464 12.032-2.6726zm-20.607-8.6834c-3.7525-1.3586-9.3308-6.0432-10.968-9.2111-5.4102-10.467-2.0101-22.583 7.987-28.462 3.509-2.0635 5.1815-2.8504 10.365-2.8504 5.3313 0 6.6777 0.8854 10.495 2.9413 2.4208 1.3039 5.2979 4.3976 6.7394 6.4495 2.2221 3.1631 3.115 4.7543 3.3904 10.211 0.26707 5.2908-0.27475 7.1889-2.0284 10.335-4.9974 8.9666-16.068 14.174-25.979 10.586zm19.175-22.945c2.0282-2.3625 2.4698-4.3756 1.5124-6.8947-1.8744-4.9322-7.1899-6.1546-10.848-2.4947-2.6079 2.609-2.7223 5.5798-0.33207 8.6198 2.1941 2.7906 7.5658 3.2182 9.6679 0.7696z" fill="#41130d" stroke-width="1.1594"/></g></svg>
