<?xml version="1.0" encoding="UTF-8"?>
<svg width="1e3" height="1e3" version="1.0" viewBox="0 0 750 750" xml:space="preserve" xmlns="http://www.w3.org/2000/svg" zoomAndPan="magnify"><g transform="matrix(.54997 0 0 .55018 54.964 77.378)"><path transform="matrix(1.3447 0 0 1.3447 -93.503 -1028.8)" d="m296.45 1170.6h428.81v84.524h-428.81z" fill="#fff" stroke-width=".75"/><path transform="translate(3.6068e-7 1.6741e-5)" d="m160.47 47.426c-68.219 6.1481-128.71 20.28-177.99 70.143-22.356 72.656 40.408 133.59 90.577 172.36 53.124 46.755 54.517 46.79 11.648 118.64-58.212 121.54-36.11 270.52 7.0323 395.14 55.084 121.23 187.18 184.74 313.95 199.2 140.93 22.15 286.72 17.645 425.55-15.273 117.41-33.312 226.03-128.47 238.72-255.35 18.38-106.44 5.4202-215.47-17.534-320.14-34.539-67.084 1.0142-83.725 53.594-114.55 44.791-44.987 94.516-121.56 68.198-187.47-96.546-76.358-224.82-74.11-320.21-4.4426-47.299 30.429-101.84 109.11-166.47 91.931-90.432-16.817-184.17-11.817-273.88 7.372-68.997-72.036-149.57-145.84-253.19-157.56zm682.98 554.94c78.596 34.214-97.623 62.524-29.839-3.0103l18.07-5.8798zm-496.32-7.8354c76.713 26.458-67.571 92.394-40.058 17.15 10.27-10.916 25.208-16.79 40.058-17.15z" fill="#efc1d6"/><path d="m191.93 815.9c-19.218-2.0114-34.452-7.6473-43.58-16.122-10.36-9.6186-10.874-19.226-1.5608-29.182 7.3791-7.8883 20.325-13.68 37.077-16.587 9.0379-1.5686 27.315-1.7872 36-0.43062 19.332 3.0194 34.512 9.9152 41.619 18.906 3.5307 4.4667 4.8152 8.6404 4.2768 13.897-0.52639 5.1389-2.1582 8.073-7.2769 13.085-4.9589 4.8553-15.159 10.243-23.994 12.673-12.505 3.44-30.463 5.0268-42.561 3.7605zm733.55-0.0558c-22.672-2.3264-42.926-12.064-48.544-23.339-8.4807-17.019 10.484-33.732 44.183-38.937 8.74-1.3501 26.992-1.1236 36 0.44667 20.29 3.537 36.451 12.313 41.578 22.579 2.3712 4.748 2.4008 10.601 0.0784 15.489-3.5398 7.4496-15.078 15.457-28.156 19.539-12.485 3.8973-31.222 5.6498-45.139 4.2217zm105.9-493.64c-4.9898-7.0782-21.027-25.506-30.103-34.592-22.236-22.257-50.324-43.511-78.883-59.69-5.4467-3.0855-9.903-5.8177-9.903-6.0715 0-0.91945 21.84-12.844 36.806-20.097 52.556-25.468 112.54-42.191 183.27-51.095 20.347-2.5614 47.494-4.9313 48.216-4.2092 0.2784 0.27843 0.122 3.111-0.3476 6.2946-4.3952 29.797-36.234 74.612-86.07 121.15-15.447 14.424-58.935 51.551-60.322 51.499-0.2353-9e-3 -1.4339-1.4432-2.6636-3.1875zm-913.57-6.3628c-54.61-44.875-89.881-80.999-113.32-116.06-14.032-20.989-20.99-38.303-21.549-53.625-0.14309-3.9188-0.11864-5.5877 0.05432-3.7088l0.31449 3.4162 18.528 1.6672c97.354 8.7601 178.69 32.277 243.66 70.449l8.3835 4.9256-8.0085 4.4461c-39.3 21.818-76.572 50.768-103.71 80.556-5.1982 5.7057-10.598 11.638-12 13.183l-2.5487 2.8086z" fill="#eaa1c0"/><path d="m526.61 1054.7c-56.707-2.7575-87.496-5.7974-128.29-12.666-103.84-17.486-186.58-50.757-247.65-99.579-59.923-47.907-96.296-104.58-114.53-178.45-9.2237-37.373-13.003-74.938-12.171-120.98 1.9923-110.29 28.219-206.92 76.45-281.69l2.7056-4.1945-11.76-9.3876c-41.688-33.278-77.494-68.974-107.65-107.32-21.518-27.363-34.464-50.99-40.061-73.115-1.8735-7.405-2.0318-9.19-2.0097-22.663 0.0227-13.825 0.13781-14.994 2.1036-21.375 6.3801-20.709 21.836-39.082 46.785-55.615 30.675-20.327 69.896-33.694 114.2-38.919 14.025-1.6541 47.537-2.2611 63.375-1.148 98.308 6.9089 175.65 47.636 230.05 121.13 3.6444 4.9239 8.3848 11.754 10.534 15.179 2.644 4.2125 4.2726 6.1187 5.0348 5.8931 5.9498-1.761 48.968-7.6563 70.877-9.7131 72.416-6.7986 161.63-5.3538 231.75 3.7534 12.736 1.6541 29.603 4.2357 33.798 5.1728 1.2757 0.285 2.4809-1.0688 6.8512-7.6959 21.578-32.721 51.578-63.004 82.878-83.661 41.567-27.432 89.048-43.489 146.1-49.409 14.646-1.5196 59.096-1.2684 72.743 0.4111 48.766 6.0016 88.335 20.153 120.91 43.241 8.7105 6.1739 21.815 18.696 27.6 26.372 5.6862 7.5461 11.586 19.492 13.578 27.49 1.3803 5.5438 1.5184 7.9203 1.2428 21.375-0.2758 13.465-0.5294 15.938-2.2942 22.376-6.1484 22.43-19.165 45.379-41.91 73.891-30.365 38.064-67.952 75-109.74 107.84-6.1875 4.8622-11.343 8.9202-11.457 9.0178-0.1137 0.0976 1.018 2.3344 2.5149 4.9708 19.874 35.004 36.66 81.596 45.636 126.67 13.494 67.763 16.866 165.71 7.9003 229.5-13.966 99.37-60.863 182.98-132.3 235.86-47.255 34.984-107.44 60.887-177.76 76.5-47.585 10.566-94.225 16.271-163.15 19.956-13.985 0.7478-101.93 1.5077-112.88 0.9754zm129.38-41.487c74.295-4.8031 133.13-15.168 188.05-33.13 52.038-17.018 92.658-38.721 128.82-68.829 9.7152-8.0877 28.941-27.617 36.648-37.225 34.686-43.247 55.758-98.83 63.407-167.26 2.8334-25.346 3.4162-37.495 3.3816-70.495-0.094-90.056-10.752-157.17-34.065-214.5-47.296-116.31-151.38-188.72-308.25-214.43-64.836-10.626-151.94-13.782-228.75-8.2876-119.87 8.574-212.26 38.781-285.38 93.302-56.079 41.816-98.976 100.71-124.42 170.82-17.336 47.772-27.365 99.317-30.517 156.85-1.1297 20.618-0.50823 64.043 1.1287 78.868 10.077 91.266 48.408 164.65 111.89 214.21 40.957 31.973 92.132 56.422 152.17 72.699 58.544 15.872 121.6 24.201 212.62 28.085 19.116 0.8157 97.383 0.3456 113.25-0.6802zm-105-65.358c-30.993-1.1744-57.962-5.6205-82.074-13.531-38.531-12.641-67.274-38.884-77.949-71.171-3.5378-10.701-5.0215-19.889-5.5103-34.125-1.4479-42.169 15.735-85.161 47.033-117.68 28.438-29.547 63.4-46.792 108.38-53.456 12.797-1.8963 47.203-1.8963 60 0 37.804 5.602 70.825 19.144 96.375 39.523 7.8807 6.2859 21.501 20.226 27.1 27.738 22.197 29.775 34.564 71.905 31.542 107.45-1.5208 17.884-4.9378 30.59-12.149 45.177-18.639 37.702-59.221 60.799-118.49 67.44-21.578 2.4179-51.745 3.4889-74.25 2.6362zm46.875-40.477c48.394-3.2336 81.099-14.299 99.649-33.716 6.5626-6.869 10.863-14.198 13.975-23.82 11.698-36.162-0.14792-79.813-30.321-111.73-20.887-22.096-48.245-34.851-85.929-40.061-10.913-1.5087-38.212-1.3043-48.375 0.3623-17.262 2.8308-31.43 7.1513-45.75 13.952-17.167 8.1521-28.851 16.507-41.625 29.763-15.987 16.591-25.751 35.163-30.788 58.561-2.4146 11.217-2.8635 32.663-0.88377 42.219 6.8833 33.227 32.244 51.6 82.29 59.617 29.411 4.7114 62.502 6.542 87.756 4.8545zm-77.164-55.926c-7.4549-2.3476-14.642-12.104-17.821-24.192-2.0005-7.6063-2.1245-20.741-0.27022-28.608 3.8365-16.276 12.635-26.226 23.206-26.243 7.6169-0.012 13.245 3.8889 18.674 12.943 4.2889 7.1533 6.0591 14.947 6.0871 26.8 0.0272 11.526-1.0312 16.668-5.1722 25.125-5.7448 11.733-15.209 17.164-24.703 14.174zm89.057 0.51311c-8.3092-2.0799-15.956-12.095-19.518-25.562-1.9609-7.414-1.7831-21.901 0.36194-29.482 4.4235-15.634 12.724-24.495 22.963-24.511 5.602-9e-3 9.7299 1.9044 13.923 6.4534 3.5871 3.8916 7.6257 11.974 9.5139 19.04 1.7628 6.5968 1.7572 21.664-0.0109 28.8-2.5894 10.451-9.1012 20.435-15.435 23.666-3.2987 1.6828-8.5918 2.3991-11.798 1.5966zm-293.14-154.3c-10.163-1.6233-22.138-6.9743-29.625-13.237-9.1385-7.6447-15.701-17.714-19.162-29.4-2.4814-8.3783-2.863-21.621-0.85824-29.785 5.4646-22.256 22.401-39.194 44.59-44.595 6.7399-1.6405 19.918-1.6289 26.713 0.0235 21.975 5.3439 38.701 21.772 44.398 43.607 1.8246 6.9933 1.8536 21.19 0.0581 28.5-1.7411 7.0886-7.0629 17.731-11.711 23.419-7.4203 9.0803-18.649 16.448-30.048 19.715-5.5359 1.5868-19.227 2.5727-24.354 1.7536zm30.477-66.107c5.8113-3.0263 8.8982-8.2963 8.8982-15.191 0-6.1264-2.0689-10.503-6.604-13.97-8.6522-6.6143-21.145-3.7467-25.984 5.9644-7.6714 15.395 8.4186 31.149 23.69 23.197zm459.27 66.107c-23.379-3.7343-42.115-20.109-48.787-42.637-2.4842-8.3878-2.8631-21.619-0.85351-29.806 5.4351-22.141 22.497-39.198 44.585-44.575 6.7399-1.6405 19.918-1.6289 26.713 0.0235 23.563 5.73 41.047 24.214 45.149 47.732 5.2362 30.023-13.034 59.076-42.451 67.509-5.5359 1.5868-19.227 2.5727-24.354 1.7536zm30.243-65.962c6.8981-3.4375 10.729-11.52 9.048-19.092-3.5482-15.985-25.231-18.846-32.486-4.2863-7.622 15.295 8.1299 31.007 23.438 23.378zm207.18-313.96c16.621-13.649 39.057-33.108 50.572-43.86 49.02-45.774 80.736-90.036 85.944-119.94 0.4666-2.6795 0.7175-8.3139 0.5575-12.521-0.2521-6.6299-0.5977-8.2989-2.5941-12.524-2.7771-5.8775-7.1305-10.825-16.284-18.506-26.014-21.829-62.363-35.841-107-41.246-15.37-1.8615-52.141-1.8564-67.875 0.0093-73.938 8.7674-136.56 40.93-179.25 92.06-6.3083 7.5558-12.699 16.359-12.222 16.836 0.18389 0.1839 6.5527 2.0307 14.153 4.1039 77.647 21.181 143.56 57.477 191.48 105.45 9.0767 9.0856 25.114 27.513 30.103 34.592 1.2297 1.7443 2.4283 3.1787 2.6636 3.1875 0.2353 9e-3 4.6228-3.4289 9.75-7.6394zm-901.63-9.8435c19.371-21.262 45.833-43.686 73.025-61.882 32.139-21.506 71.426-40.403 113.05-54.378 12.598-4.2295 38.324-11.741 40.211-11.741 1.7464 0 1.227-1.0556-3.9198-7.9664-32.99-44.298-80.823-76.534-137.85-92.901-69.157-19.849-149.1-13.847-201.07 15.096-15.88 8.8441-34.471 24.334-38.839 32.359-9.1328 16.78-2.9431 42.39 17.713 73.287 23.439 35.06 58.71 71.183 113.32 116.06l9.8068 8.0586 2.5487-2.8086c1.4018-1.5448 6.8018-7.4769 12-13.183z" fill="#41130d"/></g></svg>
