<?xml version="1.0" encoding="UTF-8"?>
<svg width="1e3" height="1e3" version="1.0" viewBox="0 0 750 750" xml:space="preserve" xmlns="http://www.w3.org/2000/svg" zoomAndPan="magnify"><g transform="matrix(1.1209 0 0 1.1209 62.004 .61664)"><g transform="matrix(.89102 0 0 .8931 145.08 77.908)"><path d="m149.4 17.61c-14.654 0-16.401 0.06557-20.004 0.74881-18.293 3.4692-32.272 10.794-44.348 23.239-5.9716 6.1541-9.4599 11.067-13.31 18.744-1.138 2.2692-2.1179 4.0676-2.1772 3.9963-9.612-11.603-14.628-16.44-22.173-21.384-9.4712-6.2056-19.131-9.2669-29.206-9.2549-14.356 0.01704-29.815 6.0016-42.953 16.629-5.0257 4.0656-11.877 11.466-14.966 16.164-0.56167 0.85429-1.0832 1.5525-1.1592 1.5525-0.076 0-2.1503-1.2104-4.6105-2.6908-5.5148-3.3184-12.89-7.1968-18.856-9.9162-18.435-8.4025-43.391-15.768-67.44-19.904-6.1691-1.0611-8.0146-0.99705-10.753 0.37113-4.2903 2.1439-6.8064 6.0502-10.11 15.694-5.2344 15.282-7.1546 27.18-6.6413 41.169 0.59236 16.144 5.3737 30.984 14.29 44.352 4.0134 6.0172 12.421 15.265 18.043 19.845l1.218 0.99319-0.92915 3.9257c-1.2587 5.3123-1.6925 9.1887-1.6845 15.064 0.0115 7.9937 1.1074 14.561 3.8394 23.012 0.73022 2.2588 1.2564 4.1787 1.1683 4.2668-0.0881 0.088-2.5702 0.56239-5.5148 1.0533-6.3521 1.059-10.865 2.4985-15.534 4.9542-15.335 8.0643-27.201 24.824-31.471 44.445-1.5673 7.2028-1.8049 19-0.5188 25.78 1.1565 6.0967 4.3426 14.196 7.8083 19.847 4.6034 7.5056 12.591 15.646 21.851 22.27 1.0553 0.75485 1.9184 1.4943 1.9184 1.644 0 0.14966-1.83 2.2318-4.0668 4.6262-12.951 13.863-19.935 26.091-23.043 40.352-0.73356 3.3651-0.83596 4.8512-0.83507 12.062 9e-4 8.7244 0.30234 11.185 2.185 17.907 4.0397 14.425 13.447 28.468 24.236 36.181 5.8115 4.1542 13.696 7.488 21.747 9.1935 3.1404 0.6653 4.959 0.78928 11.756 0.80239 4.4223 9e-3 8.9906-0.15664 10.153-0.36721 1.1622-0.2106 2.1902-0.25807 2.2843-0.10586s-0.14391 2.1429-0.52926 4.4236c-1.5326 9.0707-1.3232 18.589 0.55147 25.058 6.171 21.295 25.217 39.037 49.489 46.101 7.105 2.0678 9.7054 2.3429 20.283 2.1406 10.397-0.1989 12.952-0.59094 20.681-3.1717 3.8383-1.2818 13.256-5.7313 17.271-8.1598 3.9934-2.4154 3.6066-2.5048 5.6664 1.3134 7.9709 14.775 19.528 26.061 34.254 33.449 9.1363 4.5839 16.146 6.8085 27.385 8.6891 4.6595 0.77973 5.9661 0.84292 14.619 0.71745 10.096-0.14639 13.986-0.5677 21.015-2.2778 12.355-3.006 25.273-9.5389 34.815-17.608l3.5559-3.007 3.3821 2.7117c11.386 9.1229 25.077 15.72 37.98 18.302 16.595 3.3212 35.675 1.5042 51.929-4.9463 18.743-7.4383 32.134-19.273 39.967-35.321l2.0256-4.1492 1.8923 1.0664c15.112 8.5234 26.901 12.479 40.722 13.66 18.887 1.6142 40.284-6.2171 54.489-19.942 3.3196-3.2074 7.6963-8.7419 10.106-12.779 5.9854-10.03 8.1967-19.525 7.7469-33.256-0.24067-7.346-0.82891-10.922-2.9887-18.145-0.73331-2.4527-1.2346-4.5586-1.1134-4.6797 0.12117-0.12119 1.9072 0.0671 3.9688 0.41818 8.1849 1.3939 19.752 1.4225 26.285 0.0653 14.038-2.916 26.429-11.692 35.105-24.864 2.4434-3.7096 6.2857-11.418 7.7429-15.532 7.3029-20.617 4.1772-41.914-8.7152-59.373-1.1951-1.6184-4.7379-5.5447-7.8723-8.7257-4.9629-5.0366-5.6197-5.84-5.0914-6.214 0.33365-0.23619 2.1359-1.4979 4.0054-2.8044 3.7589-2.6271 11.69-10.098 14.938-14.071 7.449-9.1107 11.749-20.036 12.84-32.624 1.1902-13.735-2.9026-29.627-10.615-41.22-9.7476-14.651-25.432-23.336-45.165-25.009-2.6132-0.22145-5.4424-0.4871-6.2858-0.59069l-1.5329-0.18818 3.0135-5.9199c5.6515-11.101 7.8734-20.046 7.9141-31.868l0.0144-4.3857 2.824-2.0034c6.1472-4.3613 13.596-11.416 18.353-17.382 15.21-19.076 21.365-44.301 17.164-70.34-1.6165-10.02-6.2202-24.74-9.6614-30.893-2.294-4.1022-6.3519-6.7512-10.345-6.7511-3.5864 1.52e-4 -18.311 2.809-29.865 5.6964-26.325 6.5789-47.65 15.317-66.699 27.331l-3.8382 2.4202-2.1628-2.4647c-10.557-12.031-23.987-20.795-39.501-25.776-7.6004-2.4399-10.867-2.9558-18.639-2.9456-10.792 0.0141-17.758 1.6057-26.448 6.0441-9.5769 4.8916-17.193 10.98-25.712 20.551l-1.2781 1.4349-2.8175-5.5096c-4.6469-9.0863-9.0454-15.209-15.579-21.688-10.719-10.63-24.65-17.831-41.294-21.346-4.3105-0.91015-4.6561-0.92523-20.441-0.92523z" fill="#fff"/><path d="m-5.5734 385.89c-24.649 1.5268-28.063-26.958-2.1984-27.652 16.895-8.8654 59.848 10.385 28.256 25.043-8.1938 3.4589-17.357 3.5425-26.057 2.6095zm292.2 2e-3c-23.518 0.41177-26.794-28.155-1.7072-29.157 17.602-7.5729 57.488 11.582 27.333 26.641-8.0693 3.358-17.066 3.4553-25.626 2.5162zm132.52-240.99c-5.1955-11.834-19.915-18.466-27.508-25.488 22.127-16.37 40.434-38.3 50.682-63.87 12.42 30.872 5.3619 70.856-22.148 90.7l-1.0253-1.3418zm-541.01-5.5498c-21.696-21.439-24.612-55.966-14.19-83.243 10.446 25.131 28.776 46.162 49.697 62.983-12.685 3.9584-23.583 13.665-31.374 24.294l-1.363-1.185z" fill="#edc0d4"/><path d="m135.7 475.27c-54.731-2.7072-112.85-8.3131-159.55-39.129-21.055-13.523-38.43-33.962-48.216-56.163-20.774-45.711-20.698-102.72 0.36721-148.38 8.7022-18.629 21.541-38.174 35.803-53.087 30.225 39.308 95.435 40.66 130.26 6.5705 6.422 0.84899 13.607 7.2945 20.696 9.0425 26.982 9.9479 57.782 8.2576 84.345-3.0985 23.292 17.425 53.216 22.819 81.018 13.909 17.031-5.1126 33.625-13.93 44.164-28.475 40.621 44.947 58.055 110.42 46.755 170.27-6.0041 36.37-25.903 70.957-57.694 90.981-41.604 27.38-93.174 35.643-142.45 37.43-11.831 0.13858-23.666 0.27291-35.496 0.13606zm-125.7-90.526c19.236 1.2673 28.692-23.257 5.6848-25.124-13.51-5.9711-52.958 1.7984-35.91 20.518 9.1446 6.0018 19.683 5.7544 30.225 4.6067zm293.08-0.0321c23.192 0.8393 24.656-26.884 0.75746-26.396-12.841-4.2299-47.5 3.4448-32.87 21.12 9.1797 6.7598 21.192 6.4909 32.112 5.2756zm-260.63-81.11c-18.033-8.9704-20.837 26.384 0.8747 17.543 17.743 1.4278 7.2146-7.8986 1.1562-15.068-0.67698-0.82496-1.354-1.6499-2.0309-2.4749zm233.07 18.08c25.201-14.217-25.915-29.628-14.3-7.8546 3.5768 3.5418 8.6339 9.4404 14.3 7.8546z" fill="#ebe292"/><path d="m74.785 555.11c-11.238-1.8806-18.248-4.1047-27.385-8.6886-14.727-7.3888-26.284-18.674-34.255-33.449-2.0598-3.8182-1.674-3.7288-5.6673-1.3134-4.0149 2.4285-13.432 6.8777-17.271 8.1594-7.7282 2.5807-10.283 2.9725-20.68 3.1714-10.578 0.20234-13.178-0.0719-20.283-2.1397-24.272-7.064-43.319-24.807-49.49-46.101-1.8747-6.4691-2.0842-15.988-0.55162-25.059 0.38536-2.2808 0.62368-4.2714 0.52961-4.4236-0.0941-0.15221-1.1219-0.10445-2.284 0.10614-1.1622 0.21058-5.7312 0.37593-10.153 0.36744-6.7972-0.0131-8.6149-0.13713-11.755-0.80243-8.0508-1.7055-15.937-5.039-21.748-9.1932-10.79-7.7126-20.197-21.756-24.236-36.181-1.8827-6.7227-2.1829-9.184-2.1842-17.908-1e-3 -7.2109 0.10173-8.6957 0.83529-12.061 3.1087-14.261 10.092-26.49 23.043-40.353 2.2368-2.3944 4.0669-4.4759 4.0669-4.6256 0-0.14965-0.86344-0.8897-1.9188-1.6446-9.2599-6.6235-17.247-14.764-21.851-22.269-3.4656-5.6505-6.6524-13.75-7.809-19.846-1.2861-6.7796-1.0488-18.578 0.51855-25.78 4.2696-19.622 16.137-36.381 31.472-44.445 4.6696-2.4556 9.1822-3.8946 15.534-4.9537 2.9446-0.49091 5.4258-0.96462 5.5139-1.0527 0.0881-0.0881-0.43733-2.0082-1.1676-4.267-2.732-8.4511-3.8278-15.019-3.8393-23.012-8e-3 -5.875 0.4247-9.7513 1.6834-15.064l0.93026-3.9262-1.219-0.99325c-5.6222-4.5809-14.029-13.827-18.042-19.844-8.9165-13.368-13.698-28.208-14.29-44.353-0.51329-13.989 1.4058-25.888 6.6402-41.169 3.3032-9.6435 5.8199-13.55 10.11-15.694 2.738-1.3682 4.5832-1.4318 10.752-0.37072 24.049 4.1364 49.005 11.502 67.441 19.905 5.9666 2.7194 13.34 6.5971 18.855 9.9155 2.4602 1.4803 4.5352 2.6915 4.6113 2.6915 0.076 0 0.59779-0.69897 1.1594-1.5533 3.0887-4.6979 9.9401-12.097 14.966-16.163 13.137-10.628 28.595-16.613 42.952-16.63 10.076-0.01192 19.735 3.0488 29.206 9.2544 7.545 4.9435 12.561 9.7814 22.173 21.384 0.0592 0.0714 1.0387-1.7267 2.1768-3.9959 3.8501-7.6769 7.3388-12.59 13.31-18.744 12.077-12.446 26.055-19.771 44.348-23.24 3.6027-0.68323 5.3497-0.7486 20.004-0.7486 15.785 0 16.131 0.01565 20.441 0.92576 16.644 3.5142 30.574 10.715 41.294 21.345 6.5333 6.4787 10.932 12.603 15.579 21.689l2.8178 5.5098 1.2774-1.4353c8.5184-9.5715 16.135-15.659 25.712-20.551 8.6896-4.4384 15.656-6.0304 26.448-6.0444 7.7723-0.01014 11.039 0.50616 18.639 2.946 15.514 4.9803 28.945 13.744 39.501 25.775l2.1629 2.465 3.8375-2.4203c19.049-12.014 40.374-20.752 66.7-27.331 11.554-2.8875 26.278-5.6956 29.864-5.6957 3.993-1.66e-4 8.0517 2.648 10.346 6.7501 3.4412 6.1534 8.0446 20.874 9.661 30.894 4.2008 26.039-1.9545 51.263-17.164 70.339-4.757 5.9661-12.206 13.021-18.353 17.382l-2.8237 2.0033-0.0151 4.3857c-0.0407 11.822-2.2619 20.768-7.9134 31.868l-3.0137 5.9196 1.5335 0.18834c0.84341 0.10358 3.6715 0.36951 6.2847 0.59096 19.733 1.6722 35.418 10.357 45.165 25.008 7.7127 11.593 11.806 27.486 10.615 41.221-1.0908 12.588-5.3902 23.512-12.839 32.623-3.2483 3.9729-11.18 11.444-14.939 14.071-1.8695 1.3066-3.672 2.5689-4.0057 2.8051-0.52827 0.37399 0.12945 1.1765 5.0923 6.2131 3.1344 3.181 6.6768 7.1078 7.8718 8.7262 12.892 17.459 16.019 38.756 8.7156 59.373-1.4572 4.1139-5.3 11.821-7.7434 15.531-8.6758 13.172-21.067 21.948-35.105 24.864-6.5338 1.3572-18.101 1.3284-26.286-0.0655-2.0616-0.35108-3.8475-0.53917-3.9686-0.41799s0.37966 2.227 1.113 4.6797c2.1598 7.2237 2.7489 10.799 2.9896 18.145 0.44987 13.731-1.7621 23.226-7.7474 33.256-2.4094 4.0375-6.7861 9.5723-10.106 12.78-14.205 13.725-35.602 21.556-54.489 19.942-13.821-1.1813-25.61-5.1357-40.722-13.659l-1.8922-1.0673-2.0253 4.1494c-7.8327 16.048-21.224 27.882-39.967 35.321-16.254 6.4506-35.333 8.2681-51.929 4.9469-12.904-2.5824-26.594-9.18-37.98-18.303l-3.383-2.7106-3.5548 3.006c-9.5425 8.0692-22.46 14.603-34.816 17.609-7.0288 1.7101-10.919 2.1319-21.015 2.2783-8.6534 0.12547-9.9596 0.0613-14.619-0.71844zm22.164-17.417c7.6564-0.78121 15.261-2.9368 22.492-6.3754 7.1771-3.413 10.85-6.1069 19.668-14.425 6.4849-6.1173 8.2906-7.092 11.525-6.221 1.2243 0.32968 2.5456 1.3906 6.5178 5.2334 7.356 7.1164 11.722 10.21 20.063 14.214 5.0628 2.4308 11.237 4.5585 16.899 5.8234 3.5539 0.794 4.6208 0.8563 14.436 0.84309 10.299-0.0139 10.723-0.0432 14.985-1.0388 15.282-3.5702 26.994-10.014 35.287-19.414 5.8768-6.6614 7.8694-10.937 10.702-22.963 1.0554-4.481 1.9803-6.0156 4.3767-7.2618 1.1468-0.59639 2.1755-0.79707 4.0904-0.79796 3.07-1e-3 3.6078 0.25015 9.3197 4.3594 10.448 7.5162 19.386 11.829 29.786 14.371 5.4788 1.3392 8.3296 1.6453 15.167 1.6282 5.5167-0.0138 7.4648-0.16487 10.583-0.82071 14.862-3.1258 27.438-12.331 34.49-25.246 7.4761-13.691 4.7948-34.013-6.896-52.263-4.1932-6.5459-4.7667-8.3367-3.6621-11.433 1.1478-3.2173 3.5869-5.441 6.775-6.177 2.3833-0.55014 3.6764-0.22675 9.6482 2.4129 9.0792 4.0132 15.539 5.738 24.288 6.4854 11.462 0.9792 20.957-1.266 28.265-6.6835 8.4866-6.2913 15.648-18.839 17.674-30.969 0.92104-5.5126 0.6003-13.9-0.71469-18.691-1.1501-4.1895-3.5619-9.3297-6.331-13.493-4.0283-6.0563-12.327-13.669-19.161-17.579-6.4384-3.6831-8.0451-5.3096-8.7791-8.8877-0.46924-2.2873-0.0606-4.0632 1.5016-6.5266 1.0051-1.5848 1.5362-1.9316 7.5926-4.9566 9.9539-4.9716 14.209-7.9616 20.217-14.206 5.6801-5.9036 9.6646-12.545 11.374-18.959 1.1141-4.1794 1.371-13.351 0.51915-18.535-2.7007-16.432-12.966-29.324-26.828-33.693-5.2901-1.6674-9.1125-2.176-16.496-2.1949-7.3002-0.0186-9.9545 0.29636-17.177 2.0386-2.5126 0.60607-5.473 1.1279-6.5786 1.1596-5.76 0.16535-10.011-5.6977-8.3824-11.562 0.22606-0.81407 1.3187-2.4412 2.6477-3.9426 8.7506-9.8866 12.827-15.518 15.95-22.032 3.3033-6.8911 4.7743-12.872 4.7617-19.361-0.0185-9.5285-3.4138-17.559-10.394-24.581-5.0395-5.0703-9.9701-8.0414-16.096-9.6989-2.4702-0.66842-3.9446-0.79438-9.5024-0.8118-5.6123-0.0176-7.0617 0.0986-9.8679 0.79116-7.8053 1.9263-14.726 4.697-21.563 8.6331-2.2111 1.2729-4.6591 2.5182-5.4399 2.7674-1.6878 0.53866-4.8969 0.2473-6.5198-0.59195-2.58-1.3342-4.6654-4.9152-4.6579-7.9982 5e-3 -2.1201 0.63161-3.6356 3.1906-7.7188 3.6129-5.7648 5.904-10.897 7.6486-17.134 0.76803-2.7455 0.95133-4.3502 1.1087-9.7066 0.16734-5.6942 0.10255-6.7576-0.57493-9.4366-3.0551-12.081-12.832-22.704-27.789-30.193-9.776-4.8946-16.318-6.6026-25.077-6.5468-6.9615 0.0443-10.781 0.96741-17.177 4.1518-9.854 4.9054-19.173 13.958-27.822 27.026-4.8539 7.3341-6.5602 8.643-10.898 8.3596-4.7934-0.31315-6.7122-2.0276-8.4106-7.5146-3.3717-10.893-4.8595-15.094-6.5956-18.623-7.3966-15.035-21.22-27.309-36.31-32.24-7.2685-2.3752-14.204-3.3068-24.62-3.3068-14.6 0-25.277 2.2207-35.92 7.4712-6.3892 3.1519-9.8572 5.5355-14.375 9.88-9.556 9.1897-15.022 19.596-17.248 32.837-0.41146 2.4477-0.99961 5.2239-1.307 6.1693-0.96953 2.9821-4.5346 5.3864-8.0037 5.3978-4.3904 0.0144-6.1011-1.3078-9.3212-7.2044-3.0688-5.6194-6.371-11.053-8.667-14.262-8.19-11.445-17.282-18.607-28.164-22.184-2.9481-0.96921-3.2054-0.99115-10.051-0.85698-7.0028 0.13726-7.0377 0.14204-11.019 1.507-4.9841 1.7088-11.389 5.0079-15.924 8.2025-4.2622 3.0021-11.265 9.9455-13.643 13.528-3.7357 5.6265-6.2518 11.609-7.9503 18.904-0.5707 2.4511-0.81508 5.0255-0.95905 10.103-0.27919 9.8454 0.34427 14.246 3.5394 24.983 1.1269 3.7867 1.1709 4.1428 0.75764 6.1294-0.58977 2.8353-2.2066 4.8941-4.942 6.293-3.8204 1.9538-6.1012 1.5148-13.094-2.5209-8.2594-4.7664-11.79-5.9866-19.623-6.7821-11.256-1.1431-21.806 3.0612-31.077 12.385-6.8187 6.8573-11.234 15.01-13.026 24.049-0.92435 4.6631-0.83028 12.288 0.21317 17.278 1.7364 8.3044 4.562 14.989 9.7693 23.111l2.8697 4.4761-9e-3 2.9271c-0.01 3.31-0.48084 4.5006-2.5913 6.5503-2.7802 2.7001-5.4274 2.9597-11.654 1.143-6.2737-1.8306-11.822-2.0675-17.989-0.76823-9.4469 1.9902-17.614 8.9083-22.892 19.393-10.774 21.398-8.5434 42.234 6.0982 56.967 4.923 4.9539 9.5404 8.1807 18.674 13.05 6.0336 3.2168 7.2759 4.3181 8.1142 7.1926 0.5115 1.754 0.54342 2.4289 0.19428 4.1088-0.58071 2.7942-1.8984 4.4837-5.9126 7.5807-7.6109 5.8719-16.912 15.465-20.998 21.657-6.3836 9.6742-8.9763 17.814-8.95 28.098 0.0147 5.7508 0.5288 9.0708 2.1572 13.932 2.8088 8.3842 7.1853 15.602 12.979 21.405 6.9713 6.9822 13.344 10.053 22.254 10.723 10.028 0.75426 17.187-0.68179 28.247-5.6666 5.8559-2.6392 8.1083-2.9416 10.999-1.4767 3.4696 1.7582 5.0865 4.7855 4.7847 8.9583-0.12864 1.7783-0.47803 2.7127-1.9513 5.2182-6.302 10.718-8.2386 16.792-8.256 25.894-0.0146 7.6442 1.6516 13.412 5.612 19.425 10.895 16.542 31.567 26.659 50.701 24.814 12.625-1.2176 22.737-5.7617 34.164-15.353 2.2003-1.8467 4.4535-3.5919 5.0072-3.8782 1.3454-0.69575 6.5879-0.69807 7.9137-3e-3 1.2548 0.65737 3.1205 2.633 3.8261 4.0514 0.29997 0.60304 1.1342 2.9878 1.8538 5.2994 2.1874 7.0266 5.9536 13.938 10.881 19.969 9.1825 11.238 24.846 19.632 41.45 22.212 3.9858 0.61932 14.066 0.72109 19.23 0.19415zm33.023-44.965c-38.858-1.3682-74.047-6.5877-104.49-15.5-30.449-8.9125-56.546-22.271-76.072-38.94-15.587-13.306-27.917-28.985-36.346-46.218-7.9978-16.352-12.701-31.387-15.49-49.522-3.5334-22.975-3.5344-44.731-3e-3 -66.151 5.0733-30.774 17.619-60.87 36.736-88.128 8.8372-12.6 21.992-27.879 26.954-31.306 1.7705-1.2229 2.1877-1.3535 4.2484-1.33 1.7201 0.0196 2.7986 0.27725 4.362 1.0422 2.2556 1.1036 2.7135 1.6834 6.5252 8.2627 7.8295 13.514 21.85 22.973 39.75 26.817 19.533 4.195 39.78 0.65447 55.392-9.686 3.1559-2.0904 5.239-3.9123 10.05-8.7899 6.3682-6.4562 7.2639-7.0852 10.625-7.4609 2.6936-0.30112 4.148 0.30449 10.208 4.2505 23.853 15.532 55.691 18.876 83.552 8.7757 2.167-0.78557 5.8314-2.2159 8.143-3.1784 3.3644-1.401 4.7134-1.7752 6.7613-1.8758 2.3014-0.113 2.7419-0.0168 4.3857 0.95785 1.0051 0.59592 3.1431 2.1916 4.7512 3.546 16.474 13.875 41.017 18.887 63.334 12.933 11.541-3.0789 20.825-8.2838 28.623-16.047 4.884-4.8621 7.0263-7.8924 10.394-14.702 1.3239-2.6773 2.6464-5.1323 2.939-5.4555 1.7451-1.9283 6.4182-3.3019 9.3572-2.7506 2.357 0.44217 8.3829 6.3483 17.013 16.674 29.872 35.743 47.898 81.819 50.544 129.2 0.60698 10.865-0.0147 26.705-1.499 38.192-4.3598 33.743-14.611 60.287-32.459 84.053-3.5939 4.7853-14.368 15.975-20.329 21.113-20.261 17.464-49.182 31.354-82.781 39.76-34.554 8.6443-81.969 12.988-125.18 11.466zm53.542-18.599c36.909-2.2078 69.277-8.8852 97.935-20.204 7.1841-2.8373 21.035-9.7933 27.291-13.706 35.348-22.105 55.766-53.591 63.166-97.404 8.441-49.979-2.5005-101.23-30.682-143.72-5.932-8.9431-15.807-21.687-16.839-21.73-0.21186-9e-3 -1.2809 1.1763-2.3756 2.6336s-3.7173 4.4355-5.8279 6.6182c-6.7724 7.0035-12.368 11.018-21.746 15.601-12.232 5.9778-23.342 8.6334-37.701 9.0117-10.261 0.27032-16.739-0.39886-25.791-2.6644-9.9046-2.479-21.174-7.7464-29.416-13.749-1.0467-0.76239-2.1158-1.3858-2.3756-1.3854-0.25985 4.6e-4 -2.446 0.75013-4.8582 1.666-23.398 8.8836-51.85 9.8476-75.106 2.5448-7.4561-2.3414-15.15-5.5767-21.153-8.8954-1.8852-1.0421-3.5571-1.8947-3.7153-1.8947s-1.6384 1.2402-3.2893 2.7559c-12.633 11.598-28.585 18.722-47.496 21.21-5.6082 0.73783-19.643 0.53603-25.401-0.36519-9.7461-1.5257-18.824-4.399-27.237-8.6209-9.4963-4.7655-16.528-10.216-23.476-18.196-3.8096-4.3755-3.0538-4.4428-7.3887 0.65825-10.458 12.306-20.401 27.679-27.991 43.278-14.12 29.018-20.242 58.86-18.639 90.852 0.49822 9.9416 0.84332 13.251 2.2486 21.563 4.4578 26.368 14.939 50.32 30.065 68.71 3.7618 4.5732 14.804 15.455 19.424 19.141 22.248 17.753 53.21 30.999 89.359 38.23 23.251 4.651 41.83 6.6013 81.501 8.5551 5.2458 0.25836 41.159-0.1184 47.512-0.49844zm-61.723-104.17c-6.7442-1.813-13.75-6.453-14.627-9.6879-1.1397-4.2033 0.55194-8.5332 3.8764-9.9223 2.5985-1.0857 4.9003-0.54473 9.4285 2.216 2.9609 1.8052 6.2489 2.7723 9.4255 2.7723 3.1952 0 5.2224-0.88777 7.0108-3.0703 1.5418-1.8816 3.3716-5.7236 3.6881-7.7439l0.23414-1.4946-3.7835-1.85c-6.2726-3.0671-9.2542-6.6477-9.209-11.059 0.0414-4.0464 3.2032-8.0387 8.2523-10.42 3.8399-1.811 6.4634-2.4113 11.522-2.6367 5.289-0.23563 8.8821 0.25352 13.062 1.7782 9.7972 3.5738 13.165 11.164 7.899 17.803-1.0669 1.3451-5.411 4.0993-8.4472 5.3557-0.90455 0.37429-1.7793 0.79316-1.9439 0.93081-0.39266 0.3284 1.3501 5.4914 2.5377 7.5178 1.7483 2.9832 4.8399 4.8673 8.0095 4.8811 3.376 0.0147 6.4209-1.0339 12.229-4.2113 2.0853-1.1408 2.6288-1.2836 4.4475-1.1687 5.227 0.33042 8.1686 5.7652 5.7853 10.689-1.7734 3.6634-7.1938 7.1192-13.839 8.8234-4.0978 1.0508-10.268 1.4866-13.206 0.93266-4.4057-0.83085-8.8602-3.1122-12.702-6.5054l-2.1115-1.8649-2.2733 2.0586c-2.7651 2.504-5.5034 4.2005-8.774 5.4359-2.1792 0.8231-3.1184 0.94425-8.1288 1.0485-4.7565 0.099-6.0976 2e-3 -8.3633-0.60749zm-97.625-21.75c-9.2579-2.535-17.367-10.819-19.245-19.659-0.79567-3.7464-0.49814-11.696 0.54685-14.612 1.5054-4.2002 3.0464-6.5597 6.6282-10.148 2.6904-2.6957 4.145-3.8298 6.4048-4.9938 4.3138-2.2219 6.8167-2.7847 12.426-2.7942 4.3498-7e-3 5.0137 0.0843 7.8578 1.0842 8.299 2.9179 13.775 8.1229 16.687 15.862 2.8108 7.4691 2.3377 14.9-1.402 22.024-1.6043 3.0557-7.7097 9.1795-10.717 10.749-4.176 2.1795-6.4652 2.7281-12.061 2.8907-3.8093 0.11066-5.6303 8e-3 -7.1268-0.40178zm15.102-28.349c2.949-0.81888 5.7095-4.4228 5.7188-7.4659 5e-3 -1.7035-1.3362-4.7648-2.5947-5.9216-3.4141-3.1381-9.3067-2.4266-11.888 1.4354-2.2845 3.4183-1.9454 6.9061 0.95277 9.7985 2.3281 2.3235 4.7724 2.9974 7.8109 2.1536zm219.95 28.182c-7.2421-2.0694-13.581-7.3427-16.842-14.01-3.3753-6.9014-3.4546-16.186-0.1971-23.072 2.3276-4.9202 7.6389-10.164 12.789-12.626 3.9851-1.9054 6.1928-2.3673 11.33-2.3705 3.5649-2e-3 4.8988 0.15622 7.1268 0.84657 7.8105 2.4201 13.532 7.3345 16.808 14.438 2.2958 4.9776 2.9396 9.2408 2.2168 14.68-1.4304 10.765-9.9309 20.079-20.336 22.283-3.5465 0.75132-9.9683 0.66685-12.896-0.16962zm17.265-29.021c2.7829-1.6309 4.5443-5.2186 3.9152-7.9747-0.65736-2.8801-3.3842-5.9174-5.7033-6.3524-5.2982-0.99395-9.6204 1.9444-9.9701 6.778-0.0845 1.1685 0.0505 2.7431 0.29997 3.4991 0.56752 1.7196 2.6032 4.1194 4.2118 4.6109 1.8876 0.57678 5.4767 0.47618 7.2463-0.56088zm146.3-175.64c2.7283-2.3768 6.856-6.8092 10.06-10.803 5.9977-7.4754 10.988-17.793 13.281-27.459 2.886-12.165 2.6016-26.723-0.78381-40.128-1.0093-3.9965-3.9635-13.23-4.4998-14.065-0.38201-0.59432-1.0683-0.47146-14.423 2.582-29.822 6.8185-53.51 16.636-71.599 29.674-2.3254 1.676-3.5072 2.7533-3.3811 3.082 0.10665 0.27791 0.56055 1.8492 1.0087 3.4918 0.74202 2.7198 0.81547 3.8184 0.82276 12.306 8e-3 9.0118-0.25218 11.809-1.5026 16.172-0.25097 0.87569 0.62998 0.83579 5.5333-0.25059 9.3169-2.0642 19.275-2.2176 26.484-0.40798 6.8771 1.7262 13.039 4.5221 18.832 8.5455 4.4356 3.0803 11.242 10.087 14.37 14.792 1.4436 2.1716 2.6247 4.1041 2.6247 4.2944 0 0.71553 0.75127 0.28312 3.172-1.8258zm-538.88-3.4018c8.8778-12.025 22.867-21.063 37.561-24.266 4.7336-1.032 16.985-0.89769 22.294 0.24447 2.1106 0.45409 4.2562 0.89847 4.7679 0.98751l0.93041 0.16189-0.15406-7.949c-0.17392-8.9732 0.20294-13.198 1.8037-20.222l1.0485-4.6004-1.5176-1.3825c-3.4146-3.1106-17.949-11.268-27.528-15.45-13.183-5.755-28.743-10.721-44.975-14.355-10.379-2.3232-12.628-2.7249-13.027-2.3267-0.19681 0.19681-1.0712 2.4728-1.943 5.0577-9.7651 28.953-6.5052 55.052 9.5458 76.424 1.9887 2.6479 8.7849 9.9603 9.2573 9.9603 0.13759 0 1.009-1.0279 1.9366-2.2842z" fill="#40120c"/></g></g></svg>
