<?xml version="1.0" encoding="UTF-8"?>
<svg width="1e3" height="1e3" version="1.0" viewBox="0 0 750 750" xml:space="preserve" xmlns="http://www.w3.org/2000/svg" zoomAndPan="magnify"><g transform="matrix(.55021 0 0 .55064 -61.327 178.03)"><path d="m528.63 445.55h528.58v52.188h-528.58z" fill="#fff" stroke-width=".75"/><path d="m743.16 827.69c-147.95-6.5826-296.41-46.173-420.34-129.04-27.394-21.024-61.864-17.458-54.258-46.028-43.118-31.794-61.007-62.595-24.407-125.99 30.38-52.62 42.556-90.211 45.099-138.71-1.2898-63.138 21.414-123.68 59.569-173.46 81.64-109.23 214.61-178.09 349.86-187.61l216.39 9.8867c146.54 41.119 285.35 143.56 338.83 289.91 15.481 63.061 25.953 131.14 44.586 193.48 21.29 65.734 5.74 132.28-38.231 183.78-149.09 75.167-312.86 133.28-482.17 124.9-11.645-0.24085-23.286-0.63241-34.923-1.1211zm-172.05-344.42c16.241-25.43 18.634-41.277-31.784-36.883-12.836 35.537-7.4731 44.851 31.784 36.883zm470.64 5.1875c16.748-21.053 10.644-40.663-21.218-44.879-15.178 21.09-20.204 35.628 21.218 44.879zm136.66-328.79c-27.696-44.457-94.248-47.689-117.71-95.269 13.083-40.546 55.594-66.463 85.642-95.604 45.017-32.861 90.413-67.389 137.27-97.364 56.174-17.32 85.415 57.874 98.188 100.26-4.8445 60.869-63.057 95.496-100.4 137.14-29.278 22.632-61.573 62.588-102.99 50.837zm-821.66-2.5086c-60.248-44.672-126.09-97.009-146.35-172.55-3.51-42.254-17.789-130.97 51.933-117.51 34.468 9.5419 61.668 34.256 96.854 42.316 40.359 13.695 83.055 26.433 110.28 62.056 31.808 31.751 86.387 99.186 15.174 116.41-40.342 26.112-79.63 60.025-127.89 69.287z" fill="#f4bb5b"/><path d="m330.28 702.6c-2.0625-1.556-13.117-3.5964-18.686-7.7414-12.302-9.1566-25.675-17.527-34.47-32.094l-6.4145-10.625 3.4093-2.9507c8.8815-7.6869 29.543-19.65 49.786-28.826 25.086-11.372 65.84-25.667 75.18-26.372 10.629-0.80136 20.961 3.4304 29.445 12.06 19.469 19.804 15.483 48.87-8.4227 61.432-2.9227 1.5358-11.842 5.0137-19.821 7.7285-7.9786 2.7148-19.738 6.9985-26.132 9.5194-14.1 5.5592-40.201 18.531-39.938 19.848 0.24332 1.2166 0.40675 1.2987-3.9375-1.9786zm878.25-2.483c-19.202-10.513-43.323-20.576-65.227-27.212-22.625-6.8538-32.779-18.952-32.744-39.014 0.019-11.059 3.4202-20.403 10.15-27.888 8.441-9.3884 21.628-13.796 34.546-11.546 8.8191 1.5358 42.526 13.41 62.274 21.939 29.798 12.869 61.875 31.814 61.875 36.545 0 2.4445-23.394 28.685-38.626 40.578-6.2783 4.9023-21.43 12.006-22.034 11.966-0.256-0.0167-4.8529-2.4326-10.215-5.3686zm-961.32-77.663c-2.4658-2.7447-17.386-17.857-18.927-21.879-1.1066-2.8876-3.0392-10.364-3.2933-15.559-0.5929-12.121-2.9492-21.982 11.843-38.666l10.159-11.458 14.645-7.0696c40.8-19.696 85.353-34.568 104.27-34.806 19.431-0.24449 36.824 15.608 39.369 35.883 1.2089 9.6298-3.3273 21.425-11.221 29.177-8.229 8.0816-13.536 10.467-38.649 17.377-26.194 7.2069-57.34 20.962-91.5 40.411-7.6312 4.3447-14.245 7.9004-14.696 7.9014-0.45169 1e-3 -1.3518-0.58869-2.0004-1.3106zm1051.3-0.0905c-1.65-0.75353-8.2313-4.3493-14.625-7.9907-35.778-20.376-68.683-34.247-98.883-41.682-15.719-3.8702-21.998-6.6856-27.76-12.448-7.3008-7.3012-10.724-16.22-10.764-28.04-0.065-19.37 12.084-34.807 30.444-38.687 6.9723-1.4732 12.524-0.91287 27.362 2.762 26.943 6.6727 51.005 15.546 82.038 30.255 4.8468 2.2972 8.8164 3.9364 8.8212 3.6426 0.017-1.0602 13.616 16.872 16.993 25.41 3.7325 9.4372 9.0903 22.994 9.861 30.916 0.5754 5.9135-6.3617 17.593-8.3083 22.716-1.697 4.4662-10.357 14.555-11.418 14.532-0.4187-9e-3 -2.1112-0.63299-3.7612-1.3865zm-660.38-6.2246c0-0.59777 0.71067-3.8972 1.5793-7.332 7.326-28.97 35.704-70.157 64.063-92.98 44.991-36.207 89.955-37.372 135.19-3.5018 9.4721 7.0929 25.948 23.302 34.168 33.614 11.842 14.857 22.772 32.618 28.738 46.702 3.3863 7.994 7.0452 19.747 6.9724 22.396-0.0421 1.531-0.0846 1.5398-0.9375 0.19437-2.9081-4.5872-8.0129-9.915-13.362-13.946-7.0533-5.3148-22.389-13.038-33.341-16.79-44.728-15.326-109.67-17.172-159.57-4.5364-29.513 7.4721-51.995 20.02-61.546 34.349-1.0694 1.6044-1.9444 2.4281-1.9444 1.8303zm124.58-314.56c-14.303-3.8464-25.769-17.53-27.981-33.394-0.4827-3.4617-0.94648-6.3979-1.0306-6.5248-0.0842-0.12695-5.3366 0.66956-11.672 1.77-12.661 2.1991-31.422 6.683-40.769 9.7439-7.2454 2.3725-19.447 3.2542-26.054 1.8827-9.6101-1.9951-19.608-9.7358-24.149-18.697-2.7752-5.4765-4.9245-14.35-4.9112-20.276 0.0425-18.957 10.809-31.892 32.144-38.621 17.582-5.545 46.403-11.983 64.219-14.346 5.3625-0.71108 10.172-1.4078 10.688-1.5482 0.72019-0.19617 0.9375-4.8928 0.9375-20.262v-20.006l-6.9375 0.52151c-25.696 1.9316-63.408 9.0299-91.312 17.187-12.651 3.6981-13.464 3.8375-22.5 3.8593-7.9165 0.019-10.165-0.25014-14.45-1.7303-16.44-5.6781-27.365-24.846-24.576-43.12 1.9093-12.512 9.1551-22.096 21.465-28.392 8.3515-4.2718 14.986-6.4441 32.561-10.662 38.446-9.2258 72.701-14.937 102.75-17.131l2.625-0.19169v-28.5l1.7462-1.4251c24.948-20.361 44.229-1.331 61.108-0.80097 8.5347 0.268 17.244-3.8496 16.238 2.7039l0.40772 28.022 10.875 0.96019c34.094 3.0103 77.093 11.54 111.94 22.204 24.343 7.4503 35.313 16.954 38.105 33.013 3.2073 18.45-7.3133 38.243-24.035 45.218-4.3515 1.8152-5.8244 2.0374-13.509 2.0375-8.3324 1.2e-4 -9.0411-0.1327-20.89-3.9151-20.318-6.4858-45.868-12.469-67.61-15.833-12.228-1.8919-28.564-3.8103-32.445-3.8103h-2.8294l0.3995 40.006 11.625 1.6971c20.419 2.981 41.165 7.955 61.081 14.645 14.64 4.9176 19.125 7.3247 25.627 13.754 16.718 16.529 16.395 40.062-0.76379 55.712-2.3756 2.1667-6.738 5.0887-9.6943 6.4934-11.731 5.5744-20.713 5.6064-36.5 0.13039-12.784-4.4346-26.711-8.1048-39.987-10.539-5.6993-1.0448-10.677-1.8995-11.062-1.8995s-0.70007 1.4478-0.70007 3.2174c0 4.3696-1.8751 11.247-4.3219 15.851-2.8119 5.2917-12.294 14.578-17.864 17.495-8.7378 4.5764-19.141 5.8771-27.985 3.4988zm-377.84-280.54c-7.0523-2.4989-12.781-10.11-16.014-21.277-2.3259-8.033-2.8794-26.377-1.154-38.245 1.4562-10.017 4.0575-21.111 7.0102-29.899l2.081-6.193 9.1041 4.8459c18.097 9.6326 37.701 31.517 49.311 43.958 7.7349 8.2889 6.8058 7.4785-2.1243 19.329-6.3939 8.4849-16.511 18.482-22.728 22.46-8.8747 5.6771-18.36 7.5456-25.485 5.0207zm801.09 0.21341c-12.062-3.9273-25.524-15.796-36.88-32.515-4.1379-6.0916-4.2506-6.1875-5.7751-4.9131-3.8307 3.2022 13.006-17.625 21.362-25.369 14.58-13.512 41.879-32.188 44.039-32.188 1.3011 0 6.802 19.695 8.9028 31.875 1.962 11.375 1.7932 32.574-0.3207 40.28-3.0704 11.194-8.1575 18.747-14.788 21.955-3.7175 1.799-12.306 2.2532-16.54 0.87466zm-894.76-34.938c-19.629-4.6988-38.948-37.761-46.482-79.547l-1.0141-5.625 1.9216-1.5989c6.186-5.1471 21.387-13.335 32.287-14.053 12.763-0.84057 31.632 5.3022 46.81 11.297l7.2279 2.8548-0.21605 14.25c-0.40753 26.879-5.2988 46.964-14.696 60.345-7.09 10.096-16.243 14.374-25.839 12.077zm992.67 0.0464c-4.4464-1.4639-8.2744-4.0349-11.878-7.9774-11.285-12.348-17.177-33.062-17.918-62.991l-0.3895-15.75 3.5002-2.7364c19.297-15.086 41.309-13.069 55.998-10.505 9.0229 1.5753 16.532 5.8603 23.576 9.8906 6.5647 3.756 5.6564 3.735 2.9693 17.006-3.7916 18.726-11.694 39.034-20.268 52.087-4.9862 7.5909-13.858 16.221-19.462 18.933-4.7499 2.2983-12.406 3.2681-16.128 2.0427z" fill="#c56e29"/><path d="m1219.5 191.7c-5.0839-6.99-14.322-18.416-21.087-26.081-3.3832-3.8335-6.0361-7.0729-5.8952-7.1987s3.7999-2.5101 8.1312-5.2986c30.435-19.594 69.485-49.849 89.521-69.36 26.114-25.429 44.139-49.166 69.493-91.517 6.2919-10.51 12.643-20.765 14.114-22.79l2.6746-3.6821 0.5996 2.1821c1.0733 3.9057 1.7707 23.676 1.2181 34.531-2.1239 41.72-19.202 86.031-45.883 119.05-24.377 30.168-58.344 54.643-97.238 70.067-13.352 5.2948-11.875 5.2856-15.649 0.0969zm-896.5-13.05c-39.369-21.588-69.747-51.107-89.77-87.231-18.598-33.554-28.389-76.003-25.724-111.52 0.48469-6.4601 1.1602-12.244 1.5012-12.853 0.83092-1.4848 4.0908 3.2749 16.246 23.72 32.495 54.658 57.245 84.332 97.146 116.48 13.559 10.923 32.413 25.163 41.78 31.556l5.358 3.6566-10.187 10.968c-5.6029 6.0326-13.732 15.271-18.065 20.531-4.3328 5.2594-8.2453 9.5514-8.6945 9.5377-0.44917-0.0136-4.7652-2.1899-9.5913-4.8362z" fill="#ede493"/><path d="m734.16 866.31c-1.8562-0.14647-9.2812-0.63323-16.5-1.0817-120.04-7.457-243.63-39.986-343.5-90.408-50.401-25.446-86.527-50.88-120.81-85.052-32.506-32.404-51.925-59.712-58.937-82.881-1.9034-6.2895-2.0438-7.6965-2.0576-20.625-0.0134-12.586 0.17964-14.703 2.0779-22.787 4.2676-18.175 8.5128-28.402 28.367-68.338 22.255-44.765 26.403-56.576 27.657-78.75 1.8598-32.879 2.297-38.59 3.7463-48.935 6.6438-47.421 23.41-94.74 49.11-138.6 3.5426-6.0459 6.3345-11.063 6.2043-11.148s-4.6243-2.6288-9.9868-5.6516c-56.641-31.927-98.235-81.252-118.59-140.63-9.6405-28.121-13.601-53.831-12.814-83.182 0.78853-29.415 5.7532-51.589 16.684-74.519 17.357-36.409 43.643-57.475 79.472-63.69 10.922-1.8944 34.615-1.1165 47.25 1.5514 30.701 6.4826 61.48 21.719 94.034 46.55 42.856 32.688 101.31 94.769 124.96 132.7 1.9466 3.1232 3.6635 5.6785 3.8153 5.6785s5.095-1.8198 10.985-4.0441c99.024-37.395 220.67-49.232 331.33-32.239 54.899 8.4302 108.97 24.17 155.43 45.241l11.384 5.164 5.0675-8.6061c17.736-30.121 41.22-58.85 79.353-97.076 37.056-37.146 66.452-59.825 98.646-76.103 26.679-13.49 51.004-19.826 76.125-19.829 19.119-2e-3 32.388 2.9116 47.625 10.459 21.442 10.621 37.885 28.135 50.375 53.659 20.538 41.969 22.947 96.826 6.6361 151.13-4.56 15.181-13.916 36.774-21.923 50.598-5.7985 10.011-15.506 24.292-22.451 33.027-8.4123 10.581-28.283 30.455-38.888 38.894-20.948 16.669-48.42 32.658-71.81 41.794-3.6079 1.4092-6.561 2.8412-6.5625 3.1822-1e-3 0.34108 2.0095 4.2309 4.4689 8.6441 15.195 27.266 28.764 61.171 36.814 91.986 7.0617 27.033 10.393 48.968 11.959 78.75 1.9837 37.721 4.1058 44.762 28.781 95.49 17.061 35.075 21.687 46.606 25.197 62.806 6.6987 30.919 1.4185 50.891-21.93 82.951-35.782 49.132-87.467 90.014-157.67 124.71-80.184 39.634-170.34 67.152-264.09 80.608-47.017 6.7485-71.489 8.4234-126.66 8.6691-24.75 0.11021-46.519 0.0805-48.375-0.0659zm99.375-39.24c58.385-4.5041 105.39-11.899 155.79-24.507 78.486-19.636 156.16-50.773 212.09-85.015 43.257-26.486 78.731-59.118 101.95-93.785 9.7899-14.615 12.048-20.764 12.048-32.814 0-16.559-4.5303-29.567-25.159-72.242-16.008-33.116-21.828-47.744-26.137-65.697-2.4082-10.034-3.3057-18.176-4.2022-38.121-1.9501-43.387-10.897-81.732-28.525-122.25-27.616-63.477-76.123-122.72-135.73-165.77-75.566-54.576-174.72-87.666-282-94.107-16.078-0.96535-59.551-0.9588-77.25 0.01163-106.93 5.8631-206.73 37.574-282.75 89.851-35.621 24.494-69.221 56.404-94.518 89.763-27.855 36.732-48.528 80.136-59.565 125.06-5.8657 23.875-8.3338 41.773-9.4376 68.441-1.7648 42.637-5.5568 55.343-31.259 104.74-19.356 37.199-28.013 60.592-27.957 75.548 0.02 5.3116 1.8783 12.921 4.352 17.822 3.2769 6.4915 14.738 23.525 21.626 32.142 41.162 51.491 111.64 98.178 202.52 134.15 16.541 6.5481 51.397 18.363 68.868 23.344 63.967 18.236 135.74 30.207 204.38 34.088 15.158 0.85712 87.354 0.38904 100.88-0.654zm-116.62-71.23c-15.208-3.3649-29.618-11.569-33.3-18.959-3.9564-7.9394-1.7399-18.504 4.7885-22.824 5.5232-3.6551 13.776-3.249 18.732 0.92172 4.9161 4.1366 18.6 9.2845 24.68 9.2845 4.0856 0 9.6272-2.2405 13.098-5.2955 6.2187-5.474 11.001-18.702 11.001-30.428v-3.2768l-3.5625-7e-3c-10.18-0.0206-34.752-3.727-49.688-7.4948-26.181-6.6047-45.56-16.153-56.702-27.938-10.525-11.132-12.541-21.259-6.635-33.33 8.9904-18.376 44.944-35.068 89.212-41.418 31.442-4.5107 68.788-3.954 99.375 1.4814 79.85 14.189 108.12 55.102 58.679 84.933-19.388 11.699-51.271 20.463-84.577 23.248l-11.227 0.93885 0.26968 4.1056c0.62266 9.4792 5.4897 22.803 10.086 27.61 1.317 1.3775 3.9864 3.3181 5.932 4.3125 7.4196 3.7921 20.453 1.4861 31.204-5.5208 6.0178-3.9223 9.1252-4.9349 13.774-4.4882 10.617 1.0202 16.851 13.133 11.959 23.238-6.4433 13.31-33.586 24.004-54.787 21.586-13.023-1.4853-22.136-5.6294-30.558-13.895l-5.3721-5.2725-3.4382 3.8997c-4.8336 5.4824-13.499 11.059-20.907 13.455-8.41 2.7202-22.595 3.2218-32.036 1.1329zm-186.99-212.38c-20.497-5.037-36.563-21.414-41.867-42.677-2.1869-8.7679-1.7099-21.643 1.1264-30.398 6.8646-21.191 24.701-36.163 46.957-39.417 11.637-1.7015 22.166 0.10439 33.772 5.7928 6.0911 2.9852 8.1685 4.5354 14.316 10.683 6.1438 6.1438 7.7003 8.2289 10.687 14.316 4.9897 10.171 6.1053 14.999 6.065 26.25-0.0392 10.958-1.2022 16.163-5.6283 25.187-7.3733 15.033-21.213 26.149-37.747 30.317-7.8049 1.9677-19.548 1.9448-27.681-0.054zm35.503-62.208c5.5772-2.8453 8.9962-8.6228 8.9691-15.156-0.0534-12.847-13.123-20.857-24.655-15.11-8.6037 4.2874-11.845 14.182-7.4962 22.881 1.7587 3.5177 6.7882 7.8126 10.296 8.7926 3.6048 1.007 9.3928 0.37504 12.886-1.4069zm440.61 62.633c-24.947-5.573-42.337-25.712-45.01-52.126-0.64519-6.3754 0.71362-15.949 3.3016-23.263 11.972-33.831 52.371-48.434 83.246-30.091 25.03 14.87 34.956 46.225 23.105 72.985-7.266 16.406-23.886 29.592-41.343 32.801-5.9408 1.0921-17.734 0.937-23.3-0.30642zm30.905-61.505c5.2539-1.5603 9.6054-6.0101 11.183-11.435 3.8916-13.387-8.0014-24.936-21.748-21.119-1.7673 0.49072-4.2794 2.1829-6.3957 4.3083-5.6305 5.6547-6.823 12.562-3.3662 19.499 2.2206 4.4562 5.5526 7.3185 10.214 8.774 4.2299 1.3208 5.5876 1.3172 10.113-0.0268zm205.72-293.36c74.325-32.057 122.67-93.01 134.64-169.76 1.8957-12.155 2.2909-35.843 0.7879-47.232-6.19-46.906-30.034-77.749-64.391-83.291-7.1719-1.157-22.603-0.59818-30.534 1.1057-24.814 5.3305-51.628 18.664-80.623 40.089-35.646 26.339-69.144 60.834-101.59 104.61-9.0378 12.194-21.95 31.663-22.077 33.289-0.054 0.69057 3.7142 3.4491 9.6612 7.0723 52.229 31.82 97.587 72.348 129.66 115.85l4.508 6.1147 6.0413-2.2254c3.3227-1.224 9.585-3.7538 13.916-5.622zm-901.36-14.32c34.905-42.342 78.234-78.584 127.73-106.84 6.1875-3.5323 15.047-8.3203 19.688-10.64 4.6406-2.3196 8.4375-4.4921 8.4375-4.8277 0-1.5691-14.357-21.157-28.129-38.377-39.658-49.589-85.087-88.866-127.12-109.91-22.346-11.186-40.429-16.167-58.707-16.168-32.512-3e-3 -56.28 19.351-69.12 56.283-15.905 45.748-5.9489 108.67 24.985 157.91 15.211 24.211 38.219 47.725 62.717 64.093 10.88 7.2698 29.391 17.967 31.192 18.026 0.24292 8e-3 3.989-4.2887 8.3246-9.5481z" fill="#41130d"/></g></svg>
