<?xml version="1.0" encoding="UTF-8" standalone="no"?>
<svg
   width="1000"
   zoomAndPan="magnify"
   viewBox="0 0 750 749.999995"
   height="1000"
   preserveAspectRatio="xMidYMid meet"
   version="1.0"
   id="svg6"
   sodipodi:docname="bear.svg"
   xml:space="preserve"
   inkscape:version="1.3.2 (091e20e, 2023-11-25, custom)"
   xmlns:inkscape="http://www.inkscape.org/namespaces/inkscape"
   xmlns:sodipodi="http://sodipodi.sourceforge.net/DTD/sodipodi-0.dtd"
   xmlns="http://www.w3.org/2000/svg"
   xmlns:svg="http://www.w3.org/2000/svg"><sodipodi:namedview
     id="namedview6"
     pagecolor="#ffffff"
     bordercolor="#000000"
     borderopacity="0.25"
     inkscape:showpageshadow="2"
     inkscape:pageopacity="0.0"
     inkscape:pagecheckerboard="0"
     inkscape:deskcolor="#d1d1d1"
     inkscape:zoom="0.9095"
     inkscape:cx="37.93293"
     inkscape:cy="709.73062"
     inkscape:window-width="3840"
     inkscape:window-height="2054"
     inkscape:window-x="-11"
     inkscape:window-y="-11"
     inkscape:window-maximized="1"
     inkscape:current-layer="g25" /><defs
     id="defs3" /><g
     id="g25"
     transform="matrix(0.40474133,0,0,0.40474133,216.86111,188.57016)"><g
       id="g29"
       transform="translate(-0.3024844,240.49154)"><path
         style="fill:#fdfdfd"
         d="m 57.60435,377.30391 c -7.699515,-1.5214 -14.62644,-6.90406 -17.617161,-13.68964 -2.408493,-5.46458 -2.400732,-13.62328 0.01818,-19.1129 2.23018,-5.06131 8.183484,-10.57072 13.456731,-12.45337 5.139671,-1.83496 14.074308,-1.4334 18.462216,0.82976 12.642349,6.52059 16.842523,22.52154 9.028941,34.39658 -4.885265,7.42461 -14.856304,11.70769 -23.348907,10.02957 z m 712.5,0 c -7.69951,-1.5214 -14.62644,-6.90406 -17.61716,-13.68964 -2.40849,-5.46458 -2.40073,-13.62328 0.0182,-19.1129 2.26283,-5.1354 8.45193,-10.85613 13.592,-12.56338 5.21198,-1.73114 13.38837,-1.28172 18.04741,0.992 9.79359,4.77949 15.29827,16.4558 12.70531,26.95 -2.85489,11.55423 -15.328,19.68004 -26.74574,17.42392 z"
         id="path29"
         sodipodi:nodetypes="sssssssssssssss" /><path
         style="fill:#f4bb5b"
         d="m 361.79932,674.25425 c -58.50974,-3.0363 -106.30383,-14.06666 -138.34607,-31.9288 -27.2339,-15.1817 -45.01522,-33.38447 -57.75264,-59.1215 -11.01694,-22.26065 -16.21946,-44.39113 -17.57878,-74.77667 -2.26914,-50.72297 6.18888,-90.10385 26.85147,-125.02159 25.15708,-42.51299 67.59787,-75.29061 121.20102,-93.60526 79.06271,-27.01345 178.37895,-20.7218 247.09944,15.65368 62.97434,33.3339 101.95957,88.15222 110.58706,155.49984 3.01202,23.5123 3.03432,52.45173 0.0559,72.51599 -13.23929,89.18645 -80.88986,133.69175 -214.11738,140.86145 -15.92913,0.85724 -60.85064,0.81281 -78,-0.0771 z m -7.125,-142.75436 c 17.5026,-2.72821 30.44775,-9.49076 42.18526,-22.03761 l 4.68527,-5.00833 3.16011,3.67893 c 7.09183,8.25615 19.4609,16.25234 30.59436,19.77824 9.79986,3.10356 12.92005,3.5315 25.5,3.49737 13.49327,-0.0366 19.79809,-1.01313 31.55378,-4.88715 22.61522,-7.45273 35.94526,-18.52346 38.98794,-32.37989 2.22414,-10.12874 -3.52917,-21.12662 -13.31686,-25.45618 -7.63723,-3.37831 -15.33558,-2.27494 -23.63316,3.38723 -12.62929,8.61808 -23.10401,12.11474 -34.88237,11.64439 -5.49083,-0.21927 -7.31192,-0.6316 -10.96534,-2.48274 -8.19605,-4.15284 -13.682,-11.99046 -18.02823,-25.75642 -2.72855,-8.64222 -2.73018,-8.63514 2.34674,-10.22719 2.37187,-0.74378 6.55967,-2.45933 9.30622,-3.81231 11.62592,-5.72709 18.96708,-12.41192 23.30316,-21.21976 2.22256,-4.51466 2.45312,-5.62034 2.45312,-11.76452 0,-6.19399 -0.22168,-7.23503 -2.55866,-12.01577 -6.12564,-12.53121 -21.25533,-22.43943 -41.45279,-27.14684 -7.44174,-1.73445 -10.10714,-1.98017 -21.61355,-1.99257 -14.60451,-0.0157 -20.65818,0.88888 -32.72484,4.89011 -22.76535,7.54885 -37.52669,25.32809 -34.04415,41.00433 1.83522,8.26103 6.29107,14.98524 13.86262,20.91976 5.38954,4.22428 16.10271,9.75213 22.34387,11.52913 1.95937,0.55788 3.55851,1.19377 3.55363,1.41309 -0.0569,2.55877 -4.13564,15.84806 -5.99388,19.5292 -3.15287,6.2458 -9.58812,12.9422 -14.92312,15.52872 -3.7885,1.83675 -4.96922,2.02977 -12.07413,1.97386 -6.41302,-0.0505 -8.95745,-0.42795 -13.70562,-2.03334 -7.48728,-2.53151 -14.1911,-5.89535 -18.91938,-9.49337 -12.72646,-9.68427 -28.8807,-6.65827 -35.40744,6.63249 -1.8665,3.80085 -2.09256,5.07144 -2.09256,11.7612 0,6.53383 0.25244,8.03139 1.9596,11.625 3.18346,6.70126 8.96486,11.55434 21.89044,18.37552 17.96836,9.48238 40.02605,13.44841 58.64996,10.54542 z M 44.492552,370.76645 l -1.818236,-2.0625 2.0625,1.81823 c 1.134375,1.00003 2.0625,1.92816 2.0625,2.0625 0,0.58821 -0.607349,0.10949 -2.306764,-1.81823 z m 712.499998,0 -1.81823,-2.0625 2.0625,1.81823 c 1.92771,1.69942 2.40644,2.30677 1.81823,2.30677 -0.13434,0 -1.06247,-0.92813 -2.0625,-2.0625 z m -678.0389,-32.25 c -0.932903,-1.18954 -0.906375,-1.21607 0.283166,-0.28317 1.249311,0.97978 1.64661,1.59567 1.029334,1.59567 -0.155742,0 -0.746367,-0.59063 -1.3125,-1.3125 z m -34.779334,-0.9375 c 0.746615,-0.825 1.526232,-1.5 1.732482,-1.5 0.20625,0 -0.235867,0.675 -0.982482,1.5 -0.746614,0.825 -1.526231,1.5 -1.732481,1.5 -0.20625,0 0.235867,-0.675 0.982481,-1.5 z m 712.875004,-0.375 c 0.96881,-1.03125 1.93022,-1.875 2.13647,-1.875 0.20625,0 -0.41766,0.84375 -1.38647,1.875 -0.96881,1.03125 -1.93022,1.875 -2.13647,1.875 -0.20625,0 0.41766,-0.84375 1.38647,-1.875 z M 60.50109,330.30921 c 0.729726,-0.19016 1.742226,-0.17766 2.25,0.0278 0.507775,0.20544 -0.08927,0.36102 -1.326774,0.34574 -1.2375,-0.0153 -1.652951,-0.18338 -0.923226,-0.37353 z m 712.5,0 c 0.72973,-0.19016 1.74223,-0.17766 2.25,0.0278 0.50777,0.20544 -0.0893,0.36102 -1.32677,0.34574 -1.2375,-0.0153 -1.65296,-0.18338 -0.92323,-0.37353 z M 1049.1162,13.41443 c -55.64668,-96.526897 -130.82262,-173.22101 -224.56688,-229.10194 -6.39375,-3.81131 -12.06264,-7.1949 -12.59752,-7.5191 -0.72196,-0.43758 0.35259,-2.61834 4.17079,-8.46444 37.71797,-57.75066 110.50519,-84.95438 183.5739,-68.60949 62.31681,13.93977 115.81781,58.67206 138.57101,115.85949 17.0741,42.91349 17.3914,85.66946 0.9324,125.651728 -13.7076,33.298702 -39.6516,61.4129213 -72.6062,78.679793 -11.6125,6.084439 -9.8467,6.740734 -17.4775,-6.496041 z m -1334.56688,6.063688 c -8.38001,-4.504618 -15.87515,-9.265492 -22.125,-14.0536886 -45.76709,-35.0635134 -68.41878,-91.4959924 -59.92379,-149.2889994 5.52969,-37.61951 23.99754,-73.85734 52.04879,-102.13072 58.52553,-58.989 147.22413,-75.76525 217.874996,-41.20838 22.517766,11.01393 41.163914,26.06399 56.293727,45.43695 4.031223,5.16178 12.331273,17.69607 12.331273,18.62203 0,0.16648 -2.446875,1.73731 -5.4375,3.49073 -79.759276,46.7634 -151.074026,111.26088 -207.013866,187.224553 -9.49511,12.893916 -24.34078,35.0194146 -31.24852,46.571761 -3.02122,5.052627 -5.53408,9.181907 -5.58412,9.176177 -0.05,-0.0057 -3.29724,-1.733916 -7.21599,-3.840413 z"
         id="path28"
         sodipodi:nodetypes="sssssssssssssscssssssssssssssssssssssssssssssssscsssscssssssssssssssssssssssssssscssssssscssssssssssss" /><path
         style="fill:#e89b22"
         d="m -65.39023,574.14544 c -15.872557,-2.1596 -31.820474,-7.35519 -43.39687,-14.13802 -6.50261,-3.81 -14.36933,-11.50541 -17.30534,-16.92847 -2.00668,-3.70651 -2.23324,-4.8098 -2.23324,-10.875 0,-6.25671 0.18668,-7.09428 2.55449,-11.46095 17.39449,-32.07862 97.078259,-42.91241 142.945506,-19.43484 10.924073,5.59158 19.225144,12.89615 22.702919,19.97755 1.769048,3.60211 2.047081,5.08502 2.047081,10.91824 0,8.63364 -1.656393,12.25411 -8.949239,19.56087 -11.24447,11.26592 -30.8760332,19.28716 -54.917658,22.43874 -10.612138,1.39113 -33.016302,1.36116 -43.447649,-0.0581 z m 886.44333,0.36288 c -18.54205,-2.16113 -37.30421,-8.49641 -49.338,-16.6596 -22.68445,-15.38811 -21.97558,-37.29376 1.70249,-52.61102 38.80595,-25.10345 116.09626,-20.9332 144.11656,7.7759 23.96121,24.55021 -3.15601,54.32137 -55.71075,61.16311 -9.50477,1.23736 -31.46652,1.41599 -40.7703,0.33161 z"
         id="path27"
         sodipodi:nodetypes="ssssssssssssssssss" /><path
         style="fill:#c46d29"
         d="m 383.91204,845.55363 c -31.54357,-0.5036 -95.68987,-3.91733 -131.625,-7.0048 -177.019086,-15.2091 -306.096419,-57.10534 -402.75,-130.72558 -19.28329,-14.68792 -45.41851,-39.71315 -60.82739,-58.24398 -60.3662,-72.59681 -94.82226,-165.71296 -101.15781,-273.375 -0.96134,-16.33646 -0.96241,-47.38478 -0.002,-63.75 6.77396,-115.45019 49.29198,-226.857144 123.6533,-324.000001 29.55014,-38.603196 66.93783,-76.617637 106.417906,-108.201839 97.752075,-78.20201 224.076374,-127.4139 368.041184,-143.37701 38.60707,-4.28083 67.34006,-5.55088 115.00566,-5.08348 58.97341,0.57828 97.03048,3.7054 148.61934,12.21193 147.33161,24.29362 266.38673,83.11404 359.52339,177.626274 91.79928,93.155079 151.68328,215.049156 168.79088,343.574126 18.8386,141.52944 -10.6534,279.39266 -79.6591,372.375 -54.86982,73.93476 -136.95923,128.35974 -244.75565,162.2721 -108.61637,34.17031 -220.93077,48.0706 -369.27452,45.70226 z m 44.625,-170.4882 c 85.90756,-3.52418 141.59171,-19.73668 179.13663,-52.15585 21.61097,-18.66057 36.34198,-43.69177 43.66265,-74.19233 3.59315,-14.97038 4.77172,-27.3419 4.7526,-49.88798 -0.0284,-33.47553 -3.10991,-54.55093 -11.55859,-79.05304 -16.9368,-49.11858 -52.49853,-89.19591 -101.99329,-114.94435 -30.10149,-15.65955 -62.49324,-25.11994 -102.75,-30.00932 -15.38156,-1.86817 -60.95619,-1.87765 -76.125,-0.0158 -33.16607,4.07079 -57.79304,10.22727 -84.23934,21.05894 -60.80414,24.90367 -105.74036,71.8568 -122.73057,128.23919 -11.03991,36.6362 -12.41477,87.94087 -3.36657,125.62748 9.06121,37.74077 28.55017,66.1518 59.21148,86.31857 13.47597,8.86352 33.09165,17.65081 52.5,23.5186 39.96542,12.08286 102.41649,18.00174 163.5,15.49592 z M 338.37468,532.02515 c 2.17945,-0.15199 5.55445,-0.15039 7.5,0.004 1.94555,0.15393 0.16236,0.27828 -3.96264,0.27633 -4.125,-0.002 -5.71681,-0.1279 -3.53736,-0.27988 z m -9.02514,-0.69291 c 0.51562,-0.20806 1.35937,-0.20806 1.875,0 0.51562,0.20806 0.0937,0.37829 -0.9375,0.37829 -1.03125,0 -1.45313,-0.17023 -0.9375,-0.37829 z m 24.04687,-0.0156 c 0.54141,-0.21665 1.18828,-0.19 1.4375,0.0592 0.24922,0.24922 -0.19375,0.42648 -0.98437,0.39392 -0.87371,-0.036 -1.05143,-0.21371 -0.45313,-0.45313 z m 103.10551,-0.0427 c 2.38694,-0.14929 6.09944,-0.1479 8.25,0.003 2.15056,0.15098 0.19762,0.27312 -4.33988,0.27143 -4.5375,-0.002 -6.29706,-0.12522 -3.91012,-0.27451 z m -132.40238,-0.69165 c 0.51562,-0.20806 1.35937,-0.20806 1.875,0 0.51562,0.20806 0.0937,0.37829 -0.9375,0.37829 -1.03125,0 -1.45313,-0.17023 -0.9375,-0.37829 z m 33.79687,-0.0156 c 0.54141,-0.21665 1.18828,-0.19 1.4375,0.0592 0.24922,0.24922 -0.19375,0.42648 -0.98437,0.39392 -0.87371,-0.036 -1.05143,-0.21371 -0.45313,-0.45313 z m 88.8424,-0.007 c 0.72973,-0.19016 1.74223,-0.17766 2.25,0.0278 0.50777,0.20544 -0.0893,0.36102 -1.32677,0.34574 -1.2375,-0.0153 -1.65296,-0.18338 -0.92323,-0.37353 z m 26.25,0 c 0.72973,-0.19016 1.74223,-0.17766 2.25,0.0278 0.50777,0.20544 -0.0893,0.36102 -1.32677,0.34574 -1.2375,-0.0153 -1.65296,-0.18338 -0.92323,-0.37353 z m 4.9076,-0.7426 c 0.54141,-0.21665 1.18828,-0.19 1.4375,0.0592 0.24922,0.24922 -0.19375,0.42648 -0.98437,0.39392 -0.87371,-0.036 -1.05143,-0.21371 -0.45313,-0.45313 z m 3.75,-0.75 c 0.54141,-0.21665 1.18828,-0.19 1.4375,0.0592 0.24922,0.24922 -0.19375,0.42648 -0.98437,0.39392 -0.87371,-0.036 -1.05143,-0.21371 -0.45313,-0.45313 z m 3,-0.75 c 0.54141,-0.21665 1.18828,-0.19 1.4375,0.0592 0.24922,0.24922 -0.19375,0.42648 -0.98437,0.39392 -0.87371,-0.036 -1.05143,-0.21371 -0.45313,-0.45313 z m 21.89063,-8.03242 c 0,-0.16212 0.52378,-0.49575 1.16395,-0.74141 0.66744,-0.25612 0.96849,-0.13039 0.70574,0.29476 -0.44045,0.71265 -1.86969,1.05409 -1.86969,0.44665 z m -118.125,-3.45524 c 0.74661,-0.825 1.52623,-1.5 1.73248,-1.5 0.20625,0 -0.23587,0.675 -0.98248,1.5 -0.74662,0.825 -1.52623,1.5 -1.73248,1.5 -0.20625,0 0.23586,-0.675 0.98248,-1.5 z m 25.02933,-0.5625 c -0.9329,-1.18954 -0.90638,-1.21607 0.28317,-0.28317 1.24931,0.97978 1.64661,1.59567 1.02933,1.59567 -0.15574,0 -0.74637,-0.59063 -1.3125,-1.3125 z m -19.40433,-4.3125 c 1.39933,-1.44375 2.713,-2.625 2.91925,-2.625 0.20625,0 -0.76992,1.18125 -2.16925,2.625 -1.39934,1.44375 -2.713,2.625 -2.91925,2.625 -0.20625,0 0.76991,-1.18125 2.16925,-2.625 z m 13.0968,-1.3125 -3.7218,-3.9375 3.9375,3.72181 c 2.16562,2.04699 3.9375,3.81886 3.9375,3.9375 0,0.55964 -0.69483,-0.063 -4.1532,-3.72181 z m 109.9032,3.65433 c 0,-0.15574 0.59062,-0.74636 1.3125,-1.3125 1.18954,-0.9329 1.21607,-0.90637 0.28316,0.28317 -0.97977,1.24931 -1.59566,1.64661 -1.59566,1.02933 z m -235.59567,-2.52933 c -0.9329,-1.18954 -0.90638,-1.21607 0.28317,-0.28317 1.24931,0.97978 1.64661,1.59567 1.02933,1.59567 -0.15574,0 -0.74637,-0.59063 -1.3125,-1.3125 z m 118.39983,-6.18617 c 1.4005,-1.51629 1.83613,-1.649 2.625,-0.79964 0.76409,0.82268 0.75661,0.91105 -0.0389,0.45987 -0.56475,-0.3203 -1.68435,0.0208 -2.625,0.79963 -1.60379,1.32795 -1.60292,1.31773 0.0389,-0.45986 z M 271.90546,495.07895 c 0,-1.03125 0.17023,-1.45313 0.37829,-0.9375 0.20806,0.51562 0.20806,1.35937 0,1.875 -0.20806,0.51562 -0.37829,0.0937 -0.37829,-0.9375 z m 259.57071,-5.625 c 0.008,-1.65 0.16192,-2.23669 0.34131,-1.30376 0.1794,0.93294 0.17259,2.28294 -0.0151,3 -0.18772,0.71707 -0.3345,-0.0462 -0.32618,-1.69624 z m -259.57071,-2.625 c 0,-1.03125 0.17023,-1.45313 0.37829,-0.9375 0.20806,0.51562 0.20806,1.35937 0,1.875 -0.20806,0.51562 -0.37829,0.0937 -0.37829,-0.9375 z m 69.81908,-2.017 c 0.72187,-0.18864 1.90312,-0.18864 2.625,0 0.72187,0.18865 0.13125,0.343 -1.3125,0.343 -1.44375,0 -2.03438,-0.15435 -1.3125,-0.343 z m -6.375,-0.72971 c 0.51562,-0.20806 1.35937,-0.20806 1.875,0 0.51562,0.20806 0.0937,0.37829 -0.9375,0.37829 -1.03125,0 -1.45313,-0.17023 -0.9375,-0.37829 z m 12.79687,-0.0156 c 0.54141,-0.21665 1.18828,-0.19 1.4375,0.0592 0.24922,0.24922 -0.19375,0.42648 -0.98437,0.39392 -0.87371,-0.036 -1.05143,-0.21371 -0.45313,-0.45313 z m 109.82813,-0.034 c 1.54687,-0.16181 4.07812,-0.16181 5.625,0 1.54687,0.16181 0.28125,0.29419 -2.8125,0.29419 -3.09375,0 -4.35938,-0.13238 -2.8125,-0.29419 z m 10.92187,-0.71599 c 0.54141,-0.21665 1.18828,-0.19 1.4375,0.0592 0.24922,0.24922 -0.19375,0.42648 -0.98437,0.39392 -0.87371,-0.036 -1.05143,-0.21371 -0.45313,-0.45313 z m -139.5,-0.75 c 0.54141,-0.21665 1.18828,-0.19 1.4375,0.0592 0.24922,0.24922 -0.19375,0.42648 -0.98437,0.39392 -0.87371,-0.036 -1.05143,-0.21371 -0.45313,-0.45313 z m 142.5,0 c 0.54141,-0.21665 1.18828,-0.19 1.4375,0.0592 0.24922,0.24922 -0.19375,0.42648 -0.98437,0.39392 -0.87371,-0.036 -1.05143,-0.21371 -0.45313,-0.45313 z m -109.73437,-6.23766 c 2.03148,-2.0625 3.86236,-3.75 4.06861,-3.75 0.20625,0 -1.28713,1.6875 -3.31861,3.75 -2.03149,2.0625 -3.86237,3.75 -4.06862,3.75 -0.20625,0 1.28713,-1.6875 3.31862,-3.75 z m -87.375,1.5 c 0.44152,-0.825 0.97152,-1.5 1.17777,-1.5 0.20625,0 0.0138,0.675 -0.42777,1.5 -0.44153,0.825 -0.97153,1.5 -1.17778,1.5 -0.20625,0 -0.0137,-0.675 0.42778,-1.5 z m 165.70962,-2.0625 -2.58462,-2.8125 2.8125,2.58462 c 2.61781,2.40572 3.15734,3.04038 2.58462,3.04038 -0.12533,0 -1.39095,-1.26563 -2.8125,-2.8125 z m 44.29038,2.49027 c 0,-0.20625 0.675,-0.73624 1.5,-1.17777 0.825,-0.44153 1.5,-0.63403 1.5,-0.42778 0,0.20625 -0.675,0.73625 -1.5,1.17778 -0.825,0.44153 -1.5,0.63402 -1.5,0.42777 z m 39.70962,-4.74027 -2.58462,-2.8125 2.8125,2.58462 c 2.61781,2.40572 3.15734,3.04038 2.58462,3.04038 -0.12533,0 -1.39095,-1.26563 -2.8125,-2.8125 z m -248.20962,1.82782 c 0,-0.12908 1.09687,-1.22595 2.4375,-2.4375 l 2.4375,-2.20282 -2.20282,2.4375 c -2.05334,2.27209 -2.67218,2.78224 -2.67218,2.20282 z m 32.90433,-2.57782 c -0.9329,-1.18954 -0.90638,-1.21607 0.28317,-0.28317 1.24931,0.97978 1.64661,1.59567 1.02933,1.59567 -0.15574,0 -0.74637,-0.59063 -1.3125,-1.3125 z m 183.09567,1.02933 c 0,-0.15574 0.59062,-0.74636 1.3125,-1.3125 1.18954,-0.9329 1.21607,-0.90637 0.28316,0.28317 -0.97977,1.24931 -1.59566,1.64661 -1.59566,1.02933 z M 368.96026,467.1091 c 0.28164,-0.73966 0.70102,-1.15591 0.93193,-0.925 0.23092,0.23092 4.8e-4,0.8361 -0.51209,1.34485 -0.74071,0.7352 -0.82686,0.64905 -0.41984,-0.41985 z m -76.72541,-0.31834 c 1.14005,-0.17239 2.82755,-0.16778 3.75,0.0102 0.92245,0.17802 -0.0103,0.31907 -2.07281,0.31344 -2.0625,-0.006 -2.81724,-0.15129 -1.67719,-0.32368 z m 215.61469,0.009 c 0.92812,-0.17877 2.44687,-0.17877 3.375,0 0.92812,0.17876 0.16875,0.32503 -1.6875,0.32503 -1.85625,0 -2.61563,-0.14627 -1.6875,-0.32503 z m -134.00329,-14.1582 c 0.036,-0.87371 0.2137,-1.05143 0.45312,-0.45313 0.21665,0.54141 0.19001,1.18829 -0.0592,1.4375 -0.24922,0.24922 -0.42648,-0.19375 -0.39391,-0.98437 z m 54.75,-1.5 c 0.036,-0.87371 0.2137,-1.05143 0.45312,-0.45313 0.21665,0.54141 0.19001,1.18829 -0.0592,1.4375 -0.24922,0.24922 -0.42648,-0.19375 -0.39391,-0.98437 z m -79.65488,-17.375 c -0.9329,-1.18954 -0.90638,-1.21607 0.28317,-0.28317 0.72187,0.56614 1.3125,1.15676 1.3125,1.3125 0,0.61728 -0.61589,0.21998 -1.59567,-1.02933 z m 108.81432,-3.375 c 3.10798,-3.31139 3.78135,-3.90682 3.78135,-3.34366 0,0.12037 -1.60313,1.72349 -3.5625,3.5625 l -3.5625,3.34366 z m -116.31432,-4.125 c -0.9329,-1.18954 -0.90638,-1.21607 0.28317,-0.28317 0.72187,0.56614 1.3125,1.15676 1.3125,1.3125 0,0.61728 -0.61589,0.21998 -1.59567,-1.02933 z m 126.34177,-17.8125 c 0.003,-2.8875 0.13889,-3.97685 0.30124,-2.42077 0.16236,1.55607 0.15964,3.91857 -0.006,5.25 -0.16569,1.33142 -0.29853,0.0583 -0.2952,-2.82923 z m -132.80697,0 c 0.008,-1.65 0.16192,-2.23669 0.34131,-1.30376 0.1794,0.93294 0.17259,2.28294 -0.0151,3 -0.18772,0.71707 -0.3345,-0.0462 -0.32618,-1.69624 z m 5.81087,-17.15817 c 0,-0.15574 0.59062,-0.74636 1.3125,-1.3125 1.18954,-0.9329 1.21607,-0.90637 0.28316,0.28317 -0.97977,1.24931 -1.59566,1.64661 -1.59566,1.02933 z m 116.95962,-4.77933 -2.58462,-2.8125 2.8125,2.58462 c 2.61781,2.40572 3.15734,3.04038 2.58462,3.04038 -0.12533,0 -1.39095,-1.26563 -2.8125,-2.8125 z m -109.08462,-3.1875 c 0.74661,-0.825 1.52623,-1.5 1.73248,-1.5 0.20625,0 -0.23587,0.675 -0.98248,1.5 -0.74662,0.825 -1.52623,1.5 -1.73248,1.5 -0.20625,0 0.23586,-0.675 0.98248,-1.5 z m 103.77933,-1.3125 c -0.9329,-1.18954 -0.90638,-1.21607 0.28317,-0.28317 1.24931,0.97978 1.64661,1.59567 1.02933,1.59567 -0.15574,0 -0.74637,-0.59063 -1.3125,-1.3125 z m -95.15433,-4.25973 c 0,-0.20625 0.675,-0.73624 1.5,-1.17777 0.825,-0.44153 1.5,-0.63403 1.5,-0.42778 0,0.20625 -0.675,0.73625 -1.5,1.17778 -0.825,0.44153 -1.5,0.63402 -1.5,0.42777 z m 5.05,-2.77084 c 0.50875,-0.51256 1.11393,-0.743 1.34484,-0.51208 0.23092,0.23091 -0.18533,0.65028 -0.925,0.93193 -1.0689,0.40701 -1.15504,0.32087 -0.41984,-0.41985 z m 16.55937,-5.66927 c 0.54141,-0.21665 1.18828,-0.19 1.4375,0.0592 0.24922,0.24922 -0.19375,0.42648 -0.98437,0.39392 -0.87371,-0.036 -1.05143,-0.21371 -0.45313,-0.45313 z m 44.25,0 c 0.54141,-0.21665 1.18828,-0.19 1.4375,0.0592 0.24922,0.24922 -0.19375,0.42648 -0.98437,0.39392 -0.87371,-0.036 -1.05143,-0.21371 -0.45313,-0.45313 z m -3.75,-0.75 c 0.54141,-0.21665 1.18828,-0.19 1.4375,0.0592 0.24922,0.24922 -0.19375,0.42648 -0.98437,0.39392 -0.87371,-0.036 -1.05143,-0.21371 -0.45313,-0.45313 z m -31.9076,-0.7574 c 0.72973,-0.19016 1.74223,-0.17766 2.25,0.0278 0.50777,0.20544 -0.0893,0.36102 -1.32677,0.34574 -1.2375,-0.0153 -1.65296,-0.18338 -0.92323,-0.37353 z m 26.25,0 c 0.72973,-0.19016 1.74223,-0.17766 2.25,0.0278 0.50777,0.20544 -0.0893,0.36102 -1.32677,0.34574 -1.2375,-0.0153 -1.65296,-0.18338 -0.92323,-0.37353 z m -17.26427,-0.74726 c 0.72187,-0.18864 1.90312,-0.18864 2.625,0 0.72187,0.18865 0.13125,0.343 -1.3125,0.343 -1.44375,0 -2.03438,-0.15435 -1.3125,-0.343 z m 7.5,0 c 0.72187,-0.18864 1.90312,-0.18864 2.625,0 0.72187,0.18865 0.13125,0.343 -1.3125,0.343 -1.44375,0 -2.03438,-0.15435 -1.3125,-0.343 z m -425.929399,207.1415 c 24.0416247,-3.15158 43.673188,-11.17282 54.917658,-22.43874 7.292846,-7.30676 8.949239,-10.92723 8.949239,-19.56087 0,-5.83322 -0.278033,-7.31613 -2.047081,-10.91824 -2.195102,-4.46964 -8.608312,-11.30473 -14.083737,-15.01021 -22.5169558,-15.2383 -61.383155,-21.3876 -96.744182,-15.30661 -26.107917,4.48975 -47.372768,16.03911 -54.820508,29.77411 -2.36781,4.36667 -2.55449,5.20424 -2.55449,11.46095 0,6.0652 0.22656,7.16849 2.23324,10.875 2.93601,5.42306 10.80273,13.11847 17.30534,16.92847 11.576398,6.78283 27.524315,11.97842 43.396872,14.13802 10.431347,1.41928 32.835511,1.44925 43.447649,0.0581 z m 883.765979,-0.0269 c 33.66991,-4.38325 58.55385,-18.50045 63.67765,-36.12572 4.94624,-17.01446 -11.4948,-34.26902 -41.32228,-43.36696 -48.82187,-14.89158 -113.22455,-1.05959 -126.59634,27.18955 -1.99471,4.214 -2.40509,5.97836 -2.40646,10.34614 -10e-4,4.4268 0.38655,6.05433 2.43489,10.2151 5.37363,10.9154 17.59318,19.72402 35.82458,25.82463 8.48971,2.84083 19.2327,5.27158 27.61766,6.24887 9.30378,1.08438 31.26553,0.90575 40.7703,-0.33161 z M 51.036253,465.02721 c 33.442367,-3.72905 60.750697,-27.08438 69.798387,-59.69476 1.8663,-6.72667 2.04848,-8.538 2.06227,-20.5035 0.0132,-11.43185 -0.21326,-13.98928 -1.75529,-19.82472 -7.76004,-29.36601 -29.414235,-51.10725 -58.846625,-59.08318 -8.247408,-2.23497 -29.35229,-2.45349 -37.837423,-0.39177 -46.944461,11.4066 -73.884231,59.6385 -58.619737,104.95046 9.915378,29.43335 37.0903156,51.30378 67.824203,54.58503 7.862439,0.83942 9.541913,0.83579 17.374215,-0.0376 z m 6.86016,-134.7106 c 0.541407,-0.21665 1.188282,-0.19 1.4375,0.0592 0.249219,0.24922 -0.19375,0.42648 -0.984375,0.39392 -0.873707,-0.036 -1.051424,-0.21371 -0.453125,-0.45313 z m 6,0 c 0.541407,-0.21665 1.188282,-0.19 1.4375,0.0592 0.249219,0.24922 -0.19375,0.42648 -0.984375,0.39392 -0.873707,-0.036 -1.051424,-0.21371 -0.453125,-0.45313 z m 699.639837,134.7106 c 35.44317,-3.95215 63.59393,-29.63867 70.80009,-64.60244 2.06714,-10.02957 1.74825,-26.21193 -0.69646,-35.34345 -8.25963,-30.85147 -31.86252,-53.47826 -62.35284,-59.77421 -10.33035,-2.13312 -27.01129,-1.78553 -36.375,0.75797 -13.93963,3.78646 -25.68134,10.38498 -35.74828,20.08954 -29.84978,28.77527 -33.52088,74.94174 -8.53812,107.37235 4.29955,5.58132 14.01264,14.75274 19.38824,18.30702 10.37202,6.85783 23.6816,11.74999 35.77447,13.14952 8.06683,0.93358 9.73058,0.93768 17.7479,0.0437 z m 34.11921,-110.94826 c 0,-1.03125 0.17023,-1.45313 0.37829,-0.9375 0.20806,0.51562 0.20806,1.35937 0,1.875 -0.20806,0.51562 -0.37829,0.0937 -0.37829,-0.9375 z m -27.25905,-23.76234 c 0.54141,-0.21665 1.18828,-0.19 1.4375,0.0592 0.24922,0.24922 -0.19375,0.42648 -0.98437,0.39392 -0.87371,-0.036 -1.05143,-0.21371 -0.45313,-0.45313 z m 6,0 c 0.54141,-0.21665 1.18828,-0.19 1.4375,0.0592 0.24922,0.24922 -0.19375,0.42648 -0.98437,0.39392 -0.87371,-0.036 -1.05143,-0.21371 -0.45313,-0.45313 z M 1098.0061,119.14145 c -8.2687,-23.541266 -27.0103,-65.536619 -38.9939,-87.376225 l -3.3959,-6.188723 8.0229,-3.999284 c 10.0335,-5.001572 16.5562,-9.002031 25.6478,-15.7301362 8.0092,-5.92704553 22.3694,-19.9239108 28.7034,-27.9770908 38.659,-49.151941 44.2034,-116.418081 14.4845,-175.731521 -21.9379,-43.78412 -61.4883,-78.50326 -109.1879,-95.85011 -9.5677,-3.47948 -27.59384,-7.99874 -38.62496,-9.6835 -12.35599,-1.8871 -41.35809,-1.9205 -53.2807,-0.0613 -50.07011,7.80765 -90.35557,33.0258 -116.1696,72.72058 -2.34638,3.60808 -4.08237,6.85749 -3.85776,7.22092 0.22461,0.36343 -2.87669,-1.18076 -6.89178,-3.43152 -21.16594,-11.86514 -63.44465,-31.41474 -86.54711,-40.01923 l -8.74695,-3.25779 2.28756,-4.53626 c 5.93963,-11.77835 17.9858,-29.4119 29.22897,-42.78626 7.07554,-8.41674 23.65783,-24.61126 32.10237,-31.35168 39.98474,-31.91575 88.64011,-51.56366 143.625,-57.99837 15.21901,-1.78103 48.24717,-1.78282 62.625,-0.003 24.30726,3.00832 44.38506,7.47169 65.84256,14.63707 112.2749,37.49229 196.8656,133.58226 212.3495,241.21636 6.4779,45.03032 1.1278,91.761683 -15.3419,134.005456 -22.5096,57.736042 -62.703,101.849766 -118.1004,129.619634 -8.1182,4.06954 -22.7618,10.49991 -23.911,10.49991 -0.2677,0 -1.1091,-1.77188 -1.8697,-3.9375 z m -1439.63404,-6.59376 c -25.03727,-12.52268 -44.84164,-26.686697 -63.88478,-45.690176 -36.59451,-36.518305 -60.8971,-85.242669 -69.21955,-138.778565 -3.4293,-22.059683 -4.11597,-50.336499 -1.71201,-70.499999 7.46029,-62.57404 35.89403,-120.2652 82.92891,-168.26014 52.5741,-53.64721 120.55156,-86.92648 196.55241,-96.22483 12.75255,-1.56022 46.76792,-1.77487 59.25,-0.37389 58.045896,6.515 106.721792,26.05904 148.499998,59.6248 8.3492,6.70797 28.083636,26.74186 35.199935,35.73406 9.599238,12.12966 26.300065,38.10137 26.300065,40.89965 0,0.46067 -4.134375,2.46547 -9.1875,4.4551 -26.848587,10.57145 -63.9917392,28.02973 -84.304796,39.62553 -4.602013,2.62708 -8.219993,4.39264 -8.039955,3.92347 0.476572,-1.24193 -7.221447,-13.18391 -13.548126,-21.01729 -25.194602,-31.19468 -59.891781,-51.07112 -102.419621,-58.67155 -9.68205,-1.73034 -12.93181,-1.95098 -29.625,-2.01131 -14.82658,-0.0536 -20.63325,0.22448 -27.75,1.32887 -42.9056,6.65814 -79.95776,25.03366 -110.51981,54.8108 -29.32752,28.57431 -47.92436,63.78478 -54.48349,103.15673 -1.69493,10.17403 -2.27656,30.75991 -1.1715,41.46318 5.50343,53.304077 34.98432,97.1906335 82.97463,123.519726 l 7.54984,4.142093 -6.66078,11.625 c -11.84118,20.666318 -28.34537,54.685438 -37.75029,77.812501 -1.55168,3.81562 -3.06867,6.9375 -3.37109,6.9375 -0.30242,0 -7.32579,-3.38907 -15.60749,-7.53126 z M 1050.287,16.578949 c -0.4415,-0.825 -0.634,-1.5 -0.4278,-1.5 0.2063,0 0.7363,0.675 1.1778,1.5 0.4415,0.825 0.634,1.5 0.4278,1.5 -0.2063,0 -0.7363,-0.675 -1.1778,-1.5 z m -1319.99996,-7.5 c 0.44152,-0.825 0.97152,-1.5 1.17777,-1.5 0.20625,0 0.0138,0.675 -0.42777,1.5 -0.44153,0.825 -0.97153,1.5 -1.17778,1.5 -0.20625,0 -0.0137,-0.675 0.42778,-1.5 z m 21,-31.783166 c 0,-0.155742 0.59062,-0.746367 1.3125,-1.3125 1.18954,-0.932903 1.21607,-0.906376 0.28316,0.283166 -0.97977,1.249311 -1.59566,1.646609 -1.59566,1.029334 z m 6,-8.25 c 0,-0.155742 0.59062,-0.746367 1.3125,-1.3125 1.18954,-0.932903 1.21607,-0.906376 0.28316,0.283166 -0.97977,1.249311 -1.59566,1.646609 -1.59566,1.029334 z m 1258.40426,-7.029334 c -0.9329,-1.189542 -0.9063,-1.216069 0.2832,-0.283166 0.7219,0.566133 1.3125,1.156758 1.3125,1.3125 0,0.617275 -0.6159,0.219977 -1.5957,-1.029334 z m -3.75,-5.25 c -0.9329,-1.189542 -0.9063,-1.216069 0.2832,-0.283166 1.2493,0.979777 1.6466,1.595666 1.0293,1.595666 -0.1557,0 -0.7463,-0.590625 -1.3125,-1.3125 z m -1245.65426,0.279334 c 0,-0.155742 0.59062,-0.746367 1.3125,-1.3125 1.18954,-0.932903 1.21607,-0.906376 0.28316,0.283166 -0.97977,1.249311 -1.59566,1.646609 -1.59566,1.029334 z m 2.25,-3 c 0,-0.155742 0.59062,-0.746367 1.3125,-1.3125 1.18954,-0.932903 1.21607,-0.906376 0.28316,0.283166 -0.97977,1.249311 -1.59566,1.646609 -1.59566,1.029334 z m 1239.65426,-2.529334 c -0.9329,-1.189542 -0.9063,-1.216069 0.2832,-0.283166 0.7219,0.566133 1.3125,1.156758 1.3125,1.3125 0,0.617275 -0.6159,0.219977 -1.5957,-1.029334 z m -1236.65426,-1.220666 c 0,-0.155742 0.59062,-0.746367 1.3125,-1.3125 1.18954,-0.932903 1.21607,-0.906376 0.28316,0.283166 -0.97977,1.249311 -1.59566,1.646609 -1.59566,1.029334 z m 1234.40426,-1.779334 c -0.9329,-1.189542 -0.9063,-1.216069 0.2832,-0.283166 1.2493,0.979777 1.6466,1.595666 1.0293,1.595666 -0.1557,0 -0.7463,-0.590625 -1.3125,-1.3125 z m -1232.15426,-1.220666 c 0,-0.155742 0.59062,-0.746367 1.3125,-1.3125 1.18954,-0.932903 1.21607,-0.906376 0.28316,0.283166 -0.97977,1.249311 -1.59566,1.646609 -1.59566,1.029334 z m 1229.90426,-1.779334 c -0.9329,-1.189542 -0.9063,-1.216069 0.2832,-0.283166 1.2493,0.979777 1.6466,1.595666 1.0293,1.595666 -0.1557,0 -0.7463,-0.590625 -1.3125,-1.3125 z m -1225.77926,-3.1875 c 0.74661,-0.825 1.52623,-1.5 1.73248,-1.5 0.20625,0 -0.23587,0.675 -0.98248,1.5 -0.74662,0.825 -1.52623,1.5 -1.73248,1.5 -0.20625,0 0.23586,-0.675 0.98248,-1.5 z m 1223.52926,0.1875 c -0.9329,-1.189542 -0.9063,-1.216069 0.2832,-0.283166 1.2493,0.979777 1.6466,1.595666 1.0293,1.595666 -0.1557,0 -0.7463,-0.590625 -1.3125,-1.3125 z m -1220.52926,-3.9375 c 0.74661,-0.825 1.52623,-1.5 1.73248,-1.5 0.20625,0 -0.23587,0.675 -0.98248,1.5 -0.74662,0.825 -1.52623,1.5 -1.73248,1.5 -0.20625,0 0.23586,-0.675 0.98248,-1.5 z m 1215.27933,-2.8125 c -0.9329,-1.189542 -0.90638,-1.216069 0.28317,-0.283166 1.24931,0.979777 1.64661,1.595666 1.02933,1.595666 -0.15574,0 -0.74637,-0.590625 -1.3125,-1.3125 z m -1211.52933,-1.6875 c 0.74661,-0.825 1.52623,-1.5 1.73248,-1.5 0.20625,0 -0.23587,0.675 -0.98248,1.5 -0.74662,0.825 -1.52623,1.5 -1.73248,1.5 -0.20625,0 0.23586,-0.675 0.98248,-1.5 z m 1208.52933,-2.0625 c -0.9329,-1.189542 -0.90638,-1.216069 0.28317,-0.283166 0.72187,0.566133 1.3125,1.156758 1.3125,1.3125 0,0.617275 -0.61589,0.219977 -1.59567,-1.029334 z m -1204.77933,-2.4375 c 0.74661,-0.825 1.52623,-1.5 1.73248,-1.5 0.20625,0 -0.23587,0.675 -0.98248,1.5 -0.74662,0.825 -1.52623,1.5 -1.73248,1.5 -0.20625,0 0.23586,-0.675 0.98248,-1.5 z m 1201.77933,-1.3125 c -0.9329,-1.189542 -0.90638,-1.216069 0.28317,-0.283166 0.72187,0.566133 1.3125,1.156758 1.3125,1.3125 0,0.617275 -0.61589,0.219977 -1.59567,-1.029334 z m -1196.90433,-4.3125 c 0.96881,-1.03125 1.93022,-1.875 2.13647,-1.875 0.20625,0 -0.41766,0.84375 -1.38647,1.875 -0.96881,1.03125 -1.93022,1.875 -2.13647,1.875 -0.20625,0 0.41766,-0.84375 1.38647,-1.875 z m 1193.90433,0.5625 c -0.9329,-1.189542 -0.90638,-1.216069 0.28317,-0.283166 1.24931,0.979777 1.64661,1.595666 1.02933,1.595666 -0.15574,0 -0.74637,-0.590625 -1.3125,-1.3125 z m -3.35059,-4.125 -1.42874,-1.6875 1.6875,1.428741 c 1.58583,1.342663 2.02893,1.946259 1.42874,1.946259 -0.14232,0 -0.9017,-0.759375 -1.6875,-1.6875 z m -1187.55374,-0.04718 c 0,-0.129074 1.09687,-1.225949 2.4375,-2.4375 l 2.4375,-2.202818 -2.20282,2.4375 c -2.05334,2.272092 -2.67218,2.782239 -2.67218,2.202818 z m 1183.05374,-5.202818 -1.42874,-1.6875 1.6875,1.428741 c 1.58583,1.342663 2.02893,1.946259 1.42874,1.946259 -0.14232,0 -0.9017,-0.759375 -1.6875,-1.6875 z m -1174.08509,-4.5 c 3.10798,-3.311393 3.78135,-3.90682 3.78135,-3.343656 0,0.120364 -1.60313,1.723489 -3.5625,3.5625 l -3.5625,3.343656 z m 1169.97458,-0.375 -1.81823,-2.0625 2.0625,1.818235 c 1.13437,1.00003 2.0625,1.928155 2.0625,2.0625 0,0.588206 -0.60735,0.109482 -2.30677,-1.818235 z m -5.98361,-6.75 -2.58462,-2.8125 2.8125,2.584625 c 2.61781,2.405713 3.15734,3.040375 2.58462,3.040375 -0.12533,0 -1.39095,-1.265625 -2.8125,-2.8125 z m -1153.08462,-4.687501 c 2.44917,-2.475 4.62179,-4.5 4.82804,-4.5 0.20625,0 -1.62887,2.025 -4.07804,4.5 -2.44918,2.475001 -4.6218,4.500001 -4.82805,4.500001 -0.20625,0 1.62887,-2.025 4.07805,-4.500001 z m 1144.4718,-4.6875 -3.7218,-3.9375 3.9375,3.72181 c 2.16562,2.04699 3.9375,3.81886 3.9375,3.9375 0,0.55964 -0.69483,-0.063 -4.1532,-3.72181 z m -13.87242,-14.625 -4.09938,-4.3125 4.3125,4.09938 c 4.00645,3.80845 4.65607,4.52562 4.09938,4.52562 -0.11722,0 -2.05784,-1.94063 -4.3125,-4.3125 z m -1107.72438,-3.5625 c 2.65741,-2.68125 5.00041,-4.875 5.20666,-4.875 0.20625,0 -1.79925,2.19375 -4.45666,4.875 -2.65742,2.68125 -5.00042,4.875 -5.20667,4.875 -0.20625,0 1.79925,-2.19375 4.45667,-4.875 z m 1100.15433,-3.9375 c -0.9329,-1.18954 -0.90638,-1.21607 0.28317,-0.28317 1.24931,0.97978 1.64661,1.59567 1.02933,1.59567 -0.15574,0 -0.74637,-0.59063 -1.3125,-1.3125 z m -1088.93568,-6.375 c 1.83901,-1.95938 3.44214,-3.5625 3.5625,-3.5625 0.56317,0 -0.0323,0.67337 -3.34365,3.78134 l -3.5625,3.34366 z m 1080.37815,-1.5 -3.7218,-3.9375 3.9375,3.72181 c 2.16562,2.04699 3.9375,3.81886 3.9375,3.9375 0,0.55964 -0.69483,-0.063 -4.1532,-3.72181 z m -1072.8468,-5.4375 c 0.96881,-1.03125 1.93022,-1.875 2.13647,-1.875 0.20625,0 -0.41766,0.84375 -1.38647,1.875 -0.96881,1.03125 -1.93022,1.875 -2.13647,1.875 -0.20625,0 0.41766,-0.84375 1.38647,-1.875 z m 1063.45962,-3.1875 -2.58462,-2.8125 2.8125,2.58462 c 2.61781,2.40572 3.15734,3.04038 2.58462,3.04038 -0.12533,0 -1.39095,-1.26563 -2.8125,-2.8125 z m -1056.70962,-2.8125 c 0.96881,-1.03125 1.93022,-1.875 2.13647,-1.875 0.20625,0 -0.41766,0.84375 -1.38647,1.875 -0.96881,1.03125 -1.93022,1.875 -2.13647,1.875 -0.20625,0 0.41766,-0.84375 1.38647,-1.875 z m 1049.94323,-3.1875 -1.81823,-2.0625 2.0625,1.81823 c 1.13437,1.00003 2.0625,1.92816 2.0625,2.0625 0,0.58821 -0.60735,0.10949 -2.30677,-1.81823 z m -1045.44323,-0.5625 c 0.96881,-1.03125 1.93022,-1.875 2.13647,-1.875 0.20625,0 -0.41766,0.84375 -1.38647,1.875 -0.96881,1.03125 -1.93022,1.875 -2.13647,1.875 -0.20625,0 0.41766,-0.84375 1.38647,-1.875 z m 1040.55374,-3.5625 -1.42874,-1.6875 1.6875,1.42874 c 1.58583,1.34266 2.02893,1.94626 1.42874,1.94626 -0.14232,0 -0.9017,-0.75938 -1.6875,-1.6875 z m -1035.67874,-0.5625 c 0.74661,-0.825 1.52623,-1.5 1.73248,-1.5 0.20625,0 -0.23587,0.675 -0.98248,1.5 -0.74662,0.825 -1.52623,1.5 -1.73248,1.5 -0.20625,0 0.23586,-0.675 0.98248,-1.5 z m 3.375,-2.53317 c 0,-0.15574 0.59062,-0.74636 1.3125,-1.3125 1.18954,-0.9329 1.21607,-0.90637 0.28316,0.28317 -0.97977,1.24931 -1.59566,1.64661 -1.59566,1.02933 z m 1027.40433,-1.02933 c -0.9329,-1.18954 -0.90638,-1.21607 0.28317,-0.28317 1.24931,0.97978 1.64661,1.59567 1.02933,1.59567 -0.15574,0 -0.74637,-0.59063 -1.3125,-1.3125 z m -4.5,-3.75 c -0.9329,-1.18954 -0.90638,-1.21607 0.28317,-0.28317 1.24931,0.97978 1.64661,1.59567 1.02933,1.59567 -0.15574,0 -0.74637,-0.59063 -1.3125,-1.3125 z m -1014.27933,-2.4375 c 0.74661,-0.825 1.52623,-1.5 1.73248,-1.5 0.20625,0 -0.23587,0.675 -0.98248,1.5 -0.74662,0.825 -1.52623,1.5 -1.73248,1.5 -0.20625,0 0.23586,-0.675 0.98248,-1.5 z m 1010.52933,-0.5625 c -0.9329,-1.18954 -0.90638,-1.21607 0.28317,-0.28317 1.24931,0.97978 1.64661,1.59567 1.02933,1.59567 -0.15574,0 -0.74637,-0.59063 -1.3125,-1.3125 z m -1006.77933,-2.4375 c 0.74661,-0.825 1.52623,-1.5 1.73248,-1.5 0.20625,0 -0.23587,0.675 -0.98248,1.5 -0.74662,0.825 -1.52623,1.5 -1.73248,1.5 -0.20625,0 0.23586,-0.675 0.98248,-1.5 z m 1003.02933,-0.5625 c -0.9329,-1.18954 -0.90638,-1.21607 0.28317,-0.28317 0.72187,0.56614 1.3125,1.15676 1.3125,1.3125 0,0.61728 -0.61589,0.21998 -1.59567,-1.02933 z m -1000.40433,-1.22067 c 0,-0.15574 0.59062,-0.74636 1.3125,-1.3125 1.18954,-0.9329 1.21607,-0.90637 0.28316,0.28317 -0.97977,1.24931 -1.59566,1.64661 -1.59566,1.02933 z m 996.65433,-1.77933 c -0.9329,-1.18954 -0.90638,-1.21607 0.28317,-0.28317 1.24931,0.97978 1.64661,1.59567 1.02933,1.59567 -0.15574,0 -0.74637,-0.59063 -1.3125,-1.3125 z m -993.65433,-0.47067 c 0,-0.15574 0.59062,-0.74636 1.3125,-1.3125 1.18954,-0.9329 1.21607,-0.90637 0.28316,0.28317 -0.97977,1.24931 -1.59566,1.64661 -1.59566,1.02933 z m 990.65433,-1.77933 c -0.9329,-1.18954 -0.90638,-1.21607 0.28317,-0.28317 1.24931,0.97978 1.64661,1.59567 1.02933,1.59567 -0.15574,0 -0.74637,-0.59063 -1.3125,-1.3125 z m -978.654332,-7.22067 c 0,-0.15574 0.590625,-0.74636 1.3125,-1.3125 1.189542,-0.9329 1.21607,-0.90637 0.283167,0.28317 -0.979777,1.24931 -1.595667,1.64661 -1.595667,1.02933 z m 966.654332,-1.77933 c -0.9329,-1.18954 -0.90638,-1.21607 0.28317,-0.28317 1.24931,0.97978 1.64661,1.59567 1.02933,1.59567 -0.15574,0 -0.74637,-0.59063 -1.3125,-1.3125 z m -3,-2.25 c -0.9329,-1.18954 -0.90638,-1.21607 0.28317,-0.28317 1.24931,0.97978 1.64661,1.59567 1.02933,1.59567 -0.15574,0 -0.74637,-0.59063 -1.3125,-1.3125 z m -913.404332,-29.75973 c 0,-0.20625 0.675,-0.73624 1.5,-1.17777 0.825,-0.44153 1.5,-0.63403 1.5,-0.42778 0,0.20625 -0.675,0.73625 -1.5,1.17778 -0.825,0.44153 -1.5,0.63402 -1.5,0.42777 z m 866.580842,-0.84415 c -1.39801,-1.12004 -1.38881,-1.13389 0.23166,-0.34861 0.92812,0.44977 1.6875,0.97464 1.6875,1.16638 0,0.57391 -0.38896,0.40818 -1.91916,-0.81777 z"
         id="path26"
         sodipodi:nodetypes="ssssscsssssssssssssssssscsssssssccsccssssssssssscssssssssssssssssssssssssssssssssssssssssssssssssssssssscsssssssssssssssssssssssssssssssssssssssssssssssssssssssssssssssssssssssscssssssssscssssscsssssssssssssssscssssssssssssssssssssssscsssssssssssssssssssscssssssssssssssssssssssssssssssssssssssssssssssssssssssssssssssssssssssscsssssssssssssssssssssssssssssssssssssssssssssssssscsssssscsssscsssscsssssssssssssssssssssssssssscsssssssssssssssssssssssssssssssssssssssssssssssssssssssssssssssssssssssssssssssssssssssssssssssssssssssscssssscssscsssssscsscsssscssssssssscsssscssssssssssssssscsscssssssssscssssssssscssssssssscsssssssssssssssssssssssssssssssssssssssssssssssssssssssssssssssssssssssssss" /><path
         style="fill:#41130d"
         d="m 343.79932,903.04084 c -59.74336,-1.45091 -125.97547,-7.89938 -185.25,-18.03625 C 95.127641,874.15849 25.858779,855.84919 -27.825684,835.74152 -132.90286,796.38458 -218.39409,735.49324 -274.98186,659.70395 c -35.97566,-48.18303 -63.09337,-107.35527 -78.71034,-171.75 -20.31117,-83.75074 -21.08424,-177.25466 -2.19973,-266.06031 3.02855,-14.24193 7.26552,-31.29793 10.71483,-43.13269 l 1.80498,-6.19299 -12.10914,-5.85435 C -432.8578,129.30474 -491.96484,64.3615 -518.06272,-11.921051 c -10.66601,-31.17611 -15.63796,-61.693572 -15.63796,-95.984619 0,-51.81078 11.56373,-100.37253 35.6831,-149.85075 17.45801,-35.81315 40.21047,-67.7115 68.26059,-95.69949 62.31429,-62.17629 143.89804,-100.37065 232.43131,-108.81535 15.83046,-1.50998 47.4963,-1.5132 62.70742,-0.006 44.232939,4.38174 85.178523,16.21066 123.292576,35.61844 19.5848752,9.97267 32.833069,18.2291 49.125,30.61528 35.766212,27.19177 64.991874,61.86936 83.715394,99.33211 2.31336,4.62867 4.30038,8.5205 4.41561,8.64851 0.11522,0.12801 3.70476,-0.78513 7.97675,-2.02921 46.70849,-13.60231 106.83288,-24.51356 163.39225,-29.65209 117.16967,-10.6451 243.29429,-0.16591 346.731,28.80848 5.91998,1.65829 11.08406,3.01507 11.47573,3.01507 0.39167,0 1.8597,-2.44688 3.26229,-5.4375 5.58999,-11.91905 18.97925,-33.75368 27.70951,-45.1875 27.95939,-36.61776 65.65834,-67.61395 108.12849,-88.90359 36.90314,-18.49898 79.27541,-30.60693 121.76358,-34.79416 15.63224,-1.54057 47.04768,-1.55425 63.0544,-0.0275 58.48078,5.57816 113.48478,23.90589 163.24898,54.39572 84.5658,51.81229 143.6775,133.64079 165.2324,228.73186 9.13,40.27759 10.3141,84.018614 3.36,124.122978 -16.8953,97.435485 -87.2002,184.022722 -183.7164,226.264372 -5.1562,2.2567 -9.9256,4.29814 -10.5986,4.53653 -1.0887,0.38566 -0.9005,1.7417 1.7078,12.30359 8.9576,36.27205 14.7388,73.6186 17.5667,113.48044 2.2406,31.58219 0.9368,82.15338 -3.0554,118.51472 -10.9533,99.76383 -43.6522,188.38902 -93.8484,254.36124 -19.6821,25.86798 -47.19781,53.82265 -73.78999,74.96715 -81.45691,64.76963 -190.6315,109.98722 -318.35709,131.85612 -10.30703,1.76475 -41.51159,6.5403 -49.875,7.63288 -18.0848,2.36257 -35.74147,4.55835 -41.625,5.17648 -21.39626,2.24793 -29.92961,3.06635 -42.75,4.10009 -7.8375,0.63196 -16.275,1.3286 -18.75,1.54809 -12.80649,1.13572 -46.69321,2.7221 -71.625,3.35306 -30.86856,0.78122 -45.46784,0.77506 -78.75,-0.0332 z m 115.27037,-57.71053 c 113.24061,-3.15735 204.41205,-17.25459 294.12915,-45.47926 107.79642,-33.91236 189.88583,-88.33734 244.75565,-162.2721 69.00571,-92.98234 98.49771,-230.84556 79.65911,-372.375 C 1060.506,136.67898 1000.622,14.784903 908.82271,-78.370176 823.40047,-165.05405 717.80614,-220.8815 585.67432,-249.21791 c -28.59985,-6.13339 -67.72888,-12.05148 -99.375,-15.03002 -29.34804,-2.76225 -47.08209,-3.58256 -85.61934,-3.96045 -47.6656,-0.4674 -76.39859,0.80265 -115.00566,5.08348 -143.96481,15.96311 -270.289111,65.175 -368.041186,143.37701 -20.704134,16.56338 -33.172454,27.78199 -53.501214,48.138734 -49.54925,49.617441 -88.52202,104.197744 -118.86002,166.460183 -47.3303,97.135623 -66.23846,200.729653 -55.802,305.727923 8.74781,88.00921 38.25832,168.09819 85.13457,231.0479 20.61848,27.68837 48.57008,56.10664 74.94485,76.19608 83.812829,63.83955 192.424318,103.88177 334.125,123.18316 79.94215,10.88912 191.14657,16.67323 275.39537,14.32422 z M 326.54932,530.75399 c -3.09375,-0.5531 -7.81875,-1.57533 -10.5,-2.27164 -13.97616,-3.62954 -34.34474,-15.01221 -39.01807,-21.80466 -8.8005,-12.79108 -5.39611,-30.59048 7.14307,-37.34658 2.43735,-1.31325 4.26596,-1.6164 9.75,-1.6164 7.1953,0 10.6543,1.18959 15.68076,5.39282 5.46822,4.57264 19.53469,10.26229 28.43022,11.49955 17.78467,2.47362 31.13636,-8.99226 36.16456,-31.05659 0.64592,-2.8344 1.07317,-5.64407 0.94943,-6.24371 -0.12373,-0.59964 -2.24997,-1.76008 -4.72497,-2.57875 -21.06771,-6.96873 -34.875,-21.32993 -34.875,-36.27408 0,-24.44774 35.46085,-43.95052 74.05112,-40.72666 14.71983,1.2297 27.35113,4.88412 37.67492,10.8999 6.74507,3.93043 14.99886,12.23698 17.71354,17.82676 1.9682,4.05272 2.18542,5.24546 2.18542,12 0,10.03152 -1.84251,14.11273 -9.96218,22.0665 -6.30688,6.17802 -14.85382,11.18693 -24.39334,14.29565 -5.08576,1.65734 -5.1037,1.67292 -4.63505,4.02581 0.88604,4.44844 3.57031,12.11237 6.20206,17.70765 4.86937,10.35262 13.77882,17.03995 23.77065,17.842 9.86636,0.79198 23.43797,-3.30155 33.56113,-10.12284 7.61115,-5.12864 12.13422,-6.93977 17.33117,-6.93977 6.3254,0 10.7931,1.93199 15.62138,6.75525 3.23553,3.23216 4.52939,5.19625 5.4375,8.2542 3.2485,10.93887 -0.76071,21.76069 -11.17457,30.16285 -7.97242,6.43235 -21.65264,12.65213 -35.58848,16.18048 -7.2367,1.83222 -9.18251,2.00601 -22.54527,2.01358 -12.92561,0.007 -15.36577,-0.19203 -21,-1.71568 -12.97891,-3.50985 -24.77457,-10.55028 -33.74826,-20.14319 l -4.67698,-4.9997 -3.84133,4.37928 c -8.71387,9.9342 -21.90024,17.99807 -34.98343,21.39346 -8.05272,2.08986 -27.29102,2.70148 -36,1.14451 z M 33.674316,465.06477 c -34.47581405,-3.68075 -63.353045,-30.04493 -70.447558,-64.31685 -3.468017,-16.75317 -1.345359,-34.76629 5.907993,-50.13593 10.858108,-23.008 30.56573646,-39.06423 55.335099,-45.08271 8.485133,-2.06172 29.590015,-1.8432 37.837423,0.39177 29.43239,7.97593 51.086587,29.71717 58.846627,59.08318 1.54203,5.83544 1.76847,8.39287 1.75529,19.82472 -0.0138,11.9655 -0.19597,13.77683 -2.06227,20.5035 -9.04769,32.61038 -36.356022,55.96571 -69.798389,59.69476 -7.832302,0.87335 -9.511776,0.87698 -17.374215,0.0376 z m 38.36276,-89.47793 c 4.568111,-2.31484 9.593493,-7.65663 11.594287,-12.3243 2.278334,-5.31514 2.082002,-13.8728 -0.44061,-19.20516 -2.25253,-4.76146 -7.309592,-9.69966 -12.259684,-11.97155 -4.89819,-2.24806 -14.097235,-2.25663 -18.973556,-0.0177 -5.033346,2.31106 -9.282339,6.49292 -11.880985,11.69327 -1.936294,3.87487 -2.277123,5.40935 -2.27662,10.24981 0.0011,10.9444 6.316091,19.57876 16.874408,23.07219 4.544596,1.50367 12.855738,0.78729 17.36276,-1.49659 z m 673.763554,89.39667 c -12.09287,-1.39953 -25.40245,-6.29169 -35.77447,-13.14952 -5.3756,-3.55428 -15.08869,-12.7257 -19.38824,-18.30702 -12.2871,-15.95012 -18.3789,-37.43098 -16.16977,-57.01763 3.85082,-34.14213 27.26928,-61.4296 60.45617,-70.44426 9.36371,-2.5435 26.04465,-2.89109 36.375,-0.75797 30.49032,6.29595 54.09321,28.92274 62.35284,59.77421 2.44471,9.13152 2.7636,25.31388 0.69646,35.34345 -7.20616,34.96377 -35.35692,60.65029 -70.80009,64.60244 -8.01732,0.89398 -9.68107,0.88988 -17.7479,-0.0437 z m 38.78704,-89.42231 c 14.15398,-7.17237 17.59264,-25.83247 6.91358,-37.51706 -5.05455,-5.53049 -9.73443,-7.54632 -17.57693,-7.57117 -5.06637,-0.0161 -6.66061,0.30539 -10.24541,2.06582 -5.07981,2.49459 -9.12968,6.76693 -11.66587,12.30671 -1.60595,3.50784 -1.82761,4.92216 -1.60098,10.21501 0.37196,8.68693 3.98462,15.05965 11.00539,19.41347 6.63628,4.11538 16.29962,4.56881 23.17022,1.08722 z M 1107.6743,120.04102 c 42.8507,-17.83399 79.6007,-46.859915 105.3996,-83.246786 37.4968,-52.885603 53.6803,-121.71287 44.1675,-187.840284 -15.4839,-107.6341 -100.0746,-203.72407 -212.3495,-241.21636 -21.4575,-7.16538 -41.5353,-11.62875 -65.84258,-14.63707 -14.37783,-1.77944 -47.40599,-1.77765 -62.625,0.003 -54.98489,6.43471 -103.64026,26.08262 -143.625,57.99837 -8.44454,6.74042 -25.02683,22.93494 -32.10237,31.35168 -11.24317,13.37436 -23.28934,31.00791 -29.22897,42.78626 l -2.28756,4.53626 8.74695,3.25779 c 14.28208,5.31935 39.16029,16.13013 55.99695,24.33337 118.95304,57.95693 210.81454,144.202934 276.99038,260.057991 17.568,30.756482 32.6378,62.935499 44.8196,95.704519 2.0295,5.45941 3.9039,9.93128 4.1653,9.9375 0.2614,0.006 3.76,-1.35576 7.7747,-3.02662 z m -1430.31138,-6.89957 c 9.42464,-23.175556 25.9231,-57.175238 37.80194,-77.901478 54.85809,-95.716553 130.03501,-176.055992 220.634456,-235.785762 40.778398,-26.8841 81.348046,-47.92232 127.3125,-66.02051 5.053125,-1.98963 9.1875,-3.99443 9.1875,-4.4551 0,-2.79828 -16.700827,-28.76999 -26.300065,-40.89965 -7.116299,-8.9922 -26.850735,-29.02609 -35.199935,-35.73406 -37.175438,-29.86777 -82.123705,-49.55637 -130.559856,-57.18888 -17.71359,-2.79128 -26.27997,-3.40471 -46.81514,-3.35238 -26.82845,0.0684 -45.75738,2.35053 -70.80429,8.53651 -118.89563,29.36436 -213.14464,123.46474 -235.507,235.1356 -3.64322,18.19313 -4.84045,30.775 -4.85085,50.97821 -0.009,17.332589 0.64624,26.369287 3.01783,41.624999 8.32245,53.535896 32.62504,102.26026 69.21955,138.778565 19.04314,19.003479 38.84751,33.167496 63.88478,45.690176 8.2817,4.14219 15.30507,7.53126 15.60749,7.53126 0.30242,0 1.81941,-3.12188 3.37109,-6.9375 z"
         id="path25" /></g></g></svg>
