<?xml version="1.0" encoding="UTF-8" standalone="no"?>
<svg
   width="1000"
   zoomAndPan="magnify"
   viewBox="0 0 750 749.999995"
   height="1000"
   preserveAspectRatio="xMidYMid meet"
   version="1.0"
   id="svg6"
   sodipodi:docname="bear.svg"
   xml:space="preserve"
   inkscape:version="1.3.2 (091e20e, 2023-11-25, custom)"
   xmlns:inkscape="http://www.inkscape.org/namespaces/inkscape"
   xmlns:sodipodi="http://sodipodi.sourceforge.net/DTD/sodipodi-0.dtd"
   xmlns="http://www.w3.org/2000/svg"
   xmlns:svg="http://www.w3.org/2000/svg"><sodipodi:namedview
     id="namedview6"
     pagecolor="#ffffff"
     bordercolor="#000000"
     borderopacity="0.25"
     inkscape:showpageshadow="2"
     inkscape:pageopacity="0.0"
     inkscape:pagecheckerboard="0"
     inkscape:deskcolor="#d1d1d1"
     inkscape:zoom="2.5724545"
     inkscape:cx="583.29506"
     inkscape:cy="447.23823"
     inkscape:window-width="3840"
     inkscape:window-height="2054"
     inkscape:window-x="3829"
     inkscape:window-y="-11"
     inkscape:window-maximized="1"
     inkscape:current-layer="g25" /><defs
     id="defs3" /><g
     id="g25"
     transform="matrix(0.38890188,0,0,0.38842439,223.04984,196.08598)"><g
       id="g29"
       transform="translate(-0.3024844,240.49154)"><path
         id="rect1"
         style="fill:#ffffff;stroke-width:1.85304"
         d="M -3.8902163,313.6034 H 808.65049 v 90.76252 H -3.8902163 Z"
         inkscape:label="white" /><path
         id="path26"
         style="fill:#c46d29"
         inkscape:label="medium brown"
         d="m 948.02148,-411.9375 c -99.24291,-1.77295 -200.81615,52.51914 -244.02539,143.74414 45.5121,28.91068 78.62146,76.96714 119.21485,113.4707 -185.64556,-123.27182 -424.55735,-139.9424 -638.00178,-95.01735 -46.13511,9.35489 -116.998383,40.6179 -133.17449,35.11481 79.27742,-62.3685 -20.00185,-125.73067 -73.165905,-159.43878 -174.481625,-104.77083 -426.814775,18.93899 -457.192995,218.56447 -20.50373,114.767679 45.68767,237.500515 151.60498,284.79438 96.78941,-15.3136 4.76657,86.07471 14.47426,142.67875 -25.86131,178.07857 42.78505,379.55822 205.96125,470.2402 C 73.175181,845.03401 287.31217,851.65785 488.8217,847.92975 671.17781,838.04239 874.986,797.51453 995.33232,647.12584 1117.3434,481.96529 1110.163,246.93408 1019.819,69.113492 c -15.3803,-31.380062 -52.97058,-82.394735 -7.4318,-31.664273 41.8554,24.060155 70.7867,119.541761 124.995,72.076491 137.2007,-73.245626 165.6678,-273.82334 68.2902,-390.84004 -59.8488,-79.54952 -157.6526,-130.90926 -257.65092,-130.62317 z M 779.30664,328.42773 c 71.29018,43.34604 -26.46208,87.82925 -42.2205,17.90215 6.0914,-9.6893 30.38604,-17.81986 42.2205,-17.90215 z M 75.396436,325.94556 c 31.916284,17.36233 -1.77257,104.49328 -39.072057,45.59614 -12.885276,-24.49962 16.781828,-51.34437 39.072057,-45.59614 z"
         sodipodi:nodetypes="ccccccccccccccccccccccc" /><path
         style="fill:#f4bb5b"
         d="m 361.79932,674.25425 c -58.50974,-3.0363 -106.30383,-14.06666 -138.34607,-31.9288 -27.2339,-15.1817 -45.01522,-33.38447 -57.75264,-59.1215 -11.01694,-22.26065 -16.21946,-44.39113 -17.57878,-74.77667 -2.26914,-50.72297 6.18888,-90.10385 26.85147,-125.02159 25.15708,-42.51299 67.59787,-75.29061 121.20102,-93.60526 79.06271,-27.01345 178.37895,-20.7218 247.09944,15.65368 62.97434,33.3339 101.95957,88.15222 110.58706,155.49984 3.01202,23.5123 3.03432,52.45173 0.0559,72.51599 -13.23929,89.18645 -80.88986,133.69175 -214.11738,140.86145 -15.92913,0.85724 -60.85064,0.81281 -78,-0.0771 z m -317.306768,-303.4878 -1.818236,-2.0625 2.0625,1.81823 c 1.134375,1.00003 2.0625,1.92816 2.0625,2.0625 0,0.58821 -0.607349,0.10949 -2.306764,-1.81823 z m 34.461098,-32.25 c -0.932903,-1.18954 -0.906375,-1.21607 0.283166,-0.28317 1.249311,0.97978 1.64661,1.59567 1.029334,1.59567 -0.155742,0 -0.746367,-0.59063 -1.3125,-1.3125 z m -34.779334,-0.9375 c 0.746615,-0.825 1.526232,-1.5 1.732482,-1.5 0.20625,0 -0.235867,0.675 -0.982482,1.5 -0.746614,0.825 -1.526231,1.5 -1.732481,1.5 -0.20625,0 0.235867,-0.675 0.982481,-1.5 z m 16.326774,-7.26974 c 0.729726,-0.19016 1.742226,-0.17766 2.25,0.0278 0.507775,0.20544 -0.08927,0.36102 -1.326774,0.34574 -1.2375,-0.0153 -1.652951,-0.18338 -0.923226,-0.37353 z M 1049.1162,13.41443 c -55.64668,-96.526897 -130.82262,-173.22101 -224.56688,-229.10194 -6.39375,-3.81131 -12.06264,-7.1949 -12.59752,-7.5191 -0.72196,-0.43758 0.35259,-2.61834 4.17079,-8.46444 37.71797,-57.75066 110.50519,-84.95438 183.5739,-68.60949 62.31681,13.93977 115.81781,58.67206 138.57101,115.85949 17.0741,42.91349 17.3914,85.66946 0.9324,125.651728 -13.7076,33.298702 -39.6516,61.4129213 -72.6062,78.679793 -11.6125,6.084439 -9.8467,6.740734 -17.4775,-6.496041 z m -1334.56688,6.063688 c -8.38001,-4.504618 -15.87515,-9.265492 -22.125,-14.0536886 -45.76709,-35.0635134 -68.41878,-91.4959924 -59.92379,-149.2889994 5.52969,-37.61951 23.99754,-73.85734 52.04879,-102.13072 58.52553,-58.989 147.22413,-75.76525 217.874996,-41.20838 22.517766,11.01393 41.163914,26.06399 56.293727,45.43695 4.031223,5.16178 12.331273,17.69607 12.331273,18.62203 0,0.16648 -2.446875,1.73731 -5.4375,3.49073 -79.759276,46.7634 -151.074026,111.26088 -207.013866,187.224553 -9.49511,12.893916 -24.34078,35.0194146 -31.24852,46.571761 -3.02122,5.052627 -5.53408,9.181907 -5.58412,9.176177 -0.05,-0.0057 -3.29724,-1.733916 -7.21599,-3.840413 z"
         id="path28"
         sodipodi:nodetypes="ssssssssssssscssssssssssssssssscssssssscssssssssssss"
         inkscape:label="light brown" /><path
         style="fill:#e89b22"
         d="m -65.39023,574.14544 c -15.872557,-2.1596 -31.820474,-7.35519 -43.39687,-14.13802 -6.50261,-3.81 -14.36933,-11.50541 -17.30534,-16.92847 -2.00668,-3.70651 -2.23324,-4.8098 -2.23324,-10.875 0,-6.25671 0.18668,-7.09428 2.55449,-11.46095 17.39449,-32.07862 97.078259,-42.91241 142.945506,-19.43484 10.924073,5.59158 19.225144,12.89615 22.702919,19.97755 1.769048,3.60211 2.047081,5.08502 2.047081,10.91824 0,8.63364 -1.656393,12.25411 -8.949239,19.56087 -11.24447,11.26592 -30.8760332,19.28716 -54.917658,22.43874 -10.612138,1.39113 -33.016302,1.36116 -43.447649,-0.0581 z m 886.44333,0.36288 c -18.54205,-2.16113 -37.30421,-8.49641 -49.338,-16.6596 -22.68445,-15.38811 -21.97558,-37.29376 1.70249,-52.61102 38.80595,-25.10345 116.09626,-20.9332 144.11656,7.7759 23.96121,24.55021 -3.15601,54.32137 -55.71075,61.16311 -9.50477,1.23736 -31.46652,1.41599 -40.7703,0.33161 z"
         id="path27"
         sodipodi:nodetypes="ssssssssssssssssss"
         inkscape:label="gold" /><path
         style="fill:#41130d"
         d="m 343.79932,903.04084 c -59.74336,-1.45091 -125.97547,-7.89938 -185.25,-18.03625 C 95.127641,874.15849 25.858779,855.84919 -27.825684,835.74152 -132.90286,796.38458 -218.39409,735.49324 -274.98186,659.70395 c -35.97566,-48.18303 -63.09337,-107.35527 -78.71034,-171.75 -20.31117,-83.75074 -21.08424,-177.25466 -2.19973,-266.06031 3.02855,-14.24193 7.26552,-31.29793 10.71483,-43.13269 l 1.80498,-6.19299 -12.10914,-5.85435 C -432.8578,129.30474 -491.96484,64.3615 -518.06272,-11.921051 c -10.66601,-31.17611 -15.63796,-61.693572 -15.63796,-95.984619 0,-51.81078 11.56373,-100.37253 35.6831,-149.85075 17.45801,-35.81315 40.21047,-67.7115 68.26059,-95.69949 62.31429,-62.17629 143.89804,-100.37065 232.43131,-108.81535 15.83046,-1.50998 47.4963,-1.5132 62.70742,-0.006 44.232939,4.38174 85.178523,16.21066 123.292576,35.61844 19.5848752,9.97267 32.833069,18.2291 49.125,30.61528 35.766212,27.19177 64.991874,61.86936 83.715394,99.33211 2.31336,4.62867 4.30038,8.5205 4.41561,8.64851 0.11522,0.12801 3.70476,-0.78513 7.97675,-2.02921 46.70849,-13.60231 106.83288,-24.51356 163.39225,-29.65209 117.16967,-10.6451 243.29429,-0.16591 346.731,28.80848 5.91998,1.65829 11.08406,3.01507 11.47573,3.01507 0.39167,0 1.8597,-2.44688 3.26229,-5.4375 5.58999,-11.91905 18.97925,-33.75368 27.70951,-45.1875 27.95939,-36.61776 65.65834,-67.61395 108.12849,-88.90359 36.90314,-18.49898 79.27541,-30.60693 121.76358,-34.79416 15.63224,-1.54057 47.04768,-1.55425 63.0544,-0.0275 58.48078,5.57816 113.48478,23.90589 163.24898,54.39572 84.5658,51.81229 143.6775,133.64079 165.2324,228.73186 9.13,40.27759 10.3141,84.018614 3.36,124.122978 -16.8953,97.435485 -87.2002,184.022722 -183.7164,226.264372 -5.1562,2.2567 -9.9256,4.29814 -10.5986,4.53653 -1.0887,0.38566 -0.9005,1.7417 1.7078,12.30359 8.9576,36.27205 14.7388,73.6186 17.5667,113.48044 2.2406,31.58219 0.9368,82.15338 -3.0554,118.51472 -10.9533,99.76383 -43.6522,188.38902 -93.8484,254.36124 -19.6821,25.86798 -47.19781,53.82265 -73.78999,74.96715 -81.45691,64.76963 -190.6315,109.98722 -318.35709,131.85612 -10.30703,1.76475 -41.51159,6.5403 -49.875,7.63288 -18.0848,2.36257 -35.74147,4.55835 -41.625,5.17648 -21.39626,2.24793 -29.92961,3.06635 -42.75,4.10009 -7.8375,0.63196 -16.275,1.3286 -18.75,1.54809 -12.80649,1.13572 -46.69321,2.7221 -71.625,3.35306 -30.86856,0.78122 -45.46784,0.77506 -78.75,-0.0332 z m 115.27037,-57.71053 c 113.24061,-3.15735 204.41205,-17.25459 294.12915,-45.47926 107.79642,-33.91236 189.88583,-88.33734 244.75565,-162.2721 69.00571,-92.98234 98.49771,-230.84556 79.65911,-372.375 C 1060.506,136.67898 1000.622,14.784903 908.82271,-78.370176 823.40047,-165.05405 717.80614,-220.8815 585.67432,-249.21791 c -28.59985,-6.13339 -67.72888,-12.05148 -99.375,-15.03002 -29.34804,-2.76225 -47.08209,-3.58256 -85.61934,-3.96045 -47.6656,-0.4674 -76.39859,0.80265 -115.00566,5.08348 -143.96481,15.96311 -270.289111,65.175 -368.041186,143.37701 -20.704134,16.56338 -33.172454,27.78199 -53.501214,48.138734 -49.54925,49.617441 -88.52202,104.197744 -118.86002,166.460183 -47.3303,97.135623 -66.23846,200.729653 -55.802,305.727923 8.74781,88.00921 38.25832,168.09819 85.13457,231.0479 20.61848,27.68837 48.57008,56.10664 74.94485,76.19608 83.812829,63.83955 192.424318,103.88177 334.125,123.18316 79.94215,10.88912 191.14657,16.67323 275.39537,14.32422 z M 326.54932,530.75399 c -3.09375,-0.5531 -7.81875,-1.57533 -10.5,-2.27164 -13.97616,-3.62954 -34.34474,-15.01221 -39.01807,-21.80466 -8.8005,-12.79108 -5.39611,-30.59048 7.14307,-37.34658 2.43735,-1.31325 4.26596,-1.6164 9.75,-1.6164 7.1953,0 10.6543,1.18959 15.68076,5.39282 5.46822,4.57264 19.53469,10.26229 28.43022,11.49955 17.78467,2.47362 31.13636,-8.99226 36.16456,-31.05659 0.64592,-2.8344 1.07317,-5.64407 0.94943,-6.24371 -0.12373,-0.59964 -2.24997,-1.76008 -4.72497,-2.57875 -21.06771,-6.96873 -34.875,-21.32993 -34.875,-36.27408 0,-24.44774 35.46085,-43.95052 74.05112,-40.72666 14.71983,1.2297 27.35113,4.88412 37.67492,10.8999 6.74507,3.93043 14.99886,12.23698 17.71354,17.82676 1.9682,4.05272 2.18542,5.24546 2.18542,12 0,10.03152 -1.84251,14.11273 -9.96218,22.0665 -6.30688,6.17802 -14.85382,11.18693 -24.39334,14.29565 -5.08576,1.65734 -5.1037,1.67292 -4.63505,4.02581 0.88604,4.44844 3.57031,12.11237 6.20206,17.70765 4.86937,10.35262 13.77882,17.03995 23.77065,17.842 9.86636,0.79198 23.43797,-3.30155 33.56113,-10.12284 7.61115,-5.12864 12.13422,-6.93977 17.33117,-6.93977 6.3254,0 10.7931,1.93199 15.62138,6.75525 3.23553,3.23216 4.52939,5.19625 5.4375,8.2542 3.2485,10.93887 -0.76071,21.76069 -11.17457,30.16285 -7.97242,6.43235 -21.65264,12.65213 -35.58848,16.18048 -7.2367,1.83222 -9.18251,2.00601 -22.54527,2.01358 -12.92561,0.007 -15.36577,-0.19203 -21,-1.71568 -12.97891,-3.50985 -24.77457,-10.55028 -33.74826,-20.14319 l -4.67698,-4.9997 -3.84133,4.37928 c -8.71387,9.9342 -21.90024,17.99807 -34.98343,21.39346 -8.05272,2.08986 -27.29102,2.70148 -36,1.14451 z M 33.674316,465.06477 c -34.47581405,-3.68075 -63.353045,-30.04493 -70.447558,-64.31685 -3.468017,-16.75317 -1.345359,-34.76629 5.907993,-50.13593 10.858108,-23.008 30.56573646,-39.06423 55.335099,-45.08271 8.485133,-2.06172 29.590015,-1.8432 37.837423,0.39177 29.43239,7.97593 51.086587,29.71717 58.846627,59.08318 1.54203,5.83544 1.76847,8.39287 1.75529,19.82472 -0.0138,11.9655 -0.19597,13.77683 -2.06227,20.5035 -9.04769,32.61038 -36.356022,55.96571 -69.798389,59.69476 -7.832302,0.87335 -9.511776,0.87698 -17.374215,0.0376 z m 38.36276,-89.47793 c 4.568111,-2.31484 9.593493,-7.65663 11.594287,-12.3243 2.278334,-5.31514 2.082002,-13.8728 -0.44061,-19.20516 -2.25253,-4.76146 -7.309592,-9.69966 -12.259684,-11.97155 -4.89819,-2.24806 -14.097235,-2.25663 -18.973556,-0.0177 -5.033346,2.31106 -9.282339,6.49292 -11.880985,11.69327 -1.936294,3.87487 -2.277123,5.40935 -2.27662,10.24981 0.0011,10.9444 6.316091,19.57876 16.874408,23.07219 4.544596,1.50367 12.855738,0.78729 17.36276,-1.49659 z m 673.763554,89.39667 c -12.09287,-1.39953 -25.40245,-6.29169 -35.77447,-13.14952 -5.3756,-3.55428 -15.08869,-12.7257 -19.38824,-18.30702 -12.2871,-15.95012 -18.3789,-37.43098 -16.16977,-57.01763 3.85082,-34.14213 27.26928,-61.4296 60.45617,-70.44426 9.36371,-2.5435 26.04465,-2.89109 36.375,-0.75797 30.49032,6.29595 54.09321,28.92274 62.35284,59.77421 2.44471,9.13152 2.7636,25.31388 0.69646,35.34345 -7.20616,34.96377 -35.35692,60.65029 -70.80009,64.60244 -8.01732,0.89398 -9.68107,0.88988 -17.7479,-0.0437 z m 38.78704,-89.42231 c 14.15398,-7.17237 17.59264,-25.83247 6.91358,-37.51706 -5.05455,-5.53049 -9.73443,-7.54632 -17.57693,-7.57117 -5.06637,-0.0161 -6.66061,0.30539 -10.24541,2.06582 -5.07981,2.49459 -9.12968,6.76693 -11.66587,12.30671 -1.60595,3.50784 -1.82761,4.92216 -1.60098,10.21501 0.37196,8.68693 3.98462,15.05965 11.00539,19.41347 6.63628,4.11538 16.29962,4.56881 23.17022,1.08722 z M 1107.6743,120.04102 c 42.8507,-17.83399 79.6007,-46.859915 105.3996,-83.246786 37.4968,-52.885603 53.6803,-121.71287 44.1675,-187.840284 -15.4839,-107.6341 -100.0746,-203.72407 -212.3495,-241.21636 -21.4575,-7.16538 -41.5353,-11.62875 -65.84258,-14.63707 -14.37783,-1.77944 -47.40599,-1.77765 -62.625,0.003 -54.98489,6.43471 -103.64026,26.08262 -143.625,57.99837 -8.44454,6.74042 -25.02683,22.93494 -32.10237,31.35168 -11.24317,13.37436 -23.28934,31.00791 -29.22897,42.78626 l -2.28756,4.53626 8.74695,3.25779 c 14.28208,5.31935 39.16029,16.13013 55.99695,24.33337 118.95304,57.95693 210.81454,144.202934 276.99038,260.057991 17.568,30.756482 32.6378,62.935499 44.8196,95.704519 2.0295,5.45941 3.9039,9.93128 4.1653,9.9375 0.2614,0.006 3.76,-1.35576 7.7747,-3.02662 z m -1430.31138,-6.89957 c 9.42464,-23.175556 25.9231,-57.175238 37.80194,-77.901478 54.85809,-95.716553 130.03501,-176.055992 220.634456,-235.785762 40.778398,-26.8841 81.348046,-47.92232 127.3125,-66.02051 5.053125,-1.98963 9.1875,-3.99443 9.1875,-4.4551 0,-2.79828 -16.700827,-28.76999 -26.300065,-40.89965 -7.116299,-8.9922 -26.850735,-29.02609 -35.199935,-35.73406 -37.175438,-29.86777 -82.123705,-49.55637 -130.559856,-57.18888 -17.71359,-2.79128 -26.27997,-3.40471 -46.81514,-3.35238 -26.82845,0.0684 -45.75738,2.35053 -70.80429,8.53651 -118.89563,29.36436 -213.14464,123.46474 -235.507,235.1356 -3.64322,18.19313 -4.84045,30.775 -4.85085,50.97821 -0.009,17.332589 0.64624,26.369287 3.01783,41.624999 8.32245,53.535896 32.62504,102.26026 69.21955,138.778565 19.04314,19.003479 38.84751,33.167496 63.88478,45.690176 8.2817,4.14219 15.30507,7.53126 15.60749,7.53126 0.30242,0 1.81941,-3.12188 3.37109,-6.9375 z"
         id="path25"
         inkscape:label="brown" /></g></g></svg>
