<?xml version="1.0" encoding="UTF-8" standalone="no"?>
<svg
   width="1000"
   zoomAndPan="magnify"
   viewBox="0 0 750 749.999995"
   height="1000"
   preserveAspectRatio="xMidYMid meet"
   version="1.0"
   id="svg6"
   sodipodi:docname="cat.svg"
   xml:space="preserve"
   inkscape:version="1.3.2 (091e20e, 2023-11-25, custom)"
   xmlns:inkscape="http://www.inkscape.org/namespaces/inkscape"
   xmlns:sodipodi="http://sodipodi.sourceforge.net/DTD/sodipodi-0.dtd"
   xmlns="http://www.w3.org/2000/svg"
   xmlns:svg="http://www.w3.org/2000/svg"><sodipodi:namedview
     id="namedview6"
     pagecolor="#ffffff"
     bordercolor="#000000"
     borderopacity="0.25"
     inkscape:showpageshadow="2"
     inkscape:pageopacity="0.0"
     inkscape:pagecheckerboard="0"
     inkscape:deskcolor="#d1d1d1"
     inkscape:zoom="0.9095"
     inkscape:cx="124.24409"
     inkscape:cy="825.17867"
     inkscape:window-width="3840"
     inkscape:window-height="2054"
     inkscape:window-x="3829"
     inkscape:window-y="-11"
     inkscape:window-maximized="1"
     inkscape:current-layer="svg6" /><defs
     id="defs3" /><g
     id="g7"
     transform="matrix(0.57810137,0,0,0.57810137,410.30367,253.21284)"><path
       style="fill:#f6f8f8"
       d="m -71.744568,681.43419 c -2.68125,-0.14591 -12.6375,-0.61857 -22.125,-1.05036 -30.661652,-1.39546 -80.310432,-6.18398 -113.250002,-10.92271 -81.33797,-11.70141 -138.11256,-27.39428 -190.125,-52.55178 -64.23465,-31.06917 -120.92917,-75.75718 -150.52961,-140.21056 l -21.48985,-73.42498 -2.89192,-81.01211 c -1.91809,-53.73189 13.23984,-111.81334 34.51237,-163.125 22.80285,-55.00297 54.49499,-103.313706 94.64272,-144.271112 35.26298,-35.974131 69.21876,-60.708564 112.88129,-82.226202 25.79214,-12.710805 51.48352,-22.599309 78,-30.021872 56.97027,-15.947264 112.65414,-22.615914 179.250002,-21.466814 115.950712,2.00072 210.954678,22.437666 292.124998,62.840979 23.84377,11.868469 41.89735,23.020819 62.625,38.685736 89.43756,67.592415 147.69594,172.099765 162.33674,291.209285 9.31402,69.0927 5.34916,150.72405 -27.80739,209.87852 -22.22665,44.63795 -56.22677,78.93049 -102.61267,110.78438 -20.95336,14.38899 -54.88528,32.1325 -81.41668,42.574 -59.28391,23.33135 -133.259711,38.47716 -211.499998,43.30254 -12.4511159,0.7679 -82.940622,1.53506 -92.625,1.00806 z M -537.05334,67.556534 c -1.52672,-4.636074 -7.44387,-41.660052 -9.75615,-61.0448458 -8.18995,-68.6596782 -4.52136,-161.7420682 8.1016,-205.5605682 8.30782,-28.83921 22.26048,-50.54841 36.96351,-57.51218 5.12433,-2.42702 5.1259,-2.42724 16.74981,-2.34563 10.77675,0.0757 12.36554,0.27624 21.7739,2.74884 28.95391,7.60934 71.59131,26.52133 105.7261,46.89524 19.40648,11.58308 43.69821,28.51036 60.47523,42.14115 8.88172,7.21611 26.19083,22.3902 29.7954,26.12024 l 2.89564,2.99642 -6.64564,1.98908 c -15.60604,4.67098 -38.07322,12.72834 -51.21766,18.36809 -3.88962,1.66887 -7.34807,3.03432 -7.68546,3.03432 -0.33738,0 -3.73621,-2.31521 -7.55296,-5.14491 -31.42908,-23.3012 -67.84025,-41.4567 -91.31455,-45.53166 -13.95969,-2.42329 -22.17059,0.0448 -30.8864,9.28401 -10.37165,10.99449 -16.77452,28.8591 -20.61491,57.517558 -2.46475,18.392876 -1.47821,70.735151 1.66804,88.5000002 0.35693,2.0153889 -0.43127,3.1884444 -7.55911,11.25 -15.76224,17.8270108 -29.77481,36.1267228 -43.07211,56.2499998 -8.0799,12.227602 -7.40857,11.367945 -7.84428,10.044846 z M 404.11767,48.749447 C 391.00674,29.345415 375.69593,10.674619 357.38685,-8.2365254 l -7.74357,-7.9982136 0.86938,-8.826924 c 2.28205,-23.169982 2.12213,-56.986055 -0.36017,-76.159937 -5.15295,-39.8025 -18.71408,-62.47662 -38.77685,-64.8346 -19.16443,-2.2524 -62.01121,16.37045 -98.87021,42.97278 -4.74375,3.42372 -10.03416,7.27841 -11.75647,8.56597 l -3.13146,2.34103 -11.49354,-4.29313 c -12.83831,-4.79544 -34.11833,-11.80637 -46.95573,-15.47006 l -8.46221,-2.41505 2.08721,-2.20099 c 1.14796,-1.21054 6.31043,-6.02586 11.47214,-10.70071 47.12252,-42.67776 99.18085,-75.17179 157.20769,-98.12669 24.00625,-9.49666 37.97716,-13.125 52.78237,-13.70795 8.9024,-0.35053 10.64563,-0.21483 14.43655,1.12378 8.74462,3.08783 15.75265,9.16098 23.06759,19.99034 20.49854,30.34696 29.60698,80.74004 29.5502,163.488568 -0.0311,45.293623 -2.63068,77.9566551 -9.38772,117.953345 -2.48238,14.693844 -1.77174,14.212662 -7.80438,5.284414 z"
       id="path10"
       inkscape:label="white"
       sodipodi:nodetypes="ssssccssssssssscssssssssssssscssssssssssssscssssscsscsssssssss" /><path
       style="fill:#efc1d6"
       d="m -478.48731,-9.7555103 c -0.23544,-0.9530407 -1.0204,-7.6390517 -1.74435,-14.8578017 -1.85361,-18.483204 -1.85993,-60.047458 -0.0112,-73.875 3.82811,-28.632618 10.23872,-46.521438 20.61191,-57.517558 8.71581,-9.23922 16.92671,-11.7073 30.8864,-9.28401 23.42805,4.06693 57.79364,21.13076 90.4392,44.90653 l 8.3142,6.05524 -8.50526,3.91382 c -17.26865,7.94643 -40.10937,20.928345 -58.11507,33.030699 -25.62178,17.221426 -44.71683,32.986952 -68.60289,56.640886 -11.50216,11.3903742 -12.88957,12.5388663 -13.27292,10.9871947 z M 345.25543,-20.276544 c -20.39134,-18.478747 -35.16688,-30.00614 -57,-44.469524 -26.39383,-17.484637 -53.11072,-31.722371 -82.28504,-43.850632 l -8.41004,-3.49619 8.03504,-6.01099 c 39.67227,-29.67869 84.68478,-50.14177 105.51041,-47.96596 21.90665,2.28875 36.04418,28.83492 40.18542,75.456528 1.53762,17.310321 0.69603,59.323181 -1.42926,71.349933 l -0.48153,2.724933 z"
       id="path9"
       inkscape:label="light pink" /><path
       style="fill:#eaa1c0"
       d="m -423.11957,490.24719 c -20.04669,-3.23746 -35.82369,-10.92347 -42.3546,-20.63368 -2.20882,-3.28409 -2.64877,-4.65426 -2.89528,-9.01689 -0.37079,-6.56205 1.48998,-10.71539 7.32304,-16.34539 4.81697,-4.64929 15.88396,-10.3571 24.82954,-12.80587 19.4143,-5.31447 45.41603,-5.01925 64.0973,0.72775 7.1981,2.21438 17.23295,7.50767 21.7704,11.48368 7.80587,6.84001 10.30091,16.10077 6.38567,23.70148 -5.07951,9.86093 -18.86422,17.76691 -38.16234,21.88733 -9.61655,2.05327 -31.21412,2.58096 -40.99373,1.00159 z m 684,0 c -46.88702,-7.57208 -61.22382,-36.67529 -26.39767,-53.58639 12.79773,-6.2144 26.42208,-9.01197 43.92642,-9.01969 37.98772,-0.0168 67.09532,16.27189 63.0216,35.26694 -2.53792,11.83396 -16.92827,21.42441 -39.38649,26.24915 -9.82684,2.11111 -31.31734,2.68017 -41.16386,1.08999 z"
       id="path8"
       inkscape:label="pink" /><path
       style="fill:#41130d"
       d="M -84.494568,721.61633 C -191.28241,716.95271 -271.4742,704.72249 -343.09614,682.17646 c -117.16173,-36.8816 -197.56927,-100.15539 -237.37408,-186.7929 -2.62089,-5.70453 -5.55118,-12.39687 -6.51175,-14.87187 -0.96056,-2.475 -1.9735,-4.76277 -2.25096,-5.08392 -0.27746,-0.32116 -15.66547,2.67029 -34.19556,6.64766 -38.01095,8.15882 -40.68496,8.45084 -46.81797,5.11284 -8.80278,-4.79107 -12.16406,-14.47956 -8.66063,-24.96329 1.70276,-5.09539 6.95461,-10.6518 11.66252,-12.33887 1.85625,-0.66518 17.2125,-4.13124 34.125,-7.70234 16.9125,-3.57111 30.86177,-6.58875 30.99838,-6.70588 0.13661,-0.11713 -0.78016,-4.71369 -2.03726,-10.21458 -2.65866,-11.63387 -5.5963,-29.15927 -7.19625,-42.93145 -0.61849,-5.32391 -1.25472,-9.81002 -1.41385,-9.96915 -0.15912,-0.15912 -15.6032,-1.75048 -34.32017,-3.53635 -36.36221,-3.46947 -37.92677,-3.76964 -42.56019,-8.16518 -10.94297,-10.38116 -6.46447,-30.54097 7.69937,-34.65851 4.0489,-1.17705 5.25458,-1.12321 32.51739,1.45198 15.57192,1.47089 29.91571,2.87649 31.87508,3.12357 l 3.5625,0.44923 v -7.13572 c 0,-9.57099 1.23826,-27.24953 3.02972,-43.25504 5.34548,-47.75844 19.93193,-100.34132 40.7657,-146.95684 l 4.15481,-9.29636 -3.67291,-14.6859 c -24.42566,-97.664622 -30.11656,-198.209275 -16.0922,-284.3109 8.10157,-49.7391 21.49352,-81.44941 43.61608,-103.27696 10.26981,-10.13286 22.11041,-17.04646 35.8238,-20.91715 6.85196,-1.934 26.49875,-2.30272 36.86163,-0.69179 28.62924,4.45046 66.40986,18.20773 100.38837,36.55496 52.98639,28.61084 117.19835,75.4535 146.62542,106.96332 l 6.5442,7.00738 16.41519,-2.69026 c 40.62752,-6.65837 62.73001,-8.28632 112.790192,-8.30752 48.315511,-0.0205 76.7676001,1.62897 117.375,6.80444 11.074342,1.41144 45.629506,6.78829 51.330474,7.98711 0.230739,0.0485 7.338276,-6.82522 15.794526,-15.27499 17.371948,-17.35864 27.956398,-26.4288 50.624998,-43.38225 39.03505,-29.19361 69.75851,-48.56544 103.5,-65.25907 32.07494,-15.8691 59.90418,-25.62252 85.76203,-30.05734 12.90287,-2.21295 29.12124,-2.04317 38.77577,0.4059 25.78986,6.54214 48.42733,28.13101 62.02452,59.15146 21.4104,48.84538 30.37805,140.951306 22.24564,228.482758 -3.42456,36.859437 -9.83943,75.843172 -18.37383,111.659292 l -2.56972,10.7843 3.47945,7.5907 c 22.41349,48.89682 37.74487,105.92047 43.37805,161.34071 1.59462,15.6881 2.62781,32.22375 2.64149,42.27561 l 0.0116,8.52562 5.8125,-0.52066 c 3.19688,-0.28637 17.9625,-1.68213 32.8125,-3.1017 30.36452,-2.90265 32.42686,-2.82321 38.07818,1.46672 1.7445,1.32426 4.18432,4.25199 5.42182,6.50608 2.00536,3.65271 2.24902,4.79149 2.241,10.47333 -0.007,5.11957 -0.33445,6.98684 -1.66163,9.48191 -2.28575,4.29717 -7.28697,8.36681 -11.80923,9.60952 -2.07358,0.56982 -18.95764,2.42986 -37.52014,4.13342 -18.5625,1.70357 -34.11326,3.21681 -34.55725,3.36275 -0.44399,0.14595 -1.22183,4.08783 -1.72854,8.75974 -1.54476,14.24273 -5.77239,37.40388 -9.4322,51.67449 l -0.48646,1.89683 33.22723,7.02132 c 18.27497,3.86173 34.8328,7.6914 36.79518,8.51038 4.17875,1.74396 7.55351,5.32148 10.02337,10.62559 2.25492,4.84254 2.42981,12.80416 0.38036,17.31569 -3.02925,6.66843 -10.01853,11.12809 -17.34669,11.06843 -2.27247,-0.0185 -20.08252,-3.45495 -39.65743,-7.6519 -19.54283,-4.19007 -35.68427,-7.46647 -35.86985,-7.28089 -0.18558,0.18558 -2.45129,5.21387 -5.0349,11.17397 -25.04054,57.76565 -66.28313,105.84358 -123.8257,144.34795 -79.40141,53.13112 -179.59342,82.63193 -308.987118,90.97902 -16.3833967,1.05688 -91.569635,1.5336 -110.625,0.70142 z m 100.5,-40.45219 C 140.4116,673.41923 238.32033,645.45815 311.13043,596.88142 c 47.53679,-31.71512 82.21443,-70.03324 104.63509,-115.61973 3.24606,-6.6 6.11701,-12.8881 6.3799,-13.97355 0.55523,-2.29253 2.59758,-1.6621 -22.82275,-7.04493 -8.83177,-1.87016 -17.19065,-3.93787 -18.57529,-4.59493 -3.97149,-1.88459 -8.8199,-7.82261 -10.34428,-12.669 -3.01675,-9.59105 0.0262,-18.71584 7.79512,-23.37464 6.77026,-4.05994 8.12512,-4.00915 33.01981,1.23777 12.18932,2.56908 22.80785,4.7269 23.59674,4.79516 1.17409,0.1016 1.68239,-0.82843 2.80152,-5.12588 1.95076,-7.49089 5.69453,-27.16131 6.88739,-36.1875 0.94022,-7.11444 0.9216,-7.6875 -0.24973,-7.6875 -0.69613,0 -10.34619,0.86705 -21.4446,1.92678 -11.0984,1.05974 -21.61437,1.74105 -23.36882,1.51402 -4.64509,-0.60106 -8.51332,-2.84823 -12.46091,-7.2389 -9.69428,-10.78237 -6.39183,-26.88573 6.52537,-31.81886 2.20523,-0.84218 11.78305,-2.05482 28.71711,-3.63584 l 25.40833,-2.3722 -0.0949,-16.875 C 447.27372,271.5944 437.21493,217.47226 420.2927,171.55453 390.805,91.540962 341.21246,25.12924 274.96487,-23.060877 257.949,-35.43863 240.95343,-45.645089 219.25543,-56.516419 157.20609,-87.604943 85.346486,-106.96036 1.0054321,-115.30216 c -55.0725591,-5.44699 -115.1310921,-5.58765 -161.2500021,-0.37766 -92.17696,10.41309 -170.82934,39.565349 -233.625,86.592358 -27.59013,20.66196 -54.94714,47.045785 -76.57311,73.84915 -62.62368,77.616182 -99.24639,175.743262 -102.06598,273.476152 l -0.46812,16.22615 3.67861,0.47141 c 2.02323,0.25927 14.4786,1.4832 27.6786,2.71986 21.68776,2.03183 24.38055,2.43417 27.9499,4.17617 7.08039,3.45552 11.47657,11.69542 10.4062,19.50465 -1.22583,8.94337 -9.12548,17.40279 -17.47477,18.71304 -2.47525,0.38843 -41.66668,-2.71295 -47.76355,-3.77974 l -2.13221,-0.37308 0.48547,3.93269 c 2.37259,19.21969 8.40385,46.77255 10.18775,46.54116 0.60017,-0.0779 11.72246,-2.38487 24.71621,-5.12671 17.57023,-3.70752 24.52488,-4.88321 27.13621,-4.58736 6.45966,0.73182 12.44327,4.9312 15.3036,10.74027 2.09867,4.2622 1.92575,12.91143 -0.36056,18.03563 -1.84628,4.13797 -6.98184,9.47955 -10.34229,10.75719 -1.10083,0.41854 -11.23148,2.72368 -22.51253,5.12254 -11.28105,2.39886 -20.70707,4.55762 -20.9467,4.79725 -0.63457,0.63457 6.48362,16.05665 12.57417,27.24287 35.5557,65.30341 95.9691,112.34976 184.79751,143.90928 69.19365,24.58356 170.25553,40.59975 283.475592,44.92494 12.351343,0.47184 69.5670366,-0.24011 82.125,-1.02191 z M -119.07381,487.27048 c -11.7548,-2.23344 -26.86963,-9.16716 -33.19766,-15.22897 -4.16922,-3.99382 -5.69015,-7.74389 -5.69015,-14.02982 0,-10.77392 6.10943,-17.625 15.71705,-17.625 4.42563,0 7.35564,1.094 12.6098,4.70823 6.69534,4.60558 14.65538,7.44745 22.04838,7.87163 5.98643,0.34348 6.87924,0.20555 10.668188,-1.64822 4.363421,-2.13482 8.57035,-6.39684 11.035316,-11.17984 1.253501,-2.43227 4.388318,-13.01232 4.388318,-14.81063 0,-0.31288 -2.151671,-1.28491 -4.781491,-2.16005 -10.051769,-3.34502 -19.948241,-11.21931 -23.051731,-18.34149 -5.32882,-12.22909 1.54579,-24.79017 17.708222,-32.35591 10.564718,-4.94541 15.854689,-5.97091 30.375,-5.88842 11.191306,0.0636 13.01798,0.26498 19.097077,2.10546 13.345383,4.04041 23.967474,11.63316 27.524705,19.67487 2.278193,5.15023 2.132269,11.84473 -0.369471,16.95014 -3.595406,7.33731 -12.790035,14.55059 -22.788585,17.8779 l -4.849258,1.61373 0.508995,2.7288 c 1.842074,9.87563 8.276817,20.04107 14.917113,23.56566 6.640503,3.5247 20.6321508,1.50549 29.7094241,-4.28752 7.5408929,-4.81251 11.3789709,-6.41029 15.3749999,-6.40054 9.288266,0.0226 16.148156,7.1087 16.108529,16.63961 -0.04211,10.12841 -7.91466,18.53334 -23.233529,24.80468 -11.31835736,4.63358 -15.4600794,5.39515 -29.25,5.37838 -11.433139,-0.0139 -12.831659,-0.16891 -18.375,-2.03657 -8.143615,-2.74375 -14.638734,-6.73553 -20.436516,-12.5599 l -4.852741,-4.875 -5.914457,5.77448 c -6.440393,6.28797 -14.334603,10.79564 -22.796286,13.0169 -6.405804,1.68157 -21.155202,2.05675 -28.204242,0.71741 z m -235.86363,-61.45164 c -6.81686,-1.55076 -15.33141,-5.33752 -21.07552,-9.37313 -30.69508,-21.56527 -34.55594,-65.59852 -8.0521,-91.83461 22.95718,-22.72527 59.5592,-23.34551 82.88264,-1.40449 33.4706,31.48674 21.83207,85.7532 -21.64018,100.90071 -5.87249,2.04622 -7.62869,2.30542 -17.04697,2.51595 -7.04606,0.1575 -12.00258,-0.10712 -15.06787,-0.80443 z m 32.8819,-64.50222 c 7.23478,-2.58183 11.82348,-9.08585 11.7945,-16.7175 -0.0386,-10.15756 -7.28804,-17.40738 -17.44512,-17.44596 -9.45593,-0.0359 -16.42322,6.19249 -17.54767,15.68674 -1.45968,12.32467 11.50414,22.64995 23.19829,18.47672 z m 522.40156,64.03922 c -20.83539,-5.1229 -38.06827,-22.2177 -43.82028,-43.46915 -2.03935,-7.53459 -1.85857,-22.58151 0.36492,-30.375 2.5434,-8.91478 7.84724,-18.40419 13.93345,-24.92917 31.92367,-34.22511 87.40391,-21.4411 101.67823,23.42917 2.53512,7.96898 2.92579,21.88052 0.8574,30.53194 -5.4631,22.8504 -23.29502,40.50264 -45.71488,45.25427 -7.14851,1.51504 -20.19859,1.30371 -27.29884,-0.44206 z m 36.26252,-64.86687 c 3.18472,-1.60824 6.47677,-4.64543 7.81851,-7.21321 4.59484,-8.79345 1.74754,-19.07436 -6.61009,-23.86741 -5.00065,-2.86785 -11.96153,-3.17246 -16.69763,-0.7307 -10.62152,5.47607 -13.06548,19.23864 -4.96578,27.9635 5.06942,5.46068 13.95221,7.13163 20.45499,3.84782 z M -528.28514,56.949188 c 44.95373,-67.700612 102.99611,-121.174228 170.66849,-157.234458 24.48813,-13.04886 52.50936,-24.64883 80.08247,-33.15179 6.96554,-2.14802 12.9382,-4.14438 13.27259,-4.43635 1.3732,-1.19901 -27.09985,-25.85148 -47.85798,-41.43627 -25.36862,-19.04626 -51.00318,-34.77771 -80.25,-49.24792 -47.59679,-23.54907 -85.38676,-34.8303 -103.04116,-30.76031 -9.4042,2.16802 -18.8079,9.73681 -26.46166,21.29831 -16.23432,24.52297 -23.55326,53.70778 -28.40859,113.28129 -1.29641,15.90656 -1.76187,65.578504 -0.78714,83.999998 1.41465,26.735467 4.06004,52.930881 7.60791,75.335774 1.7804,11.243252 6.14221,35.289226 6.40128,35.289226 0.10075,0 4.04896,-5.821875 8.77379,-12.9375 z m 940.55212,-12.9375 c 9.91865,-61.348474 12.39751,-118.826552 7.61731,-176.624998 -4.05188,-48.99216 -11.01936,-77.46622 -24.52381,-100.22177 -8.13011,-13.69955 -15.82019,-21.38689 -25.17278,-25.1638 -6.39833,-2.58388 -20.3592,-2.39753 -32.64967,0.4358 -20.04917,4.62194 -47.85809,15.47275 -77.0326,30.05748 -43.96951,21.98094 -83.08152,49.10663 -120.61265,83.64954 -5.49322,5.05584 -9.71197,9.43664 -9.375,9.7351 0.33696,0.29847 4.66265,1.63817 9.61265,2.97713 18.31456,4.954 47.65755,15.2823 68.27414,24.03148 53.68981,22.784671 103.09001,54.887337 140.93405,91.585845 20.57025,19.9475889 41.22572,44.533561 55.5522,66.123161 2.40332,3.621732 4.60961,6.321732 4.90286,6 0.29325,-0.321732 1.40623,-5.984968 2.4733,-12.584968 z"
       id="path7"
       inkscape:label="brown" /></g></svg>
