<?xml version="1.0" encoding="UTF-8" standalone="no"?>
<svg
   width="1000"
   zoomAndPan="magnify"
   viewBox="0 0 750 749.999995"
   height="1000"
   preserveAspectRatio="xMidYMid meet"
   version="1.0"
   id="svg6"
   sodipodi:docname="chicken.svg"
   xml:space="preserve"
   inkscape:version="1.3.2 (091e20e, 2023-11-25, custom)"
   xmlns:inkscape="http://www.inkscape.org/namespaces/inkscape"
   xmlns:sodipodi="http://sodipodi.sourceforge.net/DTD/sodipodi-0.dtd"
   xmlns="http://www.w3.org/2000/svg"
   xmlns:svg="http://www.w3.org/2000/svg"><sodipodi:namedview
     id="namedview6"
     pagecolor="#ffffff"
     bordercolor="#000000"
     borderopacity="0.25"
     inkscape:showpageshadow="2"
     inkscape:pageopacity="0.0"
     inkscape:pagecheckerboard="0"
     inkscape:deskcolor="#d1d1d1"
     inkscape:zoom="1.2862272"
     inkscape:cx="-55.2002"
     inkscape:cy="580.37956"
     inkscape:window-width="3840"
     inkscape:window-height="2054"
     inkscape:window-x="3829"
     inkscape:window-y="-11"
     inkscape:window-maximized="1"
     inkscape:current-layer="svg6" /><defs
     id="defs3" /><g
     id="g7"
     transform="matrix(0.60452523,0,0,0.60452523,98.479214,53.728315)"><path
       id="path7-4"
       style="fill:#ffffff;stroke-width:0.526522"
       d="m -433.16307,55.050805 c -3.5746,0.0656 -7.0544,1.03982 -10.4596,2.04657 -3.0034,0.94703 -5.9225,2.1561 -8.7299,3.58233 -1.0216,0.53118 -2.2561,1.195 -3.3286,1.83689 -9.3865,5.56831 -17.1877,13.58428 -23.1467,22.68125 -6.39,9.80934 -10.2013,21.163505 -11.6721,32.745525 -0.9697,7.50549 -1.0647,15.10753 -0.5889,22.6543 0.1726,2.36053 0.4279,4.89934 0.774,7.3128 1.0839,7.7743 3.167,15.53622 5.7214,23.01192 4.3827,12.93928 11.0443,24.93214 17.7026,36.80698 3.2938,5.88304 6.7614,11.66713 10.074,17.53866 0.6941,1.40245 1.6234,2.74929 1.8999,4.31206 -0.1525,0.53161 -0.094,1.23507 -0.7939,1.32183 -2.1102,0.82153 -4.3791,1.16084 -6.5729,1.70185 -5.9139,1.30668 -11.9097,2.93989 -17.7472,4.66751 -8.8412,2.63184 -17.6067,5.54646 -26.1536,9.02561 -1.3053,0.54209 -2.7929,1.14461 -4.1121,1.71645 -25.6223,10.8884 -49.4793,25.95544 -70.1942,44.56595 -16.0707,14.44361 -30.291,30.94602 -42.18,48.98909 -1.5008,2.29057 -3.0714,4.73978 -4.5248,7.13929 -7.5061,12.28343 -14.0142,25.37369 -19.2112,38.86955 -2.072,5.3353 -3.9704,10.91083 -5.6683,16.44586 -3.597,11.69116 -6.312,23.84807 -7.8643,36.05493 -0.5616,4.25659 -0.9806,8.53081 -1.3174,12.81068 -0.026,0.5395 -0.094,1.42016 -0.1158,1.96772 -0.3189,7.98019 -0.2178,16.12089 -0.02,24.16613 0.1681,5.52157 0.3374,11.1292 1.1668,16.64019 2.185,16.42602 6.0346,32.68897 12.248,48.07557 5.2828,13.10783 12.3286,25.71305 20.8139,37.1074 9.4597,12.72776 20.992,23.84054 33.6998,33.29494 6.4192,4.78414 13.2581,9.26537 20.2119,13.35267 5.1599,3.12797 10.7202,5.7969 16.1985,8.43818 5.4053,2.61683 10.9178,5.00607 16.4901,7.14582 13.2787,5.13758 26.83,9.29219 40.6379,12.80422 15.7916,3.99768 31.9044,7.12283 48.0782,9.25322 4.7245,0.64849 9.4636,1.2711 14.1959,1.80277 1.3445,0.41957 1.4693,2.03038 1.4889,3.21715 0.039,1.4893 0.01,3.0512 0.1189,4.43072 0.4598,7.02711 2.7148,14.19519 7.5321,19.47194 2.7718,3.10659 6.5513,5.1859 10.5694,6.18786 4.4552,1.1791 9.2188,1.15473 13.6398,-0.16863 5.1308,-1.38268 9.7066,-4.58022 12.8468,-8.85774 4.0443,-5.39721 6.1355,-11.92505 7.8128,-18.37698 0.2693,-0.98242 0.5386,-1.96483 0.8077,-2.94729 1.8124,-0.13851 3.6249,-0.27472 5.4375,-0.41016 1.1847,4.51251 2.1861,9.01513 3.9845,13.35242 2.3884,5.95432 6.0998,11.67911 11.6896,15.06244 4.014,2.43068 8.7548,3.62568 13.4366,3.54493 4.7073,-0.19603 9.4273,-1.62632 13.2975,-4.34651 5.5856,-4.0556 8.888,-10.5781 10.2822,-17.21749 0.9101,-4.00863 0.9167,-8.13641 0.8741,-12.2243 0.066,-0.55061 -0.2961,-1.47927 0.5955,-1.29951 12.8321,-1.56429 25.6698,-3.14419 38.4002,-5.41501 10.8208,-1.90568 21.5695,-4.24375 32.1625,-7.16791 25.4871,-7.08582 50.4126,-17.50858 72.42948,-32.4164 14.78567,-9.99541 28.16845,-22.18974 38.88366,-36.49858 12.07517,-16.00239 20.66318,-34.46405 26.14585,-53.70258 1.63591,-5.69533 3.0544,-11.60973 4.22546,-17.5424 1.7295,-8.69842 2.97142,-17.65912 3.81099,-26.4961 0.59237,-6.87541 0.68695,-13.7003 0.73863,-20.59979 0.0178,-6.22172 -0.06,-12.41623 -0.39002,-18.59554 -0.27168,-4.79203 -0.9163,-9.58034 -1.55345,-14.24607 -2.75191,-19.66048 -7.9229,-38.99624 -15.59702,-57.31317 -6.12519,-14.6012 -13.54129,-28.6814 -22.34666,-41.84789 -2.79478,-4.17065 -5.74688,-8.26846 -8.76457,-12.20749 -4.31727,-5.63293 -8.81461,-11.13846 -13.74267,-16.25194 -6.19474,-6.50329 -12.541,-12.87848 -19.28128,-18.81938 -19.3113,-16.48194 -41.3633,-29.64857 -64.7872,-39.38859 -6.5977,-2.77785 -13.3359,-5.20014 -20.0876,-7.57212 4.9699,-3.67179 10.1092,-7.17435 14.4838,-11.57197 6.5636,-6.47718 12.058,-14.32834 14.604,-23.27374 0.6712,-2.44042 1.1291,-4.98563 1.2347,-7.43891 0.074,-1.47199 0.031,-3.19775 -0.1677,-4.75592 -0.891,-7.65048 -4.37,-15.17014 -10.3585,-20.14484 -4.298,-3.63248 -9.7949,-5.75257 -15.4038,-6.08252 -2.7758,-0.21666 -5.5818,-0.2221 -8.2894,0.008 -4.5255,0.46126 -8.9529,1.58615 -13.3532,2.70108 -2.7845,0.69128 -5.4907,1.62071 -8.1953,2.5408 -0.9229,0.3844 -1.9058,0.21242 -2.8691,0.14453 0.063,-0.95124 -0.049,-1.97605 0.602,-2.76147 2.6066,-4.07605 5.501,-7.96413 7.9905,-12.11751 2.1209,-3.44846 4.1126,-7.04821 5.7902,-10.65159 3.4526,-7.36817 5.7595,-15.45974 5.3603,-23.65962 -0.1,-4.11692 -1.2613,-8.14375 -3.0861,-11.8186 -0.5241,-1.09003 -1.0963,-2.17561 -1.6491,-3.09863 -0.8222,-1.37963 -1.7483,-2.69641 -2.7676,-3.9375 -0.4451,-0.52975 -1.0996,-1.29036 -1.6621,-1.87695 -4.4143,-4.751705 -9.938,-8.465145 -16.0484,-10.657515 -2.6584,-0.9623 -5.4078,-1.83567 -8.2675,-1.79729 -3.366,-0.0316 -6.7489,-0.18301 -10.1036,0.15049 -2.8963,0.49415 -5.6461,1.63021 -8.311,2.83609 -8.1355,3.791 -14.7379,10.210595 -20.0616,17.329135 -3.7744,5.03963 -7.0376,10.48533 -9.9735,15.98637 -1.1579,2.05187 -2.0795,4.26737 -3.5312,6.13514 -0.6033,0.75 -1.8813,0.97178 -2.5352,0.19336 -0.7665,-0.86493 -0.7204,-2.15012 -1.0684,-3.20899 -1.2774,-6.09163 -2.5396,-12.19437 -4.1481,-18.22351 -1.9121,-7.46579 -4.2545,-14.839355 -7.4085,-21.879995 -1.8938,-4.23432 -4.1532,-8.46496 -6.8029,-12.3405 -3.1012,-4.56133 -6.9123,-8.89869 -11.2265,-12.47351 -4.1538,-3.4826 -8.9993,-6.10125 -14.1405,-7.80123 -0.4332,-0.13762 -1.209,-0.39684 -1.7842,-0.56208 -1.1675,-0.36224 -2.4666,-0.67022 -3.558,-0.76911 -4.1466,-0.32631 -8.3133,-0.3218 -12.4707,-0.35751 -0.3319,0.004 -0.6638,0.007 -0.9957,0.011 z"
       transform="matrix(1.8992566,0,0,1.8992566,1187.4117,-187.9648)"
       inkscape:label="white" /><path
       style="fill:#eaa1c0"
       d="m 89.299683,764.38715 c -21.03564,-2.60406 -39.769123,-12.16673 -44.737991,-22.8369 -7.607802,-16.33702 9.800282,-31.71956 42.112991,-37.21286 2.8875,-0.49088 10.9875,-0.86375 17.999997,-0.82859 14.53549,0.0729 25.24905,1.88065 36.10833,6.09281 16.59675,6.43763 25.98118,17.54815 23.5128,27.83751 -2.83291,11.8089 -16.49277,20.93166 -38.23744,25.53694 -8.29466,1.75671 -27.89017,2.50894 -36.758687,1.41109 z m 712.124997,-0.0232 c -28.05887,-3.87241 -46.90717,-16.19341 -46.86767,-30.63704 0.0193,-7.05793 7.14436,-15.7673 17.12055,-20.92745 12.4709,-6.45053 26.1004,-9.34563 43.99712,-9.34563 22.3072,0 40.4473,5.12333 52.28625,14.76727 4.83358,3.93741 8.83875,10.93299 8.83875,15.4381 0,13.02877 -14.81113,24.20141 -38.81709,29.28131 -8.51172,1.80116 -28.25177,2.56977 -36.55791,1.42344 z"
       id="path10"
       inkscape:label="pink" /><path
       id="path9"
       style="fill:#eec016"
       d="m 461.7168,734.69727 c -11.00502,0.12231 -22.00167,1.22157 -32.79095,3.40781 -11.921,2.41692 -23.73304,5.49268 -35.14426,9.7316 -21.50765,7.9374 -41.83551,19.21092 -59.67417,33.63793 -9.66288,7.87004 -18.62171,16.67532 -26.19854,26.58788 -3.54795,4.85183 -6.65559,10.09269 -8.69389,15.76497 -0.6801,2.13933 -1.3846,4.41638 -1.01916,6.67978 0.47922,2.34523 2.4552,3.92964 4.11866,5.4781 4.11264,3.44958 9.4015,4.90671 14.42579,6.47654 13.41186,3.94087 27.22688,6.33344 41.07298,8.13025 11.617,1.46526 23.29481,2.47562 34.9941,2.96164 13.51053,0.29125 27.02652,0.24467 40.53991,0.27328 34.62732,-0.0275 69.25648,-0.18122 103.88031,-0.6363 9.67708,-0.14226 19.3568,-0.28153 29.02191,-0.81358 9.96181,-0.47147 19.91297,-1.33111 29.76596,-2.9004 8.82799,-1.40235 17.68953,-2.8374 26.27301,-5.3868 4.20566,-1.32331 8.5295,-2.85999 11.85767,-5.85815 2.41094,-2.11741 3.77713,-5.38308 3.40465,-8.5912 -0.50714,-3.84424 -2.43481,-7.30727 -4.32696,-10.62669 -4.76266,-7.91848 -10.64099,-15.11239 -16.90952,-21.87901 -12.05582,-12.91374 -26.35773,-23.58502 -41.60549,-32.43795 -16.01901,-9.25231 -32.9144,-17.15733 -50.71453,-22.31679 -17.1495,-5.03413 -35.01742,-7.41169 -52.87112,-7.6445 -3.13488,-0.0688 -6.27088,-0.0702 -9.40636,-0.0384 z"
       inkscape:label="yellow" /><path
       id="path8"
       style="fill:#e24b4b"
       d="m 372.50977,-49.533203 c -8.10278,0.01212 -16.05373,2.135565 -23.56799,5.034564 -12.69962,5.027867 -23.69693,13.732076 -32.50833,24.076517 -12.13161,14.2548213 -20.87192,31.350339 -25.44325,49.496264 -4.86059,19.149992 -5.15871,39.259352 -2.26112,58.741874 3.23188,21.847854 10.30017,42.976184 19.39263,63.049994 4.20701,9.72603 9.50199,18.92093 14.60368,28.19262 9.7822,17.54629 19.45681,35.15872 29.67808,52.4551 8.32338,14.03271 17.1367,27.80198 27.03558,40.78343 7.80108,10.24331 16.00194,20.21515 25.03419,29.40423 3.70445,3.65894 7.46847,7.35259 11.91738,10.1072 1.99821,1.09139 4.12202,2.0916 6.38849,2.43763 1.85522,0.22962 3.26834,-1.2647 4.56605,-2.36255 3.77804,-3.41082 7.12218,-7.2582 10.58257,-10.98133 1.35168,-1.44752 2.83762,-3.04533 4.25196,-4.54164 4.35193,-4.58722 8.847,-9.21362 13.34765,-13.54429 6.31396,-6.07438 12.90089,-11.89485 20.03125,-17 0.44879,-0.31785 1.16973,-0.83124 1.73442,-1.21668 3.56584,-2.47241 7.28166,-4.72182 11.07613,-6.82434 0.42447,-0.22301 1.15706,-0.62789 1.70189,-0.91744 7.21588,-3.84986 14.8684,-6.88936 22.7903,-8.93412 0.38508,-0.0914 1.1646,-0.29228 1.70066,-0.42558 1.163,-0.28159 2.54496,-0.5925 3.58645,-0.81075 8.47852,-1.7709 17.11344,-2.67172 25.75,-3.21289 0.42793,-0.0179 1.26538,-0.0684 1.73886,-0.0909 1.47223,-0.0723 2.94564,-0.11588 4.41934,-0.1435 0.84586,-0.0111 2.13064,-0.0154 2.97656,-0.0117 1.48266,0.0133 3.1606,0.0602 4.51953,0.125 1.26189,0.0654 2.33169,0.12314 3.61561,0.22529 3.87658,0.29712 7.76384,0.77737 11.54301,1.34999 14.54101,2.24519 28.87493,5.60908 43.26461,8.63881 0.7675,0.13774 1.54241,0.49666 2.28993,0.0918 4.65513,-1.35411 9.34482,-2.64115 13.80797,-4.56131 11.0564,-4.64079 21.30547,-11.06356 30.73269,-18.44172 8.02663,-6.37555 15.57353,-13.50418 21.53915,-21.88098 3.53583,-5.15376 6.85423,-10.738 7.75756,-17.02718 0.47943,-3.43379 0.52212,-6.93941 0.12704,-10.38353 -0.4944,-3.57147 -2.40917,-6.73556 -4.36897,-9.68695 -2.47916,-3.6121 -6.085,-6.52128 -10.33371,-7.7341 -5.621,-1.64965 -11.57944,-1.10635 -17.30338,-0.37353 -5.58914,0.74614 -10.96664,2.53272 -16.32515,4.22221 -12.8195,4.17723 -25.37914,9.11295 -37.77789,14.39955 -3.07563,1.29538 -6.11238,2.55678 -9.16823,3.77886 -2.61598,1.05118 -5.46296,2.14972 -8.23,3.07851 -3.81039,1.32675 -7.81385,2.13196 -11.85839,2.12628 -4.30177,0.0143 -8.7586,0.12544 -12.84785,-1.41238 -3.16027,-1.25713 -5.70509,-3.6887 -7.8028,-6.30482 -2.19936,-2.8038 -2.36963,-6.52539 -2.42777,-9.93876 -0.0149,-1.24559 -0.006,-2.60375 0.005,-3.72456 -0.0256,-2.12013 0.3146,-4.25609 1.26697,-6.16804 1.63818,-3.63537 3.55838,-7.13912 5.78699,-10.44693 6.48289,-9.7852 13.61783,-19.11479 20.59068,-28.55099 8.11187,-11.03604 16.23854,-22.10465 23.20681,-33.913502 4.61925,-7.826714 8.4283,-16.138734 11.17186,-24.807291 1.28166,-3.770803 2.24156,-7.684033 2.33009,-11.683597 0.0802,-3.601936 0.21381,-7.223454 -0.1513,-10.813592 -0.37667,-3.613963 -2.38535,-6.786882 -4.49618,-9.643528 -4.21868,-5.525807 -10.21217,-9.328521 -16.27814,-12.538726 -4.50101,-2.378566 -9.51817,-3.798036 -14.61829,-3.922789 -6.82254,-0.365724 -13.73834,1.14788 -19.73414,4.438745 -7.93165,4.28003 -14.26283,10.945885 -19.69655,18.028574 -3.67917,4.798818 -6.96646,9.88953 -9.86263,15.196885 -6.18328,11.187352 -11.76617,22.702257 -16.92451,34.394844 -3.81151,8.673649 -7.09085,17.566297 -10.60402,26.362307 -2.67077,6.67175 -5.10008,13.38874 -8.17073,19.90178 -1.81771,3.90179 -4.16126,7.66089 -7.54064,10.40058 -2.75284,2.1885 -6.09042,3.69371 -9.57171,4.2242 -2.6296,0.27224 -5.19376,-0.68358 -7.6136,-1.59773 -2.20094,-0.87396 -4.33209,-2.08075 -5.818,-3.97024 -2.79358,-3.37399 -3.95422,-7.71314 -5.08802,-11.85587 -0.51412,-2.00628 -0.98521,-4.06338 -1.39244,-6.00767 -1.25623,-5.95637 -2.31734,-12.16511 -3.34564,-18.2493 -2.7074,-16.514898 -5.20691,-33.066208 -8.33956,-49.508261 -3.1829,-16.77457 -6.96629,-33.521186 -13.10713,-49.4915574 -4.81994,-12.5742596 -10.7003,-24.9105716 -19.0461,-35.5566946 -6.47355,-8.26911 -14.70413,-15.384245 -24.46787,-19.44705 -6.24092,-2.602594 -12.99874,-4.071182 -19.76805,-4.10275 z M 464.9707,944.32812 c -2.71595,0.16783 -5.08611,1.71559 -7.32788,3.12324 -5.9607,3.99549 -11.29443,8.84236 -16.44087,13.82134 -6.92039,6.77838 -13.39801,14.05483 -18.83534,22.0885 -8.47585,12.35011 -15.86056,25.4223 -22.56898,38.8056 -5.31833,10.7462 -10.28007,21.7096 -14.0287,33.1124 -3.66738,11.4144 -5.71491,23.4642 -5.02946,35.4729 0.47833,7.3867 1.99894,14.8746 5.66678,21.3768 2.39367,4.2202 6.35956,7.58 11.05295,8.9242 5.83958,1.6985 12.38423,1.2178 17.73573,-1.7625 6.0871,-3.3153 10.47305,-9.0044 13.73715,-14.9929 4.34779,-8.0657 7.03562,-16.9139 9.01413,-25.8266 3.0581,-15.1357 5.03005,-30.4627 7.84703,-45.6422 1.03552,-5.549 2.22071,-11.0767 3.80051,-16.4988 0.15563,-0.5002 0.39488,-1.3331 0.59074,-1.9625 1.27337,-3.9256 2.38392,-7.9578 4.39119,-11.5885 1.53881,-2.6113 3.91762,-4.68154 6.55746,-6.13188 2.34213,-1.30053 5.29949,-1.44545 7.68781,-0.1789 3.96735,1.97693 6.75232,5.72668 8.4157,9.75298 0.62918,1.4437 1.15428,2.93 1.6403,4.4271 0.089,0.3165 0.34654,1.1003 0.48887,1.6044 2.53441,8.8672 4.03799,17.9845 5.56252,27.0673 2.66763,16.0296 4.50567,32.2371 8.55348,48.0036 1.91254,7.3229 4.43446,14.5418 8.1254,21.1698 3.3478,5.5118 8.3067,10.0443 14.08095,12.9113 2.28741,1.1473 4.78299,1.9647 7.36729,1.929 3.85944,0.017 7.79813,-0.6519 11.27882,-2.3681 5.09403,-2.7334 9.1958,-7.2361 11.43071,-12.5697 2.87918,-6.7528 3.41673,-14.2121 3.44848,-21.471 -0.0342,-14.8609 -3.49317,-29.5197 -8.50644,-43.4426 -7.39555,-20.2708 -18.26491,-39.1433 -31.03406,-56.48783 -7.62486,-10.3721 -15.68498,-20.47275 -24.76749,-29.6154 -4.172,-4.10598 -8.50774,-8.1645 -13.6086,-11.09987 -1.94032,-1.06222 -4.07459,-1.97943 -6.32618,-1.95118 z"
       inkscape:label="red" /><path
       style="fill:#41130d"
       d="m 519.79968,1147.9534 c -25.25215,-2.5742 -41.43871,-19.5242 -49.90143,-52.255 l -2.09419,-8.0997 -2.97221,0.2247 -2.9722,0.2246 -2.46655,9 c -8.39805,30.6429 -23.0452,46.2245 -46.94963,49.9451 -11.22462,1.747 -24.8042,-1.1117 -33.8721,-7.1306 -14.36875,-9.5374 -23.00845,-28.6333 -23.01867,-50.877 -0.002,-5.2721 -0.21978,-6.5625 -1.1054,-6.5625 -2.13644,0 -30.92266,-3.7929 -43.14762,-5.6852 -60.44953,-9.3569 -121.04003,-25.9668 -167.94667,-46.0398 -10.2443,-4.384 -32.46313,-15.1888 -39.80333,-19.356 -53.277288,-30.24722 -91.395411,-64.24539 -119.595311,-106.66903 -30.027647,-45.17327 -47.490754,-95.07896 -54.850298,-156.75 -1.635085,-13.70158 -2.29954,-59.17356 -1.095227,-74.95192 2.837783,-37.17936 9.378738,-69.41495 21.391502,-105.42308 C -29.495278,504.28784 6.1579604,445.09675 53.398074,394.89216 102.62263,342.5786 162.58083,302.25152 230.67468,275.65828 c 22.90027,-8.94342 55.98948,-18.98546 78.75,-23.89933 5.3625,-1.15774 10.03243,-2.34375 10.37761,-2.63558 0.34519,-0.29184 -2.4029,-5.71569 -6.10685,-12.05301 -30.83698,-52.76078 -42.20102,-75.21261 -50.4021,-99.57895 -9.67899,-28.75736 -13.2742,-51.7373 -12.54357,-80.176209 1.11382,-43.35418 14.98893,-78.414997 42.16339,-106.542069 17.02246,-17.619184 37.36802,-29.443392 59.07699,-34.333703 7.83829,-1.765707 9.43715,-1.872487 23.79374,-1.589059 14.16098,0.279566 15.92983,0.46839 22.13667,2.363081 15.15066,4.624867 26.78697,11.707271 38.25412,23.283251 15.22975,15.37429 26.37622,34.969003 35.59264,62.5693543 3.8242,11.4523227 8.92213,31.2161757 12.02189,46.6069177 1.28773,6.39375 2.59981,12.276265 2.91574,13.072256 0.45593,1.148751 1.66806,-0.642941 5.87682,-8.686741 21.42591,-40.949289 42.85177,-62.5367883 70.71791,-71.251402 4.98324,-1.558413 7.03689,-1.753836 18,-1.712855 11.2363,0.042 12.98227,0.232469 18.97454,2.069947 12.79224,3.922632 23.35323,10.0138163 32.61629,18.81187 7.20427,6.8426055 11.65557,12.841271 15.63641,21.071925 4.68468,9.685875 6.35743,16.865457 6.37805,27.375 0.0449,22.883165 -9.6396,46.875173 -31.74761,78.650486 -3.26244,4.68902 -5.8183,8.63889 -5.6797,8.77749 0.13861,0.13861 2.60214,-0.60591 5.47452,-1.65447 8.50265,-3.10389 27.13508,-7.58761 35.5975,-8.5662 8.97773,-1.03818 20.53531,-0.55393 27.62373,1.15739 22.92972,5.5358 39.15872,25.20173 42.22034,51.16161 3.24541,27.51826 -14.7549,59.67366 -46.41529,82.91539 l -7.69623,5.64976 5.82123,2.0682 c 57.0683,20.27555 106.35682,48.08855 149.44622,84.33093 13.45213,11.31456 40.22119,38.23175 51.47457,51.75941 23.25742,27.95772 40.64599,54.11077 56.59769,85.125 26.88404,52.26954 42.20692,103.99797 48.4316,163.5 1.85688,17.75008 1.85273,63.07779 -0.008,82.875 -9.40107,100.04423 -42.73597,173.88215 -103.18571,228.55981 -41.13884,37.21072 -96.47661,66.95352 -161.31055,86.70072 -36.84124,11.2212 -76.36714,19.115 -127.31185,25.4258 l -19.68686,2.4387 -6.4e-4,6.8392 c -0.002,25.3205 -11.07502,46.5537 -28.63545,54.9121 -8.325,3.9625 -17.83455,5.7483 -26.1152,4.9041 z m 13.6878,-29.7674 c 9.17342,-5.4087 12.94708,-14.6801 12.87734,-31.638 -0.11319,-27.5289 -13.13518,-61.4992 -35.84325,-93.50393 -19.19614,-27.05502 -37.82356,-45.8711 -45.4112,-45.8711 -5.62136,0 -26.7053,18.97877 -37.56069,33.81038 -15.6373,21.36505 -33.98468,57.29685 -40.11195,78.55575 -5.5767,19.3486 -5.29238,37.9856 0.76177,49.9328 3.30745,6.527 8.64191,9.7011 16.30384,9.7011 13.77782,0 24.38976,-14.0036 30.40681,-40.125 0.85517,-3.7125 2.93341,-15.4904 4.61831,-26.1731 3.58171,-22.7089 5.3288,-31.194 8.43201,-40.9519 2.99099,-9.4051 4.41167,-12.05319 8.21103,-15.3053 6.1034,-5.22428 12.11491,-5.18727 17.97912,0.11069 6.89082,6.22541 9.9957,17.39711 15.99404,57.54811 4.08287,27.3294 7.31015,39.9396 13.15248,51.3915 3.23325,6.3377 9.97635,12.2005 16.50254,14.3483 3.376,1.111 10.26052,0.1904 13.6878,-1.8303 z m 50.20711,-77.0431 c 80.21535,-8.4763 153.59679,-28.4316 204.60509,-55.64026 59.58597,-31.7841 99.92597,-71.71181 125.99238,-124.70467 19.35148,-39.34144 30.15731,-81.12749 33.79942,-130.702 1.15577,-15.73186 0.51837,-56.45665 -1.12376,-71.798 -13.1889,-123.21591 -81.24202,-235.51406 -184.16804,-303.9057 -50.17948,-33.34295 -109.55339,-56.33626 -177.75,-68.83596 -33.15471,-6.0769 -43.98136,-6.70556 -59.625,-3.46215 -19.17728,3.97604 -31.8566,12.60539 -53.82415,36.63191 -16.00041,17.50011 -23.44596,24.30076 -30.43498,27.79888 -10.12034,5.06539 -19.44636,5.75299 -30.74397,2.26673 -18.7262,-5.77859 -33.86197,-19.6018 -59.50732,-54.3469 -3.76393,-5.09949 -7.27593,-9.27181 -7.80444,-9.27181 -0.52851,0 -5.28638,0.87118 -10.57303,1.93595 -119.41542,24.0511 -215.50055,82.55185 -283.224232,172.43905 -36.54874,48.50983 -62.656974,105.19807 -74.265009,161.25 -6.234873,30.10645 -7.624021,44.53525 -7.617843,79.125 0.0051,28.51656 0.294828,33.18709 3.442923,55.5 7.945343,56.31462 29.64388545,108.17636 62.381492,149.09817 8.768613,10.96071 26.909609,29.37576 37.295562,37.85898 63.987967,52.26523 149.787667,83.31978 265.499997,96.09588 25.86657,2.856 28.5,3.0322 28.5,1.9075 0,-0.5311 1.8988,-5.7176 4.21956,-11.5256 15.39183,-38.51985 39.47185,-73.43341 65.90544,-95.55611 13.09857,-10.9624 20.39122,-14.37882 30.69288,-14.37882 15.8948,0 29.41671,9.42581 51.10628,35.625 24.93575,30.12032 41.11355,57.79643 50.96454,87.18753 0.39223,1.1702 -0.8575,1.2158 16.25621,-0.5926 z m -138.14491,-150.46 c -32.59974,-0.43211 -78.67749,-2.8313 -99.75,-5.1938 -47.24867,-5.2972 -74.10564,-19.48083 -82.12563,-43.37197 -3.47124,-10.34063 -2.28053,-23.44659 3.31266,-36.46196 10.27787,-23.91663 40.06628,-53.52999 73.81905,-73.38526 39.44531,-23.20393 88.99667,-35.87489 134.36892,-34.35997 77.0838,2.57374 147.8689,39.05088 184.66704,95.16304 11.20573,17.08722 15.37657,32.73842 12.69594,47.64197 -2.0261,11.26454 -6.86844,19.26233 -16.10816,26.60479 -12.88483,10.23911 -29.83302,16.15922 -54.12982,18.90791 -24.43936,2.76482 -107.07867,5.11365 -156.75,4.45525 z m 117.75,-40.83217 c 16.75766,-0.84924 33.61449,-2.85671 46.76625,-5.56936 13.6013,-2.80536 18.06855,-4.4858 22.03933,-8.29048 3.13413,-3.00302 3.36509,-3.47565 2.9496,-6.03601 -1.67209,-10.3039 -21.47252,-34.30801 -39.89694,-48.36715 -30.34529,-23.15562 -66.1591,-38.13611 -103.10824,-43.12893 -12.27167,-1.65824 -35.23766,-1.66422 -48.0789,-0.0125 -35.12008,4.51727 -66.30152,16.00286 -94.0461,34.64159 -29.51789,19.83003 -53.2112,48.75778 -48.07314,58.69369 3.95316,7.64456 42.96069,16.31156 84.82314,18.84665 13.60089,0.82364 157.53304,0.19009 176.625,-0.77746 z M 211.60607,685.6545 c -11.97092,-2.51808 -21.07918,-7.4456 -29.71651,-16.07648 -5.4592,-5.45513 -7.4726,-8.11887 -10.30323,-13.63124 -4.49276,-8.74923 -6.52447,-17.07054 -6.53139,-26.75075 -0.007,-9.78443 1.58949,-16.54157 6.1383,-25.98045 3.29297,-6.83299 4.60243,-8.65128 10.26226,-14.25 12.70623,-12.56906 26.01693,-17.82491 43.21918,-17.06547 9.73371,0.42971 15.09486,1.76452 23.25,5.78874 11.35596,5.60369 20.28894,14.54222 25.84306,25.85912 4.51061,9.19066 5.60694,14.17671 5.60694,25.5 0,11.3233 -1.09633,16.30935 -5.60694,25.5 -6.95142,14.16399 -19.41341,24.76309 -34.84306,29.63453 -5.92248,1.86985 -21.4498,2.7065 -27.31861,1.472 z m 33.8234,-64.22145 c 1.94809,-1.40566 4.0696,-3.90839 5.30771,-6.26148 7.75916,-14.74666 -7.96849,-30.38939 -22.77655,-22.65357 -5.81487,3.03773 -8.40967,7.03793 -8.77651,13.53009 -0.43785,7.74889 2.59739,13.30919 9.0543,16.58669 2.57388,1.30649 4.22023,1.57145 8.56605,1.3786 4.6236,-0.20517 5.83594,-0.56787 8.625,-2.58033 z m 440.9266,64.22145 c -14.0378,-2.95285 -27.59238,-11.46209 -35.57031,-22.3302 -3.97863,-5.41999 -7.72968,-13.45192 -9.53516,-20.4172 -1.41625,-5.46364 -1.58162,-7.62033 -1.23334,-16.0844 0.46078,-11.19803 1.60018,-15.56043 6.58078,-25.19566 2.50544,-4.8469 4.77312,-7.82199 9.68335,-12.70407 12.57779,-12.50569 25.94999,-17.7819 43.14329,-17.02286 9.74899,0.43039 15.09131,1.76351 23.31198,5.81726 14.51413,7.15717 25.65966,20.7731 30.04592,36.7056 1.85753,6.74724 1.86343,22.46572 0.011,29.25 -5.23893,19.18663 -20.00122,34.47372 -39.11888,40.50953 -5.92248,1.86985 -21.4498,2.7065 -27.31861,1.472 z m 33.80635,-64.29075 c 2.35827,-1.62952 4.11915,-3.67704 5.4375,-6.32263 7.42013,-14.89025 -8.15778,-30.21895 -22.88929,-22.52312 -5.81487,3.03773 -8.40967,7.03793 -8.77651,13.53009 -0.43785,7.74889 2.59739,13.30919 9.0543,16.58669 2.55859,1.29873 4.22047,1.57021 8.43626,1.37813 4.47076,-0.2037 5.76768,-0.59691 8.73774,-2.64916 z M 431.79226,303.36047 c 22.04356,-24.12367 35.77305,-36.48392 50.18915,-45.1838 17.94614,-10.8302 33.56994,-15.46186 58.44057,-17.32463 17.88861,-1.33982 29.55703,-0.0705 60.60002,6.5923 l 16.34731,3.50865 5.77769,-1.69103 c 21.16972,-6.196 48.47313,-26.12325 59.99142,-43.78442 4.94033,-7.57508 6.50682,-12.22589 6.50217,-19.30457 -0.003,-4.64187 -0.35178,-6.28041 -1.99528,-9.375 -4.36728,-8.22328 -9.43497,-11.18366 -18.97063,-11.08204 -3.3,0.0352 -8.53125,0.61106 -11.625,1.27975 -8.79358,1.90067 -28.1948,8.70163 -44.66384,15.6566 -24.86714,10.50152 -27.77828,11.38678 -37.46116,11.39159 -9.30509,0.005 -13.57481,-1.36303 -18.25322,-5.84681 -4.59556,-4.40438 -5.74238,-7.51752 -5.7447,-15.59454 -0.002,-7.07566 0.0566,-7.31288 3.52514,-14.25 2.47677,-4.95362 8.73079,-14.02077 21,-30.44597 23.97839,-32.100708 31.79391,-45.077724 37.40544,-62.108576 2.13733,-6.486738 2.47769,-8.563926 2.51927,-15.375 0.0417,-6.830238 -0.18011,-8.302364 -1.67191,-11.096296 -2.61462,-4.896822 -6.51815,-8.806023 -12.54283,-12.56104 -8.15918,-5.085392 -13.02439,-6.656581 -20.61219,-6.656581 -14.61736,0 -26.95517,8.68641 -39.86079,28.063917 -6.57736,9.875759 -19.23167,35.441563 -25.70752,51.937496 -2.71243,6.90938 -7.15774,18.21563 -9.87848,25.125 -5.57192,14.15005 -7.97833,18.39382 -12.87342,22.70265 -3.31563,2.91853 -8.963,5.23485 -12.76298,5.23485 -3.53403,0 -10.05733,-2.4192 -12.64157,-4.6882 -6.14546,-5.39578 -8.27856,-13.11223 -14.50513,-52.471834 C 444.8967,49.08985 440.24172,28.706211 432.35087,8.5713502 421.16659,-19.967277 407.1932,-36.852942 389.13663,-43.649414 c -11.0934,-4.175546 -22.35848,-3.993817 -35.83695,0.578125 -16.63873,5.643911 -31.30695,17.814557 -43.24916,35.8850661 C 283.123,33.559503 282.93386,87.016001 309.50509,146.96636 c 5.51634,12.44601 5.53257,12.47676 25.4975,48.29242 28.08871,50.38917 41.51754,70.80934 61.63124,93.71782 13.06887,14.88477 22.00684,22.44364 26.541,22.44578 0.68757,3.3e-4 4.56542,-3.62753 8.61743,-8.06191 z"
       id="path7"
       inkscape:label="brown" /></g></svg>
