<?xml version="1.0" encoding="UTF-8" standalone="no"?>
<svg
   width="1000"
   zoomAndPan="magnify"
   viewBox="0 0 750 749.999995"
   height="1000"
   preserveAspectRatio="xMidYMid meet"
   version="1.0"
   id="svg6"
   sodipodi:docname="cow.svg"
   xml:space="preserve"
   inkscape:version="1.3.2 (091e20e, 2023-11-25, custom)"
   xmlns:inkscape="http://www.inkscape.org/namespaces/inkscape"
   xmlns:sodipodi="http://sodipodi.sourceforge.net/DTD/sodipodi-0.dtd"
   xmlns="http://www.w3.org/2000/svg"
   xmlns:svg="http://www.w3.org/2000/svg"><sodipodi:namedview
     id="namedview6"
     pagecolor="#ffffff"
     bordercolor="#000000"
     borderopacity="0.25"
     inkscape:showpageshadow="2"
     inkscape:pageopacity="0.0"
     inkscape:pagecheckerboard="0"
     inkscape:deskcolor="#d1d1d1"
     inkscape:zoom="1.819"
     inkscape:cx="223.47444"
     inkscape:cy="572.56734"
     inkscape:window-width="3840"
     inkscape:window-height="2054"
     inkscape:window-x="-11"
     inkscape:window-y="-11"
     inkscape:window-maximized="1"
     inkscape:current-layer="g7" /><defs
     id="defs3" /><g
     id="g7"
     transform="matrix(0.94424834,0,0,0.94444378,426.60722,16.741137)"><path
       id="path7-4"
       style="fill:#ffffff;stroke-width:1"
       inkscape:label="white"
       d="m -181.95511,155.98148 c -37.05603,-25.88385 -70.16128,-67.496486 -98.35669,-102.495334 -1.75098,58.718534 -12.77884,93.275934 31.56179,132.398504 57.96754,47.14236 140.61946,36.12165 66.7949,-29.90317 z m 312.07914,36.03655 c 21.40271,-10.54146 7.60587,-2.07607 19.91292,-21.57329 18.76841,-33.33528 30.16891,-75.627362 28.84468,-113.903258 -37.14977,49.411158 -51.941,60.847158 -105.698692,93.882258 -5.79523,10.77769 -3.7237,48.40557 56.941092,41.59429 z m 22.41631,335.74846 A 203.48304,192.30845 0 0 1 -50.942697,720.07494 203.48304,192.30845 0 0 1 -254.42575,527.76649 203.48304,192.30845 0 0 1 -50.942697,335.45804 203.48304,192.30845 0 0 1 152.54034,527.76649 Z" /><path
       style="fill:#f4f0d0"
       d="m -167.43868,692.9198 c -53.21285,-12.97775 -113.88367,-47.24476 -122.35679,-105.96819 -9.32127,-45.1741 18.42413,-88.38123 16.32043,-133.49372 2.54614,-61.54916 -0.99977,-128.8015 36.85633,-181.40542 11.04443,-13.84066 11.53968,-45.72377 32.87426,-36.89867 31.26027,-3.89793 72.28786,-15.49549 84.88922,-46.56416 4.31085,-17.29728 38.735031,-7.14599 53.110613,-11.68716 25.752235,3.96757 77.662866,-18.15701 87.631304,10.56659 18.432897,30.43428 52.085016,57.63558 86.211153,57.01412 42.23471,61.89101 53.11929,139.27177 56.17678,212.03167 2.40176,42.70876 24.00358,84.01384 17.33564,127.51514 -6.99783,65.04642 -73.82016,106.82705 -133.874143,118.64094 -15.848402,6.3388 -44.4210216,7.2624 -23.962494,-15.68142 14.83876,-26.09973 38.459009,-55.18611 27.458672,-86.92786 -18.05788,-30.41598 -58.9245566,-30.37227 -90.342759,-32.4045 -44.047823,-2.48145 -99.349186,7.02744 -119.431946,51.91937 -11.44074,22.89002 -8.67782,49.07477 -8.89627,73.34327 z m -19.6089,-242.59281 c -38.0592,4.7512 21.02858,44.61509 12.5321,7.37132 -3.12117,-3.9848 -7.86562,-5.97219 -12.5321,-7.37132 z M 89.314658,500.22826 C 124.85039,489.68858 106.03299,432.7278 71.573834,444.2491 c -26.741082,5.9884 -28.506575,47.65231 -2.221162,55.90422 6.31113,2.19534 13.641796,2.22034 19.961986,0.0749 z M -251.50444,270.92774 c -41.79646,-8.56516 -96.42564,-36.30543 -128.07311,-65.60221 6.79992,-14.59424 50.32258,-15.92217 66.92641,-20.92522 32.86533,-6.64634 61.81646,4.17295 77.07049,35.02234 19.90929,9.87568 -8.31748,46.7545 -15.92379,51.50509 z m 374.32697,-26.79183 c -30.840377,-24.73927 28.00189,-34.18246 38.33678,-58.1861 26.32342,-7.29656 72.77405,6.06556 100.62918,10.81164 36.74047,3.15026 -24.60715,28.01848 -37.1564,35.2688 -26.06251,13.47805 -60.88972,44.93039 -83.7232,26.61403 z m -333.89717,-15.1853 c -10.01254,-6.627 -47.93309,-37.45388 -34.2245,-44.47992 28.22372,-0.72478 54.70791,-46.63792 78.14904,-18.01654 24.12533,8.9184 56.37336,27.92684 21.99747,42.14706 -14.56769,8.87198 -48.62204,23.25944 -65.92201,20.3494 z m 300.730209,-2.30322 c -24.92285,-2.05031 -94.3905211,-39.7927 -47.251174,-54.19457 18.405988,-12.61666 48.854635,-27.04054 65.616975,-5.5827 11.57306,12.19017 53.93907,9.3375 27.24217,30.74046 -11.84381,13.79985 -24.32664,35.46556 -45.607971,29.03681 z"
       id="path10"
       inkscape:label="tan"
       sodipodi:nodetypes="sssssssssscsssscssssssssssssssssssssssssssssss" /><path
       style="fill:#eaa1c0"
       d="m -242.76894,541.13339 c -7.89408,-0.91902 -15.90483,-4.01824 -19.79737,-7.65926 -2.85774,-2.67308 -3.91276,-4.72687 -3.91276,-7.61687 0,-8.33873 11.83913,-14.87482 28.17147,-15.55276 12.77004,-0.53007 24.19025,2.58088 29.90375,8.14599 2.5784,2.51145 3.60972,4.64414 3.60972,7.46465 0,9.95869 -18.71849,17.46004 -37.97481,15.21825 z m 363.26545,0.23233 c -0.60056,-0.10543 -2.56601,-0.40707 -4.36767,-0.67031 -6.93472,-1.01324 -14.20799,-4.0762 -17.851745,-7.51784 -1.746094,-1.64924 -3.540569,-5.22956 -3.543139,-7.06924 -0.0035,-2.501 0.909292,-4.56212 3.064907,-6.92071 8.961977,-9.80583 34.596137,-12.08779 49.777197,-4.43118 5.48638,2.76707 9.17179,7.24735 9.15825,11.1335 -0.0217,6.21988 -7.8163,12.02943 -19.42227,14.47595 -3.74434,0.78929 -14.40426,1.42312 -16.81553,0.99983 z"
       id="path9"
       inkscape:label="pink" /><path
       style="fill:#f4bb5c"
       d="m -128.24231,701.20432 c -10.79821,-1.65776 -30.81838,-5.68164 -31.22884,-6.27672 -0.12012,-0.17413 -1.88902,-1.09746 -3.93091,-2.05183 -8.68202,-4.05798 -20.4117,-11.41236 -29.045,-18.2109 -6.34107,-4.99346 -18.5166,-17.41046 -23.15636,-23.61562 -18.29193,-24.46337 -24.2692,-50.64003 -16.95751,-74.26323 1.70303,-5.50231 5.86618,-13.47603 9.69961,-18.57774 12.53641,-16.6841 32.51383,-27.40789 58.23477,-31.26018 6.30489,-0.9443 21.93049,-1.29477 29.18203,-0.65453 26.80829,2.36691 55.729988,12.96731 76.564709,28.06256 1.635652,1.18507 3.234943,2.25484 3.55398,2.37726 0.319037,0.12243 2.223771,-0.95159 4.232743,-2.38671 14.440988,-10.316 33.799916,-19.19013 52.04968673,-23.85957 13.73548927,-3.51441 25.47552827,-4.83297 39.78516727,-4.4684 17.367621,0.44247 30.760098,3.44816 44.313032,9.94521 21.464222,10.2896 34.793282,26.56666 39.461252,48.18897 1.24861,5.78363 1.36166,18.83884 0.21598,24.94117 -3.79476,20.2123 -14.00506,38.51128 -30.836553,55.26553 -11.172616,11.12133 -23.501899,19.92921 -38.695639,27.64365 -4.216011,2.14063 -5.606837,2.60071 -11.355943,3.75645 -7.141658,1.43569 -22.15755,4.00829 -22.33866,3.82718 -0.06201,-0.062 1.695828,-1.47208 3.906303,-3.13349 2.210475,-1.66141 6.082769,-5.10068 8.605099,-7.64282 13.169105,-13.27253 20.338761,-29.74842 21.670115,-49.79796 l 0.304528,-4.58606 2.049979,-2.40222 c 4.185943,-4.90519 6.74345,-9.55027 8.58586,-15.59407 1.053223,-3.45497 1.174223,-4.54613 1.200991,-10.83033 0.02568,-6.02861 -0.106825,-7.46181 -0.964898,-10.43656 -2.613325,-9.05983 -7.516193,-16.34876 -14.574419,-21.66729 -20.346369,-15.33145 -49.1032737,-8.57464 -60.41972,14.1964 -2.651427,5.33523 -3.746767,9.74265 -4.016201,16.16038 -0.174847,4.16473 -0.0433,6.09432 0.640471,9.39487 2.5336789,12.23001 10.3832256,22.54615 21.3919159,28.11399 1.4598961,0.73837 2.2875651,1.43477 2.2779931,1.91672 -0.02987,1.50398 -2.522171,7.06557 -4.4984431,10.03831 -6.6175076,9.95415 -20.5850659,17.95329 -37.1717969,21.28807 -14.005353,2.81579 -32.413731,2.47734 -48.133363,-0.88497 -20.929486,-4.47665 -36.270939,-14.47753 -42.807539,-27.90566 -1.04394,-2.14456 -1.89772,-4.20828 -1.89729,-4.58605 4.3e-4,-0.37777 0.92456,-1.2705 2.05363,-1.98385 8.10942,-5.12357 14.64271,-14.14988 17.23895,-23.8171 1.42864,-5.31959 1.4316,-14.75034 0.006,-20.09128 -3.4672,-12.9926 -13.39466,-23.66642 -25.99878,-27.9534 -19.45507,-6.61718 -40.8508,2.53465 -49.45304,21.15307 -2.83829,6.1431 -3.46188,9.24679 -3.42858,17.06435 0.0268,6.2842 0.14776,7.37536 1.20099,10.83033 2.16891,7.11487 5.50496,12.62569 10.78049,17.80832 3.26964,3.21206 3.37418,3.3799 3.6727,5.89636 0.48564,4.09386 2.39042,12.22249 3.82285,16.314 5.90052,16.85383 17.7705,31.326 34.83947,42.4771 2.50966,1.63956 4.27857,2.95868 3.9309,2.93139 -0.34767,-0.0273 -2.40104,-0.32119 -4.56303,-0.6531 z M 158.71412,304.55983 c -3.99447,-13.33517 -8.86715,-26.31881 -14.05638,-37.45434 -1.79111,-3.84355 -3.3531,-7.20987 -3.47107,-7.48071 -0.1335,-0.30648 0.57882,-0.60913 1.88634,-0.80146 4.62549,-0.68039 17.62964,-3.42477 24.93556,-5.26236 35.3793,-8.89864 67.2086,-24.48945 91.45476,-44.79687 1.71075,-1.43285 3.17977,-2.53587 3.26449,-2.45115 0.0847,0.0847 -0.5195,2.59462 -1.34269,5.57757 -5.2869,19.15781 -13.16748,35.27559 -24.64757,50.41055 -4.65072,6.13134 -15.76278,17.12337 -22.11776,21.87883 -15.97628,11.95512 -32.32455,19.24497 -53.80463,23.99199 -0.86633,0.19146 -1.06303,-0.14671 -2.10105,-3.61205 z m -441.35357,1.16062 c -36.13474,-11.31052 -62.46096,-33.92656 -78.38453,-67.3377 -4.43557,-9.30681 -8.69883,-21.50266 -10.84029,-31.01068 l -0.66526,-2.95371 2.18047,1.86179 c 10.35693,8.84328 23.40038,18.06005 34.20565,24.1704 15.15927,8.57254 33.68553,16.28982 52.23682,21.75972 10.97618,3.23637 29.93844,7.57246 31.12465,7.11727 0.29049,-0.11147 -0.97909,2.08433 -2.82128,4.87956 -8.158,12.37848 -16.82247,29.30975 -20.76119,40.56955 -0.50272,1.43715 -1.04913,2.28361 -1.46393,2.26779 -0.36401,-0.0139 -2.52901,-0.60967 -4.81111,-1.32399 z"
       id="path8"
       inkscape:label="gold" /><path
       style="fill:#41130d"
       d="m -85.22076,726.32042 c -63.68311,-3.10681 -121.05299,-19.53897 -160.07511,-45.84948 -28.81064,-19.42546 -48.41564,-45.23627 -56.92123,-74.9392 -8.4367,-29.46235 -7.67101,-61.70818 2.34226,-98.64116 4.91647,-18.13392 5.49613,-23.72156 6.52469,-62.89445 1.27067,-48.39441 1.89682,-62.22885 3.52859,-77.96291 1.15532,-11.13992 3.44364,-25.45797 5.39741,-33.77165 l 0.80286,-3.41634 -1.0662,-0.40537 c -0.58641,-0.22295 -1.23116,-0.40537 -1.43278,-0.40537 -0.78064,0 -13.11807,-4.11742 -17.26562,-5.76212 -31.71721,-12.5774 -58.79033,-37.32253 -75.19225,-68.72655 -7.21902,-13.82192 -11.71192,-26.62752 -15.43021,-43.97896 -1.54964,-7.23143 -1.75376,-8.86089 -1.75376,-13.99998 0,-5.36888 0.0862,-5.989 1.12129,-8.06615 1.28065,-2.56995 3.48216,-4.67666 6.09475,-5.83234 4.01584,-1.77639 27.57019,-7.03219 41.82829,-9.33335 21.3837,-3.45118 36.30037,-4.65265 57.63601,-4.6423 8.10749,0.004 14.74089,-0.0601 14.74089,-0.14229 0,-0.0822 -0.9829,-2.35538 -2.18422,-5.05152 -9.22907,-20.71291 -16.59491,-46.88708 -19.72737,-70.100236 -0.89142,-6.60587 -1.00168,-9.183843 -0.99943,-23.367034 0.002,-13.255038 0.12995,-16.625456 0.75853,-19.997033 1.39837,-7.500599 4.25939,-12.587463 8.67249,-15.419577 2.02785,-1.30138 2.74557,-1.509593 5.66429,-1.643238 5.88811,-0.269609 8.59573,1.646744 16.2415,11.495124 11.60054,14.942435 25.58899,31.926933 35.26416,42.81702 7.59923,8.553465 26.30547,27.237724 32.96266,32.923924 16.06355,13.72058 33.80501,26.01502 61.95707,42.93489 l 12.16564,7.31175 6.61535,-1.53362 c 9.37922,-2.17436 22.634062,-4.34801 32.848326,-5.38677 32.719025,-3.32743 72.226118,-1.13188 102.232211,5.6814 l 5.733657,1.3019 11.51864,-6.92615 c 31.778843,-19.10861 49.610673,-31.66422 66.485556,-46.81328 6.22356,-5.58707 20.85351,-20.292243 27.17051,-27.310209 9.97607,-11.083082 22.20064,-25.851459 36.55841,-44.165824 8.41135,-10.729285 10.37121,-12.177119 16.48356,-12.177119 3.45774,0 3.84911,0.09488 5.70295,1.382537 5.93024,4.11909 8.59344,9.968702 9.56134,21.00108 0.5852,6.670279 0.58457,22.563344 -0.001,29.677058 -1.99189,24.190847 -9.40986,52.690397 -20.17599,77.515387 l -2.4001,5.53424 3.5473,0.23761 c 1.95101,0.13068 7.08511,0.34046 11.4091,0.46618 16.64364,0.48392 37.57367,3.16169 58.3084,7.45994 10.87142,2.25361 29.31219,6.97652 31.40113,8.04222 2.76718,1.41171 4.70998,3.3625 6.03413,6.05893 1.11949,2.27968 1.21563,2.87235 1.18187,7.28598 -0.039,5.09586 -1.65261,13.49772 -4.61364,24.02218 -15.85154,56.34149 -58.03835,96.8111 -112.96593,108.36769 -2.26118,0.47574 -3.54926,0.94635 -3.43134,1.25364 0.46404,1.20928 2.99963,12.95773 4.38485,20.31686 4.0606,21.57237 5.67041,36.72232 7.91292,74.46877 2.57452,43.33494 4.0598,53.96399 11.53517,82.54896 1.94746,7.44688 4.21526,16.88105 5.03954,20.96482 8.62715,42.74152 1.33996,84.54407 -20.34159,116.68846 -19.28423,28.59018 -54.00954,50.57828 -100.595796,63.69735 -25.854981,7.28097 -63.32704,13.55631 -96.33687,16.13327 -19.192866,1.49832 -44.737157,1.93692 -62.457684,1.07241 z m 50.228207,-22.00308 c 38.5742939,-5.32951 65.078069,-22.89416 73.544043,-48.73931 2.328936,-7.10983 3.032186,-12.68023 2.778311,-22.00681 -0.252502,-9.27617 -1.162201,-14.48354 -4.082527,-23.36953 -2.493842,-7.58829 -3.367006,-9.14254 -5.836392,-10.38893 -2.371337,-1.1969 -4.440837,-1.23447 -6.884904,-0.125 -4.033132,1.83083 -4.476399,5.02816 -1.712361,12.35141 6.040523,16.0042 6.141682,31.71203 0.282318,43.8377 C 18.170994,666.06879 7.5063243,675.9243 -4.9525578,681.79724 -38.040867,697.3946 -90.443408,692.43518 -117.7599,671.12107 c -11.41068,-8.90336 -18.3793,-20.60352 -20.29445,-34.07393 -0.91112,-6.40844 -0.39562,-15.3129 1.35277,-23.36703 1.44671,-6.66443 1.52746,-9.20209 0.36895,-11.59524 -1.76208,-3.63998 -5.05339,-4.64663 -8.53031,-2.60902 -3.65527,2.14213 -5.31986,6.26075 -7.0138,17.35394 -0.9432,6.17677 -0.59928,19.29438 0.66686,25.43475 1.86132,9.02687 5.34879,17.53119 10.15886,24.77272 3.2271,4.85837 11.06151,12.86785 16.66738,17.03982 15.43105,11.48403 35.081076,18.55431 57.943862,20.84882 6.006068,0.60276 25.395622,0.22755 31.447225,-0.60856 z m -92.617627,-5.39131 c -17.06897,-11.1511 -28.93895,-25.62327 -34.83947,-42.4771 -1.43243,-4.09151 -3.33721,-12.22014 -3.82285,-16.314 -0.29852,-2.51646 -0.40306,-2.6843 -3.6727,-5.89636 -5.27553,-5.18263 -8.61158,-10.69345 -10.78049,-17.80832 -1.05323,-3.45497 -1.17423,-4.54613 -1.20099,-10.83033 -0.0257,-6.02861 0.10682,-7.46181 0.96489,-10.43656 2.62241,-9.09132 7.50041,-16.32694 14.65477,-21.73767 17.39705,-13.15711 42.02679,-10.12928 55.59999,6.83512 3.35341,4.19125 6.30768,10.00477 7.66075,15.07509 1.42528,5.34094 1.42232,14.77169 -0.006,20.09128 -2.59624,9.66722 -9.12953,18.69353 -17.23895,23.8171 -1.12907,0.71335 -2.0532,1.60608 -2.05363,1.98385 -4.3e-4,0.37777 0.85335,2.44149 1.89729,4.58605 6.5366,13.42813 21.878053,23.42901 42.807539,27.90566 19.628364,4.19835 41.704869,3.61845 57.523854,-1.51104 4.791905,-1.55382 12.4993129,-5.24802 16.57117,-7.94264 3.98425158,-2.63664 8.8309592,-7.37063 11.2101359,-10.94942 1.9762721,-2.97274 4.4685741,-8.53433 4.4984431,-10.03831 0.0096,-0.48195 -0.818097,-1.17835 -2.2779931,-1.91672 -11.0086903,-5.56784 -18.858237,-15.88398 -21.3919159,-28.11399 -1.092519,-5.27356 -0.882248,-12.88461 0.500886,-18.13021 3.3513666,-12.71021 13.4227088,-23.47339 25.952255,-27.73501 19.443252,-6.61316 40.856027,2.54596 49.453044,21.15307 2.838285,6.1431 3.461882,9.24679 3.428582,17.06435 -0.02677,6.2842 -0.147768,7.37536 -1.200991,10.83033 -1.84241,6.0438 -4.399917,10.68888 -8.58586,15.59407 l -2.049979,2.40222 -0.304528,4.58606 c -1.331354,20.04954 -8.50101,36.52543 -21.670115,49.79796 -2.52233,2.54214 -6.394624,5.98141 -8.605099,7.64282 -2.210475,1.66141 -3.968312,3.07148 -3.906303,3.13349 0.198353,0.19836 15.523259,-2.45176 23.430577,-4.05182 61.445178,-12.43353 103.578898,-38.59172 121.645128,-75.52182 15.16983,-31.00944 15.44191,-68.61032 0.86155,-119.06627 -5.46089,-18.89764 -7.08002,-31.0547 -8.95197,-67.21485 -2.94678,-56.9224 -6.79943,-82.4378 -18.07959,-119.73778 -8.2529,-27.2898 -16.83821,-46.91265 -27.58504,-63.04921 -1.75985,-2.64244 -3.75121,-5.43128 -4.42525,-6.19742 -1.18524,-1.34718 -1.29732,-1.38035 -3.40936,-1.00876 -7.98261,1.40443 -20.833836,-0.36533 -33.836968,-4.65974 C 52.58763,232.94737 37.916903,224.58493 27.666341,214.29069 19.231638,205.82004 15.182146,198.60952 14.40146,190.67127 l -0.257723,-2.6206 -8.0341242,-1.6163 c -27.8469558,-5.6022 -61.0860248,-7.02233 -89.5833048,-3.8274 -8.240913,0.92391 -20.038268,2.86645 -26.533598,4.36899 l -4.04009,0.93458 v 1.82591 c 0,2.39565 -1.47935,7.66901 -3.11166,11.092 -3.76485,7.89495 -14.37576,18.44891 -25.4308,25.29432 -5.50063,3.40606 -15.90955,8.38428 -23.09592,11.04597 -17.96392,6.65349 -32.90004,8.51525 -44.0136,5.48622 l -2.40222,-0.65473 -4.09053,4.25406 c -25.8054,26.83701 -43.83395,61.92287 -50.03351,97.37155 -3.85436,22.039 -5.44203,43.14314 -6.81154,90.54303 -1.34775,46.64637 -2.46415,57.8608 -7.84824,78.83645 -5.25735,20.48191 -6.70726,30.93426 -6.72513,48.48113 -0.0164,16.13028 1.38948,26.72789 5.22657,39.39716 5.63223,18.59649 14.88501,33.72539 29.06508,47.52331 11.76908,11.4519 22.93444,19.26047 39.25185,27.45103 19.28116,9.67822 41.07561,16.79106 67.69889,22.09424 7.79419,1.55255 20.81646,3.80001 22.68886,3.91577 0.34767,0.0215 -1.42124,-1.30237 -3.9309,-2.94193 z m -67.08059,-197.50649 c -10.51648,-1.89329 -19.30256,-9.41334 -22.95005,-19.64306 -0.89108,-2.49913 -1.0104,-3.62329 -0.99672,-9.3905 0.0142,-5.97621 0.11477,-6.81006 1.14556,-9.49599 3.35429,-8.74029 9.59908,-14.90113 18.2236,-17.97862 3.47369,-1.23951 4.20181,-1.34265 9.44192,-1.3375 5.02337,0.005 6.06047,0.13996 8.99581,1.17104 4.73568,1.66348 8.46317,3.99473 11.74029,7.3426 5.52017,5.63936 7.90034,11.20874 8.21304,19.21782 0.23579,6.03925 -0.37783,8.9607 -3.02502,14.40205 -1.46301,3.00723 -2.52052,4.41995 -5.56655,7.43631 -4.07767,4.03795 -7.95466,6.32263 -12.93253,7.62104 -3.29883,0.86046 -9.35472,1.18314 -12.28935,0.65481 z m 16.74159,-33.00266 c 5.39775,-4.29462 4.48119,-12.20235 -1.71438,-14.79103 -6.41014,-2.67833 -13.36199,3.12659 -11.69367,9.76442 0.62995,2.50641 2.18689,4.58752 4.284,5.72625 1.25441,0.68114 2.26641,0.84836 4.538,0.74986 2.49286,-0.10809 3.16847,-0.32163 4.58605,-1.4495 z m 252.915873,33.02807 c -7.476696,-1.3622 -14.40984,-5.51151 -18.577042,-11.11789 -6.27726,-8.44516 -7.80453,-18.8652 -4.134034,-28.2051 6.323382,-16.0904 24.769426,-23.34243 40.069417,-15.75323 15.150396,7.515 20.826126,25.725 12.626036,40.50933 -3.67101,6.61864 -10.609063,11.96041 -18.033235,13.8842 -3.352609,0.86875 -9.12125,1.19827 -11.951142,0.68269 z M 90.35168,469.11426 c 6.078663,-3.1011 6.106945,-11.95376 0.0484,-15.14915 -5.178916,-2.73146 -11.65978,0.51382 -12.52311,6.27092 -0.542661,3.61872 1.44043,7.40658 4.725384,9.02585 2.003204,0.98745 5.660989,0.91778 7.749328,-0.14762 z m 76.8789,-162.48762 c 17.18089,-4.19802 33.04292,-11.71135 47.38922,-22.44675 6.35498,-4.75546 17.46704,-15.74749 22.11776,-21.87883 12.16093,-16.03256 20.13157,-32.8252 25.49935,-53.72234 l 1.90725,-7.42504 -1.79227,-0.53837 c -3.54891,-1.06603 -19.64304,-4.50964 -28.13958,-6.02093 -22.39925,-3.98417 -45.85455,-5.92656 -63.26735,-5.23931 l -8.1419,0.32135 -3.60245,5.52025 c -7.85192,12.03197 -18.27972,24.70461 -28.15544,34.21656 l -5.30635,5.1109 4.52525,6.90019 c 12.10576,18.45908 20.93989,38.06352 28.45005,63.13551 1.03802,3.46534 1.23472,3.80351 2.10105,3.61205 0.5257,-0.11618 3.41264,-0.81154 6.41541,-1.54524 z m -443.59499,-1.84999 c 3.05282,-8.72721 10.04454,-23.05998 16.4322,-33.68537 6.55433,-10.90261 15.72211,-23.27664 24.09177,-32.51739 2.24639,-2.48019 4.65308,-5.1751 5.3482,-5.98871 l 1.26386,-1.47928 -5.49453,-5.70325 c -8.84609,-9.18211 -15.87085,-17.87278 -22.84711,-28.26523 -2.06481,-3.07594 -3.98046,-5.72122 -4.25699,-5.87839 -0.27653,-0.15718 -4.04059,-0.63856 -8.36458,-1.06975 -5.7725,-0.57563 -11.63417,-0.78483 -22.05674,-0.78721 -16.81992,-0.004 -27.72148,0.78381 -45.20539,3.26613 -11.95717,1.69764 -34.92293,6.15567 -35.73715,6.93715 -0.55189,0.52971 2.58089,13.3907 5.16476,21.20284 14.19237,42.90967 43.12851,71.68505 85.38666,84.91226 2.2821,0.71432 4.4471,1.31012 4.81111,1.32399 0.4148,0.0158 0.96121,-0.83064 1.46393,-2.26779 z m 88.97822,-81.79131 c 5.0499,-0.88786 10.04268,-2.2864 15.1548,-4.24504 15.2496,-5.84267 32.58769,-18.28825 36.5474,-26.23434 1.42938,-2.86839 1.47832,-5.48987 0.12583,-6.74023 -0.5405,-0.49968 -7.86181,-5.08741 -16.26957,-10.19495 -18.086,-10.98685 -26.78516,-16.53831 -34.5046,-22.01948 -28.10487,-19.95579 -55.60609,-47.36501 -85.38159,-85.096004 -4.96311,-6.289165 -5.46695,-6.79832 -5.82263,-5.884074 -0.49702,1.277579 -0.0179,14.74556 0.82813,23.275967 3.51581,35.451491 15.18358,69.178801 33.68065,97.358581 7.17884,10.93677 13.72497,19.05365 23.04845,28.57896 8.84723,9.03874 11.37429,10.74376 17.60165,11.87587 2.61712,0.47578 10.45187,0.12288 14.99148,-0.67526 z m 291.3428,0.46955 c 4.77146,-1.01136 6.95672,-2.43121 13.36744,-8.68531 16.25278,-15.85573 28.59949,-33.10828 38.8109,-54.23205 10.93333,-22.61715 17.88793,-47.10978 20.68349,-72.842892 0.73217,-6.739644 1.3181,-20.817135 0.98214,-23.596943 l -0.30598,-2.531747 -5.45693,6.899417 c -33.21938,42.000605 -62.04229,69.915095 -93.911669,90.951815 -4.206141,2.77644 -13.796058,8.78243 -21.310927,13.34664 -7.51487,4.56422 -15.473101,9.47785 -17.684959,10.91918 l -4.021561,2.6206 -0.131886,2.04438 c -0.185382,2.8736 1.379716,5.731 5.503116,10.04703 5.533297,5.79179 14.638124,12.20516 23.942517,16.86491 13.740581,6.88144 29.914242,10.23404 39.534309,8.19497 z"
       id="path7"
       inkscape:label="brown" /></g></svg>
