<?xml version="1.0" encoding="UTF-8" standalone="no"?>
<svg
   width="1000"
   zoomAndPan="magnify"
   viewBox="0 0 750 749.999995"
   height="1000"
   preserveAspectRatio="xMidYMid meet"
   version="1.0"
   id="svg6"
   sodipodi:docname="cow.svg"
   xml:space="preserve"
   inkscape:version="1.3.2 (091e20e, 2023-11-25, custom)"
   xmlns:inkscape="http://www.inkscape.org/namespaces/inkscape"
   xmlns:sodipodi="http://sodipodi.sourceforge.net/DTD/sodipodi-0.dtd"
   xmlns="http://www.w3.org/2000/svg"
   xmlns:svg="http://www.w3.org/2000/svg"><sodipodi:namedview
     id="namedview6"
     pagecolor="#ffffff"
     bordercolor="#000000"
     borderopacity="0.25"
     inkscape:showpageshadow="2"
     inkscape:pageopacity="0.0"
     inkscape:pagecheckerboard="0"
     inkscape:deskcolor="#d1d1d1"
     inkscape:zoom="1.819"
     inkscape:cx="261.13249"
     inkscape:cy="435.12919"
     inkscape:window-width="3840"
     inkscape:window-height="2054"
     inkscape:window-x="3829"
     inkscape:window-y="-11"
     inkscape:window-maximized="1"
     inkscape:current-layer="g7" /><defs
     id="defs3" /><g
     id="g7"
     transform="matrix(1.0666288,0,0,1.0666288,433.29584,-29.607695)"><path
       style="fill:#ffffff;stroke-width:1"
       d="m -187.63662,221.78086 c 5.0499,-0.88786 10.04268,-2.2864 15.1548,-4.24505 15.2496,-5.84267 32.58769,-18.28824 36.5474,-26.23434 1.42938,-2.86839 1.47832,-5.48986 0.12583,-6.74022 -0.5405,-0.49969 -7.86181,-5.08741 -16.26957,-10.19496 -18.086,-10.98684 -26.78516,-16.53831 -34.5046,-22.01947 -28.10486,-19.95579 -55.60609,-47.36501 -85.38158,-85.096012 -4.96312,-6.289161 -5.46696,-6.798316 -5.82264,-5.884071 -0.49701,1.277576 -0.0179,14.74556 0.82813,23.27596 3.51581,35.451503 15.18358,69.178813 33.68065,97.358583 7.17884,10.93677 13.72497,19.05365 23.04845,28.57896 8.84723,9.03874 11.37429,10.74377 17.60165,11.87588 2.61712,0.47578 10.45187,0.12287 14.99148,-0.67526 z m 291.34279,0.46954 c 4.77146,-1.01135 6.95672,-2.43121 13.36744,-8.68531 16.25278,-15.85573 28.59949,-33.10828 38.8109,-54.23205 10.93333,-22.61714 17.88794,-47.10978 20.68349,-72.842887 0.73217,-6.739645 1.3181,-20.817139 0.98214,-23.596943 l -0.30598,-2.531753 -5.45693,6.89942 c -33.21937,42.000613 -62.04229,69.915093 -93.911666,90.951823 -4.20614,2.77644 -13.796056,8.78243 -21.310928,13.34664 -7.514864,4.56421 -15.473096,9.47784 -17.684953,10.91918 l -4.021567,2.6206 -0.131883,2.04437 c -0.185379,2.8736 1.379721,5.73101 5.503114,10.04703 5.533302,5.79179 14.638128,12.20517 23.942518,16.86491 13.740581,6.88144 29.914239,10.23404 39.534305,8.19497 z"
       id="path7-4"
       sodipodi:nodetypes="sssssssscssssssssscsssscssss" /><path
       style="fill:#fcfdfd"
       d="m -34.119019,726.35844 c 27.5073595,-1.68044 54.140706,-5.13714 80.673683,-10.47049 62.345156,-12.5319 105.068076,-36.26258 128.491146,-71.37111 11.66882,-17.49023 18.66071,-36.56116 21.95984,-59.89717 0.85687,-6.0609 0.98742,-8.82931 0.99822,-21.16777 0.0186,-21.19854 -1.07793,-28.34051 -8.98215,-58.50467 -6.38741,-24.37571 -8.58022,-40.16373 -10.64939,-76.67471 -2.50595,-44.21801 -4.79919,-63.59867 -10.67296,-90.19949 -0.9274,-4.19997 -1.59722,-7.78373 -1.48848,-7.9639 0.10874,-0.18016 0.56347,-0.32757 1.0105,-0.32757 0.44704,0 2.94139,-0.50341 5.54301,-1.11868 52.84638,-12.49802 93.60169,-52.20371 109.11795,-106.30773 3.14569,-10.96878 4.67728,-18.62902 4.9078,-24.54628 0.20627,-5.29488 0.16604,-5.63652 -0.95162,-8.08019 -2.36401,-5.16868 -4.92813,-6.6435 -16.92627,-9.73556 -31.36948,-8.08427 -62.79885,-12.65741 -87.15918,-12.68213 -3.66338,-0.004 -6.66069,-0.0805 -6.66069,-0.17061 0,-0.0901 0.7071,-1.71162 1.57133,-3.60333 7.91605,-17.32729 15.28375,-41.60098 18.6758,-61.52948 2.22951,-13.098528 2.65073,-18.297497 2.654,-32.757527 0.003,-13.534825 -0.33872,-18.178475 -1.73952,-23.634675 -1.37367,-5.35047 -4.50211,-9.960036 -8.46569,-12.473664 -1.75133,-1.110661 -2.32458,-1.234272 -5.68397,-1.225647 -6.35215,0.01631 -8.2012,1.354254 -16.49853,11.938062 -22.88301,29.188827 -37.0496,45.498326 -54.12207,62.308861 -20.513609,20.19888 -39.182753,33.96185 -76.084243,56.08962 l -11.501766,6.89696 -7.279216,-1.57439 c -20.3953437,-4.41125 -38.200222,-6.28889 -63.403777,-6.68635 -26.974903,-0.4254 -46.598258,1.40808 -69.070478,6.45348 l -7.70472,1.72985 -11.51303,-6.9174 c -15.50095,-9.31348 -20.88159,-12.70438 -31.12785,-19.61697 -18.23065,-12.29922 -30.6308,-22.29311 -44.32602,-35.72452 -17.20552,-16.874096 -32.39061,-34.398077 -56.01744,-64.645557 -6.8446,-8.76258 -9.0805,-10.261239 -15.30913,-10.261239 -3.92206,0 -4.1261,0.04985 -6.28254,1.535052 -7.86183,5.414647 -10.22044,15.276063 -9.66143,40.394581 0.60644,27.249653 7.84676,58.401443 20.20784,86.945143 1.54683,3.57187 2.81221,6.5499 2.81196,6.61784 -2.4e-4,0.0679 -7.71464,0.12866 -17.1431,0.13493 -20.15065,0.0134 -31.75872,0.90696 -51.42887,3.95892 -16.79983,2.6066 -40.60251,7.87773 -45.50189,10.07645 -3.32804,1.49353 -5.80769,4.24906 -6.75451,7.50598 -2.49839,8.59418 3.22245,34.75636 11.95308,54.6631 15.60429,35.57936 43.03235,62.98153 77.98383,77.91021 4.41151,1.88427 13.77701,5.11272 19.23973,6.63226 1.87567,0.52174 2.47911,0.87316 2.30016,1.3395 -0.53669,1.39859 -2.88197,13.47838 -3.93199,20.25241 -3.1729,20.46947 -4.07676,35.07721 -5.50305,88.93751 -1.00925,38.11182 -1.41508,44.21658 -3.72736,56.06914 -0.5858,3.00277 -1.66179,7.52331 -2.3911,10.04564 -5.7781,19.98373 -8.43618,38.18079 -8.45343,57.87162 -0.0161,18.41729 2.08092,32.48051 7.1221,47.76221 13.56603,41.12363 48.92852,73.76037 101.36133,93.54839 32.51667,12.27171 68.29957,19.59959 108.536055,22.22679 7.836624,0.51168 48.734676,0.52912 56.998096,0.0243 z m -35.159745,-22.07162 c -23.40954,-2.81781 -43.483736,-10.84515 -58.526776,-23.4039 -16.17098,-13.50041 -24.27334,-31.16791 -24.30956,-53.00788 -0.019,-11.47051 2.00496,-22.2218 4.86874,-25.86251 1.66498,-2.11668 3.53738,-3.1825 5.59089,-3.1825 2.43845,0 4.13401,1.17079 5.06491,3.49734 1.00928,2.52246 0.88459,4.79376 -0.67682,12.32872 -1.25301,6.04669 -1.38162,7.3994 -1.38137,14.52925 3e-4,8.36822 0.40195,11.12913 2.54994,17.52788 4.25078,12.66283 14.41961,23.75476 29.11877,31.76206 16.379963,8.92291 41.704092,13.88444 64.07297,12.55325 23.866718,-1.42034 42.76691576,-8.49767 55.459717,-20.76735 4.94004,-4.77537 7.737285,-8.40794 10.273262,-13.34114 3.718392,-7.23333 4.858224,-12.30057 4.814096,-21.40158 -0.0395,-8.14757 -0.908131,-12.85113 -4.123225,-22.32701 -2.451229,-7.22454 -2.70565,-9.62715 -1.219519,-11.51646 2.732801,-3.47419 9.047417,-3.13677 11.530991,0.61617 1.365487,2.06339 4.717654,12.29284 5.82376,17.77175 3.741125,18.53101 1.181256,35.0158 -7.507396,48.34537 -12.086094,18.54171 -35.757152,31.17907 -66.482018,35.49302 -7.294756,1.02422 -27.759329,1.25002 -34.941362,0.38552 z M -186.3504,469.16279 c -6.26,-2.84352 -6.60003,-11.86056 -0.56339,-14.94023 2.6216,-1.33744 6.62976,-1.05324 8.83164,0.62622 3.91482,2.98598 4.4894,8.74343 1.22172,12.24188 -2.54513,2.72488 -6.26488,3.53708 -9.48997,2.07213 z m 269.503327,-0.007 c -4.508273,-2.08727 -6.33897,-7.1093 -4.153318,-11.39353 1.385945,-2.71667 3.546832,-4.09107 6.753152,-4.29524 3.38751,-0.2157 5.832592,0.89773 7.498071,3.41444 4.551293,6.87747 -2.704646,15.69729 -10.097905,12.27433 z M -246.06317,177.91342 c -12.86945,-20.84233 -22.96095,-47.46051 -27.60013,-72.80044 -2.39428,-13.07796 -3.92937,-29.302206 -3.65071,-38.584145 l 0.13414,-4.468276 8.12633,10.146247 c 27.05271,33.777064 50.77283,57.731914 76.1432,76.896714 l 5.2147,3.93918 -2.37571,2.14404 c -13.96919,12.60698 -30.78153,21.31828 -49.10979,25.44619 -1.68155,0.37872 -3.38452,0.7856 -3.78438,0.90418 -0.53849,0.1597 -1.34174,-0.77996 -3.09765,-3.62369 z m 384.14356,2.5042 c -18.94797,-4.80864 -35.02373,-13.24669 -47.400963,-24.88043 l -2.629416,-2.47146 5.850032,-4.42303 C 119.02328,129.6478 143.98116,104.24271 171.16148,69.996816 l 6.33312,-7.979428 0.13655,4.271478 c 0.30415,9.514797 -1.25869,26.142825 -3.66502,38.994454 -2.65533,14.18148 -7.79589,31.53863 -13.06481,44.11347 -5.11839,12.21556 -15.72165,31.97463 -17.26929,32.18113 -0.35311,0.0471 -2.85135,-0.47502 -5.55164,-1.1603 z"
       id="path11"
       sodipodi:nodetypes="ssssssssssssssscsssssssssscssscsssssssssssssssssssssssssssssssssssssssssssssssssssssssssssscsscsssssscsscsssss" /><path
       style="fill:#f4f0d0"
       d="m -167.43868,692.9198 c -42.89505,-11.36181 -75.52998,-30.25676 -95.70319,-55.41015 -10.33219,-12.88291 -18.11328,-29.8909 -21.64979,-47.32231 -1.97553,-9.73738 -2.6511,-16.91354 -2.6517,-28.16735 -8.5e-4,-16.00299 1.71261,-29.05918 6.00268,-45.73892 4.11962,-16.01708 5.55345,-24.11352 6.65198,-37.56196 0.51878,-6.35097 1.58746,-29.77186 1.96305,-43.02155 1.34118,-47.31291 2.76942,-67.33229 6.35834,-89.12353 3.14569,-19.10008 8.22956,-34.86237 16.79496,-52.07201 8.74689,-17.57429 20.62508,-34.63669 32.95125,-47.33277 l 4.61952,-4.75816 4.14929,0.87633 c 7.65042,1.61577 18.23711,1.06095 28.25102,-1.48055 17.78735,-4.51439 35.81354,-13.18887 47.28395,-22.75377 10.83732,-9.03698 17.14824,-18.53122 18.45363,-27.7619 l 0.47452,-3.35543 6.59997,-1.36662 c 20.512029,-4.24731 38.722666,-5.77558 62.287773,-5.22729 18.223181,0.424 34.6268012,2.12102 50.3310736,5.20696 8.2952784,1.63004 8.1957074,1.59795 8.1957074,2.64161 0,2.26936 1.547199,7.94875 3.021101,11.08971 3.785902,8.06796 13.153386,17.8455 23.838975,24.88251 7.666549,5.04882 17.693324,9.78149 28.827719,13.60679 13.268417,4.55845 24.169599,6.32378 33.309301,5.39409 4.19486,-0.4267 4.61391,-0.40082 5.17539,0.31966 2.24092,2.87552 8.48798,12.67986 11.34062,17.79834 9.44664,16.95011 18.73028,42.14391 26.40198,71.64932 6.57706,25.2954 10.21719,54.51687 12.43227,99.80126 1.72259,35.21607 3.55964,48.82268 9.16159,67.85789 13.19002,44.81923 13.9277,82.03613 2.20413,111.20173 -12.90944,32.11577 -41.63268,56.22864 -85.577537,71.84148 -9.395989,3.33823 -29.186171,8.99914 -31.346918,8.96667 -0.314328,-0.005 1.98358,-1.34735 5.106465,-2.98361 14.072039,-7.37318 25.352994,-15.58385 36.075037,-26.25668 16.831493,-16.75425 27.041793,-35.05323 30.836553,-55.26553 1.14568,-6.10233 1.03263,-19.15754 -0.21598,-24.94117 -4.66797,-21.62231 -17.99703,-37.89937 -39.461252,-48.18897 -13.552934,-6.49705 -26.945411,-9.50274 -44.313032,-9.94521 -14.309639,-0.36457 -26.049678,0.95399 -39.78516727,4.4684 -18.24977073,4.66944 -37.60869873,13.54357 -52.04968673,23.85957 -2.008972,1.43512 -3.913706,2.50914 -4.232743,2.38671 -0.319037,-0.12242 -1.918328,-1.19219 -3.55398,-2.37726 -17.450335,-12.64318 -41.803809,-22.65536 -64.418269,-26.48358 -9.71066,-1.64385 -16.9123,-2.12919 -27.43328,-1.84882 -9.90446,0.26393 -15.18373,0.87805 -23.4115,2.72339 -35.65646,7.99709 -59.22163,32.35106 -61.26238,63.31302 -1.59773,24.24064 8.946,49.04804 30.03139,70.65812 12.02936,12.32871 24.34932,21.29215 40.20442,29.25092 3.23183,1.62227 5.68864,2.93562 5.45959,2.91854 -0.22906,-0.0171 -3.70703,-0.90265 -7.72884,-1.96792 z m -61.69681,-151.75842 c 16.75379,-1.89666 27.25071,-10.27904 23.65341,-18.88858 -1.07509,-2.57306 -4.70147,-5.77962 -8.72654,-7.71628 -6.83844,-3.29032 -14.53827,-4.64887 -24.09898,-4.25202 -16.33234,0.67794 -28.17147,7.21403 -28.17147,15.55276 0,2.89 1.05502,4.94379 3.91276,7.61687 6.37462,5.96271 20.32615,9.1708 33.43082,7.68725 z m 366.44753,-0.79549 c 9.58115,-2.01969 16.26947,-6.04269 18.62054,-11.20019 1.07247,-2.35266 1.00983,-4.369 -0.21762,-7.00492 -3.26116,-7.00327 -15.7279,-11.9893 -29.97725,-11.9893 -17.19327,0 -31.016095,7.10534 -31.003754,15.93685 0.0026,1.83968 1.797045,5.42 3.543139,7.06924 3.643755,3.44164 10.917025,6.5046 17.851745,7.51784 1.80166,0.26324 3.76711,0.56488 4.36767,0.67031 2.41127,0.42329 13.07119,-0.21054 16.81553,-0.99983 z m -317.82025,-39.92174 c 8.81832,-3.12475 15.44742,-9.76541 18.58385,-18.61625 1.22061,-3.44449 1.33251,-4.22732 1.31844,-9.22353 -0.0133,-4.71679 -0.1733,-5.93498 -1.17619,-8.95373 -1.68215,-5.06332 -3.94551,-8.5744 -8.00796,-12.42249 -5.86003,-5.55082 -11.99635,-8.00127 -20.03639,-8.00127 -13.20188,0 -23.97905,7.96327 -28.23181,20.86053 -0.82297,2.49579 -1.0103,4.02009 -1.01986,8.29857 -0.0103,4.62356 0.13766,5.69697 1.25587,9.10872 3.09767,9.45124 10.95264,16.95531 20.42302,19.5107 4.70877,1.27056 12.44713,1.01343 16.89103,-0.56125 z m 269.822868,-0.21589 c 8.978792,-3.32528 15.428392,-10.03889 18.355562,-19.10694 1.43025,-4.43073 1.61319,-11.49009 0.41313,-15.94199 -2.18531,-8.10688 -8.159143,-15.36198 -15.569409,-18.90873 -5.137061,-2.45873 -7.807953,-3.08742 -13.073534,-3.0773 -22.06451,0.0424 -36.109043,23.39303 -25.912269,43.08209 2.233015,4.31175 7.932659,10.00985 12.248243,12.24492 5.067157,2.62432 8.590384,3.3854 14.755944,3.18757 4.493709,-0.14419 5.746236,-0.35521 8.782333,-1.47962 z M -257.52535,258.73407 c -45.18136,-9.41495 -80.41504,-25.39662 -109.48097,-49.65954 -2.80151,-2.33858 -5.19338,-4.51183 -5.31526,-4.82945 -0.12189,-0.31763 -0.35605,-1.47403 -0.52037,-2.56978 l -0.29876,-1.99227 1.83256,-0.49346 c 3.42089,-0.92115 18.5327,-3.87122 26.64778,-5.20208 10.68278,-1.75196 24.88254,-3.36334 35.31031,-4.00699 9.23534,-0.57005 33.28335,-0.30248 40.032,0.44542 8.39421,0.93026 7.19904,0.26154 11.22247,6.27921 7.06087,10.56064 15.18287,20.60365 23.67324,29.27241 l 5.06297,5.16934 -4.11935,4.43953 c -5.01852,5.40858 -11.68673,13.52063 -15.99499,19.45832 -3.54577,4.88682 -3.15792,4.7091 -8.05163,3.68934 z m 397.79307,-1.01533 c -3.61247,-6.5688 -6.8758,-12.01121 -10.08501,-16.81927 -2.08442,-3.12288 -3.85367,-5.82028 -3.93167,-5.99423 -0.078,-0.17394 2.77887,-3.22039 6.3486,-6.76989 7.18589,-7.14515 13.07765,-13.86901 18.61011,-21.23841 3.57062,-4.75617 11.04191,-15.70258 11.35202,-16.63219 0.23036,-0.69053 30.78139,-0.59976 38.73664,0.1151 8.15189,0.73253 21.15301,2.41917 29.48177,3.82469 14.14485,2.387 32.98129,6.5895 32.96749,7.35519 -0.005,0.25712 -0.25032,1.38194 -0.54596,2.49962 -0.45458,1.71853 -1.02453,2.43938 -3.69319,4.67103 -27.88582,23.31925 -64.43838,39.84541 -106.78679,48.2805 -12.01436,2.39306 -11.54201,2.36621 -12.45401,0.70786 z m -345.22914,-34.88009 c -3.87662,-1.01158 -6.5956,-2.9201 -12.61585,-8.85537 -8.83644,-8.7117 -15.85071,-17.09437 -22.86662,-27.32761 l -3.352,-4.88914 1.65223,-0.45882 c 0.90872,-0.25236 1.88219,-0.45992 2.16325,-0.46126 1.07724,-0.005 11.49863,-3.16357 16.08612,-4.87526 9.15645,-3.41646 19.37397,-9.09101 26.86117,-14.91801 4.4965,-3.49945 9.16841,-7.81488 8.91113,-8.23118 -0.12958,-0.20966 1.989,1.16522 4.70794,3.05527 6.62071,4.60233 15.24649,10.0569 32.02309,20.24997 7.6871,4.67051 14.41302,8.76713 14.94649,9.1036 3.54613,2.23665 1.63837,7.58478 -5.00186,14.022 -7.8529,7.61281 -19.60078,14.92902 -31.12783,19.38543 -11.38934,4.40317 -24.89678,6.15498 -32.38726,4.20038 z m 292.918784,0.10433 c -14.64903,-2.62367 -29.340476,-9.56444 -42.286005,-19.97744 -4.814779,-3.87287 -8.239605,-7.72829 -9.754032,-10.9804 -1.344814,-2.88787 -1.303315,-4.28318 0.173953,-5.84873 0.66061,-0.70009 7.29401,-4.95959 14.740887,-9.46557 16.585606,-10.03565 26.898118,-16.5424 33.100509,-20.88498 2.590859,-1.81398 4.606391,-3.12945 4.47896,-2.92326 -0.12743,0.20619 0.962272,1.48028 2.421561,2.83133 12.953263,11.99243 30.290103,20.88634 48.979113,25.12659 l 4.24734,0.96366 -2.68553,4.00678 c -6.56229,9.79083 -14.09893,18.88528 -22.89712,27.62989 -9.16364,9.10782 -11.55742,10.25354 -21.284343,10.18713 -3.157636,-0.0215 -7.313518,-0.3208 -9.235293,-0.665 z"
       id="path10" /><path
       style="fill:#eaa1c0"
       d="m -242.76894,541.13339 c -7.89408,-0.91902 -15.90483,-4.01824 -19.79737,-7.65926 -2.85774,-2.67308 -3.91276,-4.72687 -3.91276,-7.61687 0,-8.33873 11.83913,-14.87482 28.17147,-15.55276 12.77004,-0.53007 24.19025,2.58088 29.90375,8.14599 2.5784,2.51145 3.60972,4.64414 3.60972,7.46465 0,9.95869 -18.71849,17.46004 -37.97481,15.21825 z m 363.26545,0.23233 c -0.60056,-0.10543 -2.56601,-0.40707 -4.36767,-0.67031 -6.93472,-1.01324 -14.20799,-4.0762 -17.851745,-7.51784 -1.746094,-1.64924 -3.540569,-5.22956 -3.543139,-7.06924 -0.0035,-2.501 0.909292,-4.56212 3.064907,-6.92071 8.961977,-9.80583 34.596137,-12.08779 49.777197,-4.43118 5.48638,2.76707 9.17179,7.24735 9.15825,11.1335 -0.0217,6.21988 -7.8163,12.02943 -19.42227,14.47595 -3.74434,0.78929 -14.40426,1.42312 -16.81553,0.99983 z"
       id="path9" /><path
       style="fill:#f4bb5c"
       d="m -128.24231,701.20432 c -10.79821,-1.65776 -30.81838,-5.68164 -31.22884,-6.27672 -0.12012,-0.17413 -1.88902,-1.09746 -3.93091,-2.05183 -8.68202,-4.05798 -20.4117,-11.41236 -29.045,-18.2109 -6.34107,-4.99346 -18.5166,-17.41046 -23.15636,-23.61562 -18.29193,-24.46337 -24.2692,-50.64003 -16.95751,-74.26323 1.70303,-5.50231 5.86618,-13.47603 9.69961,-18.57774 12.53641,-16.6841 32.51383,-27.40789 58.23477,-31.26018 6.30489,-0.9443 21.93049,-1.29477 29.18203,-0.65453 26.80829,2.36691 55.729988,12.96731 76.564709,28.06256 1.635652,1.18507 3.234943,2.25484 3.55398,2.37726 0.319037,0.12243 2.223771,-0.95159 4.232743,-2.38671 14.440988,-10.316 33.799916,-19.19013 52.04968673,-23.85957 13.73548927,-3.51441 25.47552827,-4.83297 39.78516727,-4.4684 17.367621,0.44247 30.760098,3.44816 44.313032,9.94521 21.464222,10.2896 34.793282,26.56666 39.461252,48.18897 1.24861,5.78363 1.36166,18.83884 0.21598,24.94117 -3.79476,20.2123 -14.00506,38.51128 -30.836553,55.26553 -11.172616,11.12133 -23.501899,19.92921 -38.695639,27.64365 -4.216011,2.14063 -5.606837,2.60071 -11.355943,3.75645 -7.141658,1.43569 -22.15755,4.00829 -22.33866,3.82718 -0.06201,-0.062 1.695828,-1.47208 3.906303,-3.13349 2.210475,-1.66141 6.082769,-5.10068 8.605099,-7.64282 13.169105,-13.27253 20.338761,-29.74842 21.670115,-49.79796 l 0.304528,-4.58606 2.049979,-2.40222 c 4.185943,-4.90519 6.74345,-9.55027 8.58586,-15.59407 1.053223,-3.45497 1.174223,-4.54613 1.200991,-10.83033 0.02568,-6.02861 -0.106825,-7.46181 -0.964898,-10.43656 -2.613325,-9.05983 -7.516193,-16.34876 -14.574419,-21.66729 -20.346369,-15.33145 -49.1032737,-8.57464 -60.41972,14.1964 -2.651427,5.33523 -3.746767,9.74265 -4.016201,16.16038 -0.174847,4.16473 -0.0433,6.09432 0.640471,9.39487 2.5336789,12.23001 10.3832256,22.54615 21.3919159,28.11399 1.4598961,0.73837 2.2875651,1.43477 2.2779931,1.91672 -0.02987,1.50398 -2.522171,7.06557 -4.4984431,10.03831 -6.6175076,9.95415 -20.5850659,17.95329 -37.1717969,21.28807 -14.005353,2.81579 -32.413731,2.47734 -48.133363,-0.88497 -20.929486,-4.47665 -36.270939,-14.47753 -42.807539,-27.90566 -1.04394,-2.14456 -1.89772,-4.20828 -1.89729,-4.58605 4.3e-4,-0.37777 0.92456,-1.2705 2.05363,-1.98385 8.10942,-5.12357 14.64271,-14.14988 17.23895,-23.8171 1.42864,-5.31959 1.4316,-14.75034 0.006,-20.09128 -3.4672,-12.9926 -13.39466,-23.66642 -25.99878,-27.9534 -19.45507,-6.61718 -40.8508,2.53465 -49.45304,21.15307 -2.83829,6.1431 -3.46188,9.24679 -3.42858,17.06435 0.0268,6.2842 0.14776,7.37536 1.20099,10.83033 2.16891,7.11487 5.50496,12.62569 10.78049,17.80832 3.26964,3.21206 3.37418,3.3799 3.6727,5.89636 0.48564,4.09386 2.39042,12.22249 3.82285,16.314 5.90052,16.85383 17.7705,31.326 34.83947,42.4771 2.50966,1.63956 4.27857,2.95868 3.9309,2.93139 -0.34767,-0.0273 -2.40104,-0.32119 -4.56303,-0.6531 z M 158.71412,304.55983 c -3.99447,-13.33517 -8.86715,-26.31881 -14.05638,-37.45434 -1.79111,-3.84355 -3.3531,-7.20987 -3.47107,-7.48071 -0.1335,-0.30648 0.57882,-0.60913 1.88634,-0.80146 4.62549,-0.68039 17.62964,-3.42477 24.93556,-5.26236 35.3793,-8.89864 67.2086,-24.48945 91.45476,-44.79687 1.71075,-1.43285 3.17977,-2.53587 3.26449,-2.45115 0.0847,0.0847 -0.5195,2.59462 -1.34269,5.57757 -5.2869,19.15781 -13.16748,35.27559 -24.64757,50.41055 -4.65072,6.13134 -15.76278,17.12337 -22.11776,21.87883 -15.97628,11.95512 -32.32455,19.24497 -53.80463,23.99199 -0.86633,0.19146 -1.06303,-0.14671 -2.10105,-3.61205 z m -441.35357,1.16062 c -36.13474,-11.31052 -62.46096,-33.92656 -78.38453,-67.3377 -4.43557,-9.30681 -8.69883,-21.50266 -10.84029,-31.01068 l -0.66526,-2.95371 2.18047,1.86179 c 10.35693,8.84328 23.40038,18.06005 34.20565,24.1704 15.15927,8.57254 33.68553,16.28982 52.23682,21.75972 10.97618,3.23637 29.93844,7.57246 31.12465,7.11727 0.29049,-0.11147 -0.97909,2.08433 -2.82128,4.87956 -8.158,12.37848 -16.82247,29.30975 -20.76119,40.56955 -0.50272,1.43715 -1.04913,2.28361 -1.46393,2.26779 -0.36401,-0.0139 -2.52901,-0.60967 -4.81111,-1.32399 z"
       id="path8" /><path
       style="fill:#41130d"
       d="m -85.22076,726.32042 c -63.68311,-3.10681 -121.05299,-19.53897 -160.07511,-45.84948 -28.81064,-19.42546 -48.41564,-45.23627 -56.92123,-74.9392 -8.4367,-29.46235 -7.67101,-61.70818 2.34226,-98.64116 4.91647,-18.13392 5.49613,-23.72156 6.52469,-62.89445 1.27067,-48.39441 1.89682,-62.22885 3.52859,-77.96291 1.15532,-11.13992 3.44364,-25.45797 5.39741,-33.77165 l 0.80286,-3.41634 -1.0662,-0.40537 c -0.58641,-0.22295 -1.23116,-0.40537 -1.43278,-0.40537 -0.78064,0 -13.11807,-4.11742 -17.26562,-5.76212 -31.71721,-12.5774 -58.79033,-37.32253 -75.19225,-68.72655 -7.21902,-13.82192 -11.71192,-26.62752 -15.43021,-43.97896 -1.54964,-7.23143 -1.75376,-8.86089 -1.75376,-13.99998 0,-5.36888 0.0862,-5.989 1.12129,-8.06615 1.28065,-2.56995 3.48216,-4.67666 6.09475,-5.83234 4.01584,-1.77639 27.57019,-7.03219 41.82829,-9.33335 21.3837,-3.45118 36.30037,-4.65265 57.63601,-4.6423 8.10749,0.004 14.74089,-0.0601 14.74089,-0.14229 0,-0.0822 -0.9829,-2.35538 -2.18422,-5.05152 -9.22907,-20.71291 -16.59491,-46.88708 -19.72737,-70.100236 -0.89142,-6.60587 -1.00168,-9.183843 -0.99943,-23.367034 0.002,-13.255038 0.12995,-16.625456 0.75853,-19.997033 1.39837,-7.500599 4.25939,-12.587463 8.67249,-15.419577 2.02785,-1.30138 2.74557,-1.509593 5.66429,-1.643238 5.88811,-0.269609 8.59573,1.646744 16.2415,11.495124 11.60054,14.942435 25.58899,31.926933 35.26416,42.81702 7.59923,8.553465 26.30547,27.237724 32.96266,32.923924 16.06355,13.72058 33.80501,26.01502 61.95707,42.93489 l 12.16564,7.31175 6.61535,-1.53362 c 9.37922,-2.17436 22.634062,-4.34801 32.848326,-5.38677 32.719025,-3.32743 72.226118,-1.13188 102.232211,5.6814 l 5.733657,1.3019 11.51864,-6.92615 c 31.778843,-19.10861 49.610673,-31.66422 66.485556,-46.81328 6.22356,-5.58707 20.85351,-20.292243 27.17051,-27.310209 9.97607,-11.083082 22.20064,-25.851459 36.55841,-44.165824 8.41135,-10.729285 10.37121,-12.177119 16.48356,-12.177119 3.45774,0 3.84911,0.09488 5.70295,1.382537 5.93024,4.11909 8.59344,9.968702 9.56134,21.00108 0.5852,6.670279 0.58457,22.563344 -0.001,29.677058 -1.99189,24.190847 -9.40986,52.690397 -20.17599,77.515387 l -2.4001,5.53424 3.5473,0.23761 c 1.95101,0.13068 7.08511,0.34046 11.4091,0.46618 16.64364,0.48392 37.57367,3.16169 58.3084,7.45994 10.87142,2.25361 29.31219,6.97652 31.40113,8.04222 2.76718,1.41171 4.70998,3.3625 6.03413,6.05893 1.11949,2.27968 1.21563,2.87235 1.18187,7.28598 -0.039,5.09586 -1.65261,13.49772 -4.61364,24.02218 -15.85154,56.34149 -58.03835,96.8111 -112.96593,108.36769 -2.26118,0.47574 -3.54926,0.94635 -3.43134,1.25364 0.46404,1.20928 2.99963,12.95773 4.38485,20.31686 4.0606,21.57237 5.67041,36.72232 7.91292,74.46877 2.57452,43.33494 4.0598,53.96399 11.53517,82.54896 1.94746,7.44688 4.21526,16.88105 5.03954,20.96482 8.62715,42.74152 1.33996,84.54407 -20.34159,116.68846 -19.28423,28.59018 -54.00954,50.57828 -100.595796,63.69735 -25.854981,7.28097 -63.32704,13.55631 -96.33687,16.13327 -19.192866,1.49832 -44.737157,1.93692 -62.457684,1.07241 z m 50.228207,-22.00308 c 38.5742939,-5.32951 65.078069,-22.89416 73.544043,-48.73931 2.328936,-7.10983 3.032186,-12.68023 2.778311,-22.00681 -0.252502,-9.27617 -1.162201,-14.48354 -4.082527,-23.36953 -2.493842,-7.58829 -3.367006,-9.14254 -5.836392,-10.38893 -2.371337,-1.1969 -4.440837,-1.23447 -6.884904,-0.125 -4.033132,1.83083 -4.476399,5.02816 -1.712361,12.35141 6.040523,16.0042 6.141682,31.71203 0.282318,43.8377 C 18.170994,666.06879 7.5063243,675.9243 -4.9525578,681.79724 -38.040867,697.3946 -90.443408,692.43518 -117.7599,671.12107 c -11.41068,-8.90336 -18.3793,-20.60352 -20.29445,-34.07393 -0.91112,-6.40844 -0.39562,-15.3129 1.35277,-23.36703 1.44671,-6.66443 1.52746,-9.20209 0.36895,-11.59524 -1.76208,-3.63998 -5.05339,-4.64663 -8.53031,-2.60902 -3.65527,2.14213 -5.31986,6.26075 -7.0138,17.35394 -0.9432,6.17677 -0.59928,19.29438 0.66686,25.43475 1.86132,9.02687 5.34879,17.53119 10.15886,24.77272 3.2271,4.85837 11.06151,12.86785 16.66738,17.03982 15.43105,11.48403 35.081076,18.55431 57.943862,20.84882 6.006068,0.60276 25.395622,0.22755 31.447225,-0.60856 z m -92.617627,-5.39131 c -17.06897,-11.1511 -28.93895,-25.62327 -34.83947,-42.4771 -1.43243,-4.09151 -3.33721,-12.22014 -3.82285,-16.314 -0.29852,-2.51646 -0.40306,-2.6843 -3.6727,-5.89636 -5.27553,-5.18263 -8.61158,-10.69345 -10.78049,-17.80832 -1.05323,-3.45497 -1.17423,-4.54613 -1.20099,-10.83033 -0.0257,-6.02861 0.10682,-7.46181 0.96489,-10.43656 2.62241,-9.09132 7.50041,-16.32694 14.65477,-21.73767 17.39705,-13.15711 42.02679,-10.12928 55.59999,6.83512 3.35341,4.19125 6.30768,10.00477 7.66075,15.07509 1.42528,5.34094 1.42232,14.77169 -0.006,20.09128 -2.59624,9.66722 -9.12953,18.69353 -17.23895,23.8171 -1.12907,0.71335 -2.0532,1.60608 -2.05363,1.98385 -4.3e-4,0.37777 0.85335,2.44149 1.89729,4.58605 6.5366,13.42813 21.878053,23.42901 42.807539,27.90566 19.628364,4.19835 41.704869,3.61845 57.523854,-1.51104 4.791905,-1.55382 12.4993129,-5.24802 16.57117,-7.94264 3.98425158,-2.63664 8.8309592,-7.37063 11.2101359,-10.94942 1.9762721,-2.97274 4.4685741,-8.53433 4.4984431,-10.03831 0.0096,-0.48195 -0.818097,-1.17835 -2.2779931,-1.91672 -11.0086903,-5.56784 -18.858237,-15.88398 -21.3919159,-28.11399 -1.092519,-5.27356 -0.882248,-12.88461 0.500886,-18.13021 3.3513666,-12.71021 13.4227088,-23.47339 25.952255,-27.73501 19.443252,-6.61316 40.856027,2.54596 49.453044,21.15307 2.838285,6.1431 3.461882,9.24679 3.428582,17.06435 -0.02677,6.2842 -0.147768,7.37536 -1.200991,10.83033 -1.84241,6.0438 -4.399917,10.68888 -8.58586,15.59407 l -2.049979,2.40222 -0.304528,4.58606 c -1.331354,20.04954 -8.50101,36.52543 -21.670115,49.79796 -2.52233,2.54214 -6.394624,5.98141 -8.605099,7.64282 -2.210475,1.66141 -3.968312,3.07148 -3.906303,3.13349 0.198353,0.19836 15.523259,-2.45176 23.430577,-4.05182 61.445178,-12.43353 103.578898,-38.59172 121.645128,-75.52182 15.16983,-31.00944 15.44191,-68.61032 0.86155,-119.06627 -5.46089,-18.89764 -7.08002,-31.0547 -8.95197,-67.21485 -2.94678,-56.9224 -6.79943,-82.4378 -18.07959,-119.73778 -8.2529,-27.2898 -16.83821,-46.91265 -27.58504,-63.04921 -1.75985,-2.64244 -3.75121,-5.43128 -4.42525,-6.19742 -1.18524,-1.34718 -1.29732,-1.38035 -3.40936,-1.00876 -7.98261,1.40443 -20.833836,-0.36533 -33.836968,-4.65974 C 52.58763,232.94737 37.916903,224.58493 27.666341,214.29069 19.231638,205.82004 15.182146,198.60952 14.40146,190.67127 l -0.257723,-2.6206 -8.0341242,-1.6163 c -27.8469558,-5.6022 -61.0860248,-7.02233 -89.5833048,-3.8274 -8.240913,0.92391 -20.038268,2.86645 -26.533598,4.36899 l -4.04009,0.93458 v 1.82591 c 0,2.39565 -1.47935,7.66901 -3.11166,11.092 -3.76485,7.89495 -14.37576,18.44891 -25.4308,25.29432 -5.50063,3.40606 -15.90955,8.38428 -23.09592,11.04597 -17.96392,6.65349 -32.90004,8.51525 -44.0136,5.48622 l -2.40222,-0.65473 -4.09053,4.25406 c -25.8054,26.83701 -43.83395,61.92287 -50.03351,97.37155 -3.85436,22.039 -5.44203,43.14314 -6.81154,90.54303 -1.34775,46.64637 -2.46415,57.8608 -7.84824,78.83645 -5.25735,20.48191 -6.70726,30.93426 -6.72513,48.48113 -0.0164,16.13028 1.38948,26.72789 5.22657,39.39716 5.63223,18.59649 14.88501,33.72539 29.06508,47.52331 11.76908,11.4519 22.93444,19.26047 39.25185,27.45103 19.28116,9.67822 41.07561,16.79106 67.69889,22.09424 7.79419,1.55255 20.81646,3.80001 22.68886,3.91577 0.34767,0.0215 -1.42124,-1.30237 -3.9309,-2.94193 z m -67.08059,-197.50649 c -10.51648,-1.89329 -19.30256,-9.41334 -22.95005,-19.64306 -0.89108,-2.49913 -1.0104,-3.62329 -0.99672,-9.3905 0.0142,-5.97621 0.11477,-6.81006 1.14556,-9.49599 3.35429,-8.74029 9.59908,-14.90113 18.2236,-17.97862 3.47369,-1.23951 4.20181,-1.34265 9.44192,-1.3375 5.02337,0.005 6.06047,0.13996 8.99581,1.17104 4.73568,1.66348 8.46317,3.99473 11.74029,7.3426 5.52017,5.63936 7.90034,11.20874 8.21304,19.21782 0.23579,6.03925 -0.37783,8.9607 -3.02502,14.40205 -1.46301,3.00723 -2.52052,4.41995 -5.56655,7.43631 -4.07767,4.03795 -7.95466,6.32263 -12.93253,7.62104 -3.29883,0.86046 -9.35472,1.18314 -12.28935,0.65481 z m 16.74159,-33.00266 c 5.39775,-4.29462 4.48119,-12.20235 -1.71438,-14.79103 -6.41014,-2.67833 -13.36199,3.12659 -11.69367,9.76442 0.62995,2.50641 2.18689,4.58752 4.284,5.72625 1.25441,0.68114 2.26641,0.84836 4.538,0.74986 2.49286,-0.10809 3.16847,-0.32163 4.58605,-1.4495 z m 252.915873,33.02807 c -7.476696,-1.3622 -14.40984,-5.51151 -18.577042,-11.11789 -6.27726,-8.44516 -7.80453,-18.8652 -4.134034,-28.2051 6.323382,-16.0904 24.769426,-23.34243 40.069417,-15.75323 15.150396,7.515 20.826126,25.725 12.626036,40.50933 -3.67101,6.61864 -10.609063,11.96041 -18.033235,13.8842 -3.352609,0.86875 -9.12125,1.19827 -11.951142,0.68269 z M 90.35168,469.11426 c 6.078663,-3.1011 6.106945,-11.95376 0.0484,-15.14915 -5.178916,-2.73146 -11.65978,0.51382 -12.52311,6.27092 -0.542661,3.61872 1.44043,7.40658 4.725384,9.02585 2.003204,0.98745 5.660989,0.91778 7.749328,-0.14762 z m 76.8789,-162.48762 c 17.18089,-4.19802 33.04292,-11.71135 47.38922,-22.44675 6.35498,-4.75546 17.46704,-15.74749 22.11776,-21.87883 12.16093,-16.03256 20.13157,-32.8252 25.49935,-53.72234 l 1.90725,-7.42504 -1.79227,-0.53837 c -3.54891,-1.06603 -19.64304,-4.50964 -28.13958,-6.02093 -22.39925,-3.98417 -45.85455,-5.92656 -63.26735,-5.23931 l -8.1419,0.32135 -3.60245,5.52025 c -7.85192,12.03197 -18.27972,24.70461 -28.15544,34.21656 l -5.30635,5.1109 4.52525,6.90019 c 12.10576,18.45908 20.93989,38.06352 28.45005,63.13551 1.03802,3.46534 1.23472,3.80351 2.10105,3.61205 0.5257,-0.11618 3.41264,-0.81154 6.41541,-1.54524 z m -443.59499,-1.84999 c 3.05282,-8.72721 10.04454,-23.05998 16.4322,-33.68537 6.55433,-10.90261 15.72211,-23.27664 24.09177,-32.51739 2.24639,-2.48019 4.65308,-5.1751 5.3482,-5.98871 l 1.26386,-1.47928 -5.49453,-5.70325 c -8.84609,-9.18211 -15.87085,-17.87278 -22.84711,-28.26523 -2.06481,-3.07594 -3.98046,-5.72122 -4.25699,-5.87839 -0.27653,-0.15718 -4.04059,-0.63856 -8.36458,-1.06975 -5.7725,-0.57563 -11.63417,-0.78483 -22.05674,-0.78721 -16.81992,-0.004 -27.72148,0.78381 -45.20539,3.26613 -11.95717,1.69764 -34.92293,6.15567 -35.73715,6.93715 -0.55189,0.52971 2.58089,13.3907 5.16476,21.20284 14.19237,42.90967 43.12851,71.68505 85.38666,84.91226 2.2821,0.71432 4.4471,1.31012 4.81111,1.32399 0.4148,0.0158 0.96121,-0.83064 1.46393,-2.26779 z m 88.97822,-81.79131 c 5.0499,-0.88786 10.04268,-2.2864 15.1548,-4.24504 15.2496,-5.84267 32.58769,-18.28825 36.5474,-26.23434 1.42938,-2.86839 1.47832,-5.48987 0.12583,-6.74023 -0.5405,-0.49968 -7.86181,-5.08741 -16.26957,-10.19495 -18.086,-10.98685 -26.78516,-16.53831 -34.5046,-22.01948 -28.10487,-19.95579 -55.60609,-47.36501 -85.38159,-85.096004 -4.96311,-6.289165 -5.46695,-6.79832 -5.82263,-5.884074 -0.49702,1.277579 -0.0179,14.74556 0.82813,23.275967 3.51581,35.451491 15.18358,69.178801 33.68065,97.358581 7.17884,10.93677 13.72497,19.05365 23.04845,28.57896 8.84723,9.03874 11.37429,10.74376 17.60165,11.87587 2.61712,0.47578 10.45187,0.12288 14.99148,-0.67526 z m 291.3428,0.46955 c 4.77146,-1.01136 6.95672,-2.43121 13.36744,-8.68531 16.25278,-15.85573 28.59949,-33.10828 38.8109,-54.23205 10.93333,-22.61715 17.88793,-47.10978 20.68349,-72.842892 0.73217,-6.739644 1.3181,-20.817135 0.98214,-23.596943 l -0.30598,-2.531747 -5.45693,6.899417 c -33.21938,42.000605 -62.04229,69.915095 -93.911669,90.951815 -4.206141,2.77644 -13.796058,8.78243 -21.310927,13.34664 -7.51487,4.56422 -15.473101,9.47785 -17.684959,10.91918 l -4.021561,2.6206 -0.131886,2.04438 c -0.185382,2.8736 1.379716,5.731 5.503116,10.04703 5.533297,5.79179 14.638124,12.20516 23.942517,16.86491 13.740581,6.88144 29.914242,10.23404 39.534309,8.19497 z"
       id="path7" /></g></svg>
