<?xml version="1.0" encoding="UTF-8" standalone="no"?>
<svg
   width="1000"
   zoomAndPan="magnify"
   viewBox="0 0 750 749.999995"
   height="1000"
   preserveAspectRatio="xMidYMid meet"
   version="1.0"
   id="svg6"
   sodipodi:docname="fox.svg"
   xml:space="preserve"
   inkscape:version="1.3.2 (091e20e, 2023-11-25, custom)"
   xmlns:inkscape="http://www.inkscape.org/namespaces/inkscape"
   xmlns:sodipodi="http://sodipodi.sourceforge.net/DTD/sodipodi-0.dtd"
   xmlns="http://www.w3.org/2000/svg"
   xmlns:svg="http://www.w3.org/2000/svg"><sodipodi:namedview
     id="namedview6"
     pagecolor="#ffffff"
     bordercolor="#000000"
     borderopacity="0.25"
     inkscape:showpageshadow="2"
     inkscape:pageopacity="0.0"
     inkscape:pagecheckerboard="0"
     inkscape:deskcolor="#d1d1d1"
     inkscape:zoom="1.2862272"
     inkscape:cx="97.960917"
     inkscape:cy="477.75384"
     inkscape:window-width="3840"
     inkscape:window-height="2054"
     inkscape:window-x="3829"
     inkscape:window-y="-11"
     inkscape:window-maximized="1"
     inkscape:current-layer="g7" /><defs
     id="defs3" /><g
     id="g7"
     transform="matrix(0.52517675,0,0,0.52517675,-116.97843,304.68592)"><g
       id="g11"
       transform="matrix(1.0656595,0,0,1.0656595,-5.7943775,74.548007)"><path
         style="fill:#ffffff;stroke-width:1.11506"
         d="m 932.16,616.34905 c 124.9304,-5.99931 253.7735,-37.54587 366.4401,-89.72095 85.2148,-39.46231 144.423,-85.41368 182.2775,-141.46526 12.1257,-17.95455 14.1231,-23.45652 13.9655,-38.46969 -0.1998,-19.04402 -6.6985,-37.59353 -28.2371,-80.59883 -19.1525,-38.24114 -28.8836,-64.46288 -32.634,-87.93635 -0.7,-4.38136 -1.6502,-16.80036 -2.1118,-27.59782 -0.4614,-10.79744 -1.4092,-24.52406 -2.1061,-30.50359 -16.5462,-141.963869 -114.9187,-273.31964 -257.2257,-343.47019 -73.7868,-36.3735 -152.9662,-56.80479 -246.2225,-63.53479 -18.59256,-1.34176 -72.75796,-1.33744 -92.41083,0.009 -55.05801,3.76753 -103.05892,11.70594 -150.16744,24.83471 -80.90294,22.54704 -150.88889,58.68626 -209.4404,108.15045 -13.45482,11.36655 -39.82409,37.74168 -51.12808,51.13919 -45.30813,53.699648 -74.06241,112.236979 -87.29513,177.713202 -4.19526,20.758919 -6.14608,37.834608 -7.49792,65.632138 -1.46672,30.1567 -3.2033,41.00987 -9.50394,59.39431 -5.53734,16.15783 -9.96022,25.84763 -24.43544,53.53422 -31.78178,60.78889 -38.79454,86.28927 -29.32075,106.61671 8.83299,18.95186 31.89579,48.52258 55.52143,71.1883 49.62145,47.60551 126.3712,92.4031 214.84215,125.40009 69.62519,25.96809 151.08322,44.94675 232.77617,54.23383 57.25766,6.50922 107.27095,8.173 163.91428,5.45293 z"
         id="path7-8"
         sodipodi:nodetypes="csssssscsscssssssssssscc" /><path
         style="fill:#fafbfb;stroke-width:1.11506"
         d="M 860.81678,603.8994 C 817.08647,602.12819 784.0842,599.24253 746.24404,593.88136 622.0273,576.28243 511.71363,539.82133 419.25176,485.80321 352.87532,447.02473 305.80855,404.33079 277.0668,356.82826 c -4.85867,-8.03013 -6.85378,-12.22618 -7.8133,-16.43272 -0.70869,-3.10695 -1.20223,-5.7353 -1.09674,-5.84078 0.10548,-0.10549 3.19155,-0.80759 6.85794,-1.56022 31.82352,-6.53269 53.72141,-25.68157 73.09857,-63.92197 7.76814,-15.33021 12.89202,-27.73282 27.63032,-66.88051 C 397.35902,144.77744 407.2705,123.42093 424.6725,96.763582 447.30058,62.100628 473.86832,38.290618 509.15373,21.051469 531.25088,10.255617 552.19206,3.7105424 578.51821,-0.62812371 652.94293,-12.893651 719.019,4.3557291 777.59462,51.341451 c 11.02762,8.845662 28.6348,25.7915 38.60898,37.158766 29.37177,33.474163 56.36453,77.688063 73.20493,119.909063 1.83462,4.59964 3.43255,8.46181 3.55095,8.58262 0.1184,0.12081 2.01176,-4.77153 4.20748,-10.87187 13.6165,-37.83054 33.50517,-75.04073 56.99229,-106.628156 16.74368,-22.518366 38.90255,-44.973675 60.39845,-61.206542 21.4205,-16.175924 48.647,-29.9010358 74.0142,-37.31115456 41.4548,-12.10955244 87.8702,-12.39505344 134.9691,-0.83020912 65.5662,16.09937068 109.3991,50.77176268 138.8647,109.84379168 12.3625,24.78405 19.6055,44.80136 34.4023,95.07633 19.6713,66.83692 28.9465,87.14742 48.9209,107.12542 13.8565,13.85894 28.1093,20.82453 48.4629,23.6847 3.1537,0.44316 5.9567,1.02848 6.229,1.30071 0.7774,0.77753 -1.2983,11.5241 -3.216,16.64955 -0.955,2.55264 -5.1278,9.75983 -9.2727,16.01599 -40.0262,60.41262 -105.3113,109.56007 -201.0943,151.38648 -107.1616,46.79516 -224.7452,74.70676 -343.2276,81.47424 -16.04597,0.91651 -70.3463,1.70237 -82.79342,1.19822 z m -7.94482,-135.37007 c 9.15187,-2.37585 18.3306,-7.54159 25.23009,-14.19932 l 6.31378,-6.09254 5.21004,5.11236 c 6.34021,6.22136 13.72804,10.68689 22.6232,13.67446 6.2074,2.08485 7.68651,2.24481 20.48929,2.21582 12.56651,-0.0284 14.47115,-0.23454 21.32556,-2.30756 10.39383,-3.14345 21.86951,-8.87263 26.98564,-13.47252 11.35335,-10.20761 11.9004,-24.63076 1.24207,-32.74959 -6.53527,-4.97825 -14.94162,-4.65185 -23.20993,0.9012 -9.30888,6.25192 -17.5841,9.14427 -26.34334,9.20748 -5.44344,0.0392 -6.86667,-0.28396 -10.7709,-2.4463 -6.98825,-3.87041 -11.72964,-11.45773 -15.03178,-24.0543 -0.9121,-3.47939 -1.00965,-3.35059 3.6408,-4.80697 10.54072,-3.30105 21.65011,-11.68291 25.50834,-19.24565 8.47987,-16.62191 -5.21996,-34.63492 -31.59339,-41.54008 -11.69015,-3.06075 -28.05604,-3.08282 -39.53298,-0.0533 -11.96962,3.15956 -18.59713,6.67839 -25.53908,13.55977 -6.61261,6.55491 -8.70929,10.99276 -8.70929,18.43407 0,5.83076 3.80554,13.3749 9.18786,18.21406 4.42713,3.98038 13.38806,9.00455 19.03717,10.67368 4.0893,1.20826 4.26,1.90598 2.3038,9.41634 -2.59196,9.9512 -8.30128,17.47348 -15.6672,20.64223 -8.56456,3.68437 -23.02501,0.65119 -34.66934,-7.27214 -8.1862,-5.57028 -14.27725,-6.66039 -20.7599,-3.71538 -10.05528,4.56801 -13.86238,17.68028 -8.31304,28.63138 4.90968,9.68879 25.18777,19.76103 45.95361,22.8254 4.73487,0.69872 20.07305,-0.25047 25.08892,-1.55261 z M 513.95732,369.40519 c 16.62018,-3.49489 28.01284,-8.87704 36.31938,-17.15811 4.18795,-4.17511 5.42621,-6.05456 6.56115,-9.95863 2.41212,-8.29738 -0.0491,-15.19323 -8.07417,-22.62312 -25.91637,-23.99398 -94.29459,-24.01404 -120.96454,-0.0355 -8.01855,7.20938 -10.66941,16.99381 -6.87143,25.36276 2.36753,5.21692 9.59311,11.84583 17.25971,15.83443 10.57886,5.50373 18.86155,7.83964 37.51441,10.57994 6.2658,0.92051 30.35199,-0.33984 38.25549,-2.00179 z m 807.49228,0.42745 c 26.0804,-5.08274 43.0863,-16.54848 45.6775,-30.79673 1.7381,-9.55743 -6.7922,-20.62248 -21.2621,-27.58038 -13.7929,-6.63226 -29.2391,-9.78558 -47.9755,-9.79416 -31.2917,-0.0144 -57.867,10.12313 -66.6413,25.42109 -1.9593,3.41587 -2.4464,5.26814 -2.4527,9.32519 -0.016,10.38137 6.63,18.31867 21.3177,25.45954 15.3493,7.46246 29.7155,10.18027 51.0141,9.65086 7.4452,-0.18505 16.46,-0.9327 20.3223,-1.68541 z M 639.61612,281.18061 c 24.8997,-6.55391 44.06761,-27.38695 48.48043,-52.692 1.55324,-8.90693 1.57359,-13.94246 0.0897,-22.17007 -5.29238,-29.34231 -28.23126,-50.96071 -57.76994,-54.4444 -31.80628,-3.75112 -61.8157,16.68621 -70.80377,48.21949 -2.46655,8.6535 -2.64765,24.68861 -0.37255,32.98642 7.03005,25.6402 26.52155,44.02678 51.9421,48.99764 7.18527,1.40505 21.39055,0.95688 28.43411,-0.89708 z m -9.40697,-71.60426 c -6.55552,-3.24492 -10.25878,-9.33544 -10.22764,-16.82078 0.0299,-7.19922 4.00866,-13.77589 10.41796,-17.22044 3.81932,-2.05259 12.53192,-1.80767 16.87151,0.4743 6.0996,3.20745 10.3336,10.02038 10.32087,16.60723 -0.0134,6.89705 -4.8287,14.21884 -11.28535,17.15942 -4.62036,2.10427 -11.61815,2.01744 -16.09735,-0.19973 z m 542.67435,72.7686 c 8.1083,-1.25804 16.6955,-4.3164 23.6767,-8.43256 7.1024,-4.18749 18.9714,-15.90751 22.9066,-22.6188 17.4682,-29.79172 9.7212,-67.62287 -17.8589,-87.21051 -12.3031,-8.73784 -23.2437,-12.29064 -38.0515,-12.3568 -19.0749,-0.0852 -34.3068,6.18241 -47.5777,19.57732 -31.626,31.92172 -21.9836,86.1559 18.7254,105.32297 12.7222,5.98999 24.7846,7.79664 38.1794,5.71838 z M 1170.6649,209.81 c -16.8975,-7.97842 -13.9267,-31.698 4.4678,-35.67025 7.712,-1.6654 16.2175,2.65067 19.8484,10.07194 4.3546,8.90028 1.6806,18.9919 -6.4595,24.37878 -4.5688,3.02349 -12.8397,3.58835 -17.8567,1.21953 z"
         id="path11"
         sodipodi:nodetypes="ssssssssssssssssssssssssssssssssscssssssssssssssssssssssssssssssssssssssssssssssssssssssssssssssssssssssssss" /><path
         style="fill:#eaa1c0;stroke-width:1.11506"
         d="m 475.70183,371.40698 c -24.72389,-3.63219 -39.05912,-9.05995 -48.64454,-18.41832 -5.52356,-5.39272 -7.76269,-10.06602 -7.78715,-16.2526 -0.0772,-19.52321 30.58787,-35.09232 69.08349,-35.07469 25.66071,0.0117 48.247,6.74313 60.41005,18.00396 8.02516,7.42989 10.48629,14.32574 8.07417,22.62312 -1.13494,3.90407 -2.3732,5.78352 -6.56115,9.95863 -12.19091,12.15354 -31.6529,18.56661 -58.26707,19.20006 -7.5894,0.18063 -14.92791,0.16256 -16.3078,-0.0401 z m 803.97477,-0.71612 c -11.5828,-1.66469 -20.0147,-4.1813 -29.5634,-8.82367 -14.6877,-7.14087 -21.3338,-15.07817 -21.3177,-25.45954 0.019,-12.22399 11.8986,-22.99336 32.6357,-29.58544 20.5016,-6.51721 48.447,-6.88133 70.1901,-0.91457 17.2766,4.74106 31.833,15.32346 34.7151,25.23761 4.9035,16.86741 -13.2621,32.52414 -44.8868,38.68739 -9.5978,1.8705 -31.5861,2.32225 -41.773,0.85822 z"
         id="path10" /><path
         style="fill:#e89b22;stroke-width:1.11506"
         d="m 1488.5629,334.64512 c -33.0597,-6.56883 -55.0993,-27.97033 -71.8753,-69.79407 -5.7477,-14.32944 -10.0894,-27.66481 -20.5543,-63.13215 -14.154,-47.97039 -21.4184,-67.99598 -33.2072,-91.54126 C 1328.4275,41.274538 1275.2938,5.4885775 1189.4816,-6.6385483 1174.4979,-8.7560867 1136.267,-8.7727346 1122.1597,-6.6678745 1048.9712,4.2521286 989.3957,45.094477 941.26689,117.34439 c -17.8312,26.76782 -37.6215,67.00181 -46.56791,94.67334 -0.79036,2.4446 -1.55351,4.32627 -1.69589,4.18148 -0.14238,-0.14479 -1.79928,-4.13258 -3.68198,-8.86176 C 865.0256,146.30938 822.00151,86.348892 776.35075,49.896385 712.35995,-1.2007979 636.30841,-16.759182 553.35979,4.2775966 523.10911,11.949532 492.91877,26.800144 469.84775,45.357108 c -9.18905,7.39114 -25.66971,24.222472 -33.1391,33.844229 -13.02665,16.78043 -25.47794,37.654643 -35.91674,60.213413 -8.00587,17.30108 -13.69497,31.40733 -27.15112,67.32194 -12.89434,34.41512 -17.89926,46.44002 -25.93177,62.30415 -14.61935,28.87308 -30.05338,46.13305 -50.08912,56.01501 -8.15638,4.02286 -22.36144,8.37989 -27.32062,8.37989 -2.41336,0 -2.41734,-0.009 -2.41734,-5.34355 0,-15.48097 1.60744,-38.46412 18.77301,-72.21484 4.32783,-8.50932 12.12055,-23.85989 16.56056,-32.59919 18.94797,-37.29539 24.58721,-56.39824 25.9881,-94.73528 1.32419,-36.238335 7.85759,-62.514208 16.72497,-93.833381 12.99176,-45.886365 34.38495,-92.664495 62.92418,-130.349575 24.16267,-31.905984 57.93077,-67.964854 90.70837,-92.680824 85.81795,-64.71104 200.15167,-104.71579 328.79697,-115.1635 22.50267,-1.82752 88.96149,0.38015 110.0171,2.03008 110.4281,8.65324 208.8175,39.17658 289.7478,89.99401 47.4952,29.82303 93.7081,72.42585 126.764,116.367421 33.4077,44.409297 60.0258,92.7424722 73.8632,141.678629 9.2201,32.607067 14.7493,56.63722 16.4894,95.75605 1.6903,37.9963 4.2302,54.95356 34.9096,117.92195 10.8432,22.25545 17.3652,34.09108 20.9093,44.52062 3.0064,8.84726 -0.4743,21.27374 -0.4743,26.90107 v 4.2592 l -3.1361,-0.0786 c -1.7249,-0.0433 -5.7231,-0.59264 -8.8852,-1.22093 z M 344.83074,-85.0184 c -6.77744,-22.39017 -18.00509,-57.97324 -20.75343,-87.94349 -4.30112,-46.90306 2.87201,-96.2059 9.46662,-158.45878 6.8665,-64.81949 14.04029,-96.09853 28.86641,-125.86275 10.32606,-20.73012 20.11939,-32.28873 37.47517,-35.00098 16.32404,-2.55102 49.87186,2.01135 83.87855,13.05289 25.7096,8.34756 49.15762,17.41469 82.41443,33.89663 66.52382,32.96897 113.66823,72.07008 149.78257,106.8106 8.34719,8.02967 8.81497,8.64805 6.86665,9.07746 -22.82921,5.03157 -61.46126,15.60496 -77.77566,21.28679 l -4.59963,1.60192 -6.79297,-6.4938 c -35.67784,-34.10658 -101.91253,-70.0476 -148.75835,-80.72094 -13.14001,-2.99382 -29.03462,-3.3526 -36.79708,-0.8306 -17.93736,5.82779 -30.54421,39.16609 -36.5423,96.63467 -1.49237,14.29859 -1.48672,74.04661 0.008,86.55678 1.64376,13.7558 4.00657,26.75002 6.29419,34.6147 l 2.04101,7.01689 -7.55799,8.02832 c -20.67244,21.9589 -35.76168,50.81378 -50.96554,75.425249 -3.1256,5.059599 -12.64414,10.308473 -12.95321,10.668361 -0.30906,0.359889 -2.41354,-4.507853 -3.63632,-8.54745 z m 1072.96006,4.760357 c 0,-1.360239 -22.1854,-27.284587 -30.7359,-38.713657 -9.5343,-12.7439 -26.9681,-21.73214 -33.5338,-37.82135 l -5.8196,-14.26079 1.6252,-4.70758 c 2.1946,-6.35726 5.4427,-22.65327 7.0373,-35.30655 1.8127,-14.38421 2.5457,-58.24741 1.2774,-76.44709 -4.3014,-61.726 -17.5004,-101.94862 -35.8598,-109.27952 -4.1831,-1.67032 -6.2445,-1.90376 -16.8909,-1.91275 -8.6762,-0.008 -14.1489,0.42769 -19.2349,1.52891 -47.4405,10.27174 -116.1206,47.48502 -151.5845,82.13368 l -8.1593,7.9719 -14.6215,-0.24645 c -18.7999,-0.31688 -42.0448,-11.50403 -60.1113,-15.59951 -7.8247,-1.77379 -9.9905,-7.67647 -10.1089,-7.82098 -0.3465,-0.42272 9.8767,-25.13475 21.02,-34.2644 52.1522,-42.72769 127.3185,-81.29597 199.3457,-109.51569 41.4985,-16.25879 69.0296,-23.87892 97.3036,-23.92651 22.4636,-0.0378 27.8904,9.35309 37.7067,21.25384 9.5512,11.57936 19.4206,24.47257 27.3173,55.99494 13.8462,55.27109 22.1867,99.03249 22.9589,166.95403 0.7898,69.46456 -6.4352,113.71184 -15.5709,149.91972 -3.93,15.576237 -13.3608,28.431912 -13.3608,24.065807 z"
         id="path9"
         sodipodi:nodetypes="ssssssssssssssssssssssssssssssssssscssscssssssssscsssscscsssccssscsssscsscsssssssssss" /><path
         style="fill:#c36d29;stroke-width:1.11506"
         d="m 1340.1254,-177.61553 c -53.6916,-52.22821 -121.9057,-94.55878 -199.414,-123.74742 l -14.9002,-5.61122 8.2099,-8.02124 c 35.5146,-34.699 104.1614,-71.90415 151.6347,-82.18301 5.086,-1.10122 10.5587,-1.53622 19.2349,-1.52891 10.6464,0.009 12.7078,0.24243 16.8909,1.91275 18.3594,7.3309 31.5584,47.55352 35.8598,109.27952 1.2683,18.19968 0.5353,62.06288 -1.2774,76.44709 -1.5939,12.6484 -4.8425,28.94866 -7.0351,35.29978 l -1.6227,4.70081 2.1987,2.19864 c 1.2091,1.20926 2.0189,2.18281 1.7995,2.16344 -0.2196,-0.0194 -5.4301,-4.92896 -11.579,-10.91023 z m -920.64488,7.4464 c -0.0276,-0.60533 -1.02537,-4.67577 -2.21746,-9.04542 -2.70877,-9.92905 -5.16429,-25.97192 -6.43556,-42.04589 -1.29967,-16.43315 -0.56346,-65.55955 1.21649,-81.17467 6.28499,-55.13661 18.54722,-86.47848 36.06003,-92.16834 7.76246,-2.522 23.65707,-2.16322 36.79708,0.8306 46.70855,10.64206 112.99054,46.5639 148.47783,80.46827 3.64714,3.48445 6.44436,6.63764 6.21602,7.00709 -0.22833,0.36945 -2.95131,1.51295 -6.05106,2.54112 -3.09977,1.02818 -12.03361,4.39933 -19.85299,7.49144 -72.32649,28.60101 -134.1936,68.2078 -185.72771,118.90128 -4.63796,4.56231 -8.45516,7.79985 -8.48267,7.19452 z"
         id="path8" /><path
         style="fill:#41130d;stroke-width:1.11506"
         d="m 837.40046,647.37584 c -2.06984,-0.16467 -10.34918,-0.69123 -18.39855,-1.17015 -133.55827,-7.9464 -279.65884,-46.73685 -391.80532,-104.02633 -40.87427,-20.88041 -72.49252,-41.33218 -105.37167,-68.15799 -13.8145,-11.27113 -44.4172,-41.66646 -55.66046,-55.2833 -24.18532,-29.29111 -34.5823,-46.34257 -40.53903,-66.48564 -3.00394,-10.158 -3.70458,-26.0687 -1.73618,-39.42672 3.20805,-21.77061 9.37528,-37.84397 31.56046,-82.25455 18.13547,-36.30385 23.31412,-47.803 27.858,-61.85863 4.73777,-14.6554 5.43981,-19.10868 6.33259,-40.16965 2.43963,-57.552478 12.0405,-102.326929 32.44773,-151.32289 l 3.28954,-7.89789 -4.03837,-4.852595 c -11.7513,-14.120624 -19.19327,-33.333398 -25.8532,-66.744695 -5.48449,-27.51439 -9.41203,-57.3881 -11.87451,-90.32012 -1.61794,-21.63756 -1.36707,-82.6357 0.43185,-105.00023 6.22496,-77.39026 21.46139,-147.37365 39.97225,-183.59911 19.45105,-38.06542 42.3355,-52.09072 84.78245,-51.961 49.86445,0.15237 103.30191,17.02089 183.14913,57.81443 57.5644,29.40934 97.50264,54.7437 133.66329,84.78775 12.52992,10.41047 34.13073,31.48045 44.33262,43.24315 4.18877,4.82962 8.19083,8.7428 8.89347,8.69594 0.70264,-0.0468 8.42788,-0.89979 17.16719,-1.89542 59.78744,-6.81135 127.12353,-6.66777 182.31035,0.3887 l 10.03322,1.2829 2.09309,-2.437 c 15.9668,-18.58944 26.2673,-28.85459 46.417,-46.25766 56.5739,-48.86231 130.4602,-91.73406 212.8376,-123.49682 72.7867,-28.06475 128.781,-32.7398 161.1435,-13.4541 11.1899,6.66835 24.9176,22.53591 32.468,37.52877 12.3386,24.50126 24.8419,68.12399 32.1152,112.04688 6.9613,42.03815 9.4655,75.33517 9.4345,125.4446 -0.039,63.5398 -4.692,118.90143 -12.7737,151.990078 -5.5615,22.770384 -15.5175,45.942503 -24.8691,57.882331 l -4.8827,6.234 4.3414,10.073799 c 13.8372,32.1087595 24.961,69.870679 30.4358,103.320957 2.6363,16.106953 4.1129,30.559185 5.0843,49.759695 2.1648,42.78883 4.5626,50.83567 31.7728,106.62791 20.2196,41.45845 26.0403,55.96267 30.226,75.31778 2.711,12.53599 2.7169,35.69484 0.011,45.52719 -7.0824,25.74052 -38.8086,69.30369 -73.6922,101.18622 -37.2375,34.03397 -75.8607,59.94557 -128.8227,86.42494 -103.1626,51.57812 -225.517,86.25886 -347.06341,98.37349 -36.37548,3.62556 -44.84784,3.98341 -99.5194,4.20336 -29.66764,0.11935 -55.63468,0.0823 -57.70451,-0.0824 z m 100.77381,-43.86605 c 124.93043,-5.99931 253.77353,-37.54586 366.44023,-89.72094 85.2146,-39.46232 144.4229,-85.4137 182.2774,-141.46529 12.1257,-17.95453 14.123,-23.45651 13.9654,-38.46967 -0.1998,-19.04402 -6.6984,-37.59353 -28.2369,-80.59883 -19.1526,-38.24114 -28.8836,-64.46288 -32.634,-87.93636 -0.7001,-4.38135 -1.6503,-16.80036 -2.1119,-27.59781 -0.4614,-10.79745 -1.4092,-24.52406 -2.1061,-30.50359 -16.5462,-141.963872 -114.9188,-273.31965 -257.2257,-343.47022 -73.7869,-36.37348 -152.9663,-56.80478 -246.22249,-63.53478 -18.59258,-1.34176 -72.75797,-1.33744 -92.41086,0.008 -55.05801,3.76753 -103.05892,11.70593 -150.16745,24.83472 -80.90294,22.54703 -150.88888,58.68624 -209.44043,108.15046 -13.45473,11.36654 -39.82412,37.74167 -51.12803,51.13918 -45.30814,53.699654 -74.06246,112.236983 -87.29512,177.713195 -4.19535,20.75893 -6.14613,37.834628 -7.498,65.632145 -1.46661,30.15671 -3.20325,41.00987 -9.50382,59.39431 -5.53749,16.15785 -9.96037,25.84764 -24.43552,53.53423 -31.78176,60.78889 -38.79462,86.28926 -29.32065,106.61672 8.83285,18.95186 31.89569,48.52257 55.52128,71.18831 49.62155,47.60551 126.37116,92.40308 214.84221,125.40009 69.62521,25.96808 151.08323,44.94674 232.77618,54.23383 57.25765,6.50921 107.27095,8.173 163.91427,5.45291 z M 823.51176,468.88878 c -17.643,-3.14371 -37.17926,-13.60811 -41.30099,-22.12246 -3.88896,-8.03353 -2.92482,-17.35214 2.40666,-23.26074 3.73653,-4.141 7.1072,-5.60921 12.82296,-5.58544 4.68633,0.0195 7.79997,1.26738 15.68967,6.28813 9.59647,6.10689 20.92543,8.92529 28.7962,7.16389 10.29415,-2.30373 18.94983,-13.43121 20.98035,-26.97172 l 0.57258,-3.81818 -4.46733,-1.45055 c -11.44327,-3.71566 -21.57863,-11.44762 -25.49265,-19.44759 -7.96204,-16.27381 5.33038,-33.6178 31.06091,-40.52834 9.71222,-2.60846 30.50992,-2.59685 40.14227,0.0224 14.84864,4.03767 26.80194,12.27076 31.045,21.38291 2.77206,5.9531 2.74061,13.68855 -0.0786,19.346 -3.84647,7.71887 -13.52998,15.18378 -24.3803,18.79454 -3.84945,1.28102 -5.33167,2.1819 -5.33167,3.24056 0,2.17688 3.22259,11.59176 5.51857,16.12266 8.3831,16.54323 26.81724,17.84651 49.13021,3.47346 8.91003,-5.73945 18.53548,-4.69925 24.60031,2.65847 2.5575,3.10268 4.38063,7.85618 4.38063,11.42155 0,1.12805 -0.60369,4.08399 -1.34164,6.56876 -3.6961,12.44632 -24.90594,24.10772 -48.54439,26.69024 -19.22285,2.1001 -37.28831,-3.67631 -49.66202,-15.87936 l -5.65606,-5.57803 -6.57257,6.35742 c -7.12352,6.89032 -15.15506,11.54393 -24.12163,13.97648 -5.86118,1.59008 -23.84811,2.26613 -30.19648,1.13494 z M 609.39678,281.17286 c -12.42057,-2.70123 -22.26364,-8.22329 -32.06023,-17.9861 -13.22842,-13.18282 -19.21888,-27.50471 -19.23904,-45.99636 -0.0409,-37.55023 31.90825,-67.53796 69.22325,-64.97342 9.65798,0.66376 15.76613,2.33607 24.83982,6.8007 13.38159,6.5843 23.90015,17.13418 30.09142,30.18102 3.95255,8.32921 5.46858,14.54082 6.02469,24.68485 1.77056,32.29647 -19.94954,60.62834 -51.58061,67.28213 -7.23967,1.52291 -20.31398,1.52635 -27.2993,0.007 z m 34.93736,-69.97081 c 7.62487,-2.28447 13.52218,-10.27563 13.53419,-18.33953 0.0165,-11.09539 -8.31214,-19.38389 -19.50666,-19.41262 -14.15556,-0.0364 -23.40037,14.98182 -17.05763,27.71003 4.34528,8.71984 13.75245,12.82177 23.0301,10.04212 z m 504.58706,69.88413 c -23.4392,-5.22283 -42.3524,-23.26419 -49.0607,-46.799 -2.4559,-8.6163 -2.6454,-24.66329 -0.3896,-32.98643 6.1443,-22.66992 23.698,-40.50743 46.2795,-47.02755 8.4767,-2.44757 25.3218,-2.60782 33.6473,-0.32013 24.3771,6.69839 43.0251,26.62858 47.8228,51.11102 1.2566,6.41237 1.0269,20.22023 -0.4416,26.54488 -5.2835,22.75599 -22.4844,41.12459 -45.2421,48.31339 -7.8136,2.46819 -24.1462,3.05099 -32.6156,1.16382 z m 39.5708,-71.99953 c 10.0284,-6.20011 12.189,-19.7794 4.5643,-28.68717 -4.0238,-4.70083 -8.7408,-6.96668 -14.4465,-6.93941 -11.3625,0.0543 -19.4588,8.14635 -19.4879,19.47771 -0.02,7.71857 5.3547,15.26931 12.9121,18.14056 4.4997,1.70954 11.9247,0.81097 16.458,-1.99169 z M 358.64456,-92.111981 c 47.69674,-74.441259 117.06181,-136.627689 199.85071,-179.167999 47.86565,-24.59533 105.17123,-44.93719 158.8965,-56.40378 3.67971,-0.78536 6.99443,-1.7058 7.36602,-2.04541 0.3716,-0.33963 -3.95624,-4.91826 -9.61742,-10.17473 -38.39715,-35.65222 -81.16681,-64.114 -144.93693,-96.45071 -53.99824,-27.38156 -95.61833,-42.77428 -134.72595,-49.82687 -13.68274,-2.46752 -33.89223,-3.10252 -41.53118,-1.30493 -15.2985,3.6 -23.5028,11.81543 -33.97912,34.02521 -12.8666,27.27719 -19.63388,57.1314 -25.9577,114.51385 -11.06591,100.41208 -8.77209,169.53931 7.96437,240.017346 1.5838,6.669471 3.68398,14.56322 4.66705,17.541664 1.52738,4.62755 1.92043,5.193594 2.70187,3.890983 0.50295,-0.838404 4.68875,-7.414984 9.30178,-14.614624 z m 1063.95424,2.590322 c 12.8949,-39.223131 17.2213,-77.450761 17.2497,-152.415191 0.028,-72.42814 -5.2167,-119.95239 -19.5491,-177.15963 -9.0937,-36.29674 -15.3459,-50.47234 -27.7182,-62.84458 -8.4998,-8.49977 -20.1025,-11.06738 -42.1269,-9.32232 -26.7675,2.12088 -52.712,9.01146 -90.7024,24.08949 -71.3623,28.32295 -138.7172,67.32622 -189.0245,109.45845 -11.5979,9.7132 -30.1079,26.31889 -30.1021,27.00519 0,0.29921 5.7416,1.83042 12.7535,3.40267 113.8979,25.53886 216.7266,79.88464 290.4454,153.50273 27.1789,27.14171 50.9496,56.70321 68.2454,84.870582 3.3767,5.499085 6.3384,10.015675 6.5816,10.036868 0.2432,0.0212 2.0197,-4.759723 3.9476,-10.624259 z"
         id="path7" /></g></g></svg>
