<?xml version="1.0" encoding="UTF-8" standalone="no"?>
<svg
   width="1000"
   zoomAndPan="magnify"
   viewBox="0 0 750 749.999995"
   height="1000"
   preserveAspectRatio="xMidYMid meet"
   version="1.0"
   id="svg6"
   sodipodi:docname="horse.svg"
   xml:space="preserve"
   inkscape:version="1.3.2 (091e20e, 2023-11-25, custom)"
   xmlns:inkscape="http://www.inkscape.org/namespaces/inkscape"
   xmlns:sodipodi="http://sodipodi.sourceforge.net/DTD/sodipodi-0.dtd"
   xmlns="http://www.w3.org/2000/svg"
   xmlns:svg="http://www.w3.org/2000/svg"><sodipodi:namedview
     id="namedview6"
     pagecolor="#ffffff"
     bordercolor="#000000"
     borderopacity="0.25"
     inkscape:showpageshadow="2"
     inkscape:pageopacity="0.0"
     inkscape:pagecheckerboard="0"
     inkscape:deskcolor="#d1d1d1"
     inkscape:zoom="1.2862272"
     inkscape:cx="-132.55823"
     inkscape:cy="598.26133"
     inkscape:window-width="3840"
     inkscape:window-height="2054"
     inkscape:window-x="3829"
     inkscape:window-y="-11"
     inkscape:window-maximized="1"
     inkscape:current-layer="svg6" /><defs
     id="defs3" /><g
     id="g12"
     transform="matrix(0.55020734,0,0,0.54937176,122.51161,355.33193)"><path
       id="rect17"
       style="fill:#ffffff;stroke-width:1.61672"
       d="m 185.95222,56.042636 c 200.0645,0 400.12901,0 600.19351,0 0,153.766834 0,307.533674 0,461.300504 -200.0645,0 -400.12901,0 -600.19351,0 0,-153.76683 0,-307.53367 0,-461.300504 z"
       inkscape:label="white" /><path
       id="path15"
       style="fill:#f4bb5b"
       inkscape:label="gold"
       d="m 479.88086,-331.41211 c -57.42436,0.48887 -118.91356,6.40077 -166.65424,41.47608 -26.06406,33.57667 -17.96448,79.39602 -16.78882,118.8852 15.19897,128.691964 114.81686,248.630631 238.10292,288.02245 19.53973,13.64237 69.54426,24.23311 48.85997,-12.34024 -15.6437,-57.45896 -58.0049,-119.147617 -64.96655,-178.68926 14.35576,-45.68521 56.31412,11.843013 63.35068,37.033134 57.0309,93.704862 158.98261,182.936296 270.87645,201.931206 34.02372,16.79911 48.31874,-15.95399 36.70852,-49.5272 C 888.07954,4.6817642 866.7967,-111.00115 801.22345,-202.59407 724.95642,-297.15177 596.69876,-331.07834 479.88086,-331.41211 Z m -372.125,139.41992 C 45.01157,-121.18806 8.225709,-11.953509 33.136871,81.377396 34.593282,114.71958 60.703891,113.77479 54.635179,85.567047 57.628234,0.27393726 72.726873,-102.41349 125.45821,-171.3774 c -0.12398,-8.12134 -8.84361,-22.15955 -17.70235,-20.61479 z"
       sodipodi:nodetypes="cccccccccccccccc" /><path
       id="path13"
       style="fill:#c46d29"
       d="m 833.76758,-549.28906 c -2.2379,0.28079 -3.74996,2.13613 -5.35604,3.52718 -8.13848,7.66134 -15.99755,15.61313 -23.86001,23.55466 -7.14625,7.28511 -14.32176,14.54997 -21.15751,22.13006 -28.84075,32.6234 -54.70287,68.24306 -73.69743,107.54197 -8.30248,17.1531 -15.20336,34.98702 -20.53285,53.28594 -1.30099,4.54863 -2.70548,9.08237 -3.61491,13.72972 -0.15531,0.94666 -0.18181,1.95389 0.34454,2.79365 0.15093,0.6811 0.6261,1.04613 1.26751,1.24912 6.28427,2.90325 12.69488,5.53144 18.90765,8.59156 3.21538,1.55662 6.36544,3.1425 9.49278,4.77402 3.66341,1.90947 7.1249,3.78688 10.69064,5.7811 8.76762,4.92449 17.36867,10.14845 25.74414,15.71485 0.80708,0.53812 1.76406,1.17508 2.57483,1.73167 4.50463,2.98906 8.79519,6.2832 13.26188,9.32558 1.10236,0.76804 2.28312,1.45065 3.63453,1.63984 0.58983,0.0901 1.09187,-0.50235 1.64374,-0.70395 1.39725,-1.08663 2.02299,-2.8532 2.93581,-4.32322 5.52604,-10.34091 10.70503,-20.86378 15.82184,-31.4117 5.76208,-11.80641 10.91922,-23.89868 15.75099,-36.11232 14.92069,-37.77616 25.86216,-77.21109 31.35983,-117.48478 2.11566,-15.17204 3.30493,-30.47027 3.55387,-45.78699 0.1801,-10.54277 0.0689,-21.08798 0.10136,-31.63195 -1.66657,-2.17817 -3.09142,-4.56029 -5,-6.54101 -1.02271,-0.97884 -2.43835,-1.59098 -3.86719,-1.375 z m -698.17774,17.83594 c -2.42945,0.14224 -4.14079,2.19669 -5.21359,4.19085 -1.35229,2.3361 -2.43995,4.87982 -2.63599,7.60166 -0.42222,4.71946 -0.28046,9.46649 -0.32092,14.19928 0.0512,34.02953 4.11149,68.02769 11.78652,101.17342 8.60093,37.2289 21.61869,73.35397 37.60219,108.02959 5.53694,11.78851 11.36276,23.44319 17.48366,34.93883 1.71454,3.07566 3.28186,6.26325 5.39007,9.09505 0.60813,0.89116 1.65043,1.22481 2.58189,1.66194 1.29654,-0.35032 2.47134,-0.98903 3.54358,-1.78975 5.15316,-3.56642 10.14689,-7.35987 15.3504,-10.85538 14.57899,-9.89608 29.70732,-19.00237 45.3903,-27.04194 4.42411,-2.30515 9.02217,-4.32724 13.17375,-7.11617 1.80572,-1.17994 3.25502,-2.81797 4.33668,-4.67436 0.58255,-0.88869 1.16488,-1.77751 1.74631,-2.66693 -2.28677,-8.92147 -4.57284,-17.85093 -7.44873,-26.60494 -13.4748,-41.64288 -35.51525,-80.09173 -61.73211,-114.97622 -10.93884,-14.52842 -22.5957,-28.51579 -34.87971,-41.9247 -10.0245,-10.60876 -20.3394,-20.93901 -30.7299,-31.18788 -3.67302,-3.55663 -7.26654,-7.20869 -11.1451,-10.54259 -1.20701,-0.94165 -2.71788,-1.64161 -4.2793,-1.50976 z m 128.28936,279.13286 c -0.46673,-0.46673 -15.08228,8.39869 -24.62344,14.93574 -72.02155,49.34499 -125.36189,126.14629 -143.4368,206.52372 -8.190929,36.4242933 -12.410467,83.046174 -14.661024,161.93754 -2.691487,94.34765 -5.049276,119.69817 -14.253687,153.37395 -8.560569,31.3202 -12.246506,57.69573 -12.216994,87.37567 0.03527,35.46832 5.857269,64.74155 18.589156,93.45732 27.355679,61.69861 90.130089,108.4978 181.499249,135.30581 6.1875,1.81543 11.45273,3.31414 11.69914,3.33134 0.2464,0.0172 -3.80611,-4.27363 -9.00249,-9.53298 C 174.80989,510.72381 245.87439,412.53103 368.5778,380.81306 l 8.05204,-2.08405 3.68183,-9.45089 c 7.80205,-20.04271 9.14539,-25.27143 19.1228,-74.32504 14.19564,-69.79239 20.57495,-95.00411 29.31574,-115.86094 8.26887,-19.73077 15.87388,-29.65107 27.39903,-35.73526 2.93266,-1.54815 4.40791,-1.78092 11.25075,-1.78092 7.15983,0 8.28354,0.19805 12.37488,2.17879 6.13874,2.97195 15.36056,12.409 20.19956,20.67005 15.04584,25.68595 26.28504,68.25523 40.50649,153.41817 4.05718,24.29583 6.91447,37.0961 12.00859,53.79709 1.93031,6.32847 1.98734,6.40911 4.74596,6.90896 6.00801,1.08861 26.80494,7.30238 36.40469,10.87815 119.10266,44.36387 152.43183,134.90019 84.15485,204.58807 -4.54783,4.64181 -8.06351,8.43827 -7.81206,8.43727 0.25146,-10e-4 6.83402,-1.83018 14.62629,-4.06706 58.73658,-16.86132 103.76847,-40.77469 136.31943,-72.3894 41.18836,-40.0037 59.67079,-89.24953 57.99677,-154.53282 -0.88329,-34.4464 -6.1472,-64.69336 -18.9807,-109.08775 -5.95667,-20.60563 -9.55064,-39.49656 -11.77808,-61.9186 l -0.92835,-9.36878 -5.23225,-0.91888 C 785.66906,180.25239 730.56183,156.33469 684.52714,121.82163 649.10177,95.262558 613.98878,58.040643 583.09357,14.296924 579.10068,8.6435085 575.73792,4.1117526 575.62254,4.2271396 c -0.11539,0.1153868 2.51678,7.1038604 5.84799,15.5293814 16.65911,42.135483 21.96093,57.245477 26.97275,76.889069 3.02653,11.86243 5.94519,29.51483 5.95219,35.98156 0.0144,13.49029 -6.14244,24.43834 -15.54517,27.64217 -6.59251,2.24631 -13.60017,1.59755 -31.15349,-2.88294 C 486.93456,136.77176 420.66572,100.60822 369.10197,49.009102 340.01713,19.904304 318.95395,-9.7426245 299.87655,-48.426874 280.25767,-88.209103 268.867,-127.78708 263.25083,-175.67434 c -1.28993,-10.99756 -1.28784,-56.28067 0.003,-67.78237 0.52682,-4.69267 0.80731,-8.68145 0.62521,-8.86355 z m 450.2226,503.21448 c 11.72031,3.1e-4 21.22093,9.50234 21.21949,21.22265 -3.1e-4,11.71907 -9.50042,21.21917 -21.21949,21.21948 -11.7203,0.001 -21.22233,-9.49918 -21.22264,-21.21948 -10e-4,-11.72154 9.5011,-21.22408 21.22264,-21.22265 z m -477.7132,1.38937 c 11.19244,0.001 20.2652,8.89879 20.26587,19.87433 10e-4,10.97676 -9.07217,19.87616 -20.26587,19.87748 -11.19493,3.9e-4 -20.27014,-8.89951 -20.26903,-19.87748 6.7e-4,-10.97675 9.07535,-19.87472 20.26903,-19.87433 z"
       inkscape:label="medium brown" /><path
       style="fill:#f4f0d0"
       d="m 411.15049,625.67329 c -28.56225,-1.69074 -56.64981,-4.68341 -81.375,-8.67032 -22.48858,-3.62626 -57.53387,-11.24632 -61.875,-13.45377 -2.66727,-1.3563 -19.20067,-18.49893 -23.72768,-24.60201 -17.47395,-23.55748 -24.75609,-49.56186 -20.93139,-74.74559 6.76319,-44.53227 44.77078,-84.08831 105.11216,-109.39449 30.43065,-12.76211 64.21639,-21.01901 102.29691,-25.00035 12.63545,-1.32104 60.91385,-1.31765 73.5,0.005 31.53023,3.31385 57.56511,8.93195 84.52328,18.2394 67.11756,23.17269 112.5197,64.47449 122.03604,111.01477 5.4996,26.89617 -1.52497,54.84393 -20.07782,79.8811 -2.09052,2.82117 -7.86345,9.27664 -12.82873,14.34548 l -9.02777,9.21607 -11.10503,2.6043 c -36.10611,8.46744 -87.79834,15.69642 -139.64497,19.52885 -19.0127,1.4054 -89.12644,2.08203 -106.875,1.0314 z M 211.83799,-592.1109 c 157.88437,-0.10419 416.24062,-0.10419 574.125,0 157.88437,0.1042 28.70625,0.18945 -287.0625,0.18945 -315.76875,0 -444.946875,-0.0852 -287.0625,-0.18945 z"
       id="path16"
       inkscape:label="tan"
       sodipodi:nodetypes="ssssssscsssscssssssss"
       transform="translate(-7.0021492e-5)" /><path
       style="fill:#e89b22"
       d="m 135.15049,412.18075 c -29.12716,-3.11569 -48.359732,-18.27933 -41.983502,-33.10127 4.309493,-10.01769 19.795492,-18.32039 39.358502,-21.10175 6.9507,-0.98821 21.34379,-0.97401 28.54925,0.0282 17.99327,2.50263 34.2028,10.78738 38.50854,19.68185 1.93607,3.99939 2.05915,10.11586 0.27971,13.90049 -3.11359,6.62218 -14.21754,14.10463 -25.73303,17.34032 -11.30766,3.1773 -27.24709,4.50718 -38.97947,3.25218 z m 639.75,0 c -9.85771,-1.05446 -23.21453,-5.05771 -29.85056,-8.94669 -7.70439,-4.51507 -13.62323,-12.24675 -13.64211,-17.82045 -0.0258,-7.61882 6.28065,-15.25515 16.79899,-20.34144 11.2544,-5.44223 22.91785,-7.83244 38.31868,-7.8527 20.48755,-0.0269 39.22783,5.76309 48.39667,14.95275 4.35922,4.36911 5.98011,7.8688 5.97129,12.89273 -0.0222,12.66404 -16.71423,23.46245 -41.48473,26.83733 -5.52084,0.75219 -18.68168,0.90173 -24.50823,0.27847 z"
       id="path14"
       inkscape:label="light brown"
       transform="translate(-7.0021492e-5)" /><path
       style="fill:#41130d"
       d="M 419.02549,663.11637 C 301.77906,658.37871 193.83262,627.26245 124.82892,578.31232 110.70262,568.29135 100.32157,559.50054 87.869314,547.01445 47.811109,506.8474 27.107691,463.07727 20.259233,404.0766 c -1.274676,-10.98156 -1.277965,-49.68102 -0.0053,-61.875 2.35326,-22.54692 6.684661,-45.42143 12.852461,-67.875 7.538177,-27.44236 9.319495,-41.03819 10.962562,-83.67127 l 0.478712,-12.42127 -3.351048,-4.82873 C 25.150689,150.28369 7.781376,102.98604 1.3691873,64.95281 -2.5037918,41.980634 -3.1768708,33.604912 -3.2014255,8.0765991 -3.2309781,-22.647782 -1.1128272,-41.266025 5.4404497,-67.884248 17.424143,-116.55984 42.633956,-164.13594 81.386606,-211.21027 l 8.262578,-10.03687 -2.428245,-4.21313 c -4.986791,-8.65234 -15.048836,-30.07562 -19.063357,-40.58813 -18.81029,-49.25704 -23.935843,-103.85846 -14.749661,-157.125 5.938766,-34.43624 19.298372,-70.9688 36.913647,-100.94235 8.130177,-13.83403 22.780842,-34.84814 27.953922,-40.09559 5.55413,-5.63396 9.91069,-7.84287 15.42429,-7.82059 5.91593,0.0239 9.12639,1.82538 19.5485,10.9692 12.97505,11.38362 42.53326,40.61267 53.7145,53.11633 49.42216,55.26737 83.26995,111.13017 101.89625,168.17079 l 3.47698,10.64779 7.39919,-3.71309 c 28.8731,-14.4892 70.55339,-24.71985 119.54029,-29.34181 14.10802,-1.3311 74.73362,-1.34757 89.625,-0.0243 42.16678,3.74687 81.05089,11.16641 115.875,22.11028 l 10.5,3.29974 1.34215,-4.56318 c 3.80584,-12.93949 9.27009,-28.98523 13.17495,-38.68818 21.96289,-54.57423 56.56543,-106.55336 105.2531,-158.10876 18.46665,-19.55435 48.50282,-47.24834 54.15142,-49.92878 3.44339,-1.634 11.75679,-1.60377 15.34003,0.0558 11.73036,5.43282 40.83803,50.65347 54.70114,84.98176 9.90913,24.53731 16.43259,49.51942 20.17191,77.25 1.93798,14.372 1.94431,59.55932 0.0103,73.875 -2.94793,21.8212 -8.53287,44.74409 -15.62343,64.125 -11.22917,30.69312 -29.47935,62.69991 -49.38627,86.61257 -3.71819,4.46638 -6.76034,8.39086 -6.76034,8.72106 0,0.3302 1.05742,2.38709 2.34982,4.57086 1.2924,2.18378 5.47839,10.21426 9.3022,17.84551 34.72474,69.30088 54.84018,144.964251 61.15622,230.036537 1.0269,13.831528 0.46814,90.983303 -0.73212,101.088463 -2.29155,19.29301 -6.24333,28.15414 -14.39888,32.28687 -3.25225,1.64804 -4.56069,1.83813 -12.65231,1.83813 -4.96371,0 -9.02493,0.10891 -9.02493,0.24202 0,0.13312 0.85136,6.79874 1.89191,14.8125 2.4743,19.05568 5.81224,35.20566 12.77728,61.82048 13.29386,50.7985 15.72882,66.76411 15.67066,102.75 -0.0364,22.5307 -0.83748,32.27836 -4.19124,51 -10.3699,57.88771 -39.14492,107.32268 -82.66247,142.01267 -49.12234,39.15784 -112.55946,64.13791 -203.95074,80.31107 -71.07897,12.57857 -139.36476,17.58428 -204.1604,14.96603 z m 70.5,-36.6776 c 70.52361,-2.96978 138.86093,-12.46648 188.7381,-26.22855 109.80902,-30.29843 174.93643,-85.00628 194.20378,-163.13362 5.19536,-21.0667 7.10222,-40.44412 6.45682,-65.61369 -0.88329,-34.44646 -6.14535,-64.69147 -18.97889,-109.08596 -5.95667,-20.60567 -9.54994,-39.49719 -11.77738,-61.91927 l -0.93072,-9.36891 -5.23085,-0.92077 C 785.66923,180.25115 730.56026,156.33354 684.52549,121.8204 649.10004,95.261276 613.98847,58.04145 583.0932,14.297643 579.10031,8.6442171 575.73899,4.1130945 575.62361,4.2284817 c -0.11539,0.1153872 2.51574,7.1034173 5.84695,15.5289563 16.65915,42.135567 21.95941,57.245444 26.97123,76.889076 3.02655,11.862456 5.94772,29.513106 5.95464,35.979836 0.0144,13.49033 -6.1434,24.44009 -15.54615,27.64392 -6.59253,2.24631 -13.60008,1.5979 -31.15344,-2.88261 -19.94116,-5.08999 -34.73798,-9.66806 -51.54635,-15.94819 C 440.58154,113.20456 379.59373,69.042182 335.8914,10.910593 307.69308,-26.598005 284.94188,-74.250655 273.29181,-120.20495 c -4.81062,-18.97574 -7.51374,-33.90595 -10.04257,-55.46845 -1.28979,-10.9976 -1.28702,-56.28043 0.004,-67.78215 0.52679,-4.69269 0.80882,-8.68114 0.62672,-8.86324 -0.46673,-0.46673 -15.08193,8.39819 -24.62311,14.93524 -72.02169,49.34509 -125.3618,126.1451 -143.436748,206.522692 C 87.629297,5.5635087 83.407853,52.185084 81.15729,131.0766 c -2.691491,94.34785 -5.047124,119.69914 -14.251553,153.375 -8.560587,31.32026 -12.249175,57.695 -12.219663,87.375 0.0473,47.56592 11.108483,86.9081 34.160135,121.5 22.301141,33.46567 60.023961,63.80473 105.367071,84.74282 62.13156,28.69049 139.86329,44.90936 233.06221,48.62886 13.90117,0.55479 46.10038,0.42055 62.25,-0.25951 z M 365.9984,515.65154 c -7.54448,-2.83407 -13.03179,-8.37029 -15.93645,-16.0785 -1.89822,-5.03739 -1.36164,-14.6527 1.10195,-19.74644 2.30827,-4.7726 7.54967,-10.02617 12.36159,-12.3903 3.21846,-1.58125 4.81308,-1.84354 11.25,-1.85047 6.76294,-0.007 7.88947,0.19708 11.46311,2.07946 5.28724,2.78501 9.63132,7.26424 12.05043,12.42534 1.68628,3.59762 1.98556,5.25317 1.98597,10.98597 4.2e-4,5.73473 -0.29822,7.38713 -1.98548,10.98597 -2.43591,5.19566 -6.80245,9.67828 -12.05092,12.37128 -5.20516,2.67078 -14.83043,3.24986 -20.2402,1.21769 z m 186.90209,0.64141 c -7.23053,-2.37204 -13.30034,-7.64238 -16.38903,-14.23038 -1.68708,-3.59845 -1.98597,-5.25186 -1.98597,-10.98597 0,-5.73411 0.29889,-7.38753 1.98597,-10.98597 2.41983,-5.16136 6.76399,-9.6405 12.05092,-12.42534 3.57364,-1.88238 4.70017,-2.08674 11.46311,-2.07946 8.88017,0.01 12.84487,1.53774 18.39895,7.09182 5.55929,5.55929 7.08375,9.51884 7.08375,18.39895 0,8.88011 -1.52446,12.83966 -7.08375,18.39895 -5.0421,5.0421 -9.56711,6.92943 -17.27395,7.20476 -3.50625,0.12526 -7.21875,-0.049 -8.25,-0.38736 z m -337.125,-175.49932 c -18.80498,-4.64769 -33.36782,-18.93437 -38.31865,-37.59203 -1.7339,-6.53436 -1.73164,-18.98006 0.005,-25.5 2.86487,-10.758 9.38655,-20.96472 17.50765,-27.40027 15.68686,-12.43101 36.69534,-15.09692 54.30375,-6.89097 16.65266,7.76055 27.53686,22.72768 29.83063,41.02085 2.68891,21.44449 -9.35151,43.41859 -28.82802,52.61195 -10.61076,5.00852 -23.66702,6.42786 -34.5,3.75047 z m 33.13246,-57.5223 c 7.94536,-6.32206 8.24325,-17.83852 0.62388,-24.11904 -7.08928,-5.84359 -17.03089,-4.31346 -22.49596,3.46239 -1.97911,2.81593 -2.26038,3.85334 -2.26038,8.33692 0,4.49391 0.27926,5.51812 2.28119,8.36653 3.55426,5.05709 7.09325,6.73872 13.60127,6.46295 4.68612,-0.19856 5.75343,-0.52325 8.25,-2.50975 z m 444.24254,57.81605 c -2.68125,-0.60119 -8.06666,-2.67076 -11.96758,-4.59905 -12.21647,-6.03881 -21.56731,-17.04776 -26.04362,-30.66173 -2.76907,-8.42166 -2.92053,-21.33724 -0.34741,-29.625 2.90415,-9.35398 6.55731,-15.48192 13.23144,-22.19487 9.89411,-9.95167 22.60274,-15.26095 36.60412,-15.29211 19.57486,-0.0436 37.7743,11.30181 46.29832,28.86198 3.77195,7.77051 5.20256,14.06072 5.20256,22.875 0,8.88703 -1.4294,15.09423 -5.33852,23.18263 -2.44361,5.0561 -4.33478,7.60089 -9.53139,12.82557 -10.59697,10.65421 -20.23691,14.90564 -34.98292,15.42825 -5.49942,0.19491 -9.87534,-0.072 -13.125,-0.80067 z M 724.2443,284.2454 c 1.63284,-0.92484 3.99534,-3.14211 5.25,-4.92727 2.00193,-2.84841 2.28119,-3.87262 2.28119,-8.36653 0,-4.48358 -0.28127,-5.52099 -2.26038,-8.33692 -5.46507,-7.77585 -15.40668,-9.30598 -22.49596,-3.46239 -8.58031,7.07261 -7.01552,20.40759 3.00634,25.61986 3.43843,1.7883 10.59989,1.52299 14.21881,-0.52675 z M 884.51155,156.19176 c 3.44274,-23.83531 2.6195,-71.15898 -1.996,-114.740161 -8.86209,-83.678818 -32.37763,-160.490169 -66.8307,-218.296299 -25.77506,-43.24598 -68.72527,-80.35642 -123.65936,-106.84589 -65.81035,-31.73405 -148.02291,-47.75482 -229.18788,-44.66188 -38.68501,1.47416 -63.14889,4.90311 -89.4448,12.53689 -24.3057,7.05602 -53.16505,21.47208 -60.76937,30.35602 -8.4646,9.88899 -12.53889,24.81272 -14.81022,54.24844 -1.08468,14.05712 -0.46305,43.71781 1.20326,57.41272 10.33598,84.948398 52.76371,163.476722 118.59172,219.498186 37.87395,32.231785 90.83781,58.944954 147.60467,74.446774 6.15305,1.68027 11.48397,3.05504 11.84648,3.05504 0.87265,0 0.24024,-3.3579 -3.20525,-17.01884 -5.33216,-21.14138 -11.36905,-38.114244 -33.29374,-93.606161 -8.68131,-21.9726064 -18.42905,-50.20187 -22.27225,-64.5 -2.16187,-8.042958 -2.42408,-10.116548 -2.46586,-19.5 -0.0446,-10.014203 0.0473,-10.678282 1.98575,-14.353389 6.75895,-12.814114 22.4343,-15.01867 35.592,-5.005595 6.7758,5.156413 16.82061,18.923766 31.36159,42.983984 37.14626,61.464038 80.72096,111.5449 126.44306,145.32234 46.54115,34.382521 101.03728,55.407931 157.82084,60.889591 4.5375,0.43803 9.2625,0.91599 10.5,1.06213 4.11882,0.4864 4.47541,0.25155 4.98606,-3.2839 z M 47.403412,73.701599 c 4.53278,-99.656296 21.45679,-162.036181 60.910468,-224.508709 2.90034,-4.59253 7.61217,-11.64873 10.47073,-15.68045 l 5.19738,-7.33041 -6.87321,-8.24022 c -3.78027,-4.53211 -6.94764,-8.24021 -7.03861,-8.24021 -0.091,0 -3.04002,3.62812 -6.55346,8.0625 -43.943287,55.46154 -66.454977,107.84478 -71.89153,167.286892 -1.169033,12.7819623 -0.535011,46.093288 1.094899,57.525607 2.008469,14.087567 6.384843,34.057915 11.011966,50.25 2.183718,7.641671 2.49738,7.991061 2.693177,3 0.09709,-2.475 0.537278,-12.43125 0.97819,-22.125 z M 209.29474,-258.79372 c 17.57684,-12.87009 39.62308,-26.3208 58.6465,-35.78103 8.7314,-4.34207 11.26189,-5.95637 12.64547,-8.06704 l 1.72971,-2.6387 -2.05929,-7.94646 c -14.77438,-57.01204 -47.9338,-114.21053 -98.95708,-170.69645 -8.7815,-9.72167 -40.94797,-41.86903 -43.71581,-43.68985 -2.11733,-1.39288 -3.24186,-0.588 -5.39623,3.86233 -1.38423,2.85945 -1.5374,4.59192 -1.53627,17.37681 0.006,67.64487 15.45444,134.48869 47.39574,205.07571 7.82867,17.30057 23.2828,47.25 24.38135,47.25 0.21184,0 3.30149,-2.1354 6.86591,-4.74532 z m 571.48921,-36.33509 c 14.38813,-28.50009 24.26525,-51.71905 33.10556,-77.82394 17.48455,-51.63076 25.49637,-97.81877 25.50671,-147.04562 l 0.004,-20.32497 -2.26717,-3.12973 c -1.93004,-2.66436 -2.48276,-3.01435 -3.7171,-2.35375 -2.43546,1.30342 -38.21,37.25923 -47.39327,47.63342 -44.18796,49.91839 -73.65949,98.37185 -90.12415,148.17108 -3.63689,11.00018 -7.6456,25.36027 -7.17148,25.68984 0.16399,0.114 4.01067,1.83002 8.54817,3.81339 22.0774,9.65015 48.50442,24.89534 68.23394,39.36272 2.87867,2.11088 5.46771,3.83797 5.75344,3.83797 0.28572,0 4.57021,-8.02368 9.52108,-17.83041 z"
       id="path12"
       inkscape:label="brown" /></g></svg>
