<?xml version="1.0" encoding="UTF-8" standalone="no"?>
<svg
   width="1000"
   zoomAndPan="magnify"
   viewBox="0 0 750 749.999995"
   height="1000"
   preserveAspectRatio="xMidYMid meet"
   version="1.0"
   id="svg6"
   sodipodi:docname="lion.svg"
   xml:space="preserve"
   inkscape:version="1.3.2 (091e20e, 2023-11-25, custom)"
   xmlns:inkscape="http://www.inkscape.org/namespaces/inkscape"
   xmlns:sodipodi="http://sodipodi.sourceforge.net/DTD/sodipodi-0.dtd"
   xmlns="http://www.w3.org/2000/svg"
   xmlns:svg="http://www.w3.org/2000/svg"><sodipodi:namedview
     id="namedview6"
     pagecolor="#ffffff"
     bordercolor="#000000"
     borderopacity="0.25"
     inkscape:showpageshadow="2"
     inkscape:pageopacity="0.0"
     inkscape:pagecheckerboard="0"
     inkscape:deskcolor="#d1d1d1"
     inkscape:zoom="1.2862272"
     inkscape:cx="222.74447"
     inkscape:cy="635.57976"
     inkscape:window-width="3840"
     inkscape:window-height="2054"
     inkscape:window-x="3829"
     inkscape:window-y="-11"
     inkscape:window-maximized="1"
     inkscape:current-layer="svg6" /><defs
     id="defs3" /><g
     id="g7"
     transform="matrix(0.55062217,0,0,0.55027797,172.18718,227.01946)"><path
       style="fill:#fdfdfd"
       d="m 140.50746,333.28482 c -22.24131,-16.77839 5.97508,-44.43448 22.50414,-27.0605 21.05873,22.1352 1.94417,45.5038 -22.50414,27.0605 z m 454.09848,0.40227 c -18.88331,-8.41276 -1.73314,-42.6745 18.05575,-30.39378 18.74645,11.63379 -2.77966,37.91383 -18.05575,30.39378 z"
       id="path13"
       inkscape:label="white"
       sodipodi:nodetypes="ssssss" /><path
       style="fill:#f0f2d1"
       d="m 251.23405,512.95045 c -89.71318,-45.92169 -79.69669,-194.17404 30.69384,-230.9963 77.0589,-29.6877 151.52342,-22.11104 203.47954,21.36556 53.52834,41.46758 68.03284,137.75032 19.52055,187.12768 -43.34061,41.21977 -192.8836,37.20355 -253.69393,22.50306 z"
       id="path12"
       inkscape:label="eggshell"
       sodipodi:nodetypes="ccccc" /><path
       style="fill:#f4bb5b"
       d="M 329.08487,628.81941 C 234.63657,624.72697 166.1254,613.22291 108.17521,591.72532 45.238765,568.378 -1.9982689,534.66605 -33.631474,490.52124 -63.107204,449.38723 -81.267117,396.63519 -85.64338,339.43382 -86.629479,326.54469 -86.637264,297.4514 -85.657961,284.94265 -78.946806,199.22038 -40.326031,116.011 22.690628,51.503062 97.187037,-24.756297 197.19825,-67.276826 321.20987,-75.414664 c 17.04736,-1.118675 57.9532,-1.120552 76.125,-0.0035 91.81843,5.644269 168.17492,28.854958 230.625,70.1049094 C 706.77728,46.74776 764.14753,128.36011 787.23979,221.27123 c 9.25003,37.21728 13.14071,80.39699 10.57597,117.375 -4.59452,66.24332 -24.32649,122.56535 -57.93781,165.375 -28.00251,35.66589 -71.45785,66.61465 -120.91808,86.11746 -56.5076,22.28169 -121.41212,34.96619 -198.29746,38.75392 -17.49497,0.86188 -70.9836,0.81912 -91.57754,-0.0732 z m 59.91766,-107.17805 c 76.2701,-3.85213 118.56329,-26.37648 133.55158,-71.12639 8.3905,-25.0512 7.5571,-63.75564 -1.96167,-91.10237 -16.81968,-48.32168 -61.40821,-81.43079 -122.00929,-90.59771 -13.113,-1.98356 -36.728,-2.66563 -50.81688,-1.46773 -69.95338,5.94772 -121.60004,42.60701 -137.42996,97.54908 -3.93235,13.64829 -6.04768,19.77709 -6.04311,42.375 0.002,11.26457 1.30988,28.25505 7.50015,45.48803 9.51295,26.48289 28.22529,44.66988 57.42523,55.813 27.74981,10.58973 72.40609,15.46197 119.78395,13.06909 z M 167.06528,305.08622 c -24.64027,-16.48159 -51.19671,16.3358 -29.86407,33.12354 16.93218,13.32479 55.69119,-15.84808 29.86407,-33.12354 z m 446.22876,-2.67392 c -17.78828,-8.64746 -47.04216,21.89129 -22.31104,33.85701 27.67409,13.38961 40.12954,-25.19486 22.31104,-33.85701 z"
       id="path10"
       sodipodi:nodetypes="sssssssssssssssssssssssssssssss"
       inkscape:label="yellow" /><path
       style="fill:#e99c22"
       d="m 69.209869,457.59388 c -18.67386,-3.14231 -32.562615,-10.39677 -37.310474,-19.48822 -2.019751,-3.86752 -2.120204,-10.2401 -0.219233,-13.90783 9.175653,-17.70347 51.077705,-26.20549 81.324338,-16.5009 11.4226,3.66493 21.29415,10.53526 24.17378,16.82431 4.00361,8.74376 -0.50568,18.0056 -12.16686,24.99012 -3.96112,2.37253 -12.16532,5.32047 -19.42655,6.98038 -8.427295,1.92646 -27.959355,2.51827 -36.375001,1.10214 z m 564.375001,0.53151 c -15.20615,-1.62658 -29.6344,-7.29629 -36.77167,-14.44977 -4.21989,-4.22946 -5.97833,-7.86332 -5.97833,-12.35432 0,-6.56214 3.81475,-12.21996 11.68779,-17.33464 23.94289,-15.55438 73.03118,-13.08884 90.6743,4.55428 8.54605,8.54605 8.12276,17.78494 -1.19882,26.16584 -6.98211,6.27752 -19.79896,11.2481 -33.90504,13.14891 -5.52896,0.74503 -18.7087,0.89007 -24.50823,0.2697 z"
       id="path9"
       inkscape:label="gold" /><path
       id="path8"
       style="fill:#c46d29"
       inkscape:label="medium brown"
       d="m 373.29102,-219.63281 c -71.11819,-4.4696 -152.67754,49.59134 -151.08575,125.830551 42.65577,22.078332 93.54078,-26.788031 141.66912,-7.387591 97.70058,9.130211 199.77825,20.820833 285.20373,72.980866 30.68354,-38.231414 130.09499,-63.757925 59.12188,-112.977256 -42.76828,-39.3959 -135.22594,-46.65037 -163.40884,10.80986 -24.24655,45.508362 -53.42225,18.95578 -56.27475,-19.53245 -21.44842,-42.41592 -67.766,-70.16215 -115.22539,-69.72398 z m -260.7129,33.02734 C 64.387183,-181.75385 -3.2986422,-142.415 5.5396425,-87.052948 36.138012,-47.579225 72.799649,4.0340699 113.58423,-42.648778 c 37.28542,-10.058618 140.7232,-32.630388 82.82301,-84.373072 -19.36179,-28.6172 -46.13008,-59.90335 -83.82912,-59.58362 z m 387.28516,90.429689 c 8.94197,3.99713 -7.77963,4.915268 0,0 z m -551.083983,62.427734 c -63.228527,-2.808695 -99.436927,95.248169 -41.434744,127.886444 52.781789,37.380703 78.613056,-50.794484 112.538374,-74.651054 -6.049254,-30.143533 -43.418696,-48.82199 -71.10363,-53.23539 z m 825.962893,0.339844 C 726.64291,-39.751121 659.46797,0.22859783 738.98133,67.937235 767.91037,128.44061 835.49368,115.7055 845.1334,53.284734 853.45476,12.193325 817.0428,-33.777751 774.74219,-33.408203 Z M 881.94922,141.13867 c -48.91494,10.01214 -101.61775,35.59731 -67.68214,85.84706 22.3015,125.34863 -7.6426,292.13144 -124.33842,358.82618 C 559.49355,662.91634 400.9064,667.95745 253.88025,655.01605 128.24375,641.18858 -10.942612,595.64292 -77.121682,479.23405 -128.34164,387.11712 -125.99633,273.89399 -92.6875,176.15234 c -31.45311,-37.71079 -103.18484,-43.86626 -125.87934,6.42933 -29.56,49.98608 -4.26494,110.17153 41.71664,139.28691 49.87129,30.63255 -54.92693,71.1633 -47.06677,120.28651 -7.57146,61.29271 55.2094,123.52448 116.81938,99.96136 73.716791,-36.47565 1.14967,58.2249 25.90567,88.61188 28.023577,69.06995 129.099894,83.66409 179.862879,31.52152 47.016851,-0.64816 42.406651,88.22768 101.266241,86.42411 57.54046,24.38003 119.13929,-3.70339 162.33537,-38.4633 48.745,15.95847 88.86506,65.18717 146.03815,42.53786 55.8354,-1.90236 83.84535,-62.27172 106.6904,-91.68512 49.35377,16.75539 99.66772,59.47892 152.27004,23.37261 52.51606,-26.75759 66.58745,-102.05373 27.10553,-145.42901 -6.70581,-62.67788 73.90131,17.57634 107.4878,-16.57972 56.61222,-20.9708 73.18667,-101.5819 31.68617,-144.88478 -35.36039,-27.98272 -55.28514,-52.11887 -4.16931,-75.74145 40.21804,-22.35099 50.33465,-73.71461 29.9232,-112.91358 -14.12858,-28.81399 -45.09774,-48.46627 -77.35533,-47.7488 z"
       sodipodi:nodetypes="cccccccccccccccccccccccccccccccccccccccccccccc" /><path
       style="fill:#f7ce88"
       d="m 796.54806,139.72886 c -3.84198,-8.48416 -15.52089,-31.57258 -17.13918,-33.88302 -0.97088,-1.38612 -0.68723,-1.54438 5.63065,-3.14144 13.72371,-3.469128 25.89615,-10.336386 35.701,-20.14124 10.25023,-10.250226 18.20281,-23.684822 19.86955,-33.566372 3.12206,-18.509664 -7.38186,-44.0019851 -24.7428,-60.049141 -14.25643,-13.17757 -29.57023,-18.557308 -46.60574,-16.372592 -24.25742,3.11089 -42.705,16.535075 -57.38735,41.760422 -0.76256,1.310121 -1.51766,0.779448 -8.62889,-6.0642368 -7.34837,-7.0718998 -19.42473,-17.575366 -24.23947,-21.0823802 l -2.17244,-1.582381 4.18858,-5.943603 c 20.15187,-28.595605 49.52598,-48.232952 80.8129,-54.025499 10.97043,-2.031097 32.05566,-1.889965 40.5,0.271082 33.23829,8.506234 64.76648,38.430377 81.41459,77.2725032 8.25204,19.2530428 11.03241,37.5374968 8.18816,53.8476268 -1.3185,7.560802 -4.12588,14.746837 -9.18257,23.504511 -16.46096,28.50874 -43.00638,52.04272 -71.04518,62.98547 -12.41348,4.84463 -11.10355,5.17205 -15.16181,-3.78971 z m -884.027125,4.1784 c -9.738757,-3.38012 -25.360325,-12.56098 -36.028135,-21.1739 -16.58677,-13.39172 -35.52448,-37.675308 -41.60448,-53.348902 -5.42129,-13.975504 -6.016,-30.555853 -1.69777,-47.33281 10.36651,-40.275327 40.19746,-76.805705 75.011129,-91.857106 11.669733,-5.045313 16.050932,-5.826999 32.75819,-5.844667 12.707917,-0.01344 16.162976,0.236983 22.610823,1.638827 31.1424889,6.770773 56.759058,23.975853 77.651898,52.154025 l 4.358993,5.878973 -7.385802,5.89536 C 34.13359,-6.8404914 26.348477,-0.25457263 20.895529,4.5524353 15.442582,9.3594433 10.888852,13.175178 10.77613,13.031845 10.663409,12.888512 9.058028,10.40874 7.2086176,7.5212402 -5.528828,-12.365841 -23.270454,-24.209423 -45.089043,-27.390533 c -17.461071,-2.545792 -33.406321,3.073565 -47.924251,16.889258 -14.333356,13.6400475 -23.546746,32.158314 -24.638926,49.522515 -0.50575,8.040861 0.85265,14.832015 4.33917,21.693025 9.89461,19.471329 27.527455,34.752021 46.908285,40.650905 2.400549,0.73065 4.473372,1.39841 4.606275,1.4839 0.132902,0.0855 -0.574622,1.45296 -1.572275,3.03881 -3.535746,5.62035 -9.159436,15.78408 -15.125482,27.33639 l -6.043884,11.70303 z"
       id="path11"
       inkscape:label="tan"
       transform="translate(-6.0645391e-6)" /><path
       style="fill:#41130d"
       d="m 237.58487,785.96043 c -1.44375,-0.16904 -5.83125,-0.67349 -9.75,-1.12099 -28.80924,-3.28985 -57.56452,-14.43354 -79.5,-30.80906 -7.65679,-5.71603 -21.06781,-18.51443 -26.99216,-25.75914 -5.66228,-6.92424 -12.937,-18.05023 -16.67314,-25.5 -1.65499,-3.3 -3.09048,-6.09252 -3.18998,-6.2056 -0.0995,-0.11308 -3.5084,1.88577 -7.575327,4.44189 -14.825251,9.31785 -32.641047,16.50245 -50.194394,20.24196 -7.354549,1.56679 -10.163007,1.75419 -25.875,1.72658 C 2.5839409,722.94926 -0.76768684,722.72673 -7.0474641,721.324 -46.047925,712.6124 -79.37648,690.30477 -99.486278,659.45242 c -15.427282,-23.66846 -20.162152,-50.80273 -13.894142,-79.62359 0.80051,-3.68082 1.36838,-6.7795 1.26193,-6.88595 -0.10645,-0.10645 -3.39487,0.28712 -7.30759,0.8746 -29.13691,4.37481 -61.05174,-3.31506 -83.66995,-20.16026 -22.07151,-16.43804 -40.66171,-47.46039 -46.84697,-78.17577 -1.99022,-9.88324 -2.69993,-27.63471 -1.51267,-37.83521 3.50174,-30.08559 19.3872,-60.07003 46.48896,-87.74978 l 7.71035,-7.87478 -1.76689,-1.26602 c -12.04364,-8.62964 -18.75221,-14.09688 -25.0577,-20.42115 -20.00914,-20.06872 -31.55501,-42.11879 -35.27356,-67.36471 -1.484,-10.07519 -1.11908,-30.25135 0.72677,-40.18186 7.20214,-38.74702 28.10136,-70.74381 57.37412,-87.84002 4.20787,-2.45753 11.26901,-5.54967 20.46558,-8.96209 1.04941,-0.38938 0.53004,-1.55724 -3.20848,-7.21459 -5.99029,-9.064852 -12.89909,-22.727999 -15.60126,-30.853755 -9.65605,-29.036808 -5.80187,-63.098599 11.10549,-98.146245 23.53368,-48.783485 63.88152,-82.02003 108.899655,-89.70611 8.017869,-1.36891 11.270367,-1.53451 23.552504,-1.19918 14.110025,0.38524 19.689639,1.10498 33.238127,4.28752 3.843469,0.90284 7.067384,1.52367 7.164255,1.37964 0.09687,-0.14403 1.264952,-4.2897 2.595736,-9.2126 2.868482,-10.61123 7.7010886,-22.37133 12.98965504,-31.61019 19.40749796,-33.90395 58.66207696,-61.39734 97.01222696,-67.9461 17.447251,-2.97933 37.978561,-1.02534 52.875001,5.03219 20.34821,8.27445 40.23891,23.58958 56.46342,43.47483 3.70218,4.5375 6.94079,8.33445 7.19691,8.43767 0.25612,0.10322 1.91594,-2.82408 3.68849,-6.50511 16.08297,-33.39927 47.02904,-61.06602 82.63892,-73.88175 8.72638,-3.14057 24.13609,-6.99037 35.26226,-8.80958 13.82191,-2.25997 46.7048,-2.47329 60,-0.38924 19.38947,3.03934 35.07718,7.89021 51.375,15.88588 17.29349,8.48415 27.97606,16.10652 40.73837,29.06819 11.6311,11.8128 20.77926,24.84317 28.59645,40.73198 l 4.56521,9.27901 11.04999,-11.11814 c 16.19,-16.28987 30.11252,-26.10805 47.32405,-33.37298 16.59171,-7.0033 32.52772,-9.96705 49.52639,-9.21083 17.22669,0.76637 34.25796,5.50764 52.94954,14.74042 37.23249,18.39112 62.88632,44.84672 72.74595,75.01948 1.14574,3.50625 2.14037,6.45 2.21028,6.54167 0.0699,0.0917 4.15835,-0.36466 9.08544,-1.01407 13.4898,-1.77799 31.68303,-1.12526 43.45833,1.55918 32.52172,7.41406 61.25572,26.921732 84.01497,57.03822 13.63532,18.043122 23.86904,38.365439 29.92586,59.4273239 6.85213,23.8275341 7.13862,49.8281511 0.76164,69.1235511 -2.63153,7.962454 -9.81414,22.391818 -15.29192,30.720415 -2.53988,3.86172 -4.51504,7.10104 -4.38926,7.1985 0.12579,0.0975 3.33491,0.8894 7.13137,1.75987 20.74209,4.75582 40.70966,15.84175 54.77573,30.41134 14.13934,14.64546 24.49273,35.09342 29.61303,58.48573 1.45671,6.65506 1.67117,9.86177 1.68861,25.24827 0.0179,15.75623 -0.16485,18.45048 -1.72317,25.41038 -3.7056,16.55032 -10.44582,31.25988 -20.3721,44.45917 -9.08269,12.07753 -19.33182,21.47824 -38.14749,34.98964 l -1.76273,1.26581 7.23274,6.375 c 25.74692,22.69356 41.46351,54.0809 43.56353,87 1.77387,27.80646 -10.18835,63.76494 -29.15682,87.64555 -17.27497,21.74855 -39.65282,34.9316 -65.82381,38.77756 -13.93758,2.04821 -36.45347,1.04294 -51.71416,-2.30887 -2.15898,-0.47419 -2.36685,-0.37903 -1.8872,0.86394 1.62856,4.22032 5.87626,19.2806 7.3189,25.94928 1.4158,6.54463 1.66521,10.00035 1.66521,23.07254 0,17.35726 -1.0533,24.11399 -5.98003,38.36082 -10.90883,31.54556 -38.5744,59.21495 -73.07107,73.08117 -38.35628,15.41763 -79.35407,12.85885 -121.12183,-7.55952 -6.1875,-3.02479 -13.24701,-6.72009 -15.6878,-8.21178 -2.44079,-1.49169 -4.6849,-2.61845 -4.98692,-2.50392 -0.30202,0.11452 -2.78112,4.59573 -5.50912,9.95823 -6.3071,12.39804 -13.11376,21.89304 -22.3431,31.16766 -23.16873,23.2824 -54.51764,38.55535 -92.54591,45.08766 -14.01166,2.40686 -40.1527,2.42268 -53.17715,0.0322 -17.98787,-3.30147 -30.96373,-7.60042 -47.23277,-15.64839 -10.76169,-5.3236 -25.68659,-14.97068 -33.7607,-21.82207 l -5.24348,-4.44942 -7.04767,5.9596 c -22.9745,19.4275 -51.63701,31.9991 -84.09038,36.88268 -7.62371,1.14722 -31.40905,2.10464 -36.75,1.47928 z m 24.75,-34.85928 c 23.36728,-2.1402 43.48996,-9.08488 62.22487,-21.47488 6.81292,-4.5056 10.98455,-8.08546 19.64124,-16.85502 14.23274,-14.41833 17.47891,-15.98264 26.25016,-12.64983 3.02193,1.14825 5.80786,3.36862 12.57054,10.01866 13.94792,13.71561 27.29524,22.60781 44.02315,29.32892 15.85406,6.37001 29.85192,9.29871 47.54004,9.94656 23.81321,0.87219 45.76169,-3.63342 66.69698,-13.69163 31.67653,-15.21875 51.21934,-39.6285 54.75056,-68.38564 0.41758,-3.40062 1.24123,-7.11312 1.83035,-8.25 3.03611,-5.85913 9.05467,-9.447 15.84711,-9.447 5.51311,0 9.14858,1.70429 16.5,7.73511 8.33215,6.83536 18.6236,13.28721 30.5771,19.16917 38.58908,18.98855 73.79089,19.11519 106.53012,0.38323 17.85812,-10.21763 31.85666,-25.47046 38.92027,-42.40756 11.40151,-27.33852 5.27025,-64.03144 -16.02849,-95.92359 -6.42835,-9.62564 -7.374,-11.75068 -7.374,-16.57062 0,-7.24573 3.53762,-12.80243 10.09435,-15.85564 5.48932,-2.55615 9.79063,-2.35316 15.98687,0.75449 32.65769,16.37906 67.23001,20.22374 92.81225,10.32134 15.83247,-6.12845 29.1837,-19.4794 38.94125,-38.94044 12.7809,-25.49097 13.901,-54.15566 3.01983,-77.28119 -9.03814,-19.20859 -24.59534,-35.19135 -46.47955,-47.75101 -4.125,-2.36739 -8.39916,-4.9421 -9.49813,-5.72158 -5.11059,-3.62483 -6.68697,-13.39975 -3.32525,-20.61953 2.09779,-4.50533 5.20585,-7.08268 11.7456,-9.74002 19.9445,-8.10417 38.93014,-22.23687 50.63122,-37.6893 5.75378,-7.59844 11.63522,-19.16729 13.78128,-27.10791 7.70215,-28.49866 -2.10231,-64.29609 -23.1801,-84.63373 -13.34317,-12.87464 -30.23644,-19.30114 -53.00769,-20.16508 l -10.60307,-0.40228 -5.14693,4.13587 c -14.60325,11.73458 -34.90497,22.61981 -52.23413,28.00652 -3.15832,0.98176 -4.22444,1.64204 -3.92235,2.42927 1.5703,4.09214 6.84022,22.80683 9.329,33.12943 8.59233,35.63801 11.79349,65.73316 11.0793,104.1601 -0.70053,37.69155 -4.83234,68.75252 -13.29651,99.95677 -21.98188,81.03905 -65.44632,137.14044 -138.90091,179.28527 -47.66425,27.34754 -104.75565,46.07819 -171.95133,56.41411 -82.03019,12.61773 -163.04236,15.29325 -238.83709,7.88785 -56.20287,-5.4912 -109.61999,-16.5167 -157.91291,-32.59383 C 47.701037,608.6142 -4.8102914,576.48071 -43.670025,534.77124 -89.109141,485.99989 -115.90091,420.48118 -121.71945,343.903 c -1.12645,-14.82528 -0.50118,-54.41108 1.07814,-68.25676 3.51907,-30.85113 9.43482,-57.79397 18.85268,-85.8631 2.212261,-6.59346 3.96069,-12.01508 3.885397,-12.04805 -0.07529,-0.033 -3.343147,-1.34501 -7.261897,-2.91563 -13.00087,-5.21072 -28.88062,-14.52994 -40.02526,-23.4893 l -5.15026,-4.14038 -7.59974,0.433 c -8.93058,0.50882 -15.36027,2.03833 -22.59974,5.37607 -16.93335,7.80708 -30.61456,25.69154 -39.03099,51.02239 -6.76652,20.36512 -7.2435,39.61305 -1.4404,58.125 7.20838,22.99481 27.66845,44.22195 55.31153,57.38521 9.60193,4.57231 13.97681,7.97199 16.21893,12.60359 2.83401,5.85428 1.60176,13.35926 -3.05616,18.61353 -0.9641,1.08753 -5.12791,4.45235 -9.25291,7.47738 -8.98515,6.58916 -26.77882,24.101 -33.34647,32.81828 -9.70749,12.88482 -16.37558,26.15464 -20.02565,39.85201 -2.5701,9.64461 -3.22414,25.2448 -1.45214,34.63667 4.28113,22.6907 18.17263,47.1631 34.00804,59.91132 13.32752,10.72925 25.98281,15.07779 44.06622,15.14178 16.43979,0.0582 30.64049,-3.41326 47.325243,-11.56889 7.684908,-3.75644 8.5151,-3.99588 13.854528,-3.99588 4.964942,0 6.079089,0.26426 8.852593,2.09967 5.765124,3.81518 9.245674,11.60157 8.045546,17.9988 -0.256247,1.36592 -2.175171,5.16504 -4.264276,8.44251 -16.669658,26.15196 -20.720712,51.684 -11.851042,74.69196 3.256582,8.44759 11.591494,20.55787 19.705965,28.63194 15.191032,15.1154 33.553621,25.03905 55.2960656,29.88352 10.2770702,2.28985 29.1316234,2.47871 38.9103764,0.38977 20.067624,-4.28687 39.471699,-14.11844 54.375,-27.55049 8.02148,-7.22959 10.684311,-8.90437 15.323641,-9.63775 5.64839,-0.89289 9.83881,0.23375 13.78326,3.70579 3.97046,3.49494 5.32903,6.16737 7.75164,15.24817 2.06475,7.73937 8.26835,21.20306 13.05161,28.3259 11.72704,17.46299 27.14359,30.85611 46.08985,40.04055 23.63632,11.45802 49.01778,16.15493 74.625,13.80957 z m 149.25,-121.46577 c 92.50732,-3.49788 172.35519,-20.69673 231.78857,-49.92614 15.96763,-7.8529 22.41975,-11.54156 36.71143,-20.98782 59.44503,-39.29092 95.72482,-94.40329 111.34639,-169.14548 5.10322,-24.41662 7.28709,-46.69252 7.30914,-74.5547 0.0229,-28.98002 -2.14649,-51.13817 -7.69269,-78.57176 C 770.99565,137.26457 710.99527,48.529837 626.69286,-6.6153452 555.54951,-53.152723 464.96904,-76.889645 358.70987,-76.841211 c -61.97306,0.02825 -119.03984,8.754279 -171.44506,26.215512 -37.2584,12.414367 -72.13264,29.287111 -102.304941,49.4968535 C 19.188654,42.925441 -33.628218,108.42104 -62.030164,181.14624 c -15.598304,39.94057 -23.803254,80.09135 -24.905573,121.875 -2.066771,78.34146 20.856522,150.27778 64.596077,202.71101 47.903825,57.42519 129.93029,96.70062 235.92453,112.96399 57.97897,8.89608 136.82615,13.25225 198,10.93914 z m -94.5,-199.88047 c -14.23473,-2.92106 -27.89198,-10.59797 -30.88303,-17.35972 -3.02894,-6.84743 -1.11849,-16.18756 4.06617,-19.87936 2.38212,-1.69621 8.72677,-2.68425 11.96972,-1.86401 0.94718,0.23957 3.85237,1.82179 6.45598,3.51605 10.28085,6.69011 21.69477,8.88468 28.26616,5.43478 5.86846,-3.08087 9.85435,-8.85127 12.05942,-17.45852 1.17849,-4.60006 0.9973,-5.99789 -0.77745,-5.99789 -0.55247,0 -4.05049,-1.52483 -7.77338,-3.38851 -27.48751,-13.76029 -17.11243,-40.51425 17.62294,-45.44387 15.80087,-2.24244 33.78764,2.41898 43.15934,11.18511 5.09511,4.76588 6.89001,8.4152 6.89677,14.02227 0.007,5.6179 -1.67983,9.28081 -6.50281,14.12256 -3.51896,3.53265 -14.47624,9.50244 -17.44131,9.50244 -1.07409,0 -1.2006,0.45231 -0.76941,2.75075 0.28382,1.51291 1.16398,4.48252 1.9559,6.59912 6.39428,17.09024 19.68161,20.04702 38.94326,8.6659 5.50038,-3.25 6.91956,-3.76577 10.36181,-3.76577 2.19369,0 4.72572,0.37874 5.62673,0.84164 2.42179,1.24422 5.75057,4.50287 6.95515,6.80862 1.42795,2.73331 1.3455,9.85236 -0.14852,12.82449 -6.12278,12.18032 -30.58208,21.63973 -49.74205,19.23727 -11.04536,-1.38497 -19.56212,-5.47638 -26.89708,-12.92123 l -3.97069,-4.03017 -5.12299,5.03235 c -10.94172,10.74814 -27.38261,15.03944 -44.31063,11.5657 z m -183.75,-41.33671 c -13.44744,-1.96342 -23.0762,-6.80513 -31.68772,-15.93379 -5.695247,-6.03726 -8.69059,-11.02462 -11.539179,-19.21317 -1.868268,-5.37052 -2.087249,-7.02291 -2.087249,-15.75 0,-8.72709 0.218981,-10.37948 2.087249,-15.75 3.078002,-8.84802 6.044332,-13.55105 12.798299,-20.29136 10.25211,-10.23139 21.20349,-14.78861 35.6786,-14.84702 23.1258,-0.0933 41.69226,13.57721 49.25066,36.26338 1.0862,3.26016 1.36886,6.40504 1.34819,15 -0.0248,10.31369 -0.1459,11.18885 -2.34614,16.95569 -6.82567,17.8902 -20.79249,29.62202 -39.25271,32.97139 -5.39241,0.97839 -10.23796,1.18067 -14.25,0.59488 z m 23.91339,-56.47777 c 13.04941,-6.65732 11.0746,-24.77761 -3.11681,-28.59897 -9.59267,-2.58303 -19.3677,6.24534 -18.37333,16.59398 0.97269,10.12294 12.52713,16.57757 21.49014,12.00499 z m 424.21161,55.89405 c -18.50748,-3.60727 -33.39105,-16.50831 -39.44204,-34.18824 -2.29213,-6.69722 -2.8393,-20.68758 -1.09998,-28.125 4.21637,-18.02939 18.72057,-32.71124 37.16702,-37.62228 6.48604,-1.72679 18.9158,-1.69206 25.5,0.0712 16.35015,4.37872 30.02836,17.32028 35.72503,33.80104 1.82153,5.2698 2.07856,7.14094 2.11195,15.375 0.034,8.38064 -0.19285,10.0794 -2.13864,16.01614 -4.35865,13.29858 -13.78461,24.11741 -26.15577,30.0208 -3.80466,1.81554 -8.48166,3.66999 -10.39333,4.12098 -5.88772,1.38902 -15.62347,1.63171 -21.27424,0.53032 z m 29.79707,-57.10783 c 4.63661,-3.22163 6.74617,-7.70611 6.40468,-13.61502 -0.22211,-3.84321 -0.66978,-5.15726 -2.55514,-7.5 -3.06678,-3.81078 -6.3005,-5.90837 -10.02724,-6.5043 -9.22866,-1.47572 -17.64903,5.86672 -17.53346,15.28891 0.0744,6.06842 2.97813,10.56301 8.91409,13.79799 3.67127,2.00077 10.82675,1.29108 14.79707,-1.46758 z M 808.18012,145.44327 c 10.02497,-3.72227 23.1521,-10.62328 31.64379,-16.63534 14.50801,-10.27158 31.85719,-29.032132 41.49053,-44.865833 7.80338,-12.825919 10.38336,-19.747883 11.83994,-31.766031 3.98065,-32.844164 -17.78383,-78.418887 -50.31951,-105.368853 -20.49598,-16.977234 -40.61438,-24.369354 -63.75,-23.42371 -31.47216,1.28639 -58.6093,13.404844 -81.76384,36.512737 -7.09455,7.080256 -20.98616,23.956774 -20.98616,25.495481 0,0.219602 1.94062,1.91013 4.3125,3.756728 7.75689,6.0390452 21.36077,18.3276054 32.0625,28.962481 21.58675,21.451887 41.06104,46.263174 58.20817,74.16031 6.77454,11.02168 21.20783,38.5502 26.2475,50.06168 1.39938,3.19643 2.81219,5.81205 3.13958,5.8125 0.32739,4.5e-4 3.87114,-1.21552 7.875,-2.70215 z M -78.834597,135.20874 C -50.891991,79.290025 -11.904275,31.054484 37.897369,-9.2118666 c 4.228125,-3.4185854 7.6875,-6.5509344 7.6875,-6.9607764 0,-1.104942 -5.457272,-8.364516 -12.313934,-16.380696 -14.869279,-17.383797 -35.3250024,-31.412349 -55.690437,-38.19255 -12.703498,-4.229336 -22.306675,-5.712103 -36.995629,-5.712265 -11.976699,-1.33e-4 -13.764604,0.177807 -20.435631,2.033835 -13.429995,3.736525 -23.034108,8.576234 -35.439368,17.858619 -7.22268,5.404461 -20.35787,18.465146 -25.98431,25.83694 -13.07268,17.127892 -23.1654,38.4465772 -27.34008,57.75 -1.95477,9.038703 -1.78642,26.575529 0.3312,34.5 7.15875,26.789271 38.00998,61.87898 67.61819,76.90785 3.763553,1.91035 15.214189,7.11855 16.307492,7.41729 0.100371,0.0274 2.585739,-4.75951 5.523041,-10.63764 z m 731.259137,-176.625 c 17.38839,-23.949904 37.47028,-41.403548 61.56115,-53.504246 l 8.77582,-4.40804 -1.11664,-3.950104 c -1.72362,-6.09734 -7.26937,-16.89144 -11.66278,-22.70011 -12.94012,-17.10858 -34.59607,-31.68835 -59.80357,-40.26247 -24.12687,-8.20656 -52.40025,-4.59177 -73.21865,9.3611 -15.00181,10.05449 -26.78852,22.9711 -42.91269,47.02637 -7.4821,11.162379 -10.16345,13.516068 -17.18868,15.088246 -5.4089,1.210459 -9.14245,0.04611 -13.78911,-4.300305 -4.17389,-3.904181 -4.41686,-4.428821 -7.80091,-16.844461 -13.71632,-50.32329 -47.1148,-84.45629 -92.30861,-94.3387 -11.76544,-2.57272 -20.59694,-3.41841 -35.25,-3.37549 -27.52223,0.0806 -48.8619,4.64773 -69.44537,14.86269 -22.5872,11.20934 -38.18054,26.71414 -49.43873,49.15802 -5.96645,11.89447 -8.90089,21.49594 -10.83967,35.46732 -0.82389,5.93719 -1.64504,8.9832 -3.08336,11.4375 -1.07822,1.83985 -1.78165,3.34518 -1.56317,3.34518 0.21848,0 2.73636,-0.492049 5.59528,-1.09344 16.4465,-3.45963 43.01918,-7.16067 64.65002,-9.00444 90.15332,-7.68451 183.93235,3.98327 259.12282,32.2395 27.84269,10.463153 63.14239,27.818982 80.89179,39.772127 2.1122,1.422439 3.88989,2.586253 3.95042,2.586253 0.0605,0 2.25412,-2.953125 4.87464,-6.5625 z M 86.753926,-43.360013 c 20.208034,-12.094935 38.348554,-21.121309 60.830944,-30.268313 12.77309,-5.196757 42.08704,-14.960469 56.0102,-18.655537 l 10.63519,-2.822476 -3.20812,-2.034534 c -3.87921,-2.460123 -5.10041,-4.143347 -10.08425,-13.899467 -2.12452,-4.15888 -6.50054,-11.58388 -9.72448,-16.5 -17.50078,-26.68662 -37.26532,-43.66258 -59.37854,-51.0008 -5.90564,-1.95977 -7.23089,-2.11435 -18,-2.09955 -12.73645,0.0175 -17.466546,0.92168 -29.02356,5.548 -15.506331,6.20724 -34.156066,19.60522 -44.670135,32.09105 -11.211904,13.31453 -18.24769,27.48309 -21.241913,42.77665 -0.618758,3.160429 -1.280211,6.480329 -1.469895,7.37756 -0.289576,1.369734 0.827765,2.404518 6.967811,6.452981 18.046689,11.899153 34.268091,27.53762 46.312691,44.64839 2.0625,2.930024 3.882326,5.341937 4.044057,5.359808 0.161731,0.01787 5.561731,-3.120323 12,-6.973762 z"
       id="path7"
       inkscape:label="brown"
       transform="translate(-6.0645391e-6)" /></g></svg>
