<?xml version="1.0" encoding="UTF-8" standalone="no"?>
<svg
   width="1000"
   zoomAndPan="magnify"
   viewBox="0 0 750 749.999995"
   height="1000"
   preserveAspectRatio="xMidYMid meet"
   version="1.0"
   id="svg6"
   sodipodi:docname="monkey.svg"
   xml:space="preserve"
   inkscape:version="1.3.2 (091e20e, 2023-11-25, custom)"
   xmlns:inkscape="http://www.inkscape.org/namespaces/inkscape"
   xmlns:sodipodi="http://sodipodi.sourceforge.net/DTD/sodipodi-0.dtd"
   xmlns="http://www.w3.org/2000/svg"
   xmlns:svg="http://www.w3.org/2000/svg"><sodipodi:namedview
     id="namedview6"
     pagecolor="#ffffff"
     bordercolor="#000000"
     borderopacity="0.25"
     inkscape:showpageshadow="2"
     inkscape:pageopacity="0.0"
     inkscape:pagecheckerboard="0"
     inkscape:deskcolor="#d1d1d1"
     inkscape:zoom="1.819"
     inkscape:cx="298.79054"
     inkscape:cy="498.35074"
     inkscape:window-width="3840"
     inkscape:window-height="2054"
     inkscape:window-x="3829"
     inkscape:window-y="-11"
     inkscape:window-maximized="1"
     inkscape:current-layer="svg6" /><defs
     id="defs3" /><g
     id="g7"
     transform="matrix(1.0084175,0,0,1.0094636,-4.6732911,-5.4559901)"
     inkscape:label="monkey"><path
       style="fill:#fdfdfd"
       d="m 254.01349,410.98436 c -6.03511,-2.98731 -5.95544,-11.51425 0.13543,-14.49423 9.6575,-4.72497 16.62766,9.67909 7.05843,14.58648 -2.03126,1.04169 -4.97939,1.00389 -7.19386,-0.0923 z m 258.24093,0.30086 c -1.70282,-0.74607 -3.77776,-2.97581 -4.33201,-4.65519 -0.25536,-0.77376 -0.38711,-2.4738 -0.29279,-3.77787 0.47258,-6.53327 8.25792,-9.61212 13.24142,-5.23655 2.03158,1.78374 2.76443,3.4114 2.7669,6.14524 0.004,4.58683 -3.51991,8.11306 -8.07308,8.07807 -1.14578,-0.009 -2.63548,-0.25797 -3.31044,-0.5537 z"
       id="path12"
       inkscape:label="white"
       sodipodi:nodetypes="sssssssssccs" /><path
       style="fill:#f4d697"
       d="m 153.06123,484.0631 c -37.1834,-61.86456 -32.01549,-157.68022 16.42537,-210.9724 31.3795,-38.95335 68.0864,-76.06591 118.48679,-84.52216 69.56746,-14.23248 141.53377,-18.59375 208.77945,10.99942 51.62264,24.93524 87.88484,70.38512 110.78024,120.87437 25.01241,60.00836 29.12409,140.37436 -22.66705,187.81607 -53.23861,50.24267 -130.84245,60.41188 -200.5396,61.40702 -108.5889,0.33937 -187.37172,-17.77101 -231.2652,-85.60232 z m 106.53154,-91.42123 c -40.56359,-4.35316 6.76663,60.7444 15.44804,20.61909 -0.51741,-9.42037 -8.74959,-15.34398 -15.44804,-20.61909 z m 260.57909,-0.6861 c -36.57541,-12.09394 -6.26008,56.76682 8.11584,17.16585 0.77891,-6.7164 -3.00688,-13.14273 -8.11584,-17.16585 z"
       id="path11"
       inkscape:label="tan"
       sodipodi:nodetypes="cccccccccccccc"
       transform="translate(-3.7342032e-5)" /><path
       style="fill:#eaa1c0"
       d="m 212.81917,480.76593 c -9.51501,-1.75488 -17.14923,-5.90669 -19.3963,-10.54853 -1.01365,-2.09392 -1.12318,-5.38039 -0.24904,-7.4725 0.93042,-2.22682 4.62042,-5.54763 8.02523,-7.22231 6.13805,-3.01905 12.9071,-4.39857 21.56953,-4.39582 8.56863,0.003 15.41241,1.46129 21.40148,4.56117 11.606,6.00714 11.30891,15.54532 -0.66817,21.45215 -2.02646,0.99941 -5.52526,2.29765 -7.77511,2.885 -3.5692,0.93176 -5.0814,1.08551 -11.86287,1.20615 -5.61981,0.1 -8.67851,-0.0289 -11.04475,-0.46531 z m 314.87124,0.0174 c -7.75392,-1.40555 -13.95677,-4.24179 -17.39232,-7.9526 -4.32033,-4.66646 -4.22622,-8.8163 0.30226,-13.32899 5.52717,-5.50788 14.71103,-8.3714 26.86022,-8.37499 11.71785,-0.003 21.29114,2.94903 26.60642,8.20565 4.79453,4.74163 4.53056,10.02878 -0.73199,14.66106 -3.59066,3.16062 -9.35849,5.50374 -16.67047,6.7722 -4.44884,0.77177 -14.76104,0.78137 -18.97412,0.0177 z"
       id="path10"
       inkscape:label="pink" /><path
       style="fill:#c46d29"
       d="M 107.07599,473.62569 C 84.154058,471.80733 63.664473,459.2333 50.130464,438.67943 20.998028,394.43651 35.529098,336.44563 75.168953,310.2876 91.26987,299.66273 111.10285,295.63838 129.9836,299.16503 c 3.39303,0.63377 8.18129,1.83321 8.18129,2.04937 0,0.0595 -0.93781,2.10612 -2.08402,4.54808 -2.94081,6.26527 -6.74539,15.45302 -8.78355,21.21156 -1.69422,4.7868 -1.76629,4.90642 -2.90034,4.81391 -6.92122,-0.56454 -12.95255,-0.5527 -16.30468,0.032 -21.422824,3.73677 -38.050424,21.1636 -42.603098,44.65089 -1.070493,5.52268 -0.968735,16.2419 0.206546,21.75749 2.494446,11.70642 7.272364,20.57605 15.383394,28.55744 8.490844,8.35514 17.129855,12.48159 28.750408,13.73274 4.60561,0.49587 9.10064,0.22842 9.60961,-0.57175 0.18155,-0.28542 0.30837,-0.0654 0.31286,0.54268 0.0244,3.2936 5.57174,21.02199 9.6795,30.93385 0.26653,0.64311 -0.38598,0.82666 -5.43302,1.52829 -5.80618,0.80717 -12.08981,1.05747 -16.92251,0.6741 z m 522.84452,-0.0217 c -2.32933,-0.18563 -4.30393,-0.40628 -4.38799,-0.49035 -0.0841,-0.0841 0.74835,-2.62682 1.8498,-5.65057 2.51762,-6.91151 4.61632,-14.04207 6.37381,-21.65579 0.75304,-3.26229 1.3811,-5.67503 1.39568,-5.36163 0.0218,0.46769 0.77792,0.51878 4.21942,0.28505 7.84913,-0.53305 15.24402,-2.68762 21.35363,-6.22156 14.41694,-8.3391 23.92767,-22.3595 26.88324,-39.6304 0.70277,-4.10663 0.80436,-6.01172 0.6217,-11.65834 -0.12881,-3.98204 -0.49789,-8.00753 -0.90012,-9.81755 -3.83547,-17.25934 -13.83821,-30.52991 -28.26688,-37.50146 -6.35091,-3.06859 -11.17176,-4.24967 -18.36211,-4.4986 -3.1498,-0.10905 -6.72743,-0.0448 -7.95029,0.1427 l -2.22339,0.34096 -2.33338,-6.95592 c -2.57888,-7.68775 -3.84156,-10.97181 -7.20438,-18.73764 -1.2472,-2.88018 -2.17145,-5.33288 -2.05389,-5.45044 0.11757,-0.11757 2.39371,-0.65898 5.05811,-1.20315 12.1791,-2.48742 24.72207,-2.02884 36.32605,1.32809 27.63792,7.99542 49.85161,33.36355 56.029,63.98536 2.8218,13.98788 2.39512,30.11295 -1.1571,43.72965 -4.18326,16.03566 -11.86185,29.91256 -22.70962,41.0413 -6.64014,6.81212 -12.18021,11.0131 -19.84036,15.04473 -12.8534,6.76492 -28.60829,10.06023 -42.72093,8.93556 z m -21.32108,-11.43413 c -0.0492,-1.00628 -5.57074,-7.60117 -11.25681,-13.44507 -5.59076,-5.74596 -10.10098,-9.78008 -16.58917,-14.83803 l -3.90539,-3.0445 0.73344,-2.43731 c 2.37147,-7.88061 4.81747,-21.67102 5.67942,-32.02019 0.59393,-7.13118 0.26638,-23.69029 -0.59619,-30.14054 -4.00894,-29.9784 -15.28639,-54.52844 -33.36753,-72.63822 -14.7173,-14.74062 -32.99822,-23.80258 -53.20083,-26.37198 -6.72821,-0.85571 -19.75206,-0.65188 -25.56653,0.40012 -14.57897,2.63773 -26.74206,7.2322 -39.19972,14.80724 -20.76288,12.62513 -40.21835,34.2342 -51.61261,57.32579 -1.12493,2.27978 -2.13736,4.14505 -2.24986,4.14505 -0.11249,0 -1.12492,-1.86527 -2.24985,-4.14505 -12.30825,-24.94388 -33.3729,-47.37383 -56.45091,-60.10979 -10.54653,-5.82026 -21.16777,-9.59496 -33.33876,-11.84831 -6.49978,-1.20337 -19.46254,-1.48434 -26.5892,-0.57632 -20.21326,2.57541 -38.60476,11.69453 -53.18253,26.36966 -18.45901,18.58231 -29.8916,43.85303 -33.60374,74.27807 -0.82842,6.78981 -0.71002,27.95207 0.19454,34.77049 1.05823,7.97674 2.19157,13.99427 4.03139,21.40497 1.64023,6.6067 1.64928,6.68482 0.84013,7.25157 -7.4716,5.23331 -22.07665,18.90293 -27.5772,25.81093 l -2.65504,3.3344 -1.50661,-4.07397 c -10.52123,-28.4502 -13.19498,-62.49095 -7.40934,-94.3315 6.69851,-36.86433 24.89176,-72.69967 51.45024,-101.3418 27.04938,-29.17153 59.57662,-49.36576 99.48441,-61.76397 19.91721,-6.1877 39.96574,-9.90199 65.65486,-12.16355 8.0333,-0.70722 40.97734,-0.6998 49.70134,0.0112 16.03955,1.30719 29.23157,3.09562 41.72458,5.65657 40.33208,8.2677 72.48451,23.1894 100.85333,46.80528 6.54386,5.44749 19.46513,18.36876 24.91262,24.91262 24.86572,29.87021 40.82188,65.12855 46.22592,102.14545 2.58934,17.73664 2.80748,38.18295 0.59941,56.18144 -0.80612,6.57089 -3.08009,18.01003 -4.8825,24.56138 -1.59757,5.80676 -5.04975,16.04946 -5.09531,15.11788 z"
       id="path8"
       inkscape:label="brown"
       sodipodi:nodetypes="sssssssssssssssssssssssssssssssscssssssssssssscssssssssssssssssssscssssssssssssss"
       transform="translate(-3.7342032e-5)" /><path
       id="path9"
       style="fill:#f3ba5c"
       inkscape:label="light brown"
       d="m 115.28516,329.87891 c -3.48972,0.019 -7.00704,0.18106 -10.39902,1.06897 -11.033556,2.56303 -21.022664,9.02436 -28.177491,17.76863 -6.781498,8.23292 -11.178122,18.34512 -12.918675,28.84697 -0.7406,5.7139 -0.678957,11.5166 -0.133724,17.24511 0.520737,4.62342 1.800537,9.13697 3.418701,13.48881 2.880277,7.6762 7.662852,14.56688 13.606466,20.1903 5.791568,5.60502 12.877421,9.96948 20.695953,12.05958 3.9774,1.09043 8.09221,1.70621 12.22185,1.64459 1.99375,-0.041 4.03184,0.0826 5.98672,-0.36179 0.51311,-0.19921 1.0565,-0.4834 1.07617,-1.10156 0.17168,-1.30838 -0.26013,-2.63073 -0.4123,-3.93194 -0.68201,-3.69813 -1.38071,-7.53311 -1.89043,-11.17744 -0.9774,-7.01569 -1.5706,-14.20731 -1.78907,-21.20898 -0.21905,-7.23155 -0.0584,-14.47292 0.45117,-21.68946 0.14793,-1.90493 0.32178,-4.01098 0.51919,-5.98886 0.81454,-8.12 2.10649,-16.31471 3.87674,-24.34844 0.89568,-4.06669 1.91727,-8.09576 3.0758,-12.1466 0.78685,-2.72479 1.68684,-5.61904 2.53608,-8.40404 0.52066,-0.79509 -0.14501,-0.91298 -0.83706,-1.01581 -3.54221,-0.99078 -7.26208,-0.89948 -10.90707,-0.93804 z m 520.51562,0.13086 c -1.78902,0.0861 -3.62026,-0.0676 -5.3789,0.29101 -0.63012,0.0793 -0.89029,0.51175 -0.98784,1.09514 -0.15031,1.40598 0.41683,2.78993 0.67338,4.16072 1.96264,7.20669 3.65661,14.49057 4.87496,21.86237 2.53391,15.11342 3.44305,30.48741 2.88481,45.79779 -0.37839,10.26708 -1.44535,20.65931 -3.16602,30.84765 -0.35982,2.26303 -0.78357,4.5166 -1.0664,6.79102 0.20051,0.5808 0.51169,1.10938 1.14648,1.27148 1.71796,0.41205 3.51702,0.12302 5.26193,0.0482 4.84524,-0.32331 9.66269,-1.25661 14.20127,-3.00745 11.92528,-4.44294 21.88985,-13.49744 28.06508,-24.56002 4.60461,-8.22401 7.30972,-17.55923 7.44615,-27.00437 0.1525,-8.20919 -0.72029,-16.57619 -3.84773,-24.23162 -3.85611,-9.78498 -10.45894,-18.52355 -19.06285,-24.61409 -5.84838,-4.15835 -12.58333,-7.1328 -19.65565,-8.40993 -3.77026,-0.47247 -7.59746,-0.30927 -11.38867,-0.33789 z" /><path
       style="fill:#41130d"
       d="m 362.94586,586.69231 c -58.25058,-1.93521 -111.78292,-13.35807 -150.12669,-32.03438 -21.87752,-10.656 -37.52154,-21.68292 -52.36291,-36.90874 -8.496,-8.71609 -16.04905,-18.49323 -21.59512,-27.95411 -1.30356,-2.22371 -0.25609,-2.15086 -8.67301,-0.60319 -5.85702,1.07697 -17.64076,1.48675 -23.96526,0.83339 C 87.776111,488.11962 69.788861,480.6606 55.329323,468.92056 30.535826,448.79013 17.042239,416.71622 18.500597,381.37962 c 0.913764,-22.14087 6.763739,-40.67318 18.142308,-57.47357 13.539146,-19.99046 33.467263,-34.255 55.759973,-39.91297 15.206042,-3.85935 36.051052,-3.28495 50.404802,1.38894 l 3.62013,1.17879 1.27962,-2.0874 c 5.43873,-8.87205 13.86905,-20.55059 21.15987,-29.31282 5.58398,-6.71091 22.1201,-23.23259 28.81648,-28.7913 23.82169,-19.77455 48.72611,-33.73365 77.8298,-43.62415 22.94898,-7.79889 45.20573,-12.34716 73.31955,-14.98316 9.74672,-0.91386 47.62946,-1.03882 57.88264,-0.19093 52.81398,4.36751 96.75887,18.26148 133.15051,42.09794 27.28106,17.86905 50.45562,42.00492 67.26776,70.05809 1.95507,3.26229 3.68053,6.05438 3.83434,6.20464 0.15381,0.15026 2.48861,-0.33423 5.18844,-1.07664 32.40347,-8.91048 65.12491,0.33359 89.17875,25.19371 15.72844,16.25564 24.98706,35.37529 28.40097,58.64983 1.07387,7.32113 1.18389,22.9353 0.21376,30.33587 -3.19316,24.35886 -13.90201,46.26847 -30.85104,63.11924 -14.48512,14.40116 -31.70366,23.59859 -50.74023,27.10337 -3.89674,0.71742 -6.35436,0.87022 -14.31726,0.89015 -9.25706,0.0232 -11.49276,-0.17058 -18.63532,-1.61497 -1.2197,-0.24665 -1.3026,-0.15998 -3.41103,3.56631 -20.76849,36.70459 -59.64504,64.12838 -112.45636,79.32748 -25.04758,7.2087 -57.67489,12.26953 -93.34624,14.47896 -9.55673,0.59193 -38.57341,1.07544 -47.24696,0.78728 z m 61.76875,-21.19643 c 46.2169,-3.67414 82.22105,-12.26239 111.67462,-26.63832 40.86767,-19.947 65.61463,-49.31392 77.27763,-91.70445 4.38476,-15.9369 6.36603,-31.62389 6.3698,-50.43357 0.007,-32.97363 -6.85617,-62.39281 -21.30751,-91.34066 -10.35589,-20.74415 -22.51218,-37.60363 -39.00679,-54.09823 -21.81253,-21.81253 -45.31489,-36.81592 -75.02126,-47.89191 -23.71247,-8.84118 -48.82158,-14.02268 -80.43972,-16.59949 -8.724,-0.71099 -41.66804,-0.71841 -49.70134,-0.0112 -40.48843,3.56442 -71.08046,11.50818 -101.24348,26.28964 -24.33543,11.92564 -45.2181,27.49484 -63.89579,47.63788 -35.99097,38.81465 -55.84986,89.66871 -54.39239,139.28648 1.17919,40.1443 13.49394,74.40764 36.19327,100.70052 20.55596,23.8102 53.50359,42.31144 94.16232,52.87542 25.76049,6.6931 55.58009,10.64178 94.28937,12.48568 12.05413,0.57419 55.48748,0.2017 65.04127,-0.5578 z m -75.47241,-84.7357 c -8.06788,-1.7316 -16.06219,-6.68259 -17.13758,-10.61355 -1.35441,-4.95089 0.99177,-9.78143 5.29057,-10.89276 2.57983,-0.66694 4.30264,-0.23248 7.70177,1.94225 4.01447,2.56843 7.70902,3.81775 11.32196,3.82857 2.53508,0.008 3.14616,-0.15122 5.0823,-1.32083 5.05613,-3.05439 6.83926,-8.29151 7.11722,-20.90364 l 0.13902,-6.30782 -1.6786,-0.5026 c -2.56841,-0.76901 -6.80904,-3.03635 -8.64574,-4.62261 -3.78266,-3.26689 -5.04464,-8.24348 -3.10596,-12.24826 1.86536,-3.85332 7.17106,-7.45376 13.55014,-9.19512 3.72168,-1.01594 13.81889,-0.99514 17.58977,0.0362 5.99397,1.63942 11.43974,5.26207 13.29057,8.84118 0.38898,0.75221 0.80112,2.40301 0.91587,3.66846 0.28393,3.13124 -0.91695,5.87179 -3.74493,8.54638 -2.38471,2.25536 -4.48825,3.45243 -8.41618,4.78942 l -2.65892,0.90505 0.0188,6.69596 c 0.0208,7.41092 0.564,10.42727 2.69254,14.95129 1.43679,3.05376 4.09389,5.5376 6.70633,6.26904 3.61898,1.01325 9.23482,-0.30052 13.61855,-3.18591 3.63105,-2.38998 5.58139,-2.88453 8.34679,-2.1165 3.16807,0.87986 5.6099,4.16477 5.62835,7.57164 0.0121,2.23844 -1.70391,5.55896 -3.81097,7.37416 -2.42965,2.09312 -8.45017,4.90397 -12.74716,5.95138 -4.3345,1.05655 -11.41998,1.24842 -14.93085,0.40431 -4.09604,-0.98479 -8.79998,-3.54099 -11.63935,-6.32501 l -2.60659,-2.55577 -2.50135,2.5308 c -4.66157,4.71644 -11.04024,7.14701 -18.59996,7.08745 -2.27012,-0.0179 -5.324,-0.28933 -6.7864,-0.6032 z M 246.77153,442.48734 c -5.98558,-0.86997 -11.30662,-3.60637 -15.74898,-8.09909 -3.46321,-3.50246 -5.32542,-6.41678 -6.7885,-10.62386 -5.21622,-14.99924 2.84696,-31.23632 18.03777,-36.32322 2.85148,-0.95487 3.95671,-1.09952 8.59036,-1.12432 4.80792,-0.0257 5.66516,0.0854 8.94004,1.15874 7.04741,2.30981 13.35062,7.73383 16.57373,14.26198 2.39525,4.85139 3.03457,8.0341 2.81289,14.00347 -0.15639,4.21142 -0.36182,5.38955 -1.44609,8.29303 -3.76071,10.07055 -12.26839,16.9588 -22.83167,18.48569 -3.24977,0.46974 -4.72497,0.46387 -8.13955,-0.0324 z m 15.53577,-31.76507 c 4.20781,-2.95735 5.05894,-8.20329 1.99043,-12.26798 -1.9956,-2.64347 -6.43852,-3.80808 -9.75397,-2.55679 -1.62947,0.61498 -3.84773,2.75508 -4.54849,4.38822 -0.8401,1.95785 -0.70947,5.2852 0.28842,7.34656 2.09849,4.3349 8.06912,5.86931 12.02361,3.08999 z m 242.32605,31.80966 c -11.58325,-1.83355 -20.97731,-10.62853 -23.5095,-22.01023 -0.98472,-4.42615 -0.63822,-10.69774 0.82892,-15.00334 5.55335,-16.29734 23.71478,-23.97807 39.30107,-16.62098 7.1807,3.38945 13.0312,10.5116 15.16223,18.45784 0.95587,3.56425 0.98105,10.35817 0.0516,13.90819 -2.04822,7.82279 -7.7471,14.97904 -14.60019,18.33389 -1.91238,0.93618 -4.58153,1.98229 -5.93144,2.32469 -3.1392,0.79624 -8.34944,1.07741 -11.30265,0.60994 z m 13.25689,-30.7016 c 3.27189,-0.90861 6.02252,-4.53911 6.02252,-7.949 0,-4.85162 -3.56959,-8.44742 -8.38582,-8.44742 -7.68688,0 -11.25715,9.21797 -5.62007,14.51031 2.16124,2.02907 5.02891,2.70657 7.98337,1.88611 z M 123.9985,472.95159 c 5.04704,-0.70163 5.69955,-0.88518 5.43302,-1.52829 -7.6585,-18.47965 -12.12474,-37.55393 -13.75156,-58.72974 -0.54334,-7.07248 -0.54334,-23.2393 0,-30.31177 2.00262,-26.06753 8.45863,-50.6803 19.67374,-75.00386 1.54615,-3.35334 2.81119,-6.13629 2.81119,-6.18433 0,-0.19819 -4.94115,-1.42336 -8.18129,-2.02857 -28.86075,-5.39078 -57.548777,6.45497 -76.263892,31.49059 -4.445143,5.94636 -6.5994,9.50266 -9.787884,16.15805 -11.751107,24.52834 -12.336649,51.72522 -1.662171,77.20356 7.782738,18.5762 21.814471,34.02778 38.488252,42.38281 12.929801,6.47897 27.683205,8.71432 43.240595,6.55155 z m 522.83816,0.0197 c 13.8158,-1.8699 27.81906,-7.93719 38.66232,-16.75149 1.46555,-1.19132 4.60782,-4.15955 6.98282,-6.59605 12.86513,-13.19836 21.21565,-30.14553 24.55617,-49.83618 1.06761,-6.293 1.45752,-18.29388 0.81073,-24.95294 -1.30201,-13.40486 -5.56189,-26.64825 -12.09142,-37.59059 -9.12454,-15.29113 -22.74859,-27.4132 -37.87006,-33.69509 -13.6734,-5.68033 -28.90214,-7.07144 -43.89375,-4.0096 -2.6644,0.54417 -4.94054,1.08558 -5.05811,1.20315 -0.11756,0.11756 0.80669,2.57026 2.05389,5.45044 9.34686,21.58487 14.75127,42.17684 17.47836,66.59637 0.71592,6.4107 0.97328,28.50914 0.42431,36.43461 -1.54102,22.24778 -5.27025,41.11913 -11.50884,58.2392 -1.10187,3.02375 -1.93462,5.56651 -1.85056,5.65057 0.0841,0.0841 2.05866,0.30472 4.38799,0.49035 5.08891,0.40555 10.83184,0.19074 16.91615,-0.63275 z"
       id="path7"
       inkscape:label="brown"
       transform="translate(-3.7342032e-5)" /></g></svg>
