<?xml version="1.0" encoding="UTF-8" standalone="no"?>
<svg
   width="1000"
   zoomAndPan="magnify"
   viewBox="0 0 750 749.999995"
   height="1000"
   preserveAspectRatio="xMidYMid meet"
   version="1.0"
   id="svg6"
   sodipodi:docname="mouse.svg"
   xml:space="preserve"
   inkscape:version="1.3.2 (091e20e, 2023-11-25, custom)"
   xmlns:inkscape="http://www.inkscape.org/namespaces/inkscape"
   xmlns:sodipodi="http://sodipodi.sourceforge.net/DTD/sodipodi-0.dtd"
   xmlns="http://www.w3.org/2000/svg"
   xmlns:svg="http://www.w3.org/2000/svg"><sodipodi:namedview
     id="namedview6"
     pagecolor="#ffffff"
     bordercolor="#000000"
     borderopacity="0.25"
     inkscape:showpageshadow="2"
     inkscape:pageopacity="0.0"
     inkscape:pagecheckerboard="0"
     inkscape:deskcolor="#d1d1d1"
     inkscape:zoom="0.9095"
     inkscape:cx="54.425509"
     inkscape:cy="146.78395"
     inkscape:window-width="3840"
     inkscape:window-height="2054"
     inkscape:window-x="3829"
     inkscape:window-y="-11"
     inkscape:window-maximized="1"
     inkscape:current-layer="svg6" /><defs
     id="defs3" /><g
     id="g7"
     transform="matrix(0.93730062,0,0,0.93790906,-1408.6364,-219.43122)"
     inkscape:label="g7"><path
       id="rect12"
       style="fill:#ffffff;stroke-width:0.43984"
       d="m 1714.4223,632.54152 h 397.5248 V 857.9023 h -397.5248 z"
       inkscape:label="white" /><path
       id="path10"
       style="fill:#c5e7f2;stroke-width:0.586453"
       inkscape:label="blue"
       d="m 2132.0592,344.67583 c -62.8835,-0.481 -121.7076,56.28823 -117.6118,120.18037 47.8149,33.31301 90.288,70.28275 131.5083,116.30116 27.4199,3.31223 62.525,-21.96944 80.7915,-43.87111 39.7599,-45.47871 33.5045,-123.54336 -14.3483,-162.15893 -21.9232,-19.42731 -50.9749,-30.7687 -80.3397,-30.45149 z m -458.7381,0.0893 c -69.9916,-2.01717 -138.1149,69.23213 -121.6292,139.07364 8.6796,50.60522 60.1265,94.15173 111.2021,96.49115 38.9869,-35.63883 88.0328,-68.21438 127.9806,-102.99885 19.801,-6.88304 -4.4398,-42.11623 -7.075,-57.15107 -16.514,-45.08959 -62.5992,-76.24505 -110.4785,-75.41487 z m 236.9666,127.98239 c -83.099,-1.91437 -172.3352,28.99317 -219.459,101.1664 -35.52,50.94587 -52.7622,113.60114 -49.1939,175.48183 -0.8842,24.02447 -0.6407,48.78745 12.9852,69.86833 20.3173,44.59188 60.9412,77.88537 108.509,89.50582 59.98,15.74342 122.8568,14.22568 184.39,14.56484 66.7563,-4.52948 140.1054,-17.20342 188.7698,-67.08321 23.9587,-28.3583 43.4515,-65.10382 35.9355,-103.17059 -3.3353,-61.75995 -22.8853,-122.20381 -51.5536,-176.66037 -34.0789,-62.94774 -104.1951,-97.36387 -173.6826,-102.37691 -12.1751,-1.47033 -24.4608,-1.25392 -36.7004,-1.29614 z m 144.328,191.57747 c 21.4502,25.85385 -44.4717,20.39152 -14.7902,-1.17305 4.4768,-2.93631 10.7789,-2.34701 14.7902,1.17305 z m -277.6379,3.24435 c 12.9588,24.52198 -38.166,27.7735 -25.4992,-2.43959 3.0247,-15.5233 19.6854,-3.77379 25.4992,2.43959 z m 100.4197,128.91447 h 54.6477 c -2.6941,8.62933 5.9566,28.60351 -5.4374,28.53294 h -49.2103 z"
       sodipodi:nodetypes="cccccccccccccccccccccccccccccccccc" /><path
       style="fill:#efc1d6;stroke-width:0.586453"
       d="m 1660.7737,546.61521 c -42.2491,-6.13945 -73.8572,-42.58343 -73.8895,-85.19446 -0.017,-22.3986 8.5035,-43.49375 24.164,-59.82423 30.277,-31.57271 79.3618,-35.33419 114.2591,-8.75591 22.8473,17.40093 35.8882,46.28357 33.5979,74.41183 -0.5199,6.38629 -1.3559,11.61903 -2.5522,15.97503 -0.6827,2.4858 -0.7737,4.12786 -3.8254,5.87962 -24.9645,14.33027 -44.838,32.7472 -61.9688,53.17668 -4.0642,4.84691 -7.7215,4.55702 -8.7653,4.76579 -2.4119,0.48237 -16.7503,0.1861 -21.0198,-0.43435 z m 464.1842,-3.80665 c -12.2316,-16.22647 -30.562,-31.18651 -45.9581,-42.66954 -9.2634,-6.90913 -18.7465,-15.64569 -27.5049,-20.05063 -1.4938,-0.7513 -2.8224,-1.71701 -2.9522,-2.146 -1.306,-4.31347 -1.9524,-18.24652 -1.179,-25.41106 1.7846,-16.53143 7.9336,-31.61769 18.2862,-44.86373 3.4249,-4.38201 11.1771,-11.92343 15.8312,-15.40048 19.6216,-14.65937 44.611,-20.24883 68.7277,-15.37257 31.4562,6.3603 56.9732,30.01048 65.6701,60.86567 5.7191,20.29091 3.8211,42.16095 -5.2897,60.95434 -14.2952,29.48713 -44.2872,48.60237 -76.2576,48.60237 h -5.9754 z"
       id="path9"
       inkscape:label="light pink"
       sodipodi:nodetypes="ssssssssssssssssssssscs" /><path
       style="fill:#e9a1c0;stroke-width:0.586453"
       d="m 1718.6128,759.47508 c -7.8361,-0.90841 -13.1145,-2.37223 -18.385,-5.09869 -12.6583,-6.54813 -12.3066,-17.44607 0.7685,-23.80904 6.5987,-3.21132 13.974,-4.67521 23.5543,-4.67521 9.8785,0 18.3893,1.86808 24.7717,5.43731 17.2136,9.62644 7.291,25.15335 -17.8676,27.95868 -3.9814,0.44396 -9.8837,0.52988 -12.8419,0.18695 z m 345.8664,-0.21628 c -11.6517,-1.33581 -22.1317,-6.54333 -24.9708,-12.40803 -2.0258,-4.18462 -0.6244,-9.19964 3.5757,-12.79658 2.3432,-2.0067 7.8187,-4.78235 11.7106,-5.93643 10.1665,-3.01475 24.2989,-3.02249 34.3835,-0.0188 12.4421,3.70577 18.8561,11.53491 15.3625,18.75182 -4.2342,8.74659 -22.5411,14.41667 -40.0615,12.40804 z"
       id="path8"
       inkscape:label="pink" /><path
       id="path11"
       style="fill:#f0f2d2;stroke-width:0.586453"
       inkscape:label="tan"
       d="m 1899.2685,703.92751 c -31.455,0.73755 -65.2667,12.65694 -83.3298,39.79629 -11.0663,16.07438 -13.9775,36.17875 -12.6535,55.29104 0.701,24.68701 13.1013,49.66296 35.0027,62.06788 25.4624,14.70581 56.2244,16.36774 84.872,13.70804 25.4823,-2.6403 52.4473,-12.26195 67.0915,-34.62574 13.34,-20.05761 14.8835,-45.65634 10.7387,-68.78013 -4.904,-26.07122 -24.4632,-47.71351 -48.6247,-57.8438 -16.6493,-7.24168 -35.0155,-10.08136 -53.0969,-9.61358 z m -22.273,91.82185 c 18.8649,0 37.7297,0 56.5944,0 0,10.42989 0,20.85976 0,31.28966 -18.8647,0 -37.7295,0 -56.5944,0 0,-10.4299 0,-20.85977 0,-31.28966 z" /><path
       style="fill:#41130d;stroke-width:0.586453"
       d="m 1866.619,944.64222 c -1.3304,-0.0703 -6.1798,-0.33944 -10.776,-0.59818 -37.8478,-2.13063 -75.4292,-8.46988 -105.5617,-17.80627 -50.1171,-15.52846 -88.1202,-45.5091 -108.3739,-85.49598 -5.4646,-10.78895 -11.0112,-26.17924 -14.1265,-39.1971 -0.5501,-2.29818 -1.0403,-4.23032 -1.0894,-4.29369 -0.05,-0.0633 -8.4823,1.68211 -18.7405,3.87886 -10.2582,2.19675 -19.74,4.17704 -21.0706,4.40064 -4.5339,0.76199 -9.0348,-1.47422 -10.9564,-5.44367 -1.3013,-2.68809 -1.2483,-6.83347 0.1249,-9.78254 1.1159,-2.39655 4.0164,-5.19802 5.9167,-5.7147 0.6469,-0.17591 10.083,-2.23327 20.9692,-4.57188 l 19.7927,-4.25202 -0.04,-1.29536 c -0.021,-0.71245 -0.3667,-5.25391 -0.7663,-10.09215 -0.3994,-4.83825 -0.8468,-11.32039 -0.9942,-14.40478 -0.147,-3.08438 -0.4307,-5.60796 -0.6302,-5.60796 -0.1997,0 -10.658,-0.97958 -23.241,-2.17683 -24.5956,-2.34025 -24.7103,-2.36167 -27.4856,-5.13713 -2.1759,-2.17576 -2.6903,-3.59578 -2.6887,-7.42071 0,-2.753 0.2063,-3.90156 0.9431,-5.27808 1.6287,-3.04278 4.4064,-5.0985 7.62,-5.63966 0.8466,-0.14258 11.4358,0.69036 23.5314,1.85099 13.013,1.24866 22.1012,1.9448 22.2595,1.70505 0.1471,-0.22286 0.4051,-2.71054 0.5736,-5.52818 0.6811,-11.3931 2.999,-28.15235 6.0177,-43.51256 4.9032,-24.94816 12.0466,-48.08763 21.2657,-68.88515 1.3778,-3.10806 2.4212,-5.73478 2.3189,-5.83719 -0.1029,-0.10243 -1.8074,-0.4712 -3.7886,-0.81954 -42.2972,-7.43656 -80.8228,-36.26791 -100.6765,-75.34287 -4.0274,-7.92647 -6.8534,-14.83289 -9.046,-22.10675 -8.5432,-28.34304 -6.9555,-60.29603 4.4244,-89.05051 19.4324,-49.10123 62.102,-81.39647 116.0298,-87.81956 6.7438,-0.80323 23.9351,-0.66091 30.7888,0.25491 32.5289,4.34664 61.3422,18.60306 84.461,41.7901 11.9608,11.99604 20.1575,23.45686 27.0755,37.85742 8.076,16.81105 12.0409,33.04212 12.9634,53.06857 l 0.297,6.44546 3.1377,-0.87508 c 5.901,-1.64569 18.4475,-4.3375 27.2894,-5.85483 24.4451,-4.19492 46.5898,-5.79669 74.1528,-5.3636 26.041,0.40917 44.8244,2.30207 66.1724,6.66855 4.0997,0.83851 7.4932,1.48098 7.5414,1.42771 0.048,-0.0533 0.3196,-2.96684 0.6032,-6.47457 2.2897,-28.3224 13.0697,-55.70169 30.6163,-77.76014 4.475,-5.62562 16.4862,-17.5795 21.7407,-21.6369 19.3631,-14.9516 42.5175,-24.95072 66.196,-28.58644 44.4544,-6.82573 89.432,8.29201 122.2941,41.10509 22.1825,22.14946 35.678,49.67339 39.1476,79.84094 1.0056,8.74342 0.6981,26.68824 -0.5989,34.9673 -3.7548,23.96371 -12.825,45.8015 -26.6491,64.16066 -19.7115,26.17816 -48.5121,44.38322 -82.1257,51.91201 -2.8111,0.62965 -5.4219,1.14481 -5.8018,1.14481 -0.3799,0 -0.7996,0.17615 -0.9327,0.39145 -0.1331,0.2153 0.955,3.2337 2.4176,6.70757 14.2351,33.80599 23.961,72.47963 27.9076,110.97156 0.3706,3.61406 0.7353,6.63258 0.8105,6.70783 0.074,0.0752 9.4229,-0.74449 20.7725,-1.82169 23.3596,-2.21706 23.4475,-2.21492 26.7037,0.65145 2.7465,2.41754 3.9681,5.42668 3.7525,9.24303 -0.2206,3.90407 -1.8498,6.61972 -5.0511,8.42004 -2.228,1.25295 -2.6297,1.30986 -22.8322,3.2355 -11.3105,1.07808 -20.8971,1.96012 -21.3038,1.96012 -0.6634,0 -0.7682,1.05135 -1.0203,10.22629 -0.1545,5.62446 -0.491,12.50247 -0.7476,15.28445 -0.2568,2.782 -0.5081,5.54866 -0.5587,6.14815 -0.091,1.08711 -0.045,1.09991 17.5017,4.86696 9.6766,2.07736 18.1497,3.91924 18.8293,4.09306 1.8919,0.48395 4.9275,3.55783 6.0188,6.09472 2.7055,6.28913 -0.1802,12.86224 -6.4464,14.68392 -2.5618,0.74472 -2.8713,0.69222 -28.5179,-4.83667 -6.0479,-1.30377 -11.1306,-2.24231 -11.295,-2.08563 -0.1645,0.15669 -0.8221,2.36313 -1.4612,4.90321 -4.5111,17.92876 -13.5637,37.78175 -24.1426,52.94597 -7.475,10.71534 -19.3887,23.512 -29.0281,31.17984 -30.6165,24.3543 -70.101,40.09097 -122.105,48.66534 -23.6413,3.89799 -55.4934,7.00658 -85.9887,8.39206 -8.5112,0.38669 -47.8082,0.49878 -54.3203,0.15496 z m 70.8143,-21.70902 c 52.4286,-2.25861 96.9114,-11.3119 135.154,-27.50703 38.2528,-16.19935 67.2629,-43.21084 81.9255,-76.28117 3.4865,-7.86337 8.753,-24.59006 7.9844,-25.35862 -0.1333,-0.13332 -5.7293,-1.40978 -12.4356,-2.83659 -13.2843,-2.82635 -15.0537,-3.49648 -16.9594,-6.42325 -1.746,-2.68155 -2.3036,-4.48642 -2.2765,-7.36842 0.054,-5.81936 4.23,-9.99194 9.985,-9.97861 1.2364,0.003 7.4656,1.11661 13.8428,2.47499 6.3771,1.35837 11.6491,2.40928 11.7159,2.33537 0.3403,-0.37714 1.1004,-13.84629 1.1004,-19.49807 v -6.47943 l -1.6492,0.24299 c -0.9073,0.13366 -5.537,0.58996 -10.2883,1.01404 -8.2969,0.74055 -8.7206,0.73972 -10.7122,-0.0209 -5.58,-2.13098 -8.792,-8.2147 -7.2837,-13.79555 0.6826,-2.52586 4.0183,-5.98264 6.402,-6.63469 0.9677,-0.26466 6.3845,-0.92273 12.0375,-1.46234 l 10.278,-0.98112 -0.2969,-3.30985 c -2.2911,-25.55265 -13.1572,-70.54295 -24.2204,-100.28353 -18.3054,-49.20864 -45.6438,-86.08769 -81.3678,-109.76381 -24.0827,-15.96087 -52.2341,-26.90127 -85.3291,-33.16139 -20.7813,-3.93094 -39.0683,-5.51302 -63.5569,-5.49858 -27.1291,0.016 -49.2923,2.14535 -72.9342,7.00727 -60.4385,12.42898 -107.11,40.57597 -141.1175,85.10577 -27.9632,36.61543 -46.7361,86.27842 -52.4556,138.76965 -1.1604,10.64801 -1.8042,21.04385 -1.3224,21.34788 0.2052,0.12953 4.1671,0.58299 8.8042,1.00767 9.0408,0.828 10.7594,1.28817 13.0985,3.50737 5.6714,5.38084 3.2297,15.1688 -4.5227,18.12945 -1.9052,0.72759 -2.5858,0.74867 -8.3146,0.25764 -3.4318,-0.29414 -7.0125,-0.65295 -7.957,-0.79735 l -1.7173,-0.26255 0.2948,5.67504 c 0.5996,11.53787 1.2808,18.28423 1.8689,18.50991 0.3118,0.11964 4.387,-0.60469 9.0561,-1.60967 4.6689,-1.00496 9.6147,-1.82439 10.9904,-1.82098 8.3025,0.0207 12.6354,9.34575 7.8493,16.89277 -2.0386,3.21427 -3.9213,4.01785 -14.7949,6.31462 -5.2968,1.1188 -9.718,2.11134 -9.8246,2.20564 -0.6457,0.5707 4.67,18.43669 7.8964,26.54051 5.2114,13.08903 12.2228,25.3175 20.6797,36.06692 5.4295,6.90136 16.303,17.50856 23.3518,22.77993 26.7429,19.99934 62.2585,32.577 109.4675,38.76747 19.2971,2.5304 52.9162,5.30085 74.6411,6.15093 13.1632,0.51506 41.2789,0.53083 52.9126,0.0297 z m -22.8836,-84.01911 c -3.422,-0.51614 -6.4189,-1.60864 -9.0767,-3.30881 l -2.2848,-1.46157 -2.3528,1.27427 c -4.7669,2.58189 -11.7462,3.37638 -17.3001,1.96934 -7.8052,-1.97739 -14.0661,-6.84977 -17.2987,-13.46235 -1.9961,-4.08306 -2.688,-7.41465 -2.6931,-12.96915 0,-1.96029 -0.1267,-4.74458 -0.2776,-6.18731 -0.2694,-2.57828 -0.3087,-2.64143 -2.2967,-3.6932 -6.536,-3.45797 -8.8722,-6.47471 -8.8552,-11.43522 0.017,-4.92441 2.3359,-8.20338 6.4566,-9.12926 3.1534,-0.70853 4.7703,-0.19384 10.2476,3.26191 5.0208,3.16766 11.8611,4.19446 15.6674,2.35183 3.4857,-1.68741 6.0872,-5.37088 7.4167,-10.50136 0.7831,-3.02204 0.663,-3.98767 -0.4963,-3.98767 -1.5662,0 -7.9892,-3.53468 -10.1468,-5.58396 -2.998,-2.84732 -4.2247,-5.36159 -4.2499,-8.71085 -0.051,-6.80482 5.9972,-12.48912 16.2201,-15.24355 5.0147,-1.35109 14.3384,-1.35109 19.353,0 7.2095,1.94248 12.9401,5.77791 15.2184,10.18538 0.7579,1.4661 1.0257,2.72057 1.0333,4.83824 0.012,3.50264 -1.5265,6.63654 -4.577,9.32168 -2.0298,1.78665 -8.4918,5.19306 -9.8514,5.19306 -1.2557,0 -1.2715,1.06127 -0.07,4.67799 1.9078,5.74189 4.915,9.28494 8.7679,10.32987 3.6113,0.97951 9.9573,-0.36505 14.167,-3.00166 4.2939,-2.68927 5.5862,-3.20939 7.975,-3.20939 3.5917,0 6.107,1.50875 7.6918,4.61401 1.107,2.16942 1.1553,5.4725 0.117,8.02637 -0.8885,2.18522 -4.8167,5.99344 -7.8307,7.59152 l -2.0725,1.09884 v 7.49561 c 0,8.54995 -0.4434,10.91516 -2.9578,15.7769 -2.0138,3.89377 -7.1586,9.13796 -10.8972,11.1076 -4.6853,2.46845 -10.0582,3.47803 -14.7466,2.77089 z m -22.413,-16.19179 c 0.8429,-0.44793 1.9779,-1.46684 2.5222,-2.26424 0.9448,-1.38403 0.9896,-1.8479 0.9896,-10.21827 0,-4.82263 -0.1485,-8.69244 -0.3299,-8.59959 -4.6847,2.39738 -8.7034,3.58964 -13.855,4.11049 l -2.529,0.25571 v 3.84707 c 0,5.40506 0.8862,8.1214 3.4657,10.62315 3.0776,2.985 6.7508,3.83219 9.7364,2.24568 z m 30.1221,-1.11096 c 4.393,-2.0716 5.4981,-4.33397 5.4981,-11.25571 v -4.85237 h -2.3805 c -3.3795,0 -8.7317,-1.10685 -11.5159,-2.38154 l -2.3777,-1.08852 v 8.6746 c 0,7.30268 0.1133,8.83632 0.7162,9.69713 1.6753,2.39191 6.3557,2.9532 10.0598,1.20641 z M 1753.7897,716.22095 c -16.4796,-2.4224 -28.3035,-16.86513 -27.3577,-33.41681 0.4693,-8.21151 3.4486,-14.68396 9.5548,-20.75726 3.2053,-3.18792 4.4998,-4.13015 7.9615,-5.79388 5.6042,-2.69364 9.7847,-3.55831 15.7468,-3.25709 8.5663,0.43279 14.8424,3.24535 21.0089,9.41479 5.4101,5.41286 8.4079,11.94871 9.1595,19.97031 0.3726,3.97616 -0.5904,10.1754 -2.1935,14.12076 -5.4156,13.32788 -19.922,21.77099 -33.8803,19.71918 z m 15.5228,-34.99361 c 3.4537,-1.44306 5.5192,-4.64497 5.5192,-8.55589 0,-5.40976 -3.8847,-9.23666 -9.3759,-9.23666 -2.6764,0 -4.6184,0.75693 -6.3307,2.46752 -4.6918,4.68662 -3.4211,12.19455 2.592,15.31551 1.693,0.87869 5.5038,0.88347 7.5954,0.009 z m 263.4578,34.76031 c -10.527,-1.98749 -18.6505,-8.28992 -23.2343,-18.02538 -5.9456,-12.62864 -2.9819,-27.15843 7.5208,-36.87086 6.1794,-5.71436 14.1276,-8.53448 22.8166,-8.0955 8.5212,0.4305 14.8028,3.23022 20.9761,9.34885 2.9226,2.8968 3.9262,4.27441 5.6075,7.69721 2.7909,5.68174 3.5437,8.81669 3.5361,14.72509 -0.01,5.75296 -0.7619,8.96229 -3.3601,14.29481 -1.5028,3.08417 -2.5571,4.474 -6.0223,7.93924 -3.4506,3.45061 -4.8681,4.52787 -7.9393,6.03368 -6.3054,3.09167 -13.5065,4.16014 -19.9011,2.95286 z m 16.7206,-34.76031 c 5.6407,-2.35685 7.4486,-9.71058 3.5499,-14.44021 -4.4921,-5.44985 -13.2177,-4.10418 -15.9602,2.46143 -1.8421,4.40973 0.2162,9.50989 4.8148,11.9299 1.7,0.89468 5.5123,0.91921 7.5955,0.0489 z M 1666.6603,570.95908 c 21.0494,-34.05308 47.4727,-60.11113 81.8617,-80.73028 8.5742,-5.14108 25.2632,-13.35313 35.077,-17.26038 l 8.2469,-3.28332 -0.011,-7.03746 c -0.012,-11.08378 -1.2928,-20.71125 -4.1344,-31.0703 -2.2157,-8.07734 -4.2252,-13.28258 -8.3834,-21.71531 -9.3105,-18.8823 -22.2042,-33.67709 -39.3013,-45.09637 -16.3018,-10.88794 -35.7356,-17.85775 -55.2229,-19.80523 -7.5716,-0.75669 -22.7363,-0.30792 -29.7405,0.88012 -34.6455,5.87641 -65.4441,26.19796 -83.8571,55.33071 -3.7309,5.90306 -9.1168,17.2644 -11.3154,23.87003 -7.239,21.74833 -7.6241,45.18746 -1.1169,67.95535 7.5464,26.40287 24.1223,49.24336 46.7124,64.36628 12.0673,8.07854 25.029,13.7262 39.5633,17.23857 5.3756,1.29908 15.7317,3.07804 16.9999,2.92023 0.3347,-0.0417 2.4129,-2.99484 4.6183,-6.56264 z m 486.0749,5.39601 c 33.5794,-5.54023 60.5441,-22.98863 79.2018,-51.2501 14.1062,-21.36688 21.4448,-48.54084 19.5984,-72.56944 -1.2217,-15.89872 -4.5019,-28.06321 -11.2691,-41.78907 -5.6625,-11.48573 -12.5354,-20.93915 -22.2244,-30.56891 -18.2696,-18.15839 -41.3178,-29.99843 -66.846,-34.33938 -7.9377,-1.34974 -23.1691,-1.66715 -31.2446,-0.6511 -27.4908,3.45884 -52.6489,15.80273 -72.1279,35.38986 -13.2841,13.3578 -22.0213,27.29198 -27.931,44.54473 -3.5632,10.40238 -5.3312,20.27606 -5.7781,32.26865 l -0.2794,7.49805 1.9347,0.57168 c 7.8891,2.33116 23.2819,8.62304 32.9767,13.4794 39.0991,19.5855 72.1844,52.02995 94.7335,92.89857 1.635,2.96342 3.1989,5.38801 3.475,5.38797 0.2764,-6e-5 2.8776,-0.39197 5.7804,-0.87091 z"
       id="path7"
       inkscape:label="brown" /></g></svg>
