<?xml version="1.0" encoding="UTF-8" standalone="no"?>
<svg
   width="1000"
   zoomAndPan="magnify"
   viewBox="0 0 750 749.999995"
   height="1000"
   preserveAspectRatio="xMidYMid meet"
   version="1.0"
   id="svg6"
   sodipodi:docname="panda.svg"
   xml:space="preserve"
   inkscape:version="1.3.2 (091e20e, 2023-11-25, custom)"
   xmlns:inkscape="http://www.inkscape.org/namespaces/inkscape"
   xmlns:sodipodi="http://sodipodi.sourceforge.net/DTD/sodipodi-0.dtd"
   xmlns="http://www.w3.org/2000/svg"
   xmlns:svg="http://www.w3.org/2000/svg"><sodipodi:namedview
     id="namedview6"
     pagecolor="#ffffff"
     bordercolor="#000000"
     borderopacity="0.25"
     inkscape:showpageshadow="2"
     inkscape:pageopacity="0.0"
     inkscape:pagecheckerboard="0"
     inkscape:deskcolor="#d1d1d1"
     inkscape:zoom="1.2218805"
     inkscape:cx="14.322186"
     inkscape:cy="398.15677"
     inkscape:window-width="3840"
     inkscape:window-height="2054"
     inkscape:window-x="-11"
     inkscape:window-y="-11"
     inkscape:window-maximized="1"
     inkscape:current-layer="g7" /><defs
     id="defs3" /><g
     id="g7"
     transform="translate(-221.35417,198.78472)"><path
       id="path9"
       style="fill:#ffffff;stroke-width:1.18053"
       d="m 887.14657,188.63872 c 11.05804,58.86972 -5.60125,124.48001 -52.32454,164.12598 -63.18101,54.69751 -150.65054,69.39126 -231.784,68.81224 C 526.29368,418.80658 444.56944,413.97335 377.72062,372.07892 326.1621,340.57418 301.95207,279.16581 302.46516,220.69661 299.40273,139.099 332.73046,55.94656 396.13177,3.4484777 475.50226,-63.445568 589.68764,-85.746398 688.94284,-56.650243 783.55816,-28.58597 853.93696,55.41914 878.62087,149.2456 c 3.58381,12.9558 6.42163,26.11686 8.5257,39.39312 z"
       inkscape:label="white" /><path
       style="fill:#41130d;stroke-width:1.21644"
       d="M 548.76652,454.59709 C 482.15845,451.7024 436.46358,443.42667 394.79115,426.71087 337.00911,403.53311 303.46777,367.00188 292.96179,315.80439 c -3.59238,-17.50629 -4.39281,-43.87877 -1.96193,-64.64096 2.26746,-19.36643 13.32801,-71.78567 20.4226,-96.78894 l 3.46987,-12.2287 -6.4553,-1.94303 c -10.0406,-3.02219 -13.90725,-4.5996 -22.96946,-9.37038 -29.77832,-15.67676 -49.94761,-42.958122 -56.6608,-76.640477 -2.29562,-11.51795 -2.05376,-32.340151 0.51698,-44.50561 7.70034,-36.440316 29.67841,-67.904215 62.1662,-88.997375 41.20483,-26.752808 93.03997,-30.821128 133.64885,-10.489501 24.91243,12.472878 45.01249,34.342216 53.86283,58.603992 0.91521,2.508903 1.74145,4.677699 1.83608,4.819548 0.0946,0.141849 4.43518,-0.968544 9.64565,-2.467538 36.49681,-10.499708 80.29485,-15.012893 124.88312,-12.868621 33.23935,1.598498 59.89353,5.133661 84.52254,11.210289 l 11.99245,2.958854 3.35639,-7.926474 c 6.82697,-16.122582 19.4641,-32.140487 34.10802,-43.232841 8.38542,-6.351715 24.09058,-14.554531 33.889,-17.700239 48.82214,-15.674047 103.57876,-1.441612 141.90772,36.884875 12.10926,12.108478 19.77427,22.608124 26.80181,36.713593 26.09915,52.384889 13.63334,111.804823 -30.32722,144.559085 -8.72214,6.4987 -24.55261,14.54501 -34.71405,17.64445 l -7.55477,2.30434 2.11899,9.34481 c 1.16545,5.13965 4.40055,23.09816 7.18911,39.90781 2.78858,16.80965 5.67896,33.22125 6.42309,36.47023 3.01275,13.15431 5.03297,28.62266 5.54362,42.44616 1.8764,50.79564 -15.53406,93.33932 -50.04927,122.29882 -41.45143,34.77925 -102.0992,54.34239 -190.95951,61.59775 -15.56138,1.27057 -88.1873,1.81358 -110.84788,0.82878 z m 120.1475,-23.15394 c 55.85302,-4.92825 95.54316,-14.85796 131.73021,-32.95638 36.58344,-18.29666 61.97273,-45.03243 72.32078,-76.15616 4.07298,-12.25023 5.25709,-19.81923 5.78849,-37.00073 0.60047,-19.4144 -0.26058,-28.31837 -5.20039,-53.77593 -1.94731,-10.03561 -5.65177,-30.30825 -8.23213,-45.0503 C 855.05952,127.87814 845.09372,100.45 823.4828,71.355449 784.07148,18.296433 719.97617,-11.993367 632.70072,-18.803246 573.20331,-23.445675 520.67234,-17.495069 476.07845,-1.061384 462.16203,4.067081 439.03827,15.738861 426.9707,23.725869 384.49551,51.838412 355.14405,91.384598 337.87692,143.76486 c -8.00116,24.27167 -21.83309,84.19751 -25.00136,108.31648 -2.05828,15.66898 -1.39679,45.94766 1.27125,58.18995 5.25193,24.09849 14.50128,42.25784 29.72397,58.35737 35.20319,37.23092 101.25685,58.30524 200.79026,64.0618 21.37168,1.23605 105.70274,0.38948 124.25298,-1.24731 z m -43.96809,-65.33479 c -10.3854,-1.86226 -18.43205,-6.16077 -25.32257,-13.5273 l -4.06238,-4.34301 -5.50858,5.17768 c -10.06292,9.45845 -21.14958,13.22475 -36.72424,12.47575 -11.61595,-0.55863 -21.12833,-3.46931 -30.6278,-9.37175 -7.10977,-4.41763 -8.60232,-6.65299 -8.60232,-12.88356 0,-3.53632 0.47804,-4.63182 3.21583,-7.3696 2.95835,-2.95836 3.56094,-3.18263 7.5267,-2.80141 2.54911,0.24503 5.94273,1.44461 8.3038,2.93524 11.86053,7.48794 25.66104,9.35809 35.07362,4.75295 2.80369,-1.37173 6.20848,-3.80736 7.56615,-5.41251 2.94855,-3.48595 6.38586,-10.78548 7.20188,-15.29396 l 0.58864,-3.25225 -5.69478,-1.58329 c -17.46646,-4.8561 -28.20103,-15.39315 -28.20103,-27.68211 0,-12.39612 10.68432,-22.66622 28.91231,-27.79142 9.11819,-2.56379 25.01867,-2.77297 34.40285,-0.4526 12.82555,3.1713 22.91734,9.65446 27.6919,17.78984 3.19117,5.4374 3.49876,14.11201 0.7009,19.76654 -4.05434,8.19391 -14.5641,15.42236 -27.11668,18.65042 l -6.65844,1.71231 0.25522,2.99376 c 0.40467,4.74709 4.73796,13.38216 8.27308,16.48604 1.78159,1.56426 5.10759,3.68939 7.3911,4.72253 8.60252,3.89202 23.19268,1.57801 33.63934,-5.33528 6.50128,-4.30233 14.69103,-3.93854 17.78943,0.79023 4.01166,6.12257 2.0596,13.47659 -4.73452,17.83637 -13.78047,8.84289 -32.28009,13.34136 -45.27941,11.01039 z M 415.89689,320.5843 c -7.77954,-2.11288 -14.3572,-5.3062 -21.77001,-10.56889 -14.76179,-10.48007 -31.18864,-34.25002 -35.62345,-51.54777 -1.86305,-7.26673 -2.08046,-19.71467 -0.4621,-26.45752 2.99409,-12.47484 9.51743,-23.07095 22.38128,-36.35482 20.36082,-21.0256 39.87342,-31.8232 65.58319,-36.29147 11.54479,-2.00644 31.21895,-1.30406 40.71591,1.45358 24.43982,7.09662 37.72148,25.0791 34.62883,46.8851 -1.28897,9.08844 -5.45083,18.75273 -16.31553,37.88643 -7.03113,12.38245 -10.47749,19.61577 -13.42793,28.18288 -4.97215,14.43751 -8.12213,19.80392 -16.73915,28.51742 -12.34434,12.48257 -26.77525,19.04313 -43.33559,19.7012 -7.05202,0.28023 -10.60173,-0.0391 -15.63545,-1.40614 z m 49.11471,-66.8524 c 18.18551,-8.45839 24.59049,-31.36261 13.43983,-48.06086 -11.41856,-17.09942 -35.48873,-19.476 -50.27288,-4.96371 -17.14114,16.82594 -10.43244,46.20531 12.40337,54.31802 6.87728,2.44324 17.61853,1.87453 24.42968,-1.29345 z m -22.60505,-9.71881 c -8.48875,-3.96716 -13.90621,-13.28038 -12.86061,-22.10884 2.18122,-18.41699 24.09533,-26.4157 37.00435,-13.50668 10.05461,10.05461 8.15355,26.59631 -3.91402,34.05713 -5.7497,3.55475 -14.5134,4.22987 -20.22972,1.55839 z m 21.09876,-23.36561 c 4.44105,-4.44105 1.39087,-11.44557 -4.9841,-11.44557 -7.06443,0 -9.53147,8.11775 -3.80356,12.5155 2.39805,1.84117 6.3588,1.35893 8.78766,-1.06993 z m 284.60493,101.09147 c -15.00936,-3.12587 -26.90986,-9.56875 -37.09215,-20.08152 -7.22298,-7.45742 -11.96299,-15.29747 -14.91324,-24.66671 -3.47026,-11.0207 -6.07259,-16.53031 -16.21902,-34.3386 -9.97616,-17.50947 -14.13051,-27.94436 -14.9406,-37.52771 -1.25146,-14.80476 5.2549,-28.13278 17.75017,-36.36049 11.25386,-7.41028 23.65411,-10.65239 40.74272,-10.65239 25.45199,0 48.09976,8.05183 68.40611,24.32002 44.99887,36.05032 49.70472,71.32458 15.17613,113.75775 -10.0535,12.35503 -24.85291,21.98633 -38.09574,24.79231 -5.80415,1.22982 -16.65067,1.62448 -20.81438,0.75734 z m 1.22271,-68.18457 c 16.81874,-8.6286 23.38033,-27.20741 15.53109,-43.97546 -2.81367,-6.01073 -9.68681,-12.72065 -16.08252,-15.70057 -4.44334,-2.07026 -6.47473,-2.44031 -13.46306,-2.45248 -7.47576,-0.013 -8.78843,0.2605 -14.32114,2.98423 -19.42777,9.56426 -24.67337,34.79299 -10.56646,50.81929 7.42499,8.43523 14.84199,11.57658 26.27528,11.12846 6.27443,-0.24592 8.68484,-0.78109 12.62681,-2.80347 z m -21.62503,-9.10845 c -3.93789,-1.42506 -9.79171,-6.33894 -11.51011,-9.66196 -5.67742,-10.97893 -2.10943,-23.68798 8.38151,-29.85461 3.68235,-2.16451 5.43741,-2.98991 10.87654,-2.98991 5.59461,0 7.00759,0.92874 11.01305,3.08524 2.54039,1.36773 5.55955,4.61289 7.07226,6.76521 2.33191,3.3179 3.2689,4.98705 3.55792,10.71064 0.28026,5.54977 -0.28833,7.54081 -2.1286,10.84135 -5.2442,9.40544 -16.86122,14.86812 -27.26257,11.10404 z m 20.12225,-24.068 c 2.12835,-2.47814 2.59175,-4.58977 1.58711,-7.23219 -1.96703,-5.17366 -7.54507,-6.45584 -11.38412,-2.6168 -2.7367,2.7367 -2.8568,5.8529 -0.34847,9.04172 2.30252,2.92718 7.93956,3.37573 10.14548,0.80727 z"
       id="path7"
       sodipodi:nodetypes="ssssscssssssssssscsscsssscssssssssssssssssssssssssscsssssssssscssssssscsssssssssssssssssssssssssssssssssssssssssssssssssssssssssssssssssss"
       inkscape:label="black" /></g></svg>
