<?xml version="1.0" encoding="UTF-8" standalone="no"?>
<svg
   width="1000"
   zoomAndPan="magnify"
   viewBox="0 0 750 749.999995"
   height="1000"
   preserveAspectRatio="xMidYMid meet"
   version="1.0"
   id="svg6"
   sodipodi:docname="panda.svg"
   xml:space="preserve"
   inkscape:version="1.3.2 (091e20e, 2023-11-25, custom)"
   xmlns:inkscape="http://www.inkscape.org/namespaces/inkscape"
   xmlns:sodipodi="http://sodipodi.sourceforge.net/DTD/sodipodi-0.dtd"
   xmlns="http://www.w3.org/2000/svg"
   xmlns:svg="http://www.w3.org/2000/svg"><sodipodi:namedview
     id="namedview6"
     pagecolor="#ffffff"
     bordercolor="#000000"
     borderopacity="0.25"
     inkscape:showpageshadow="2"
     inkscape:pageopacity="0.0"
     inkscape:pagecheckerboard="0"
     inkscape:deskcolor="#d1d1d1"
     inkscape:zoom="0.43199999"
     inkscape:cx="-818.28705"
     inkscape:cy="202.5463"
     inkscape:window-width="3840"
     inkscape:window-height="2054"
     inkscape:window-x="-11"
     inkscape:window-y="-11"
     inkscape:window-maximized="1"
     inkscape:current-layer="svg6" /><defs
     id="defs3" /><g
     id="g7"
     transform="translate(545.29199,233.77177)"><path
       id="path9"
       style="fill:#ffffff;stroke-width:1.06841"
       d="m 106.71944,174.92436 c 10.09575,50.60038 0.78705,127.86396 -44.034475,161.94092 -60.6175246,47.01423 -149.911268,56.57493 -227.221385,56.07725 -73.11118,-2.38122 -158.93185,-7.76314 -222.31967,-43.77272 -48.89521,-27.07932 -64.75294,-96.43457 -63.82522,-146.69067 -2.30594,-70.13572 30.99775,-154.497836 91.80871,-199.6215895 76.13649,-57.4975375 206.90466,-66.5379705 301.269508,-41.5289095 89.951123,24.122125 133.675857,99.089297 156.493771,179.736099 3.317891,11.13592 5.923371,22.44827 7.828761,33.85962 z"
       inkscape:label="white"
       sodipodi:nodetypes="ccccccccc" /><path
       style="fill:#41130d;stroke-width:1.15943"
       d="m -215.63967,406.6199 c -63.47279,-2.75962 -107.01678,-10.64918 -146.72767,-26.58497 -55.06222,-22.09621 -87.02475,-56.92278 -97.03621,-105.73124 -3.42328,-16.6894 -4.18604,-41.83126 -1.86958,-61.62462 2.16073,-18.46273 12.70065,-68.43593 19.4613,-92.27247 l 3.30654,-11.65807 -6.15145,-1.85237 c -9.56798,-2.88116 -13.25263,-4.38497 -21.88827,-8.933135 -28.37664,-14.94523 -47.59656,-40.953561 -53.99375,-73.064195 -2.18757,-10.980487 -1.95709,-30.8310607 0.49264,-42.428843 7.33788,-34.7399 28.28144,-64.735598 59.24001,-84.844487 39.2653,-25.50444 88.66054,-29.38291 127.35794,-10.00003 23.73979,11.89086 42.89373,32.739705 51.32748,55.869353 0.87213,2.39183 1.65948,4.459423 1.74965,4.594653 0.0901,0.13523 4.22642,-0.923349 9.19163,-2.352395 34.77889,-10.00976 76.51533,-14.312346 119.00481,-12.268132 31.67476,1.523907 57.074317,4.894109 80.544027,10.687183 l 11.42796,2.820785 3.1984,-7.556601 c 6.50562,-15.370253 18.54792,-30.640714 32.50254,-41.215466 7.99072,-6.05532 22.9566301,-13.87537 32.2938301,-16.87429 46.5240599,-14.94264 98.7032629,-1.37434 135.2280629,35.163714 11.53927,11.543459 18.84348,21.55316 25.54023,35.000425 24.87066,49.9404503 12.99162,106.587669 -28.8997,137.813516 -8.31158,6.19545 -23.39691,13.866305 -33.08004,16.821115 l -7.199173,2.19681 2.019253,8.90875 c 1.11059,4.89982 4.19342,22.02033 6.85072,38.04559 2.65732,16.02526 5.41165,31.67105 6.12075,34.76842 2.87094,12.54049 4.79606,27.28704 5.28268,40.46549 1.78808,48.42537 -14.80287,88.98383 -47.693433,116.59199 -39.50029,33.15634 -97.29334,51.80661 -181.970957,58.72341 -14.8289,1.21128 -84.03628,1.72895 -105.63022,0.79011 z m 114.49211,-22.07351 c 53.223987,-4.69828 91.045887,-14.16464 125.529597,-31.41853 34.86144,-17.44289 59.05565,-42.93108 68.91661,-72.60249 3.88126,-11.67859 5.00964,-18.8944 5.51602,-35.27416 0.57221,-18.50846 -0.24831,-26.99695 -4.9556,-51.26658 -1.85565,-9.56732 -5.38574,-28.89398 -7.84464,-42.94812 C 76.235977,95.146645 66.739277,68.998385 46.145587,41.261473 8.5893771,-9.3216477 -52.488933,-38.198034 -135.65629,-44.690143 c -56.69684,-4.425799 -106.75515,1.247133 -149.24998,16.913973 -13.26137,4.889155 -35.29669,16.016294 -46.79623,23.6306043 -40.47586,26.8007257 -68.44574,64.5015667 -84.90009,114.4376157 -7.62455,23.13908 -20.8054,80.26859 -23.82454,103.2621 -1.9614,14.93782 -1.33104,43.8036 1.21141,55.47463 5.00472,22.97398 13.8187,40.28596 28.32485,55.63424 33.54616,35.49361 96.49064,55.58454 191.33897,61.07248 20.36571,1.17837 100.72726,0.3713 118.40434,-1.18911 z m -41.8985,-62.28607 c -9.89655,-1.77536 -17.56444,-5.87329 -24.13062,-12.89607 l -3.87116,-4.14036 -5.24929,4.93608 c -9.58926,9.01709 -20.15406,12.60764 -34.99561,11.89359 -11.06919,-0.53256 -20.13381,-3.30742 -29.18614,-8.93443 -6.77511,-4.21149 -8.1974,-6.34255 -8.1974,-12.28238 0,-3.3713 0.45553,-4.41568 3.06445,-7.02571 2.8191,-2.82031 3.39333,-3.03412 7.17242,-2.67069 2.42912,0.2336 5.663,1.3772 7.91294,2.79827 11.30225,7.13853 24.45316,8.92142 33.42268,4.53117 2.67172,-1.30772 5.91625,-3.6297 7.21001,-5.15995 2.80976,-3.32328 6.08528,-10.28219 6.86289,-14.5803 l 0.56093,-3.10049 -5.42673,-1.5094 c -16.6443,-4.6295 -26.87359,-14.67486 -26.87359,-26.39038 0,-11.81768 10.1814,-21.60855 27.55139,-26.49459 8.689,-2.44416 23.84103,-2.64358 32.7835,-0.43148 12.22184,3.02332 21.83861,9.20395 26.38843,16.95971 3.04096,5.18368 3.33407,13.4535 0.6679,18.84417 -3.8635,7.81156 -13.87856,14.70271 -25.84028,17.78014 l -6.34503,1.63241 0.24321,2.85406 c 0.38562,4.52558 4.51494,12.75771 7.88366,15.71675 1.69773,1.49127 4.86718,3.51723 7.0432,4.50216 8.1976,3.71041 22.10099,1.50438 32.05592,-5.08632 6.19526,-4.10157 13.999517,-3.75475 16.952077,0.75336 3.82282,5.83687 1.96265,12.84773 -4.51167,17.00407 -13.131817,8.43025 -30.760647,12.71881 -43.148087,10.49661 z m -199.209,-43.39977 c -7.41335,-2.01428 -13.6814,-5.05859 -20.74529,-10.07571 -14.06694,-9.99104 -29.72057,-32.65181 -33.94663,-49.1424 -1.77536,-6.92764 -1.98254,-18.79472 -0.44035,-25.22293 2.85315,-11.89272 9.06944,-21.99439 21.32778,-34.65839 19.40243,-20.04448 37.99656,-30.33823 62.49616,-34.598 11.00137,-1.91281 29.74946,-1.24321 38.79939,1.38575 23.28943,6.76547 35.94591,23.90883 32.99884,44.6973 -1.2283,8.66435 -5.19426,17.87767 -15.54755,36.11853 -6.70018,11.80465 -9.98431,18.70044 -12.79587,26.86778 -4.73811,13.76382 -7.73982,18.87981 -15.95124,27.18672 -11.76328,11.90009 -25.51492,18.15451 -41.29576,18.78188 -6.72008,0.26715 -10.1027,-0.0373 -14.89948,-1.34053 z m 46.80286,-63.73286 c 17.32951,-8.0637 23.433,-29.89914 12.80721,-45.8182 -10.88109,-16.3015 -33.81826,-18.56719 -47.90651,-4.73208 -16.3343,16.04079 -9.94138,44.04923 11.81953,51.78337 6.55357,2.32923 16.78922,1.78706 23.27977,-1.23309 z m -21.54102,-9.2653 c -8.08918,-3.78204 -13.25164,-12.66068 -12.25526,-21.07718 2.07855,-17.55759 22.96115,-25.18306 35.26254,-12.87641 9.58133,9.58543 7.76976,25.35524 -3.72979,32.46792 -5.47905,3.38887 -13.83024,4.03249 -19.27749,1.48567 z m 20.10563,-22.2753 c 4.23201,-4.23382 1.3254,-10.91149 -4.7495,-10.91149 -6.7319,0 -9.08282,7.73895 -3.62452,11.93149 2.28517,1.75526 6.05949,1.29552 8.37402,-1.02 z m 271.208437,96.37423 c -14.30286,-2.98 -25.6432,-9.12224 -35.3462,-19.14445 -6.88299,-7.10944 -11.39989,-14.58365 -14.21127,-23.51569 -3.30691,-10.50644 -5.78675,-15.75895 -15.45558,-32.73626 -9.506577,-16.69242 -13.465377,-26.64039 -14.237337,-35.77655 -1.19255,-14.11392 5.007547,-26.82002 16.914657,-34.6638 10.72414,-7.06449 22.5407,-10.15531 38.82494,-10.15531 24.25395,0 45.8356801,7.6761 65.1862,23.18517 42.88076,34.3681 47.3651,67.99636 14.46179,108.44947 -9.58028,11.7785 -23.6830799,20.96038 -36.3025599,23.63542 -5.5309501,1.17244 -15.8669101,1.54868 -19.8346401,0.722 z m 1.16516,-65.00287 c 16.0270701,-8.22596 22.2798101,-25.93783 14.8000301,-41.92343 -2.6812301,-5.73025 -9.2308401,-12.12706 -15.3255001,-14.96793 -4.23419,-1.97366 -6.16997,-2.32644 -12.82935,-2.33804 -7.12387,-0.0124 -8.37476,0.24834 -13.64704,2.84497 -18.5133,9.11797 -23.51198,33.16945 -10.06909,48.44791 7.07549,8.04162 14.14337,11.03638 25.03849,10.60917 5.97909,-0.23444 8.27604,-0.74464 12.03246,-2.67265 z m -20.60713,-8.68342 c -3.75253,-1.35856 -9.33081,-6.04315 -10.96832,-9.2111 -5.41019,-10.46662 -2.01014,-22.58263 7.98698,-28.46151 3.50902,-2.0635 5.18147,-2.85039 10.36458,-2.85039 5.33127,0 6.67774,0.8854 10.49466,2.94128 2.42081,1.3039 5.29786,4.39763 6.73937,6.44952 2.22214,3.16308 3.11503,4.75434 3.39044,10.21085 0.26707,5.2908 -0.27475,7.18893 -2.0284,10.33546 -4.99736,8.96655 -16.06756,14.17433 -25.97931,10.58589 z m 19.17509,-22.94491 c 2.02816,-2.36251 2.46975,-4.3756 1.5124,-6.89472 -1.87444,-4.93224 -7.18992,-6.15459 -10.84826,-2.49469 -2.60789,2.609 -2.72233,5.57979 -0.33207,8.61981 2.19414,2.79058 7.56584,3.2182 9.66793,0.7696 z"
       id="path7"
       sodipodi:nodetypes="ssssscssssssssssscsscsssscssssssssssssssssssssssssscsssssssssscssssssscsssssssssssssssssssssssssssssssssssssssssssssssssssssssssssssssssss"
       inkscape:label="black" /></g></svg>
