<?xml version="1.0" encoding="UTF-8" standalone="no"?>
<svg
   width="1000"
   zoomAndPan="magnify"
   viewBox="0 0 750 749.999995"
   height="1000"
   preserveAspectRatio="xMidYMid meet"
   version="1.0"
   id="svg6"
   sodipodi:docname="pig.svg"
   xml:space="preserve"
   inkscape:version="1.3.2 (091e20e, 2023-11-25, custom)"
   xmlns:inkscape="http://www.inkscape.org/namespaces/inkscape"
   xmlns:sodipodi="http://sodipodi.sourceforge.net/DTD/sodipodi-0.dtd"
   xmlns="http://www.w3.org/2000/svg"
   xmlns:svg="http://www.w3.org/2000/svg"><sodipodi:namedview
     id="namedview6"
     pagecolor="#ffffff"
     bordercolor="#000000"
     borderopacity="0.25"
     inkscape:showpageshadow="2"
     inkscape:pageopacity="0.0"
     inkscape:pagecheckerboard="0"
     inkscape:deskcolor="#d1d1d1"
     inkscape:zoom="1.2862272"
     inkscape:cx="527.51177"
     inkscape:cy="589.70917"
     inkscape:window-width="3840"
     inkscape:window-height="2054"
     inkscape:window-x="-11"
     inkscape:window-y="-11"
     inkscape:window-maximized="1"
     inkscape:current-layer="svg6" /><defs
     id="defs3" /><g
     id="g7"
     transform="matrix(0.57790163,0,0,0.57790163,38.71058,62.381805)"><path
       id="rect10"
       style="fill:#ffffff;stroke-width:0.75"
       d="m 296.4541,1170.5608 h 428.80707 v 84.5245 H 296.4541 Z"
       transform="matrix(1.3447131,0,0,1.3447131,-93.503287,-1028.8208)"
       inkscape:label="white" /><path
       id="path9"
       style="fill:#efc1d6"
       inkscape:label="light pink"
       d="M 160.47416,47.425736 C 92.255503,53.573802 31.760967,67.705683 -17.518804,117.569 c -22.35604,72.65646 40.408248,133.58842 90.577443,172.35677 53.123861,46.755 54.516651,46.79042 11.647729,118.64265 -58.212409,121.53901 -36.11023,270.5187 7.032255,395.13596 55.083517,121.23399 187.181897,184.73601 313.950817,199.20112 140.93123,22.1498 286.72173,17.6448 425.54999,-15.27339 117.40633,-33.31176 226.03287,-128.47106 238.72457,-255.34855 18.3802,-106.44001 5.4202,-215.47263 -17.5338,-320.13622 -34.5388,-67.0842 1.0142,-83.72482 53.594,-114.54985 44.7914,-44.98674 94.5157,-121.56021 68.1976,-187.46808 C 1077.6753,33.77097 949.40249,36.019292 854.01137,105.68678 806.71191,136.11547 752.17406,214.79977 687.54096,197.61764 597.10916,180.80094 503.36963,185.80017 413.66369,204.98962 344.66655,132.95352 264.09493,59.151673 160.47416,47.425736 Z m 682.9815,554.941914 c 78.59557,34.21393 -97.62273,62.5244 -29.83932,-3.01029 l 18.06966,-5.87979 z m -496.32179,-7.83538 c 76.7134,26.45769 -67.57092,92.39416 -40.05752,17.15041 10.26985,-10.91626 25.20774,-16.79041 40.05752,-17.15041 z"
       sodipodi:nodetypes="cccccccccccccccccccccc"
       transform="translate(3.6067895e-7,1.6741295e-5)" /><path
       style="fill:#eaa1c0"
       d="m 191.92703,815.89922 c -19.21755,-2.01142 -34.45247,-7.64733 -43.5801,-16.12173 -10.35999,-9.61857 -10.87384,-19.22601 -1.56077,-29.18171 7.37914,-7.88832 20.32457,-13.6797 37.07723,-16.58717 9.03786,-1.56855 27.31456,-1.78717 36,-0.43062 19.33169,3.01935 34.51193,9.91521 41.6187,18.90594 3.53069,4.46666 4.81518,8.64039 4.27678,13.89667 -0.52639,5.13889 -2.15815,8.07302 -7.27688,13.08486 -4.9589,4.85534 -15.15855,10.24272 -23.9936,12.67324 -12.50458,3.44 -30.46344,5.02676 -42.56136,3.76052 z m 733.54734,-0.0558 c -22.67208,-2.32641 -42.92556,-12.06369 -48.54407,-23.33858 -8.4807,-17.01854 10.4841,-33.73162 44.18309,-38.93717 8.74003,-1.35009 26.99192,-1.12363 36,0.44667 20.28986,3.53696 36.45063,12.31329 41.57777,22.57938 2.37124,4.74801 2.40084,10.60074 0.0784,15.48859 -3.53976,7.44957 -15.0783,15.45692 -28.15613,19.53937 -12.48463,3.89729 -31.22218,5.64976 -45.13902,4.22174 z M 1031.3776,322.19897 c -4.9898,-7.07823 -21.0267,-25.50605 -30.1034,-34.59162 -22.23552,-22.25702 -50.3239,-43.51127 -78.8828,-59.68994 -5.44666,-3.08554 -9.90301,-5.81772 -9.90301,-6.07151 0,-0.91945 21.83955,-12.84441 36.80567,-20.09686 52.55554,-25.46795 112.53904,-42.19121 183.26994,-51.09524 20.3467,-2.56136 47.4944,-4.93129 48.2165,-4.20918 0.2784,0.27843 0.122,3.11098 -0.3476,6.29455 -4.3952,29.79749 -36.234,74.61238 -86.0695,121.14783 -15.4471,14.42416 -58.9348,51.5514 -60.3222,51.49947 -0.2353,-0.009 -1.4339,-1.44318 -2.6636,-3.1875 z M 117.80664,315.83612 C 63.196768,270.96078 27.926004,234.83751 4.4869916,199.77749 -9.5448675,178.78866 -16.502729,161.47406 -17.062184,146.15249 c -0.14309,-3.91875 -0.118644,-5.58772 0.05432,-3.70882 l 0.314488,3.41619 18.5283795,1.66723 C 99.188728,156.28722 180.52721,179.80434 245.49692,217.97624 l 8.38354,4.92561 -8.00854,4.44606 c -39.30046,21.81824 -76.57191,50.7685 -103.7098,80.55565 -5.19819,5.70566 -10.59819,11.63781 -12,13.18256 l -2.54873,2.80863 z"
       id="path8"
       inkscape:label="pink" /><path
       style="fill:#41130d"
       d="m 526.61339,1054.699 c -56.70725,-2.7575 -87.49584,-5.7974 -128.28618,-12.6664 C 294.48595,1024.5461 211.74301,991.27587 150.67543,942.45399 90.752606,894.54731 54.379331,837.87273 36.148963,764.00595 26.925215,726.63267 23.146006,689.06839 23.977749,643.02749 25.970098,532.74149 52.196385,436.10596 100.4279,361.33297 l 2.70563,-4.19451 -11.760071,-9.38764 C 49.684962,314.47239 13.879852,278.77633 -16.274702,240.43052 -37.792209,213.06795 -50.73829,189.44035 -56.336007,167.31555 c -1.873501,-7.40496 -2.03179,-9.18998 -2.009671,-22.66306 0.0227,-13.82472 0.137806,-14.99437 2.103588,-21.375 6.380082,-20.70881 21.836032,-39.081843 46.7846738,-55.614594 C 21.217569,47.33546 60.438164,33.968874 104.73839,28.744362 c 14.02529,-1.654061 47.53658,-2.261098 63.375,-1.147999 98.30752,6.908897 175.65477,47.63564 230.05411,121.133647 3.64441,4.92389 8.38483,11.75448 10.53429,15.17909 2.64396,4.21248 4.27256,6.11869 5.03485,5.89307 5.94985,-1.76097 48.96788,-7.65628 70.87675,-9.71314 72.41637,-6.79865 161.62968,-5.35378 231.75,3.75336 12.73598,1.65413 29.60346,4.23571 33.79802,5.17282 1.2757,0.285 2.48093,-1.06883 6.85117,-7.69594 21.5779,-32.72107 51.57783,-63.004393 82.87764,-83.660553 41.5669,-27.431868 89.04831,-43.489482 146.09817,-49.408551 14.64631,-1.519589 59.09601,-1.268382 72.74251,0.411104 48.7655,6.001596 88.3346,20.152824 120.9093,43.241215 8.7105,6.173869 21.8153,18.69586 27.5996,26.372281 5.6862,7.546064 11.5864,19.492094 13.5776,27.489964 1.3803,5.54379 1.5184,7.92026 1.2428,21.375 -0.2758,13.46474 -0.5294,15.93773 -2.2942,22.37609 -6.1484,22.42966 -19.1648,45.37865 -41.9102,73.89108 -30.365,38.0641 -67.9525,74.99953 -109.7424,107.83863 -6.1875,4.86223 -11.343,8.92024 -11.4566,9.01781 -0.1137,0.0976 1.018,2.33441 2.5149,4.97077 19.8741,35.00391 36.6601,81.59564 45.636,126.66838 13.4945,67.76309 16.8662,165.70771 7.9003,229.5 -13.9663,99.37047 -60.8627,182.97539 -132.30319,235.8645 -47.25528,34.98422 -107.44446,60.88651 -177.76417,76.50031 -47.58499,10.5658 -94.22548,16.2708 -163.15225,19.9563 -13.98513,0.7478 -101.92724,1.5077 -112.875,0.9754 z m 129.375,-41.4872 c 74.29494,-4.8031 133.12602,-15.16774 188.05027,-33.12987 52.03828,-17.01833 92.65793,-38.72076 128.82473,-68.82899 9.71516,-8.08771 28.94101,-27.61658 36.64781,-37.22545 34.6863,-43.24704 55.758,-98.83 63.4072,-167.25533 2.8334,-25.34555 3.4162,-37.49537 3.3816,-70.49467 -0.094,-90.05604 -10.7523,-157.16665 -34.0651,-214.5 C 994.93921,305.46336 890.85488,233.05768 733.98839,207.34756 c -64.83569,-10.62644 -151.93558,-13.78207 -228.75,-8.28761 -119.86666,8.57395 -212.25736,38.78058 -285.375,93.30179 -56.0789,41.81602 -98.97612,100.71241 -124.419077,170.82304 -17.336175,47.77157 -27.365102,99.31724 -30.517333,156.84991 -1.129664,20.61798 -0.508227,64.04267 1.128652,78.8678 10.076912,91.26598 48.407778,164.6484 111.888728,214.20507 40.95718,31.97339 92.13194,56.42227 152.16903,72.69917 58.54396,15.87207 121.60248,24.20137 212.625,28.08527 19.11582,0.8157 97.38341,0.3456 113.25,-0.6802 z m -105,-65.35766 c -30.99284,-1.17436 -57.96208,-5.62049 -82.07429,-13.53074 -38.53129,-12.64055 -67.27433,-38.88433 -77.94872,-71.17091 -3.53782,-10.70076 -5.02153,-19.88928 -5.51032,-34.125 -1.44786,-42.16873 15.73511,-85.16133 47.03333,-117.67965 28.43835,-29.54696 63.39968,-46.79177 108.375,-53.45638 12.79714,-1.89632 47.20286,-1.89632 60,0 37.80428,5.60198 70.82472,19.14369 96.375,39.52348 7.88068,6.28591 21.50098,20.22641 27.10042,27.73755 22.19688,29.77503 34.56448,71.90528 31.54201,107.44796 -1.52082,17.88404 -4.93783,30.59019 -12.14927,45.17704 -18.63903,37.70186 -59.22072,60.79896 -118.49316,67.44049 -21.57835,2.41787 -51.74495,3.4889 -74.25,2.63616 z m 46.875,-40.47658 c 48.39356,-3.23361 81.09908,-14.29932 99.64942,-33.71574 6.56262,-6.86902 10.86273,-14.19836 13.97511,-23.81997 11.69753,-36.16169 -0.14792,-79.81276 -30.32054,-111.73267 -20.88692,-22.09648 -48.24482,-34.85102 -85.92899,-40.06101 -10.91265,-1.50872 -38.21238,-1.30426 -48.375,0.3623 -17.26182,2.83076 -31.42962,7.15126 -45.75,13.95157 -17.16697,8.15206 -28.85136,16.50675 -41.625,29.76309 -15.98705,16.59118 -25.75081,35.16277 -30.78787,58.56141 -2.41459,11.21654 -2.86353,32.66277 -0.88377,42.21943 6.88327,33.22695 32.2437,51.59984 82.29048,59.61707 29.41069,4.71143 62.50196,6.54199 87.75616,4.85452 z m -77.16358,-55.92572 c -7.45494,-2.34762 -14.6423,-12.10417 -17.82132,-24.19171 -2.00046,-7.60633 -2.12453,-20.74103 -0.27022,-28.60764 3.83651,-16.27576 12.63541,-26.22625 23.20582,-26.24297 7.61687,-0.012 13.24493,3.88888 18.67356,12.94303 4.28894,7.15331 6.05913,14.94703 6.08709,26.79994 0.0272,11.526 -1.03125,16.66763 -5.17216,25.125 -5.74481,11.73314 -15.2094,17.16389 -24.70277,14.17435 z m 89.05722,0.51311 c -8.3092,-2.07989 -15.95573,-12.09452 -19.51788,-25.56246 -1.96092,-7.41399 -1.78308,-21.90054 0.36194,-29.48199 4.42346,-15.63448 12.72421,-24.49479 22.963,-24.51098 5.60203,-0.009 9.7299,1.90445 13.92301,6.45344 3.58712,3.89157 7.62568,11.97369 9.51386,19.03953 1.76285,6.5968 1.75717,21.66411 -0.0109,28.79966 -2.58939,10.45051 -9.1012,20.43503 -15.4349,23.66625 -3.29867,1.68285 -8.59184,2.39914 -11.79818,1.59655 z M 316.61339,697.66481 c -10.16274,-1.62332 -22.13821,-6.9743 -29.625,-13.23731 -9.13848,-7.64471 -15.70117,-17.7136 -19.16231,-29.40001 -2.48138,-8.37831 -2.86295,-21.62076 -0.85824,-29.78534 5.46461,-22.25573 22.40104,-39.19412 44.58983,-44.59498 6.73988,-1.64053 19.91775,-1.62891 26.71296,0.0235 21.97506,5.34387 38.70149,21.7721 44.39834,43.60678 1.8246,6.99327 1.85356,21.19011 0.0581,28.5 -1.74108,7.08863 -7.0629,17.73061 -11.71114,23.41867 -7.42031,9.08026 -18.64892,16.44752 -30.04809,19.715 -5.53592,1.58683 -19.22705,2.57267 -24.35447,1.75365 z m 30.47685,-66.1074 c 5.81131,-3.02628 8.89815,-8.29626 8.89815,-15.19128 0,-6.12639 -2.06889,-10.50282 -6.60395,-13.96972 -8.65224,-6.61432 -21.14513,-3.74674 -25.98439,5.96439 -7.67143,15.39455 8.41863,31.14938 23.69019,23.19661 z m 459.27315,66.1074 c -23.37869,-3.73433 -42.11513,-20.10891 -48.78731,-42.63732 -2.4842,-8.38784 -2.8631,-21.61944 -0.85351,-29.80572 5.43511,-22.14054 22.49678,-39.1982 44.5851,-44.5746 6.73988,-1.64053 19.91775,-1.62891 26.71296,0.0235 23.56291,5.73 41.04686,24.21432 45.14852,47.73178 5.23622,30.02253 -13.03359,59.07631 -42.45129,67.50867 -5.53592,1.58683 -19.22705,2.57267 -24.35447,1.75365 z m 30.24315,-65.96209 c 6.89814,-3.43749 10.72867,-11.5203 9.048,-19.09218 -3.54818,-15.98542 -25.23076,-18.84623 -32.4863,-4.28626 -7.62197,15.29531 8.12989,31.00694 23.4383,23.37844 z M 1043.7912,317.74708 c 16.6212,-13.64938 39.0572,-33.10758 50.5722,-43.86008 49.0195,-45.77353 80.7365,-90.03623 85.9439,-119.93921 0.4666,-2.67947 0.7175,-8.31394 0.5575,-12.52104 -0.2521,-6.62994 -0.5977,-8.2989 -2.5941,-12.52426 -2.7771,-5.87754 -7.1305,-10.82492 -16.2841,-18.50564 -26.0145,-21.828689 -62.3632,-35.840555 -106.9982,-41.246165 -15.3704,-1.861466 -52.1408,-1.856426 -67.87501,0.0093 -73.93804,8.767426 -136.56069,40.929685 -179.24938,92.060395 -6.30828,7.55579 -12.69901,16.35871 -12.22221,16.83551 0.18389,0.1839 6.55273,2.03066 14.15297,4.10392 77.64662,21.18113 143.55522,57.47694 191.47943,105.44754 9.0767,9.08557 25.1136,27.51339 30.1034,34.59162 1.2297,1.74432 2.4283,3.17869 2.6636,3.1875 0.2353,0.009 4.6228,-3.42892 9.75,-7.63939 z m -901.62908,-9.84352 c 19.37132,-21.26239 45.83304,-43.68622 73.02474,-61.88161 32.13895,-21.50586 71.42581,-40.4029 113.05153,-54.37798 12.59788,-4.22951 38.324,-11.74148 40.21084,-11.74148 1.74638,0 1.227,-1.05556 -3.91977,-7.9664 C 331.53926,127.63847 283.70627,95.40207 226.68136,79.035224 157.52409,59.18624 77.580578,65.188293 25.613388,94.131142 9.7337938,102.9752 -8.8580626,118.46505 -13.225886,126.49018 -22.358719,143.2702 -16.168985,168.88032 4.4869916,199.77749 27.926004,234.83751 63.196768,270.96078 117.80664,315.83612 l 9.80675,8.05863 2.54873,-2.80863 c 1.40181,-1.54475 6.80181,-7.4769 12,-13.18256 z"
       id="path7"
       inkscape:label="brown" /></g></svg>
