<?xml version="1.0" encoding="UTF-8" standalone="no"?>
<svg
   width="1000"
   zoomAndPan="magnify"
   viewBox="0 0 750 749.999995"
   height="1000"
   preserveAspectRatio="xMidYMid meet"
   version="1.0"
   id="svg5"
   sodipodi:docname="sheep.svg"
   xml:space="preserve"
   inkscape:version="1.3.2 (091e20e, 2023-11-25, custom)"
   xmlns:inkscape="http://www.inkscape.org/namespaces/inkscape"
   xmlns:sodipodi="http://sodipodi.sourceforge.net/DTD/sodipodi-0.dtd"
   xmlns="http://www.w3.org/2000/svg"
   xmlns:svg="http://www.w3.org/2000/svg"><sodipodi:namedview
     id="namedview5"
     pagecolor="#ffffff"
     bordercolor="#000000"
     borderopacity="0.25"
     inkscape:showpageshadow="2"
     inkscape:pageopacity="0.0"
     inkscape:pagecheckerboard="0"
     inkscape:deskcolor="#d1d1d1"
     inkscape:zoom="2.5724545"
     inkscape:cx="257.92488"
     inkscape:cy="434.02129"
     inkscape:window-width="3840"
     inkscape:window-height="2054"
     inkscape:window-x="-11"
     inkscape:window-y="-11"
     inkscape:window-maximized="1"
     inkscape:current-layer="g1" /><defs
     id="defs3" /><g
     id="g1"
     transform="matrix(1.1209182,0,0,1.1209182,62.003522,0.61664145)"><g
       id="g4"
       transform="translate(128.67607,47.254383)"><path
         id="path1-5"
         style="fill:#ffffff;stroke-width:1"
         d="m 149.40345,17.609704 c -14.65436,0 -16.40087,0.06557 -20.00356,0.748814 -18.29309,3.469165 -32.271845,10.793615 -44.348415,23.239256 -5.97161,6.154125 -9.45993,11.066937 -13.31001,18.743797 -1.13803,2.269165 -2.11793,4.067635 -2.17717,3.996265 -9.61204,-11.602595 -14.62792,-16.440039 -22.17289,-21.383575 -9.47115,-6.20557 -19.13057,-9.266882 -29.20624,-9.254927 -14.3563496,0.01704 -29.81531,6.001621 -42.95271,16.629336 -5.0257,4.065611 -11.8771,11.466221 -14.96575,16.164116 -0.56167,0.85429 -1.08315,1.55251 -1.15916,1.55251 -0.076,0 -2.15032,-1.21042 -4.61048,-2.69075 -5.5148,-3.318365 -12.8896,-7.196755 -18.85617,-9.916185 -18.43549,-8.402518 -43.391295,-15.767855 -67.439995,-19.904246 -6.16908,-1.061094 -8.01458,-0.997048 -10.75256,0.371134 -4.29029,2.143894 -6.80645,6.050179 -10.10959,15.69366 -5.23442,15.281777 -7.15457,27.179717 -6.64129,41.168897 0.59236,16.144274 5.37366,30.984144 14.29013,44.352334 4.0134,6.01716 12.42112,15.26457 18.04333,19.84544 l 1.21796,0.99319 -0.92915,3.9257 c -1.25872,5.31234 -1.69252,9.18874 -1.68449,15.06377 0.0115,7.99371 1.1074,14.5608 3.83945,23.01188 0.73022,2.25877 1.25635,4.17868 1.1683,4.26678 -0.0881,0.088 -2.57025,0.56239 -5.5148,1.0533 -6.35209,1.05901 -10.86462,2.49854 -15.53423,4.95418 -15.33489,8.06426 -27.20137,24.82355 -31.47096,44.4451 -1.56731,7.20279 -1.80487,19.00014 -0.5188,25.77973 1.15653,6.09673 4.34261,14.19627 7.80827,19.84675 4.60344,7.50558 12.59149,15.64611 21.85142,22.26961 1.05531,0.75485 1.91842,1.49433 1.91842,1.64398 0,0.14966 -1.83004,2.23177 -4.06684,4.62616 -12.95086,13.86332 -19.93451,26.09143 -23.04324,40.35213 -0.73356,3.36507 -0.83596,4.85115 -0.83507,12.062 9e-4,8.72439 0.30234,11.18474 2.18502,17.90741 4.03969,14.42496 13.44688,28.46819 24.23637,36.18076 5.81154,4.15421 13.69611,7.48797 21.74687,9.19351 3.14042,0.6653 4.95901,0.78928 11.75619,0.80239 4.42227,0.009 8.99059,-0.15664 10.15273,-0.36721 1.16215,-0.2106 2.19023,-0.25807 2.28433,-0.10586 0.0941,0.15221 -0.14391,2.14286 -0.52926,4.4236 -1.53261,9.07072 -1.32321,18.58924 0.55147,25.05837 6.170955,21.29467 25.217295,39.03689 49.489455,46.10086 7.10496,2.06777 9.70539,2.34292 20.28323,2.14058 10.39747,-0.1989 12.95231,-0.59094 20.6805004,-3.17167 3.83833,-1.28176 13.25611,-5.73134 17.27099,-8.15981 3.9933596,-2.41544 3.6065796,-2.50485 5.6663996,1.31335 7.97089,14.77543 19.52758,26.06066 34.25449,33.44949 9.13634,4.58391 16.14625,6.80847 27.38451,8.68908 4.65951,0.77973 5.96608,0.84292 14.61945,0.71745 10.09571,-0.14639 13.986265,-0.5677 21.015055,-2.27779 12.3552,-3.00602 25.27265,-9.53894 34.81512,-17.60817 l 3.55587,-3.00699 3.38206,2.71166 c 11.3858,9.12287 25.07654,15.71967 37.98025,18.30207 16.59525,3.32121 35.67527,1.50423 51.9293,-4.94633 18.74303,-7.43833 32.13396,-19.27328 39.96662,-35.32086 l 2.02558,-4.14917 1.89229,1.06638 c 15.11191,8.52337 26.90112,12.47898 40.72196,13.66023 18.88652,1.61423 40.28433,-6.21714 54.48937,-19.94215 3.31956,-3.20738 7.69628,-8.74193 10.10567,-12.77943 5.98535,-10.02987 8.19674,-19.52501 7.74686,-33.25608 -0.24067,-7.34602 -0.82891,-10.92155 -2.98871,-18.14526 -0.73331,-2.45266 -1.2346,-4.55857 -1.11341,-4.67974 0.12117,-0.12119 1.90724,0.0671 3.96882,0.41818 8.1849,1.39387 19.75167,1.42254 26.28548,0.0653 14.03825,-2.91601 26.42945,-11.69193 35.10523,-24.86364 2.44339,-3.70959 6.28574,-11.41769 7.74294,-15.53161 7.30294,-20.61722 4.17716,-41.91362 -8.71522,-59.37298 -1.19506,-1.61841 -4.73788,-5.54466 -7.8723,-8.72567 -4.96288,-5.03663 -5.61966,-5.83996 -5.0914,-6.21395 0.33365,-0.23619 2.13594,-1.49787 4.00542,-2.80445 3.75891,-2.62709 11.69002,-10.09764 14.93832,-14.07058 7.44895,-9.11069 11.7488,-20.03578 12.83955,-32.62357 1.19015,-13.73487 -2.90264,-29.6271 -10.61534,-41.21986 -9.74762,-14.65141 -25.4322,-23.33649 -45.16517,-25.00871 -2.61316,-0.22145 -5.44242,-0.4871 -6.28583,-0.59069 l -1.5329,-0.18818 3.01354,-5.91991 c 5.65151,-11.10083 7.87344,-20.04581 7.91412,-31.86823 l 0.0144,-4.3857 2.82405,-2.00337 c 6.14719,-4.36126 13.59606,-11.41594 18.35305,-17.38208 15.20986,-19.07597 21.36461,-44.300804 17.16384,-70.339844 -1.61646,-10.01986 -6.22021,-24.739982 -9.66136,-30.893339 -2.29405,-4.102151 -6.35186,-6.751211 -10.34483,-6.751051 -3.58641,1.52e-4 -18.31084,2.808983 -29.86486,5.696443 -26.3252,6.57891 -47.65021,15.317042 -66.69903,27.330927 l -3.83815,2.42024 -2.16279,-2.46467 c -10.55669,-12.031435 -23.98721,-20.795497 -39.5014,-25.775807 -7.60044,-2.439866 -10.86692,-2.955752 -18.63924,-2.945582 -10.79241,0.0141 -17.75788,1.605689 -26.44752,6.044059 -9.57691,4.891561 -17.19337,10.979655 -25.71178,20.55113 l -1.27807,1.4349 -2.81751,-5.509585 C 222.07091,52.482369 217.67241,46.359299 211.13916,39.880575 200.41988,29.250749 186.48887,22.049091 169.8448,18.5349 c -4.31053,-0.910146 -4.65614,-0.925232 -20.44136,-0.925232 z"
         sodipodi:nodetypes="sssscssssssssssssccccssssssssssscssscssssssssssssssccsscccssssssscssssssssssccccccssssscccssscccssss" /><path
         style="fill:#edc0d4"
         d="m -5.5734446,385.88525 c -24.6486984,1.5268 -28.0625634,-26.95829 -2.1984397,-27.65248 16.8951005,-8.86543 59.8477173,10.38543 28.2556003,25.04295 -8.193778,3.45887 -17.3571021,3.5425 -26.0571606,2.60953 z m 292.1987846,0.002 c -23.51766,0.41177 -26.7941,-28.15466 -1.70724,-29.15686 17.60238,-7.57289 57.48759,11.58242 27.33329,26.64062 -8.06929,3.35795 -17.0658,3.4553 -25.62605,2.51624 z m 132.51988,-240.9907 c -5.19554,-11.83427 -19.91511,-18.4656 -27.50844,-25.48785 22.12673,-16.37009 40.43446,-38.299579 50.68184,-63.870294 12.42045,30.871579 5.36193,70.855744 -22.14813,90.700004 l -1.02527,-1.34183 z m -541.00541,-5.54981 c -21.69571,-21.43857 -24.61198,-55.965587 -14.18969,-83.243454 10.44599,25.130575 28.77611,46.162274 49.69655,62.983114 -12.685187,3.9584 -23.58259,13.66466 -31.37367,24.29448 l -1.36295,-1.18503 z"
         id="path3" /><path
         style="fill:#ebe292"
         d="m 135.69874,475.26675 c -54.731055,-2.70717 -112.845755,-8.31314 -159.552115,-39.12891 -21.05466,-13.52311 -38.42996,-33.96163 -48.21586,-56.16264 -20.77355,-45.71147 -20.69829,-102.71968 0.36721,-148.3837 8.70219,-18.62946 21.54111,-38.1738 35.80311,-53.08746 30.2254104,39.30807 95.43516,40.65972 130.25812,6.57049 6.422035,0.84899 13.607275,7.29454 20.696015,9.04254 26.98195,9.94788 57.78191,8.25762 84.34451,-3.09849 23.29156,17.42539 53.21611,22.81876 81.01845,13.90882 17.03109,-5.11264 33.62507,-13.92967 44.16444,-28.47461 40.62089,44.94701 58.05492,110.4163 46.75538,170.26697 -6.00412,36.37029 -25.90284,70.95674 -57.69374,90.98059 -41.60367,27.3803 -93.17393,35.64305 -142.44909,37.43034 -11.83091,0.13858 -23.66562,0.27291 -35.49643,0.13606 z M 9.9994354,384.74055 c 19.2357896,1.26733 28.6917996,-23.25667 5.6847796,-25.12426 -13.5099796,-5.97108 -52.95762,1.79839 -35.9102,20.51759 9.14462,6.00185 19.68324043,5.75435 30.2254204,4.60667 z m 293.0765046,-0.0321 c 23.19204,0.8393 24.65587,-26.88439 0.75746,-26.39553 -12.84116,-4.22989 -47.50008,3.44484 -32.86966,21.11993 9.17969,6.75981 21.19186,6.4909 32.1122,5.2756 z M 42.450405,303.59833 c -18.03267,-8.97042 -20.83722,26.38441 0.8747,17.54324 17.74288,1.42777 7.21459,-7.89857 1.15623,-15.06836 -0.67698,-0.82496 -1.35395,-1.64992 -2.03093,-2.47488 z M 275.52,321.67827 c 25.20068,-14.21705 -25.91539,-29.62815 -14.30047,-7.8546 3.57683,3.54176 8.63391,9.44042 14.30047,7.8546 z"
         id="path2"
         sodipodi:nodetypes="ccccccccccccccccccccccccccccc" /><path
         style="fill:#40120c"
         d="m 74.784525,555.1069 c -11.23827,-1.88061 -18.24817,-4.10473 -27.38452,-8.68864 -14.72692,-7.38883 -26.28362,-18.67387 -34.25452,-33.4493 -2.05982,-3.81822 -1.67396,-3.7288 -5.6673196,-1.31336 -4.01489,2.42847 -13.43225,6.87767 -17.27058,8.15943 -7.7282004,2.58073 -10.2829204,2.9725 -20.6804004,3.1714 -10.57786,0.20234 -13.17777,-0.0719 -20.28273,-2.13969 -24.27218,-7.06397 -43.31907,-24.80669 -49.490025,-46.10139 -1.87469,-6.46914 -2.08423,-15.98791 -0.55162,-25.05863 0.38536,-2.28075 0.62368,-4.27136 0.52961,-4.42357 -0.0941,-0.15221 -1.12189,-0.10445 -2.28404,0.10614 -1.16215,0.21058 -5.73122,0.37593 -10.15349,0.36744 -6.7972,-0.0131 -8.61491,-0.13713 -11.75533,-0.80243 -8.05077,-1.70554 -15.93661,-5.03899 -21.74815,-9.19321 -10.78951,-7.71258 -20.19666,-21.75591 -24.23636,-36.18087 -1.88269,-6.72268 -2.18288,-9.18397 -2.18421,-17.90837 -10e-4,-7.21086 0.10173,-8.69567 0.83529,-12.06074 3.10873,-14.26072 10.09175,-26.48958 23.04262,-40.35292 2.2368,-2.3944 4.06691,-4.47589 4.06691,-4.62555 0,-0.14965 -0.86344,-0.8897 -1.91875,-1.64455 -9.25994,-6.6235 -17.24715,-14.76379 -21.85061,-22.26937 -3.46565,-5.65049 -6.65245,-13.74972 -7.80899,-19.84645 -1.28606,-6.7796 -1.04876,-18.57767 0.51855,-25.78047 4.26959,-19.62157 16.13714,-36.38112 31.47205,-44.44539 4.66962,-2.45564 9.18224,-3.89465 15.53433,-4.95366 2.94456,-0.49091 5.4258,-0.96462 5.51387,-1.05268 0.0881,-0.0881 -0.43733,-2.00822 -1.16755,-4.267 -2.73205,-8.45109 -3.82777,-15.01868 -3.8393,-23.0124 -0.008,-5.87503 0.4247,-9.75129 1.68341,-15.06364 l 0.93026,-3.92619 -1.21903,-0.99325 c -5.62221,-4.58087 -14.02881,-13.82715 -18.04221,-19.84431 -8.91648,-13.36821 -13.69791,-28.20824 -14.29027,-44.352524 -0.51329,-13.9892 1.40581,-25.88762 6.64023,-41.169407 3.30315,-9.643489 5.81987,-13.550208 10.11018,-15.694099 2.73798,-1.368187 4.58321,-1.431807 10.75229,-0.37072 24.04873,4.136404 49.005235,11.502139 67.440735,19.904653 5.96657,2.719428 13.34027,6.597083 18.85508,9.915453 2.46016,1.48033 4.53523,2.6915 4.61126,2.6915 0.076,0 0.59779,-0.69897 1.15945,-1.55327 3.08867,-4.69791 9.94014,-12.097492 14.96583,-16.163107 13.13742,-10.627727 28.5954904,-16.612597 42.95187,-16.629585 10.07567,-0.01192 19.73524,3.048835 29.20639,9.254421 7.54499,4.943542 12.56142,9.781351 22.17347,21.383941 0.0592,0.0714 1.03874,-1.72669 2.17677,-3.995856 3.85009,-7.676854 7.33881,-12.589696 13.31043,-18.743819 12.07658,-12.445665 26.054745,-19.770744 44.347845,-23.239916 3.60269,-0.683229 5.34966,-0.748605 20.00404,-0.748605 15.78523,0 16.13072,0.01565 20.44125,0.925761 16.64409,3.514191 30.57431,10.714669 41.2936,21.34451 6.53326,6.478736 10.932,12.602658 15.57891,21.688928 l 2.81781,5.509767 1.27742,-1.43534 c 8.51842,-9.571483 16.1352,-15.659337 25.71212,-20.550904 8.68964,-4.438378 15.65554,-6.030371 26.44796,-6.044444 7.77232,-0.01014 11.03888,0.506161 18.63932,2.946029 15.5142,4.980321 28.94477,13.744016 39.50148,25.775459 l 2.16289,2.46503 3.8375,-2.42027 c 19.04884,-12.013903 40.37432,-20.7524 66.69954,-27.331321 11.55403,-2.887462 26.27761,-5.69557 29.86402,-5.695719 3.99297,-1.66e-4 8.05174,2.647991 10.34579,6.750139 3.44116,6.153371 8.04455,20.874041 9.66101,30.893901 4.20078,26.03907 -1.95451,51.263314 -17.16439,70.339304 -4.75699,5.96614 -12.20552,13.02067 -18.35272,17.38194 l -2.8237,2.00334 -0.0151,4.38572 c -0.0407,11.82243 -2.26186,20.7676 -7.91338,31.86844 l -3.01371,5.91957 1.53346,0.18834 c 0.84341,0.10358 3.67151,0.36951 6.28467,0.59096 19.73299,1.67222 35.41783,10.35703 45.16546,25.00845 7.71271,11.59277 11.80557,27.4857 10.61542,41.22059 -1.09075,12.5878 -5.3902,23.51227 -12.83916,32.62297 -3.2483,3.97294 -11.18,11.44375 -14.93891,14.07086 -1.86948,1.30658 -3.67203,2.56886 -4.00567,2.80506 -0.52827,0.37399 0.12945,1.17647 5.09233,6.21311 3.13443,3.181 6.67675,7.1078 7.87182,8.72622 12.89239,17.45937 16.01859,38.75574 8.71564,59.37297 -1.45721,4.11393 -5.29998,11.82144 -7.74337,15.53103 -8.6758,13.17173 -21.06653,21.94773 -35.1048,24.86375 -6.53381,1.3572 -18.10114,1.32839 -26.28605,-0.0655 -2.06158,-0.35108 -3.84747,-0.53917 -3.96865,-0.41799 -0.12118,0.12118 0.37966,2.22705 1.11297,4.67971 2.1598,7.22372 2.74892,10.79941 2.98959,18.14544 0.44987,13.73108 -1.76206,23.22573 -7.74742,33.25561 -2.4094,4.03751 -6.7861,9.57233 -10.10568,12.77972 -14.20505,13.72501 -35.60242,21.55597 -54.48897,19.94174 -13.82085,-1.18126 -25.61038,-5.13571 -40.72231,-13.65909 l -1.89225,-1.06727 -2.02526,4.14936 c -7.83267,16.04759 -21.22423,27.88221 -39.96728,35.32055 -16.25405,6.45057 -35.33331,8.26814 -51.92858,4.94694 -12.90372,-2.58241 -26.59418,-9.17995 -37.97999,-18.30284 l -3.38297,-2.71061 -3.55478,3.00596 c -9.54248,8.06923 -22.46046,14.6028 -34.81567,17.60881 -7.0288,1.71011 -10.919215,2.13188 -21.014925,2.27827 -8.65338,0.12547 -9.95956,0.0613 -14.61907,-0.71844 z m 22.16399,-17.41712 c 7.656405,-0.78121 15.261145,-2.93678 22.492065,-6.37538 7.1771,-3.41301 10.85016,-6.10689 19.66788,-14.42479 6.48494,-6.11734 8.29057,-7.09199 11.52506,-6.22104 1.22431,0.32968 2.54555,1.39055 6.51779,5.23338 7.35602,7.11636 11.72185,10.2095 20.06259,14.21409 5.06283,2.43079 11.23716,4.55849 16.89883,5.8234 3.55391,0.794 4.62078,0.8563 14.43634,0.84309 10.29925,-0.0139 10.7228,-0.0432 14.98455,-1.03885 15.28225,-3.5702 26.99431,-10.01372 35.28712,-19.41359 5.87682,-6.66136 7.86943,-10.93684 10.70182,-22.96257 1.0554,-4.48099 1.9803,-6.0156 4.37668,-7.26184 1.14679,-0.59639 2.17551,-0.79707 4.09044,-0.79796 3.06995,-0.001 3.60776,0.25015 9.31966,4.35941 10.44761,7.51622 19.38647,11.829 29.78637,14.37118 5.47882,1.33925 8.32965,1.64528 15.16729,1.62818 5.51672,-0.0138 7.4648,-0.16487 10.583,-0.82071 14.86181,-3.12581 27.4375,-12.33109 34.48971,-25.24612 7.47613,-13.69137 4.79479,-34.01262 -6.89601,-52.2632 -4.19315,-6.54594 -4.76673,-8.33666 -3.66209,-11.43299 1.14781,-3.2173 3.58687,-5.44105 6.77505,-6.17697 2.38332,-0.55014 3.67641,-0.22675 9.64824,2.4129 9.07918,4.01316 15.53862,5.73797 24.28785,6.48541 11.4623,0.9792 20.95721,-1.26595 28.26512,-6.68353 8.48655,-6.29134 15.64778,-18.83923 17.67442,-30.96906 0.92104,-5.51261 0.6003,-13.90049 -0.71469,-18.69064 -1.15011,-4.18951 -3.56194,-9.32966 -6.33095,-13.49269 -4.02828,-6.05626 -12.3266,-13.66935 -19.16143,-17.5792 -6.43838,-3.68307 -8.04506,-5.30962 -8.77912,-8.88768 -0.46924,-2.28727 -0.0606,-4.06325 1.50158,-6.52662 1.00507,-1.58483 1.53621,-1.93156 7.59265,-4.95655 9.9539,-4.97164 14.20897,-7.96162 20.21737,-14.20647 5.6801,-5.90363 9.66456,-12.54492 11.37433,-18.9587 1.11413,-4.1794 1.37104,-13.35133 0.51915,-18.53452 -2.70069,-16.432 -12.96594,-29.32392 -26.82844,-33.69331 -5.29009,-1.6674 -9.11253,-2.17599 -16.49605,-2.19486 -7.3002,-0.0186 -9.95453,0.29636 -17.17742,2.03857 -2.51265,0.60607 -5.47301,1.12792 -6.57858,1.15965 -5.76005,0.16535 -10.01087,-5.69772 -8.38245,-11.56176 0.22606,-0.81407 1.31874,-2.44116 2.64767,-3.94261 8.75055,-9.88657 12.82723,-15.5178 15.94971,-22.03173 3.3033,-6.89114 4.77429,-12.87229 4.76171,-19.36137 -0.0185,-9.52849 -3.41382,-17.55852 -10.39359,-24.58097 -5.0395,-5.07031 -9.97007,-8.0414 -16.09557,-9.69894 -2.47016,-0.66842 -3.94456,-0.79438 -9.5024,-0.8118 -5.61233,-0.0176 -7.06171,0.0986 -9.86788,0.79116 -7.80534,1.92632 -14.72566,4.69696 -21.56314,8.63309 -2.21113,1.27289 -4.65908,2.51823 -5.43988,2.76742 -1.68777,0.53866 -4.89688,0.2473 -6.51981,-0.59195 -2.57997,-1.33415 -4.66543,-4.91516 -4.65791,-7.99825 0.005,-2.12009 0.63161,-3.63558 3.19061,-7.71879 3.61289,-5.76482 5.90397,-10.89708 7.64859,-17.13364 0.76803,-2.7455 0.95133,-4.35019 1.10873,-9.70661 0.16734,-5.694204 0.10255,-6.757554 -0.57493,-9.436644 -3.05511,-12.08132 -12.83248,-22.70433 -27.78947,-30.19296 -9.776,-4.894625 -16.31822,-6.602614 -25.07675,-6.546824 -6.96151,0.0443 -10.78059,0.96741 -17.17742,4.151777 -9.85404,4.905377 -19.17283,13.957697 -27.82208,27.026497 -4.85388,7.3341 -6.56019,8.64298 -10.89785,8.3596 -4.79338,-0.31315 -6.7122,-2.02755 -8.41062,-7.51461 -3.37171,-10.89288 -4.85954,-15.09376 -6.59565,-18.62273 -7.39655,-15.034843 -21.21998,-27.308721 -36.3102,-32.239977 -7.26846,-2.375222 -14.20438,-3.306825 -24.61981,-3.306825 -14.60016,0 -25.27698,2.220718 -35.92027,7.471211 -6.38925,3.151914 -9.85723,5.535485 -14.374915,9.879994 -9.55599,9.1897 -15.02194,19.596047 -17.24779,32.837227 -0.41146,2.44769 -0.99961,5.22389 -1.30699,6.16933 -0.96953,2.98208 -4.5346,5.38639 -8.00372,5.39776 -4.39037,0.0144 -6.10107,-1.30783 -9.3212,-7.20445 -3.06877,-5.61945 -6.37104,-11.05349 -8.66704,-14.26197 -8.19003,-11.44496 -17.28209,-18.606603 -28.16361,-22.18396 -2.9481,-0.969207 -3.20543,-0.991147 -10.05061,-0.856977 -7.00277,0.13726 -7.03771,0.14204 -11.0190896,1.507037 -4.98414,1.708797 -11.38903,5.007875 -15.92444,8.20248 -4.2621704,3.00214 -11.2647504,9.94552 -13.6432604,13.5279 -3.73571,5.62653 -6.2518,11.60935 -7.95031,18.9044 -0.5707,2.45113 -0.81508,5.02547 -0.95905,10.102774 -0.27919,9.84544 0.34427,14.24615 3.53939,24.98302 1.12687,3.78673 1.17088,4.14275 0.75764,6.12937 -0.58977,2.83527 -2.20659,4.89408 -4.94205,6.29304 -3.82043,1.95385 -6.10116,1.51477 -13.09424,-2.52086 -8.25941,-4.76641 -11.78976,-5.98657 -19.62309,-6.78209 -11.25611,-1.14312 -21.80591,3.06122 -31.07713,12.38498 -6.818665,6.8573 -11.234485,15.00981 -13.026345,24.04934 -0.92435,4.66314 -0.83028,12.28755 0.21317,17.27787 1.7364,8.30439 4.56205,14.98892 9.769315,23.11093 l 2.86973,4.47606 -0.009,2.92707 c -0.01,3.31004 -0.48084,4.50062 -2.59131,6.55029 -2.780175,2.70007 -5.427435,2.95972 -11.653575,1.143 -6.27367,-1.83058 -11.82165,-2.0675 -17.98915,-0.76823 -9.44694,1.99015 -17.61364,8.90834 -22.89228,19.39254 -10.77375,21.39835 -8.54336,42.23392 6.09816,56.96712 4.92305,4.95387 9.54036,8.1807 18.67358,13.05011 6.03356,3.21682 7.27594,4.31808 8.11422,7.19255 0.5115,1.75396 0.54342,2.42891 0.19428,4.10883 -0.58071,2.79421 -1.89843,4.48368 -5.91263,7.5807 -7.61086,5.87189 -16.91175,15.46492 -20.99793,21.65746 -6.38358,9.67421 -8.97634,17.81408 -8.94999,28.09822 0.0147,5.75085 0.5288,9.07079 2.15723,13.93162 2.80879,8.38423 7.18529,15.60187 12.97891,21.40455 6.97126,6.98218 13.34362,10.0526 22.25409,10.72277 10.02839,0.75426 17.18694,-0.68179 28.247155,-5.66655 5.85587,-2.63919 8.10833,-2.9416 10.99918,-1.47669 3.46961,1.75818 5.08649,4.78548 4.78466,8.95834 -0.12864,1.77831 -0.47803,2.71268 -1.95126,5.21818 -6.30202,10.71771 -8.23857,16.79156 -8.25597,25.89429 -0.0146,7.64416 1.65165,13.41158 5.61196,19.42472 10.89476,16.54203 31.56683,26.6594 50.70063,24.81399 12.62477,-1.21762 22.7365504,-5.76173 34.1644904,-15.35307 2.20031,-1.84669 4.4535296,-3.59187 5.0071596,-3.87816 1.34544,-0.69575 6.58793,-0.69807 7.91373,-0.003 1.2548,0.65737 3.1205,2.63296 3.82607,4.05142 0.29997,0.60304 1.13417,2.98778 1.85378,5.29942 2.1874,7.02665 5.95365,13.93841 10.88116,19.96894 9.1825,11.23801 24.84615,19.63151 41.45033,22.21152 3.98581,0.61932 14.06578,0.72109 19.23015,0.19415 z m 33.023025,-44.96477 c -38.858225,-1.36815 -74.046965,-6.58774 -104.494095,-15.49972 -30.4487696,-8.91247 -56.54593,-22.27116 -76.07167,-38.93976 -15.58682,-13.30605 -27.91669,-28.98493 -36.34551,-46.21759 -7.99785,-16.35156 -12.70055,-31.38655 -15.489705,-49.52212 -3.5334,-22.97474 -3.53442,-44.73106 -0.003,-66.15132 5.073295,-30.77356 17.618805,-60.86956 36.736035,-88.12773 8.83723,-12.6005 21.99174,-27.87932 26.95366,-31.30637 1.77054,-1.22286 2.18772,-1.35346 4.24844,-1.33 1.72013,0.0196 2.79862,0.27725 4.36205,1.04217 2.25561,1.10356 2.7135,1.68338 6.52525,8.2627 7.82953,13.51423 21.8495204,22.97278 39.74995,26.81722 19.53293,4.19504 39.78048,0.65447 55.39158,-9.68601 3.1559,-2.09041 5.23899,-3.91229 10.05012,-8.78991 6.3682,-6.45622 7.26388,-7.08519 10.62453,-7.46088 2.69361,-0.30112 4.14804,0.30449 10.208105,4.25053 23.853,15.53199 55.69059,18.87597 83.5525,8.77571 2.16704,-0.78557 5.83141,-2.21587 8.14305,-3.17844 3.36445,-1.40096 4.7134,-1.77519 6.76133,-1.87575 2.30136,-0.113 2.74189,-0.0168 4.38572,0.95785 1.00506,0.59592 3.1431,2.19164 4.7512,3.54605 16.47414,13.87524 41.01706,18.88716 63.33387,12.93342 11.54072,-3.07887 20.82483,-8.28384 28.62321,-16.04712 4.88404,-4.86206 7.02632,-7.89236 10.39366,-14.70202 1.32389,-2.67728 2.64643,-5.13226 2.93898,-5.45553 1.74506,-1.92826 6.41816,-3.30194 9.35718,-2.75058 2.35695,0.44217 8.38293,6.34831 17.01283,16.67448 29.87184,35.74343 47.8975,81.81877 50.54428,129.19609 0.60698,10.86495 -0.0147,26.70454 -1.49902,38.19234 -4.35979,33.74268 -14.61056,60.28698 -32.4592,84.05296 -3.59386,4.78532 -14.36818,15.97524 -20.32888,21.11302 -20.26071,17.46358 -49.18162,31.35443 -82.78051,39.75988 -34.55369,8.64431 -81.96914,12.98769 -125.17584,11.46643 z m 53.54236,-18.59948 c 36.90888,-2.20782 69.2768,-8.88517 97.93515,-20.20358 7.18411,-2.83731 21.03507,-9.79326 27.29139,-13.70573 35.34784,-22.1052 55.76645,-53.59124 63.16601,-97.40363 8.44105,-49.97903 -2.50051,-101.2294 -30.68234,-143.71645 -5.93202,-8.94313 -15.80714,-21.68675 -16.83858,-21.7298 -0.21186,-0.009 -1.28088,1.17629 -2.3756,2.63363 -1.09472,1.45734 -3.71728,4.43553 -5.82791,6.61819 -6.77237,7.00352 -12.36839,11.01828 -21.74588,15.60117 -12.23172,5.97778 -23.34162,8.63342 -37.70055,9.01169 -10.26132,0.27032 -16.73882,-0.39886 -25.79071,-2.6644 -9.90465,-2.47898 -21.17402,-7.74641 -29.41563,-13.74921 -1.04673,-0.76239 -2.11575,-1.3858 -2.3756,-1.38535 -0.25985,4.6e-4 -2.44603,0.75013 -4.85818,1.66595 -23.39828,8.8836 -51.85033,9.84763 -75.1055,2.54476 -7.45609,-2.34145 -15.1496,-5.57673 -21.153295,-8.8954 -1.88521,-1.04209 -3.55708,-1.89471 -3.71526,-1.89471 -0.15818,0 -1.63837,1.24016 -3.28932,2.75591 -12.63281,11.59826 -28.58532,18.7221 -47.49585,21.20999 -5.6082,0.73783 -19.64344,0.53603 -25.40064,-0.36519 -9.7461296,-1.52566 -18.82433957,-4.39898 -27.2374596,-8.62089 -9.4963204,-4.76547 -16.5278504,-10.21555 -23.4764504,-18.19641 -3.80957,-4.37549 -3.05375,-4.44283 -7.38874,0.65825 -10.45794,12.30611 -20.40051,27.67877 -27.99091,43.27803 -14.11991,29.01824 -20.24201,58.85956 -18.63875,90.852 0.49822,9.94162 0.84332,13.25105 2.24856,21.56313 4.45783,26.36822 14.93852,50.32034 30.06518,68.70966 3.76185,4.57324 14.80434,15.45486 19.42443,19.14145 22.24814,17.75287 53.20974,30.9991 89.35909,38.23031 23.25079,4.65102 41.83024,6.60127 81.501365,8.55507 5.24583,0.25836 41.15867,-0.1184 47.51198,-0.49844 z M 121.79098,369.95932 c -6.74416,-1.813 -13.74966,-6.45301 -14.62676,-9.68787 -1.13969,-4.20328 0.55194,-8.53325 3.87644,-9.92231 2.59854,-1.08574 4.90034,-0.54473 9.42848,2.21604 2.96089,1.80524 6.24888,2.77233 9.42551,2.77233 3.19522,0 5.22239,-0.88777 7.01082,-3.07033 1.54184,-1.8816 3.37165,-5.7236 3.68814,-7.74389 l 0.23414,-1.49456 -3.78346,-1.85001 c -6.2726,-3.06714 -9.25415,-6.6477 -9.20899,-11.05911 0.0414,-4.04641 3.20321,-8.03867 8.2523,-10.41986 3.83993,-1.81096 6.46341,-2.4113 11.5222,-2.63667 5.28902,-0.23563 8.88206,0.25352 13.0618,1.7782 9.79715,3.5738 13.16487,11.16397 7.89902,17.80284 -1.06689,1.34507 -5.41103,4.09931 -8.44724,5.35566 -0.90455,0.37429 -1.7793,0.79316 -1.94389,0.93081 -0.39266,0.3284 1.35014,5.4914 2.53767,7.51776 1.7483,2.98325 4.8399,4.86733 8.00951,4.88114 3.37601,0.0147 6.42086,-1.03386 12.2289,-4.21133 2.0853,-1.14083 2.62879,-1.28364 4.44753,-1.16867 5.227,0.33042 8.16863,5.7652 5.78529,10.68853 -1.77341,3.66337 -7.1938,7.1192 -13.83923,8.82336 -4.0978,1.05084 -10.26805,1.48662 -13.20553,0.93266 -4.40571,-0.83085 -8.86015,-3.11223 -12.70183,-6.50536 l -2.11147,-1.86493 -2.27326,2.05865 c -2.76506,2.50401 -5.50341,4.20054 -8.77402,5.43588 -2.17918,0.8231 -3.11844,0.94425 -8.12877,1.04853 -4.75654,0.099 -6.09758,0.002 -8.3633,-0.60749 z M 24.165975,348.20914 C 14.908115,345.6741 6.7987154,337.39007 4.9212254,328.54996 c -0.79567,-3.74635 -0.49814,-11.69637 0.54685,-14.61195 1.50541,-4.20018 3.04645,-6.55966 6.6282396,-10.14849 2.69038,-2.69567 4.14498,-3.82981 6.40476,-4.99375 4.31382,-2.22191 6.81667,-2.7847 12.42622,-2.79417 4.34976,-0.007 5.01367,0.0843 7.85775,1.08424 8.29899,2.91791 13.77476,8.12292 16.68714,15.86202 2.81077,7.46907 2.33769,14.9003 -1.40204,22.02356 -1.60427,3.05574 -7.70974,9.17954 -10.71664,10.74883 -4.17604,2.17946 -6.46525,2.72813 -12.06073,2.89067 -3.80926,0.11066 -5.63031,0.008 -7.1268,-0.40178 z m 15.10179,-28.34925 c 2.94896,-0.81888 5.70952,-4.42279 5.71879,-7.46591 0.005,-1.70353 -1.33619,-4.76478 -2.59473,-5.92156 -3.4141,-3.13807 -9.3067,-2.42657 -11.88772,1.43537 -2.28449,3.41826 -1.94535,6.90612 0.95277,9.79846 2.3281,2.32346 4.77235,2.9974 7.81089,2.15364 z m 219.946745,28.18153 c -7.24207,-2.06945 -13.58142,-7.34268 -16.84199,-14.00959 -3.37526,-6.90142 -3.45458,-16.18577 -0.1971,-23.07151 2.32762,-4.92019 7.63892,-10.16386 12.78922,-12.62636 3.98511,-1.90539 6.19284,-2.36732 11.32978,-2.37054 3.56487,-0.002 4.89876,0.15622 7.1268,0.84657 7.81049,2.42007 13.53173,7.33451 16.80784,14.43763 2.29579,4.97763 2.93959,9.24085 2.21685,14.68 -1.43035,10.76452 -9.93087,20.07913 -20.33586,22.28342 -3.54651,0.75132 -9.96828,0.66685 -12.89554,-0.16962 z m 17.26478,-29.02112 c 2.7829,-1.63089 4.5443,-5.21859 3.91523,-7.97474 -0.65736,-2.88013 -3.38421,-5.91737 -5.70326,-6.35242 -5.29819,-0.99395 -9.62043,1.94445 -9.97006,6.77797 -0.0845,1.16852 0.0505,2.74313 0.29997,3.49914 0.56752,1.71959 2.60316,4.11939 4.21183,4.61093 1.88761,0.57678 5.47668,0.47618 7.24629,-0.56088 z M 422.784,143.38208 c 2.72829,-2.37678 6.856,-6.80923 10.0603,-10.80301 5.99771,-7.47544 10.98791,-17.79289 13.28115,-27.45938 2.88598,-12.165004 2.60162,-26.722974 -0.78381,-40.128394 -1.00928,-3.996487 -3.96352,-13.230257 -4.4998,-14.064607 -0.38201,-0.59432 -1.06832,-0.47146 -14.42289,2.581957 -29.82181,6.818514 -53.51029,16.63593 -71.59936,29.67353 -2.32543,1.67604 -3.50723,2.75329 -3.38111,3.08197 0.10665,0.27791 0.56055,1.8492 1.00867,3.49175 0.74202,2.71985 0.81547,3.81845 0.82276,12.306124 0.008,9.0118 -0.25218,11.80937 -1.50259,16.17235 -0.25097,0.87569 0.62998,0.83579 5.53332,-0.25059 9.31691,-2.06424 19.27452,-2.21763 26.4842,-0.40798 6.87708,1.72617 13.03875,4.5221 18.83246,8.54547 4.43564,3.08027 11.24204,10.08664 14.37001,14.79221 1.44357,2.17163 2.62467,4.10409 2.62467,4.29435 0,0.71553 0.75127,0.28312 3.17202,-1.82575 z m -538.87764,-3.40183 c 8.87784,-12.02513 22.866875,-21.06292 37.560615,-24.2665 4.73363,-1.03204 16.98525,-0.89769 22.29409,0.24447 2.11063,0.45409 4.25619,0.89847 4.76791,0.98751 l 0.93041,0.16189 -0.15406,-7.949 c -0.17392,-8.97318 0.20294,-13.198214 1.80369,-20.221864 l 1.04847,-4.60037 -1.51762,-1.3825 c -3.41459,-3.11059 -17.94945,-11.26803 -27.52825,-15.44977 -13.18258,-5.755007 -28.743045,-10.721393 -44.975195,-14.35459 -10.37929,-2.323167 -12.62846,-2.724887 -13.02668,-2.326657 -0.19681,0.19681 -1.07115,2.472757 -1.94299,5.057674 -9.76513,28.952743 -6.50518,55.051987 9.54577,76.423667 1.9887,2.64793 8.78493,9.96027 9.25728,9.96027 0.13759,0 1.00905,-1.02791 1.93656,-2.28423 z"
         id="path1"
         sodipodi:nodetypes="ssssssssssssssscssssssssssscscssssssssssssssssssssscssssscssssssscsscsssssssssssssssssssscsssscssssscssssssssssscsssssssssssssssssssssssssssssssssssscssssssssssssssssssssssssssssssssssssccssssssssssssssssssssssscssssccssssscssssssssssssssssssssssssssssssssscssssssssssssssssssssssssscsssssscsssssssssssssssscssscsssssccsssssscsssssssscssssssssssssssssssssscssssssssssscsscsssscsss" /></g></g></svg>
