<?xml version="1.0" encoding="UTF-8" standalone="no"?>
<svg
   width="1000"
   zoomAndPan="magnify"
   viewBox="0 0 750 749.999995"
   height="1000"
   preserveAspectRatio="xMidYMid meet"
   version="1.0"
   id="svg6"
   sodipodi:docname="tiger.svg"
   xml:space="preserve"
   inkscape:version="1.3.2 (091e20e, 2023-11-25, custom)"
   xmlns:inkscape="http://www.inkscape.org/namespaces/inkscape"
   xmlns:sodipodi="http://sodipodi.sourceforge.net/DTD/sodipodi-0.dtd"
   xmlns="http://www.w3.org/2000/svg"
   xmlns:svg="http://www.w3.org/2000/svg"><sodipodi:namedview
     id="namedview6"
     pagecolor="#ffffff"
     bordercolor="#000000"
     borderopacity="0.25"
     inkscape:showpageshadow="2"
     inkscape:pageopacity="0.0"
     inkscape:pagecheckerboard="0"
     inkscape:deskcolor="#d1d1d1"
     inkscape:zoom="1.819"
     inkscape:cx="787.79549"
     inkscape:cy="589.60968"
     inkscape:window-width="3840"
     inkscape:window-height="2054"
     inkscape:window-x="3829"
     inkscape:window-y="-11"
     inkscape:window-maximized="1"
     inkscape:current-layer="svg6" /><defs
     id="defs3" /><g
     id="g7"
     transform="matrix(0.58991886,0,0,0.58991886,-92.815382,163.97738)"
     inkscape:label="g7"><path
       id="rect11"
       style="fill:#ffffff;stroke-width:0.75"
       d="m 528.62539,445.54606 h 528.58071 v 52.18752 H 528.62539 Z"
       inkscape:label="white" /><path
       style="fill:#f4bb5b"
       d="M 743.15866,827.68667 C 595.20858,821.10411 446.74693,781.51332 322.81393,698.64956 295.41946,677.62541 260.94972,681.19184 268.55587,652.6219 225.43752,620.8283 207.549,590.02728 244.14854,526.63501 274.52863,474.01514 286.70443,436.42419 289.24777,387.92145 287.95794,324.78374 310.66171,264.24551 348.81695,214.46089 430.45677,105.23375 563.42291,36.374015 698.67891,26.849763 l 216.38542,9.886728 c 146.53577,41.118805 285.35387,143.560559 338.83317,289.909599 15.4814,63.0607 25.9533,131.14133 44.5856,193.48159 21.2899,65.73408 5.74,132.27857 -38.2312,183.7807 -149.0886,75.16711 -312.85921,133.27779 -482.17045,124.89943 -11.64473,-0.24085 -23.28596,-0.63241 -34.92279,-1.12114 z M 571.11188,483.26283 c 16.24136,-25.42963 18.63378,-41.27717 -31.78367,-36.88312 -12.83629,35.53718 -7.47309,44.85129 31.78367,36.88312 z m 470.64122,5.1875 c 16.7484,-21.05273 10.6437,-40.66293 -21.2179,-44.87925 -15.1776,21.08998 -20.2042,35.62788 21.2179,44.87925 z m 136.657,-328.79088 c -27.6955,-44.45693 -94.2479,-47.6894 -117.7135,-95.269336 13.0831,-40.546046 55.5935,-66.4627584 85.6422,-95.603596 45.0173,-32.860872 90.4134,-67.388588 137.2664,-97.364268 56.1743,-17.32036 85.4153,57.873808 98.1885,100.260128 -4.8445,60.869033 -63.0572,95.495655 -100.3961,137.140062 -29.2781,22.63241 -61.5727,62.58848 -102.9875,50.83701 z M 356.74671,157.15086 C 296.49833,112.4785 230.65373,60.142102 210.39898,-15.402343 206.889,-57.656823 192.60965,-146.37111 262.33234,-132.91332 c 34.4679,9.54192 61.66844,34.25575 96.85363,42.3155 40.35859,13.694648 83.05534,26.433134 110.27764,62.055641 31.80758,31.7507196 86.38685,99.186122 15.17395,116.406519 -40.34169,26.11184 -79.63034,60.02505 -127.89085,69.28652 z"
       id="path9"
       inkscape:label="yellow"
       sodipodi:nodetypes="ccccccccccccccccccccccccccccccccc" /><path
       style="fill:#c56e29"
       d="m 330.28366,702.59788 c -2.0625,-1.55595 -13.11683,-3.5964 -18.68558,-7.74139 -12.30184,-9.15663 -25.67548,-17.52695 -34.46979,-32.09409 l -6.41449,-10.62514 3.40931,-2.95073 c 8.88148,-7.68687 29.54345,-19.65028 49.78555,-28.82616 25.08638,-11.37181 65.84032,-25.66734 75.18032,-26.3715 10.62934,-0.80136 20.96143,3.43036 29.44468,12.05968 19.46858,19.80379 15.48348,48.86974 -8.42266,61.43206 -2.92273,1.53585 -11.84204,5.01366 -19.8207,7.72846 -7.97865,2.71481 -19.73789,6.99851 -26.13164,9.51935 -14.1,5.55915 -40.20096,18.53073 -39.9375,19.84802 0.24332,1.21661 0.40675,1.29873 -3.9375,-1.97856 z m 878.25004,-2.48296 c -19.2022,-10.51339 -43.3234,-20.57639 -65.2268,-27.21163 -22.6247,-6.85379 -32.7789,-18.9525 -32.7437,-39.01435 0.019,-11.05885 3.4202,-20.40301 10.1498,-27.88803 8.441,-9.3884 21.6281,-13.79586 34.5463,-11.54625 8.8191,1.53578 42.5257,13.41046 62.2744,21.93897 29.7985,12.86861 61.875,31.81399 61.875,36.54541 0,2.44452 -23.394,28.68466 -38.6261,40.57822 -6.2783,4.90226 -21.4302,12.00569 -22.0335,11.96628 -0.256,-0.0167 -4.8529,-2.4326 -10.2154,-5.36862 z M 247.21204,622.45144 c -2.46575,-2.74472 -17.38563,-17.85661 -18.92715,-21.879 -1.10661,-2.88757 -3.03922,-10.36428 -3.29333,-15.55932 -0.5929,-12.12119 -2.94922,-21.98229 11.84345,-38.66608 l 10.15932,-11.4581 14.64467,-7.06964 c 40.79976,-19.6959 85.35341,-34.56844 104.26966,-34.80646 19.43138,-0.24449 36.82409,15.60787 39.3694,35.88274 1.20892,9.62976 -3.32732,21.42534 -11.22075,29.17733 -8.22903,8.08158 -13.53562,10.46748 -38.64865,17.37689 -26.19429,7.2069 -57.34003,20.96235 -91.5,40.41078 -7.63125,4.34473 -14.24457,7.90037 -14.69626,7.90143 -0.45169,10e-4 -1.35185,-0.58869 -2.00036,-1.31057 z m 1051.32166,-0.0905 c -1.65,-0.75353 -8.2313,-4.34934 -14.625,-7.99071 -35.7781,-20.3763 -68.683,-34.24668 -98.8833,-41.6821 -15.7194,-3.87019 -21.9982,-6.68559 -27.7599,-12.44753 -7.3008,-7.30118 -10.7244,-16.21962 -10.7639,-28.04011 -0.065,-19.36985 12.0836,-34.80712 30.4443,-38.68672 6.9723,-1.47324 12.5237,-0.91287 27.3623,2.76202 26.9433,6.67267 51.0046,15.54623 82.038,30.25477 4.8468,2.29722 8.8164,3.93637 8.8212,3.64256 0.017,-1.06023 13.6158,16.87159 16.9928,25.40982 3.7325,9.43719 9.0903,22.99442 9.861,30.91616 0.5754,5.91348 -6.3617,17.59318 -8.3083,22.71612 -1.697,4.46616 -10.3571,14.55518 -11.418,14.53223 -0.4187,-0.009 -2.1112,-0.63299 -3.7612,-1.38651 z m -660.37504,-6.22457 c 0,-0.59777 0.71067,-3.89719 1.57927,-7.33203 7.32601,-28.97042 35.70402,-70.15739 64.06344,-92.97968 44.99142,-36.20691 89.95453,-37.37164 135.18514,-3.50184 9.47209,7.09293 25.94823,23.30202 34.16811,33.6143 11.84232,14.85682 22.77163,32.61821 28.73755,46.7018 3.38633,7.99404 7.04525,19.74707 6.97239,22.3964 -0.0421,1.53101 -0.0846,1.53981 -0.9375,0.19437 -2.90806,-4.58716 -8.01293,-9.91495 -13.36228,-13.94581 -7.05328,-5.31481 -22.38871,-13.03759 -33.34138,-16.79041 -44.72784,-15.32553 -109.66912,-17.17168 -159.57475,-4.5364 -29.51268,7.47213 -51.99473,20.0195 -61.54564,34.34901 -1.06939,1.60444 -1.94435,2.42807 -1.94435,1.83029 z M 762.73713,301.57705 c -14.30328,-3.84637 -25.76944,-17.5305 -27.98145,-33.39406 -0.4827,-3.46173 -0.94648,-6.39791 -1.03063,-6.52485 -0.0842,-0.12695 -5.33664,0.66956 -11.67219,1.77001 -12.66068,2.19909 -31.42157,6.68297 -40.7692,9.74389 -7.2454,2.37254 -19.44683,3.25423 -26.05361,1.88267 -9.61014,-1.99506 -19.60789,-9.73579 -24.14906,-18.69737 -2.77517,-5.47653 -4.92453,-14.35011 -4.91124,-20.27587 0.0425,-18.95659 10.80869,-31.89197 32.14444,-38.62103 17.58159,-5.54504 46.40261,-11.9833 64.21947,-14.34584 5.3625,-0.71108 10.17188,-1.40778 10.6875,-1.54822 0.72019,-0.19617 0.9375,-4.89278 0.9375,-20.26151 v -20.00615 l -6.9375,0.52151 c -25.69572,1.93159 -63.40842,9.02989 -91.3125,17.18687 -12.65091,3.69814 -13.46363,3.83754 -22.5,3.85928 -7.91647,0.019 -10.16457,-0.25014 -14.45012,-1.73028 -16.44,-5.67806 -27.36476,-24.84628 -24.57605,-43.12032 1.90932,-12.51151 9.1551,-22.095695 21.4648,-28.392101 8.3515,-4.271789 14.98599,-6.44414 32.56137,-10.661673 38.44587,-9.225787 72.70102,-14.937105 102.75,-17.131378 l 2.625,-0.191686 v -14.25 -14.25 l 1.74615,-1.425105 c 24.94814,-20.361179 44.22898,-1.331006 61.10808,-0.800974 8.53474,0.268005 17.24424,-3.849603 16.23805,2.70387 l 0.20386,14.011104 0.20386,14.011105 10.875,0.960193 c 34.09378,3.010266 77.09273,11.539548 111.93892,22.20423 24.34343,7.450313 35.31341,16.954365 38.10506,33.013055 3.20731,18.44979 -7.31327,38.24274 -24.03498,45.21833 -4.35147,1.81524 -5.82444,2.03741 -13.509,2.03753 -8.33239,1.2e-4 -9.0411,-0.1327 -20.89014,-3.91514 -20.31775,-6.48582 -45.86773,-12.46911 -67.60986,-15.83289 -12.22842,-1.89188 -28.56398,-3.81031 -32.44515,-3.81031 h -2.82935 l 0.19975,20.00312 0.19975,20.00312 11.625,1.69711 c 20.41941,2.981 41.1647,7.95498 61.08069,14.64498 14.63972,4.91764 19.12468,7.32466 25.62738,13.75387 16.71772,16.5288 16.39508,40.06244 -0.76379,55.71217 -2.37559,2.16666 -6.73801,5.08869 -9.69427,6.4934 -11.73136,5.57436 -20.71337,5.60644 -36.50001,0.13039 -12.78412,-4.43455 -26.71054,-8.10484 -39.98743,-10.53862 -5.69933,-1.04475 -10.67746,-1.89954 -11.0625,-1.89954 -0.38504,0 -0.70007,1.44784 -0.70007,3.21743 0,4.36959 -1.87509,11.24686 -4.32191,15.85142 -2.81194,5.29169 -12.29413,14.57818 -17.86418,17.49549 -8.73783,4.57644 -19.1413,5.87709 -27.98544,3.49877 z M 384.90183,21.035787 C 377.84949,18.536862 372.12111,10.925801 368.88777,-0.24139543 366.5619,-8.2744274 366.00839,-26.617999 367.73375,-38.486058 c 1.45623,-10.01686 4.0575,-21.111391 7.01015,-29.898638 l 2.08095,-6.193007 9.10406,4.845934 c 18.09685,9.632642 37.70064,31.516632 49.3109,43.958419 7.7349,8.288878 6.80582,7.478491 -2.12427,19.3289106 -6.39393,8.484895 -16.51101,18.4822544 -22.72845,22.4595014 -8.87472,5.677089 -18.35955,7.545649 -25.48526,5.020725 z m 801.09217,0.213414 c -12.0617,-3.927266 -25.5235,-15.7955174 -36.8804,-32.51476 -4.1379,-6.09156 -4.2506,-6.187488 -5.7751,-4.91313 -3.8307,3.202208 13.006,-17.62475 21.3622,-25.369286 14.5797,-13.51242 41.8791,-32.188083 44.0392,-32.188083 1.3011,0 6.802,19.695373 8.9028,31.875 1.962,11.375012 1.7932,32.5735936 -0.3207,40.2801506 -3.0704,11.194136 -8.1575,18.7466304 -14.7883,21.9554464 -3.7175,1.798969 -12.306,2.253152 -16.5397,0.874662 z M 291.23895,-13.688901 C 271.60986,-18.387655 252.29052,-51.44988 244.75696,-93.23606 l -1.01412,-5.625 1.9216,-1.59889 c 6.18595,-5.1471 21.38735,-13.33513 32.28699,-14.05296 12.76347,-0.84057 31.63217,5.30223 46.81015,11.29705 l 7.22791,2.8548 -0.21605,14.25 c -0.40753,26.87921 -5.29881,46.964102 -14.6958,60.344939 -7.08997,10.095749 -16.24336,14.37412 -25.83869,12.07722 z m 992.66975,0.0464 c -4.4464,-1.463932 -8.2744,-4.034946 -11.8776,-7.977437 -11.2854,-12.347956 -17.1774,-33.062103 -17.9176,-62.991122 l -0.3895,-15.75 3.5002,-2.73636 c 19.2972,-15.08597 41.3086,-13.0693 55.9977,-10.50479 9.0229,1.57527 16.5316,5.86032 23.5755,9.89056 6.5647,3.75603 5.6564,3.73496 2.9693,17.00631 -3.7916,18.726179 -11.6936,39.03404 -20.2676,52.087127 -4.9862,7.590913 -13.8575,16.22108 -19.4622,18.932971 -4.7499,2.29834 -12.4065,3.268091 -16.1282,2.042741 z"
       id="path8"
       inkscape:label="light brown"
       sodipodi:nodetypes="ssscssssssssssssssssssssssscssssssssssssssssssssssssssssssssssssssssssssssscsssssssscccsscccsssssssscccsssssssssssssssscsssssssssssssssscssscsssssscsssssss" /><path
       style="fill:#ede493"
       d="m 1219.5097,191.70263 c -5.0839,-6.99 -14.3218,-18.41592 -21.087,-26.08136 -3.3832,-3.8335 -6.0361,-7.07291 -5.8952,-7.19868 0.1409,-0.12577 3.7999,-2.51012 8.1312,-5.29856 30.4354,-19.59411 69.4849,-49.84919 89.5214,-69.360088 26.1141,-25.428961 44.139,-49.166316 69.4931,-91.5166294 6.2919,-10.5096036 12.6433,-20.7653286 14.1143,-22.7904996 l 2.6746,-3.682128 0.5996,2.182128 c 1.0733,3.905692 1.7707,23.6763246 1.2181,34.5314786 -2.1239,41.7199334 -19.2018,86.0309014 -45.8832,119.0505584 -24.3767,30.16751 -58.3435,54.64302 -97.2379,70.06684 -13.352,5.2948 -11.8752,5.28565 -15.649,0.0969 z M 323.00906,178.65292 C 283.63972,157.06516 253.26178,127.54631 233.23954,91.422098 214.64178,57.867956 204.85068,15.418843 207.51578,-20.102729 c 0.48469,-6.460127 1.16021,-12.244147 1.50115,-12.853377 0.83092,-1.484778 4.09083,3.274912 16.24582,23.7200476 32.4949,54.6575904 57.24462,84.3319854 97.14594,116.4759584 13.55888,10.92286 32.41331,25.16325 41.78005,31.55569 l 5.35804,3.65665 -10.18705,10.96835 c -5.60287,6.03259 -13.73206,15.27148 -18.06487,20.53085 -4.33281,5.25938 -8.24533,9.55135 -8.6945,9.53773 -0.44917,-0.0136 -4.76525,-2.18994 -9.5913,-4.83625 z"
       id="path10"
       inkscape:label="tan" /><path
       style="fill:#41130d"
       d="m 734.15866,866.31117 c -1.85625,-0.14647 -9.28125,-0.63323 -16.5,-1.08168 -120.03821,-7.45705 -243.62886,-39.98571 -343.5,-90.4081 -50.40062,-25.44599 -86.52725,-50.88037 -120.80643,-85.05186 -32.50645,-32.40431 -51.9249,-59.71188 -58.93651,-82.88059 -1.90342,-6.28952 -2.04378,-7.69653 -2.05756,-20.625 -0.0134,-12.58584 0.17964,-14.70307 2.07789,-22.78738 4.26758,-18.17495 8.51285,-28.40207 28.36692,-68.33762 22.2551,-44.76514 26.40295,-56.57552 27.65724,-78.75 1.85978,-32.8789 2.29703,-38.59032 3.74631,-48.93459 6.64385,-47.42082 23.41026,-94.7397 49.10963,-138.59926 3.54259,-6.04593 6.33452,-11.06263 6.20429,-11.14823 -0.13023,-0.0856 -4.62428,-2.6288 -9.98678,-5.65155 -56.64072,-31.92744 -98.23493,-81.25236 -118.59222,-140.633801 -9.64046,-28.120853 -13.60107,-53.83065 -12.81423,-83.181866 0.78853,-29.414589 5.75325,-51.589461 16.68411,-74.519393 17.35655,-36.40929 43.64253,-57.47501 79.47234,-63.68957 10.9223,-1.89444 34.61529,-1.11653 47.25,1.55135 30.7007,6.48259 61.48032,21.7194 94.03441,46.54978 42.85635,32.688337 101.31326,94.7694506 124.95659,132.703631 1.94659,3.123175 3.66346,5.678501 3.81526,5.678501 0.1518,0 5.09499,-1.819845 10.98487,-4.0441 C 644.34847,-4.9254654 765.99728,-16.761888 876.65866,0.23107257 931.55761,8.6612556 985.6313,24.401029 1032.0837,45.472208 l 11.3843,5.164007 5.0675,-8.60611 c 17.7359,-30.121027 41.2196,-58.849791 79.3527,-97.076153 37.0558,-37.146482 66.4521,-59.825232 98.6455,-76.103462 26.6789,-13.48992 51.0037,-19.82607 76.125,-19.82911 19.119,-0.002 32.3882,2.91164 47.625,10.45859 21.4421,10.62058 37.8849,28.13514 50.3751,53.65897 20.5379,41.96909 22.9467,96.8260536 6.6361,151.125002 -4.56,15.180502 -13.9158,36.774058 -21.9226,50.597738 -5.7985,10.01124 -15.5062,24.2923 -22.4506,33.02726 -8.4123,10.58136 -28.283,30.45525 -38.888,38.89415 -20.9481,16.66939 -48.4204,32.65842 -71.8098,41.79376 -3.6079,1.40915 -6.561,2.84116 -6.5625,3.18223 -10e-4,0.34108 2.0095,4.23093 4.4689,8.64411 15.1951,27.26623 28.764,61.17067 36.8137,91.98575 7.0617,27.03321 10.3926,48.9678 11.9589,78.75 1.9837,37.72147 4.1058,44.76221 28.7808,95.49041 17.0612,35.07534 21.6871,46.60599 25.1971,62.80633 6.6987,30.91863 1.4185,50.89111 -21.9302,82.95085 -35.7821,49.13191 -87.4669,90.01426 -157.6669,124.71346 -80.1838,39.63408 -170.3374,67.15185 -264.08777,80.60805 -47.01706,6.74846 -71.48896,8.42337 -126.66227,8.66907 -24.75,0.11021 -46.51875,0.0805 -48.375,-0.0659 z m 99.375,-39.24004 c 58.38468,-4.50408 105.39405,-11.89904 155.78681,-24.50654 78.48623,-19.63605 156.16383,-50.77304 212.08823,-85.01532 43.2568,-26.48604 78.7308,-59.11826 101.9525,-93.78533 9.7899,-14.61509 12.0475,-20.76423 12.0475,-32.81419 0,-16.55899 -4.5303,-29.56722 -25.1593,-72.24243 -16.0083,-33.11617 -21.8278,-47.74413 -26.1366,-65.69719 -2.4082,-10.034 -3.3057,-18.17608 -4.2022,-38.12119 -1.9501,-43.38734 -10.8972,-81.73215 -28.525,-122.25 -27.6163,-63.4769 -76.1232,-122.71995 -135.7269,-165.7677 C 1020.093,72.295265 920.93556,39.205057 813.65866,32.763932 c -16.0779,-0.96535 -59.55074,-0.958805 -77.25,0.01163 -106.93411,5.863111 -206.72523,37.574161 -282.75,89.850668 -35.62097,24.49387 -69.22121,56.40354 -94.51832,89.76271 -27.85483,36.73203 -48.52819,80.13636 -59.56508,125.05863 -5.86573,23.87467 -8.33378,41.77292 -9.43759,68.44137 -1.76475,42.63684 -5.55684,55.34263 -31.25936,104.73769 -19.35615,37.19862 -28.01285,60.59187 -27.95663,75.54805 0.02,5.31155 1.87827,12.92144 4.35205,17.82196 3.2769,6.49151 14.73759,23.5253 21.62601,32.1423 41.1618,51.49097 111.63982,98.17811 202.51626,134.15394 16.54067,6.54806 51.39743,18.36336 68.86766,23.34388 63.96715,18.23617 135.7389,30.20721 204.375,34.08837 15.15754,0.85712 87.35447,0.38904 100.875,-0.654 z m -116.625,-71.23005 c -15.20783,-3.36486 -29.61754,-11.56879 -33.3002,-18.95891 -3.95635,-7.93937 -1.73989,-18.50422 4.78847,-22.82449 5.52317,-3.65506 13.77585,-3.24899 18.73245,0.92172 4.91614,4.13665 18.60019,9.28454 24.68007,9.28454 4.08562,0 9.62721,-2.24047 13.09791,-5.29551 6.21874,-5.47396 11.0013,-18.7017 11.0013,-30.42773 v -3.27676 l -3.5625,-0.007 c -10.18019,-0.0206 -34.75178,-3.72697 -49.6875,-7.49478 -26.18106,-6.60467 -45.55978,-16.1527 -56.70223,-27.9376 -10.5249,-11.13175 -12.54086,-21.25861 -6.63497,-33.32981 8.99042,-18.37574 44.94358,-35.06768 89.2122,-41.41846 31.44207,-4.51068 68.78801,-3.95396 99.375,1.48139 79.84991,14.18943 108.11591,55.10211 58.6793,84.93338 -19.38767,11.699 -51.27109,20.46293 -84.5773,23.24812 l -11.227,0.93885 0.26968,4.10556 c 0.62266,9.47924 5.48967,22.80269 10.08586,27.61004 1.31695,1.37746 3.98637,3.31808 5.93203,4.3125 7.4196,3.79212 20.45332,1.48607 31.20364,-5.52084 6.01783,-3.92233 9.12522,-4.93486 13.77397,-4.48818 10.61735,1.0202 16.85053,13.13262 11.95856,23.23809 -6.44329,13.31006 -33.58576,24.00406 -54.78739,21.58596 -13.02264,-1.48526 -22.13642,-5.62941 -30.55845,-13.8953 l -5.3721,-5.27251 -3.43817,3.89966 c -4.83362,5.48242 -13.49909,11.05944 -20.90675,13.45542 -8.40999,2.72017 -22.59481,3.22178 -32.03588,1.13287 z M 529.91975,543.46434 c -20.4971,-5.03698 -36.56302,-21.41393 -41.86664,-42.67719 -2.18694,-8.76788 -1.70987,-21.6429 1.12637,-30.39821 6.86461,-21.19059 24.70066,-36.16269 46.9569,-39.41699 11.63692,-1.70154 22.16564,0.10439 33.77228,5.79275 6.09114,2.98524 8.16846,4.5354 14.31615,10.68309 6.14376,6.14376 7.70029,8.22891 10.68671,14.31615 4.98969,10.17051 6.10526,14.99881 6.06499,26.25 -0.0392,10.95822 -1.20224,16.16281 -5.6283,25.18698 -7.37331,15.0332 -21.21335,26.14915 -37.74702,30.31741 -7.80492,1.96767 -19.54782,1.94476 -27.68144,-0.054 z m 35.50337,-62.20778 c 5.57722,-2.84528 8.99623,-8.62277 8.96907,-15.15603 -0.0534,-12.8469 -13.12303,-20.85687 -24.65496,-15.11027 -8.60371,4.28741 -11.84531,14.18175 -7.49617,22.8806 1.75871,3.51766 6.78816,7.81256 10.29637,8.79258 3.60477,1.00699 9.39284,0.37504 12.88569,-1.40688 z m 440.61058,62.63288 c -24.94737,-5.57298 -42.33738,-25.71195 -45.01043,-52.1255 -0.64519,-6.37538 0.71362,-15.9494 3.30161,-23.26276 11.97173,-33.83069 52.37102,-48.43386 83.24642,-30.09115 25.0303,14.87023 34.9563,46.22547 23.1047,72.98515 -7.266,16.40584 -23.8855,29.59159 -41.3426,32.80068 -5.9408,1.09209 -17.7336,0.937 -23.2997,-0.30642 z m 30.9047,-61.50456 c 5.2539,-1.56026 9.6054,-6.01011 11.1826,-11.43542 3.8916,-13.38674 -8.0014,-24.93586 -21.7479,-21.11901 -1.7673,0.49072 -4.2794,2.18292 -6.3957,4.30831 -5.6305,5.65467 -6.823,12.56204 -3.3662,19.49889 2.2206,4.4562 5.5526,7.31846 10.2138,8.774 4.2299,1.32084 5.5876,1.31725 10.1134,-0.0268 z m 205.7203,-293.36386 c 74.325,-32.05745 122.6675,-93.010025 134.6372,-169.757079 1.8957,-12.1552444 2.2909,-35.842528 0.7879,-47.231684 -6.19,-46.90569 -30.0342,-77.748687 -64.3911,-83.291047 -7.1719,-1.15695 -22.6026,-0.59818 -30.534,1.10568 -24.8135,5.3305 -51.6277,18.66354 -80.6233,40.0889 -35.6458,26.339352 -69.1441,60.8335206 -101.5858,104.605997 -9.0378,12.194421 -21.9497,31.66349 -22.0771,33.288893 -0.054,0.690572 3.7142,3.449125 9.6612,7.072307 52.2292,31.820313 97.5872,72.347703 129.6594,115.850673 l 4.508,6.11471 6.0413,-2.22537 c 3.3227,-1.22396 9.585,-3.75385 13.9163,-5.62198 z M 341.29994,174.70144 c 34.90476,-42.34165 78.23373,-78.584079 127.73372,-106.842622 6.1875,-3.532318 15.04688,-8.320274 19.6875,-10.639902 4.64063,-2.319627 8.4375,-4.492089 8.4375,-4.827693 0,-1.569117 -14.35706,-21.156897 -28.12902,-38.377282 -39.65838,-49.588643 -85.0869,-88.866063 -127.12098,-109.908581 -22.3455,-11.1863 -40.42892,-16.16665 -58.70669,-16.16838 -32.51196,-0.003 -56.28034,19.35103 -69.12022,56.283188 -15.90486,45.748148 -5.94889,108.67179 24.98501,157.910112 15.21073,24.21133 38.21932,47.72492 62.7169,64.09346 10.88015,7.26978 29.3907,17.96711 31.19167,18.02581 0.24292,0.008 3.98899,-4.28873 8.32461,-9.54811 z"
       id="path7"
       inkscape:label="brown" /></g></svg>
